<svg xmlns="http://www.w3.org/2000/svg" viewBox="0 0 558.17 540.83"><defs><style>.cls-1{fill:#fff;}.cls-2{fill:#ffc107;}.cls-3{fill:#40c0f0;}</style></defs><g id="Plasmid"><g id="Layer_24" data-name="Layer 24"><path class="cls-1" d="M119.42,23.41a22.72,22.72,0,0,1,.84,7.74c-.05.86-.24,2.65-.42,3.88s-.45,2.67-.72,4c-1.27,6.13-2.93,12.16-3.7,18.37l2.89,2c.53-5.36,1-10.71,1.69-16,.59-4.93,1.14-9.91,2.17-14.76.74-3.5,2.51-7.15,6.58-7.46a5.12,5.12,0,0,1,2.36.32c.29.14,1.75,1.08,1.57,1.34,0-.06,0-.27,0-.37s.21-.47,0-.21c0,.07,0,.24-.13.54a8.7,8.7,0,0,1-1.4,2.44,13.31,13.31,0,0,1-11.67,4.95c-2-.18-2.25,7.3,0,7.5a15.1,15.1,0,0,0,12.84-5.55,14.65,14.65,0,0,0,3.24-7.7c.35-3.14,0-6.95-2.38-9.28a6.05,6.05,0,0,0-5.86-1.21A9,9,0,0,0,122,18.18a23.92,23.92,0,0,0-2.65,8c-.58,3.19-1.06,6.41-1.5,9.63-1,7.18-1.69,14.4-2.4,21.61-.12,1.21-.23,3.89,1,4.61s1.76-1.95,1.84-2.61c.79-6.36,2.68-12.52,3.83-18.81,1.27-6.92,1.77-14.1-.13-21-.24-.89-1.06-2.7-2.05-1.35s-.94,3.69-.54,5.13Z"/><path class="cls-1" d="M151,14.48a319.62,319.62,0,0,0-6.66,38.88c-.13,1.21-.22,3.89,1,4.61s1.77-1.95,1.84-2.62a306.73,306.73,0,0,1,6.36-37.09c.36-1.53.44-3.79-.54-5.13s-1.84.45-2,1.35Z"/><path class="cls-1" d="M168.25,29.14c-3.34,2.67-6.45,5.57-7.64,9.82-1.27,4.54-.39,10,3,13.43a8.6,8.6,0,0,0,4.8,2.51c2.29.33,3.57-1.9,4.55-3.64a32.73,32.73,0,0,0,4-13.66c.19-2.86.06-6.92-2.49-8.82a3.42,3.42,0,0,0-4.95.68l2.2,4.23-.07.46-.54,1.35c.11-.19.06-.18.33-.23a1,1,0,0,1,.79.13c.59.35.68.86,1,1.48L175.88,43l5.44,12c.18.39.51,1.1,1.06,1.1s.9-.7,1.06-1.1a7.45,7.45,0,0,0,0-5.3l-6.69-14.84c-.56-1.24-1.11-2.48-1.67-3.71a8.11,8.11,0,0,0-1.79-2.77,2.38,2.38,0,0,0-2.65-.43c-1.33.61-1.79,2.37-1.87,3.7a7.16,7.16,0,0,0,.54,3.94c.4.71,1.07,1.15,1.66.3.41-.59,1.6-.55,2.33-.13,0,0,1,.77.77.82s-.08-1.07-.1-.54,0-.09,0-.15c0,.29-.05.57-.09.85s-.14.9-.11.75c.06-.32,0,.25,0,.25,0,.23-.08.47-.13.7-.17.81-.37,1.62-.59,2.42a20.06,20.06,0,0,1-1.51,3.72c-.58,1.08-1.36,2.9-2.79,2.81a7.11,7.11,0,0,1-4.62-2.66,5.91,5.91,0,0,1-.83-1.38c-.06-.13-.11-.26-.16-.4,0,.06.12.43,0,.09,0-.11-.16-.7-.07-.24s0,0,0-.11,0,.72,0,.29,0,.27,0,.29c0-.32.19-.33,0,0,.06-.11.11-.46,0-.13.85-2.81,3.68-5,6-6.83,1.2-1,1.23-3.24,1.05-4.62-.07-.56-.67-3.56-1.84-2.62Z"/><path class="cls-1" d="M197.61,24.54a43.43,43.43,0,0,0-10.29,3.08c-4,1.93-3.27,8.24-1.48,11.45,1.51,2.73,4.35,5,6.84,6.79a36,36,0,0,0,8.83,4.71l-.36-6.85a11.84,11.84,0,0,1-9.72,4.49c-2.08-.05-2.17,7.45,0,7.5a13.75,13.75,0,0,0,11.23-5.52,6.06,6.06,0,0,0,.72-3.73c0-.73-.19-2.79-1.07-3.12a36.28,36.28,0,0,1-13-8.29,14.06,14.06,0,0,1-1.86-2.34c-.29-.45,0-.81-.19,1.32s-.43,1.69.26,1.17a7,7,0,0,1,1.71-.79A53.33,53.33,0,0,1,197.61,32c2.31-.46,1.79-7.85,0-7.5Z"/><path class="cls-1" d="M214.4,54.11l5.24-21.77-2.06,1.35A18.88,18.88,0,0,1,220,38.14a13.55,13.55,0,0,1,.6,2.08c0,.18.07.36.11.54,0-.28,0-.22,0,.2s.11,1,.14,1.47c.06.77,1,4,2.21,2.24L228,37.46h-1.51a29.51,29.51,0,0,1,3.49,7,28,28,0,0,1,.9,3.56l.07.37c0-.23,0-.22,0,0l.12.92c0,.37.07.74.11,1.11.08.81,0-.39,0,.49s.1,3.69,1.5,3.75,1.53-3,1.5-3.75A38.07,38.07,0,0,0,228,31a.83.83,0,0,0-1.51,0l-4.92,7.21,2.21,2.24a26.31,26.31,0,0,0-4.64-13.23c-1-1.36-1.84.47-2,1.35l-5.24,21.76c-.37,1.53-.44,3.8.53,5.14s1.84-.46,2.06-1.35Z"/><path class="cls-1" d="M240.28,41.19l3.42,11.7c.15.51.37,1.41.9,1.72a.83.83,0,0,0,1.16-.37,5.09,5.09,0,0,0,.68-2.25,7.81,7.81,0,0,0-.15-2.89l-3.42-11.69c-.15-.52-.37-1.41-.9-1.73a.85.85,0,0,0-1.16.38,5.09,5.09,0,0,0-.68,2.24,7.8,7.8,0,0,0,.15,2.89Z"/><path class="cls-1" d="M240.54,31.3c2.12,0,2.15-7.5,0-7.5s-2.14,7.5,0,7.5Z"/><path class="cls-1" d="M262.23,13.2c-1.49,10-.16,19.9,1.24,29.78.07.44.12.88.17,1.33.06.64,0-.49,0,.14,0,.45,0,0,0-.05,0,.72-.08.35,0,.19s0,.09-.12.26a3.25,3.25,0,0,1-.59.64,5.1,5.1,0,0,1-4.45.6,9.22,9.22,0,0,1-4.29-2.56c-.12-.13-1.56-1.83-1.34-2,0,0,0,1.28,0,1.3s.17-.36.31-.58C255.8,38,261.82,38.57,266,39c2,.18,2.26-7.29,0-7.5-5.07-.48-10.82-.58-14.12,4-3.49,4.84-2.24,12.06,2.13,15.86,3,2.61,8.37,3.85,11,0,1.72-2.51,1.8-5.95,1.55-8.87s-.81-5.57-1.16-8.36a68.7,68.7,0,0,1-.27-18.94c.18-1.19.2-3.91-1-4.62s-1.75,2-1.85,2.62Z"/><path class="cls-1" d="M318.37,18.5a193.71,193.71,0,0,1,.41,30.37c-.08,1.23-.26,3.87,1.05,4.62s1.8-1.94,1.84-2.62a217.77,217.77,0,0,0-.41-34.36c-.07-.77-.56-3.33-1.85-2.62s-1.15,3.5-1,4.61Z"/><path class="cls-1" d="M320.37,18.18c3.76,1.14,7.82,2.4,10.65,5.28a8.24,8.24,0,0,1,2.11,3.37c-.13-.52,0,.5,0,.09,0,.32-.07.65-.11,1-.16,1-.38,2-.59,3-.71,3.49-1.58,7-3.79,9.92a10.7,10.7,0,0,1-8.87,4.44c-2-.11-2.21,7.38,0,7.5,7.71.4,12.22-7.07,14.14-13.5.53-1.78.92-3.6,1.28-5.42a36.37,36.37,0,0,0,.93-6.88,14.7,14.7,0,0,0-4.47-10.89c-3.08-2.95-7.33-4.2-11.31-5.41-1.54-.47-2.35,6.78,0,7.5Z"/><path class="cls-1" d="M347.14,41.29a14.18,14.18,0,0,0,6.49-1.16c2-.86,4.37-2.36,5.21-4.5a9.18,9.18,0,0,0-.08-6.51,7,7,0,0,0-2.35-2.74c-1.77-1.35-3.74-2.71-6-3-5.25-.67-8,5-8.49,9.35-.57,5.32,1,11.38,4.78,15.31,3.25,3.42,8.79,4.84,12.74,1.67,1.19-1,1.23-3.23,1-4.61-.07-.56-.67-3.56-1.84-2.62a7.52,7.52,0,0,1-6.8,1.19,9.81,9.81,0,0,1-5.51-4.54,13.38,13.38,0,0,1-1.2-2.73c-.07-.23-.12-.46-.18-.69,0,0-.12-.57-.06-.25s-.11-.93-.07-.47,0-.89,0-.41,0-.17,0-.2c-.09.37,0,0,.05-.14-.07.2.14-.35.17-.43a1.18,1.18,0,0,1,.21-.4,5.61,5.61,0,0,1,1.09-1.29,4.93,4.93,0,0,1,2.95-1.27,7,7,0,0,1,4.18,1.27c.69.43,1.35.91,2,1.4.27.21.57.42.83.65.63.59.29.91.1-.75v-2l.32-1.16-.19.24-.42.36a11.63,11.63,0,0,1-1.11.85A13.67,13.67,0,0,1,352.54,33a12.56,12.56,0,0,1-5.4.77c-1.33-.09-1.51,2.93-1.5,3.75s.12,3.66,1.5,3.75Z"/><path class="cls-1" d="M371.14,25.63A13.38,13.38,0,0,0,366,26.85a6.73,6.73,0,0,0-3.12,4.3,10.23,10.23,0,0,0,.64,7.51c.94,1.58,2.67,2.28,4.22,3.11,1.77.94,3.55,1.85,5.3,2.82a7.82,7.82,0,0,1,1.73,1.16s.59.57.34.38a6.72,6.72,0,0,1-.14-2.85c-.15.33-.18.39-.1.19A6.36,6.36,0,0,1,367.62,46c-1.58-.45-2.36,6.82,0,7.5a7.91,7.91,0,0,0,8.07-2.67c2.79-3.25,3.18-9.51-.27-12.42a25.61,25.61,0,0,0-4.66-2.68,51.12,51.12,0,0,1-4.89-2.65c-.17-.12-.58-.61-.73-.67a2.64,2.64,0,0,1,.31,1.7,3.83,3.83,0,0,1-.16,1.31c-.17,0,.15-.27.25-.4a3.19,3.19,0,0,1,.66-.61,9.85,9.85,0,0,1,4.94-1.29c1.37-.13,1.52-2.78,1.5-3.75,0-.74-.16-3.88-1.5-3.75Z"/><path class="cls-1" d="M387.26,29.94a48.21,48.21,0,0,0,.9,18c.2.85,1.12,2.74,2,1.35a7.12,7.12,0,0,0,.54-5.13c-.15-.61-.28-1.21-.4-1.82,0-.1-.19-1-.11-.54s-.06-.44-.08-.54c-.09-.61-.16-1.23-.22-1.85,0-.28-.05-.57-.07-.85l0-.29c0-.43,0-.38,0,.14a7.39,7.39,0,0,1,0-1.72q0-.86,0-1.71c0-.88-.06.65,0-.15,0-.28,0-.57.07-.86.06-.66.14-1.32.23-2A8.05,8.05,0,0,0,390,29a3,3,0,0,0-.9-1.72c-1.29-.78-1.76,2-1.84,2.62Z"/><path class="cls-1" d="M386.22,22.93c2.12,0,2.14-7.5,0-7.5s-2.14,7.5,0,7.5Z"/><path class="cls-1" d="M411.32,26.08a11,11,0,0,0-9.5,4.11c-2.57,3.36-3.18,8.42-2,12.43.94,3.28,3.18,6.17,6.64,7a7.59,7.59,0,0,0,7.91-3.78,14.07,14.07,0,0,0,1.39-7.88c-.07-1-.25-2.05-.39-3.07l-.09-.61c0-.09-.11-.94-.07-.42,0-.5.1-.34,0-.07l-2.56-2.65c0,4.56,0,9.13-.28,13.68-.12,2-.28,4.24-.46,6.32-.09,1.06-.19,2.11-.3,3.17-.08.77-.21,2.07-.28,2.42-.31,1.43-1.54,2.25-2.89,2.9a30.41,30.41,0,0,1-5,1.8c-3.24.87-6.91,1.28-9.62-1.09-1.14-1-1.78,2.09-1.84,2.62-.16,1.42-.14,3.58,1.05,4.61,3,2.64,7.19,2.28,10.79,1.25a31.85,31.85,0,0,0,5.76-2.13,7.92,7.92,0,0,0,4-4.87,34.46,34.46,0,0,0,1.12-7.22q.36-3.78.57-7.56c.31-5.3.46-10.6.41-15.9,0-1-.09-2.7-.92-3.43s-1.35,0-1.64.78a16.36,16.36,0,0,0-.73,7.58c.1.82.25,1.63.36,2.45,0,.28.07.55.1.82,0,.44,0,.55,0,.32,0,0,0-.5.06-.48s-.86,1.33-.95,1.41a6.43,6.43,0,0,1-1.85,1.23,5.75,5.75,0,0,1-4.37.06,6.39,6.39,0,0,1-3.26-2.93c-.05-.12-.25-.51-.11-.24-.35-.69.09-.11-.06.11v-.11c0,.29,0,.22.06-.19-.12.31.32-.77.26-.65,1.58-3.24,5.35-4.44,8.73-4.25,2,.11,2.21-7.38,0-7.5Z"/><path class="cls-1" d="M423.79,29.58a34.79,34.79,0,0,1,.49,6.67,27.86,27.86,0,0,1-.2,3.07,34.9,34.9,0,0,1-.55,3.56l2.79,1.9a20.53,20.53,0,0,1,.8-5.58A46.14,46.14,0,0,1,429,33.71c1.24-3.07,3.48-6.39,7.23-6.15a4.67,4.67,0,0,1,3.7,2.6,9.84,9.84,0,0,1,.83,2.07,8.07,8.07,0,0,1,.36,2.15c-.05-.6,0,.82,0,1,0,.46,0,.52,0,.18l-.06.79a21.86,21.86,0,0,1-.32,2.26,53.72,53.72,0,0,1-1.56,5.82,7.9,7.9,0,0,0,0,5.3c.52,1.23,1.64,1.46,2.12,0,2.67-8.1,4.65-17.8.28-25.71-1.84-3.35-5.23-4.82-8.8-3.17s-5.14,5.48-6.4,8.82a42.41,42.41,0,0,0-3.08,15.15c0,.94.08,3,1.1,3.61s1.55-1,1.7-1.72a55.7,55.7,0,0,0,.26-20.87c-.16-.95-1.1-2.65-2.05-1.35s-.81,3.58-.54,5.13Z"/><path class="cls-1" d="M103.67,70.8c22-4.72,44.77-3.84,67.09-4L240,66.19l69-.58c11.49-.1,23-.06,34.48-.36,5.63-.14,11.27-.44,16.86-1.11s10.88-1.68,16.31-2.62a144.45,144.45,0,0,1,16.58-2.09c5.23-.28,10.47-.15,15.7,0,10.44.35,21.05,1,31.36-1.14a58.11,58.11,0,0,0,7.06-1.94c.93-.31.75-4-.4-3.61-10,3.4-20.65,3.49-31.09,3.18-10.74-.33-21.36-.82-32,.68-11,1.55-21.79,3.94-32.9,4.57-11.32.65-22.7.5-34,.59l-68.95.59-68.6.57c-11.45.1-22.91.14-34.36.31a241.54,241.54,0,0,0-33.14,2.29q-4.1.63-8.16,1.5c-1.16.25-.88,3.94,0,3.75Z"/><path class="cls-1" d="M143.19,180.49c-12.42,4.91-22.36,14.69-29.16,26-7.92,13.19-11.68,28.38-13.79,43.48a238.92,238.92,0,0,0-2,49.71,152.82,152.82,0,0,0,9.9,45.43A112.32,112.32,0,0,0,130.56,381q1.81,1.92,3.72,3.75c.73.7,1.19-1.43,1.23-1.75a3.78,3.78,0,0,0-.7-3.07c-20.69-19.79-31.22-47.81-34.11-75.85a217.87,217.87,0,0,1,.73-46.93c1.67-14.7,4.64-29.63,11.61-42.82,6.72-12.69,17.16-23.7,30.68-29.05,1.26-.5.94-5.4-.53-4.82Z"/><path class="cls-1" d="M152.41,370.86c-11.37-20.17-23.79-42-24.11-65.8-.17-12.62,3.29-25.14,7-37.11a259.32,259.32,0,0,1,13.4-34.43,158.79,158.79,0,0,1,9.15-17.25c3.19-5,7.06-9.64,12.23-12.72,1.25-.74.69-5.55-.53-4.82-9.93,5.91-15.31,17.1-20.25,27.08a262.09,262.09,0,0,0-14.6,36c-4,12.59-7.7,25.63-8.31,38.9-.58,12.55,2.1,25,6.43,36.75,4.86,13.17,11.72,25.49,18.6,37.69.56,1,1.25-.39,1.37-.89a4.93,4.93,0,0,0-.36-3.42Z"/><path class="cls-2" d="M151.42,376.87c15.35,8.32,32.63,12,49.86,13.77,8.75.92,17.55,1.39,26.34,1.81s17.56.78,26.32,0c9.78-.85,19.38-3.26,28-8.06,1.25-.7.74-5.53-.53-4.82-15.45,8.61-33.28,8.78-50.48,8s-34.74-1.6-51.66-5.5A107.73,107.73,0,0,1,152,372.05c-1.27-.69-1.81,4.13-.53,4.82Z"/><path class="cls-2" d="M134.71,385.83c14.26,15.79,35.88,20.78,56.19,23.26,12.48,1.53,25.09,2.61,37.67,2.89,12.78.29,25.66-.46,38.15-3.32,12.91-3,25.4-8.1,36-16.13.81-.62.8-2.17.7-3.08-.05-.4-.44-2.35-1.23-1.74C282.66,402.51,257.73,407,233.74,407a358.39,358.39,0,0,1-38.46-2.44c-10.37-1.12-20.77-2.68-30.75-5.79-10.79-3.37-21.16-8.82-28.81-17.29-.71-.79-1.2.2-1.37.89-.22.9-.34,2.65.36,3.42Z"/><path class="cls-1" d="M281.93,384.41a69.79,69.79,0,0,0,14.19-9.16,59,59,0,0,0,9.8-10.95c7.34-10.47,11.13-22.9,14.93-35a143.85,143.85,0,0,0,5-19.69,75.82,75.82,0,0,0,.54-20.79,197.43,197.43,0,0,0-3.49-19.74c-1.16-5.5-2.47-11-4.12-16.35-3.62-11.76-9.09-23.19-18.54-31.37-.76-.66-1.19,1.39-1.23,1.74-.11,1-.09,2.39.7,3.08,8,6.92,13,16.37,16.41,26.24a146,146,0,0,1,4.22,15.36c1.32,5.82,2.57,11.68,3.49,17.58a70.86,70.86,0,0,1,.66,19,108.27,108.27,0,0,1-4.17,18.54c-1.81,6-3.74,12-5.88,17.85a85.93,85.93,0,0,1-7.78,16.59,57.91,57.91,0,0,1-10.31,12.41,68.36,68.36,0,0,1-15,9.85c-1.26.63-.81,5.49.53,4.82Z"/><path class="cls-1" d="M304.27,392.67c17.74-19.11,32.18-41.9,39.16-67.18a113.61,113.61,0,0,0,3.93-38.83c-1.05-13.91-4.82-27.86-9.84-40.86-5.16-13.39-12.55-26.13-23.45-35.66-.76-.66-1.19,1.4-1.23,1.75-.11,1-.09,2.39.7,3.08,9.34,8.16,16,18.84,20.87,30.18a147.3,147.3,0,0,1,6.07,17.31A137.43,137.43,0,0,1,345,283.21c3.1,24.72-4.23,49.48-16.36,70.88a184.21,184.21,0,0,1-25.33,34.26c-.89,1-.3,5.74,1,4.32Z"/><path class="cls-3" d="M168.15,205.84c13-10.44,31-9.52,46.61-7.09a393.88,393.88,0,0,1,56.6,13.4q16,5,31.57,11.28c1.44.59,1.81-4.3.53-4.82a420.42,420.42,0,0,0-56.69-18.32q-14.45-3.56-29.12-6.07c-8.23-1.4-16.62-2.4-25-1.9-9,.54-17.94,3-25,8.7-.81.65-.8,2.15-.7,3.08,0,.38.45,2.37,1.23,1.74Z"/><path class="cls-3" d="M314.16,208.41l-36.33-15.85c-11.57-5.05-23.09-10.3-35.06-14.33A159.13,159.13,0,0,0,134.11,181c-1.26.49-.94,5.4.53,4.82a158.75,158.75,0,0,1,69.15-10.42,156.86,156.86,0,0,1,34.3,6.32c12.06,3.66,23.59,8.83,35.12,13.87l40.42,17.63c1.4.61,1.81-4.26.53-4.82Z"/><path class="cls-2" d="M126.6,427.62c-4.13,17-1.8,34.54-3.55,51.79a74,74,0,0,1-2.79,14.29,4.29,4.29,0,0,0,.36,3.42c.72.84,1.17-.26,1.37-.9,5.13-16.77,3-34.38,4.22-51.6a87,87,0,0,1,2.11-14.47c.24-1,.34-2.62-.36-3.42s-1.2.22-1.36.89Z"/><path class="cls-2" d="M127.1,429.54c2.66,5.16,7.86,7.71,11.89,11.63,1.54,1.5,3.34,3.7,2.94,6-.59,3.44-3.34,6.62-5.91,8.83a23.48,23.48,0,0,1-10.46,5.17c-1.35.28-1.42,4.37-.26,4.91,4.18,1.93,8.41,3.78,12.54,5.8,1.58.77,3.06,1.77,3.42,3.61a7,7,0,0,1-.78,4.16c-3.45,7.57-12.51,9.74-19.93,11-1.53.26-1.24,5.21,0,5,7.13-1.18,14.74-3,19.36-9.08a16.83,16.83,0,0,0,3.43-10c0-3.66-1-7.38-4.45-9.18-4.23-2.23-8.72-4.06-13.06-6.06l-.27,4.91c7.6-1.6,15.06-7,17.59-14.61a14.59,14.59,0,0,0-.88-11.8c-1.5-2.65-4-4.61-6.39-6.45-2.68-2.08-5.77-4.19-7.36-7.29-.43-.83-1-.91-1.42,0a4.86,4.86,0,0,0,0,3.54Z"/><path class="cls-2" d="M161.71,464.93c-3.9,2.24-8.05,4.65-10.47,8.59s-3.18,9.18-1.23,13.39a11.39,11.39,0,0,0,3.86,4.54c1.39,1,3.72,2.42,5.5,2.29,2.19-.16,3-2.7,3.5-4.47a24.77,24.77,0,0,0,.71-7.48c-.24-5.48-2-10.82-2-16.31,0-.59-.09-2.5-1-2.5s-1,2-1,2.5a44.52,44.52,0,0,0,9.57,29.74c.68.84,1.21-.25,1.37-.9a4.52,4.52,0,0,0-.36-3.42,37.83,37.83,0,0,1-8.58-25.42h-2A75.9,75.9,0,0,0,161,477.2c.51,3.2,1.28,7.24-.13,10.33s-6.7-.76-8.16-2.32a5.61,5.61,0,0,1-1.77-3.64,8.24,8.24,0,0,1,1.63-4.23c2.32-3.45,6.14-5.57,9.66-7.59,1.25-.71.72-5.54-.53-4.82Z"/><path class="cls-2" d="M189.53,464.72c-6.53,3-13.36,6.53-16.49,13.43-1.51,3.33-2.14,7.67-.64,11.11,1.36,3.12,4.46,4.42,7.49,5.46,1.92.66,4,1.39,6.05.85a5.15,5.15,0,0,0,3.64-3.3,5.07,5.07,0,0,0,0-3.54c-.36-.82-1.07-1-1.41,0-.53,1.47-2.29,2-3.72,2a15.92,15.92,0,0,1-5.64-1.44,11.82,11.82,0,0,1-4.1-2.35,3.3,3.3,0,0,1-.85-3.73c2.09-7.19,10-10.81,16.2-13.7,1.26-.59.85-5.47-.53-4.82Z"/><path class="cls-2" d="M202.69,442.64q-4.59,28.29-8.47,56.68c-.11.76-.15,2.65.69,3.08s1.17-1.26,1.23-1.75q3.9-28.38,8.48-56.68c.12-.75.13-2.66-.7-3.08s-1.15,1.27-1.23,1.75Z"/><path class="cls-2" d="M214.11,467.22a78.17,78.17,0,0,0-10.88,6.06q-2.59,1.73-5,3.66c-1.51,1.2-3,2.16-3.24,4.19a5.52,5.52,0,0,0,2,5.38c1.79,1.48,3.67,2.88,5.5,4.32l11,8.64c.79.62,1.18-1.36,1.23-1.75.1-.9.11-2.44-.7-3.07l-9-7.1-4.32-3.4-2.35-1.85c-.36-.28-.74-.54-1.07-.85s-.47-1-.37,0l-.1,1.92c0-.27,1.35-1.08,1.64-1.31.7-.55,1.4-1.1,2.12-1.63,1.49-1.11,3-2.16,4.58-3.16a78.31,78.31,0,0,1,9.57-5.21c1.26-.58.86-5.46-.53-4.82Z"/><path class="cls-2" d="M226.53,445.55A202.08,202.08,0,0,0,223,497.5c0,.42.42,2.31,1.23,1.75a17.94,17.94,0,0,0,7.92-13.05c.4-5-1.22-10.72-5.88-13.24-1.28-.69-1.81,4.13-.54,4.82,2.68,1.45,4.88,4.51,4.44,7.68-.52,3.73-3.52,6.89-6.47,9l1.23,1.75a187.07,187.07,0,0,1,3.37-48.1c.19-1,.35-2.59-.36-3.42s-1.23.21-1.37.9Z"/><path class="cls-2" d="M246.85,474.19c-2.63,3.65-5.29,7.39-6.84,11.66-1.43,3.93-2,10.11,2.7,12.07,3.9,1.6,8.17-.75,11-3.38,3.85-3.54,3.69-8.71,1.33-13.08a45.1,45.1,0,0,0-4.21-6.38C250,474,249.16,473,248.24,472c-.73-.77-1.49-1.36-2.55-.91-1.26.52-.92,5.42.53,4.82.57-.24,1.24.66,1.55,1,.63.7,1.24,1.42,1.82,2.15a45.55,45.55,0,0,1,2.93,4.1,15,15,0,0,1,2.25,4.3c.09.37.1-.11,0,.19a3.43,3.43,0,0,1-.41.72,8.23,8.23,0,0,1-1.55,1.68c-2.28,1.94-5.35,3.85-8.46,3.32a4.65,4.65,0,0,1-3.21-1.93c-.06-.1-.21-.56-.19-.38a5.12,5.12,0,0,0,.16-.7,17.11,17.11,0,0,1,.82-2.27,51.14,51.14,0,0,1,5.94-9.6,4.51,4.51,0,0,0,.36-3.42c-.15-.61-.71-1.81-1.37-.9Z"/><path class="cls-2" d="M261.79,472.79,264.13,498c0,.48.23,1.67.83,1.79s.86-.73,1-1.19c1.22-4.06.86-8.32.47-12.48-.29-3.09-.64-6.49,1-9.31.15-.25.37-.81.65-.93s.57.56.75.87l1.51,2.59c1.08,1.85,2.18,3.69,3.24,5.56a6.5,6.5,0,0,1,1,2.19,14.16,14.16,0,0,1-.26,2.9,25.07,25.07,0,0,0,.2,6.24c.09.57.32,2.16,1.23,1.75s.81-2.42.7-3.07a27.49,27.49,0,0,1,.09-6.41,12.86,12.86,0,0,0-1.49-7.15c-1.15-2.14-2.44-4.22-3.67-6.33-.66-1.13-1.25-2.38-2-3.45-.48-.67-1.06-1.05-1.81-.5-1.47,1.07-2.21,3.57-2.64,5.23a24.28,24.28,0,0,0-.65,6.47c.07,4.4,1.33,9,0,13.3l1.83.6-2.34-25.18c-.06-.58-.35-2.14-1.23-1.75s-.77,2.41-.7,3.08Z"/><path class="cls-2" d="M283.85,483.26c5.26-.72,12,2.23,16.1-2.49a8.11,8.11,0,0,0,.73-9,6.89,6.89,0,0,0-5.85-2.88,7.47,7.47,0,0,0-6.08,3.41,41.57,41.57,0,0,0-2.19,4.12c-.81,1.59-1.64,3.18-2.43,4.78-1.47,3-2.33,6.8-.59,9.87,1.42,2.53,4.29,3.24,7,3.36a36.29,36.29,0,0,0,10.85-.88,9.91,9.91,0,0,0,4-1.72c1.48-1.28,1.69-3.16,1.57-5,0-.58-.36-2.14-1.23-1.75s-.74,2.4-.7,3.08c-.12-2,.51-1.6-.52-.87a5.82,5.82,0,0,1-1.2.65,17.66,17.66,0,0,1-3.5,1,37.46,37.46,0,0,1-7.25.57c-2.22,0-4.73.06-6.65-1.24a3.88,3.88,0,0,1-1-.95,4.5,4.5,0,0,0-.27-.43c-.41-.33.2.38,0,.33a20.34,20.34,0,0,1,1.23-3c1.12-2.21,2.19-4.45,3.37-6.62a6.39,6.39,0,0,1,4.21-3.52,6.52,6.52,0,0,1,5,.79,5,5,0,0,1,.88.71,4.7,4.7,0,0,0,.39.52l.1.18c.09-1.08.06-1.38-.09-.92-.19.21-.3.58-.48.82a4.82,4.82,0,0,1-1,.9c-4.2,3-9.71.59-14.39,1.23-1.52.21-1.28,5.18,0,5Z"/><path class="cls-1" d="M389.26,290c.47-6.08,1-12.58,3-18.39a17.2,17.2,0,0,1,4-6.71c2.11-2.05,4.93-3.17,7-5.25a3.85,3.85,0,0,0,.7-3.08c0-.3-.53-2.45-1.23-1.75-2.22,2.22-5.22,3.4-7.4,5.66a20.58,20.58,0,0,0-4.47,7.6c-2.28,6.53-3,13.73-3.54,20.59-.06.78-.17,2.64.7,3.08s1.19-1.25,1.23-1.75Z"/><path class="cls-1" d="M390,271a51.53,51.53,0,0,1-10.16-16.2c-.35-.9-1.06-.86-1.42,0a5.1,5.1,0,0,0,0,3.53,54.09,54.09,0,0,0,10.57,17c.72.78,1.2-.19,1.37-.89.22-.89.34-2.67-.36-3.43Z"/><path class="cls-1" d="M405,282.85a35.31,35.31,0,0,0,8.09-.27,9.62,9.62,0,0,0,3.23-1,4.08,4.08,0,0,0,1.69-2.86A7.31,7.31,0,0,0,409.9,270c-2.4.44-3.67,2.47-4.82,4.43a33.79,33.79,0,0,0-3.41,7.25,14,14,0,0,0,3.73,14.2,7.36,7.36,0,0,0,6.32,2.08c2.53-.54,4.37-2.42,5.93-4.36a4.41,4.41,0,0,0,.36-3.42c-.16-.65-.68-1.75-1.37-.89-2,2.44-4.81,4.7-8.11,3.44a8.64,8.64,0,0,1-3.71-2.92,7.64,7.64,0,0,1-1.79-4c0-1.56,1.08-3.3,1.76-4.65a22.71,22.71,0,0,1,2.93-4.84c2.14-2.43,6.62-1.33,8.22,1.24a2.22,2.22,0,0,0,.21.37c.22.61.24.09.05-1.54l-.19.18a10.1,10.1,0,0,1-1.14.57,14.85,14.85,0,0,1-3,.64,42.58,42.58,0,0,1-6.87.08c-1.37-.06-1.47,4.94,0,5Z"/><path class="cls-1" d="M430.12,274.52c-6.23.77-8.17,8.18-6.15,13.32.94,2.39,3.08,4.58,5.8,4.62,3,0,4.64-3,5.23-5.52a12.71,12.71,0,0,0-1.79-10.25c-.57-.77-1.1.05-1.29.64a5.48,5.48,0,0,0,.08,3.28,20,20,0,0,0,7.71,10.5c.82.57,1.19-1.3,1.23-1.74.08-.85.13-2.5-.7-3.08a17.39,17.39,0,0,1-6.82-9.21L432.2,281a6.43,6.43,0,0,1,.86,1.48,5.54,5.54,0,0,1,.2.64c.13.44,0-.14.07.35,0,.3,0,.32,0,.06V284c0-.66-.12.65,0,.17a4.33,4.33,0,0,1-.46,1.3c-1.18,2.25-3.8,2.45-5.74,1a5,5,0,0,1-1.82-2.43c.1.31-.17-.76-.08-.22l0-.22c0-.3,0-.3,0,0,0-.29,0-.3,0,0,0-.27,0-.3,0-.07a2,2,0,0,1,.16-.57,6,6,0,0,1,4.79-3.47c.91-.12,1-1.83,1-2.5,0-.47-.12-2.61-1-2.5Z"/><path class="cls-1" d="M454.35,272.93a11.79,11.79,0,0,0-6.62.73c-2.65,1.29-2.72,5.28-1.44,7.55a9,9,0,0,0,2.29,2.4,29.64,29.64,0,0,0,2.75,2,30.94,30.94,0,0,0,3,1.69c.45.23.91.42,1.36.65a3.61,3.61,0,0,1,.6.35.38.38,0,0,0,.18.13c.12.17.14.19,0,.07l-.26-1.1v-.31l.13-1.26c.13-.56.12-.32-.26-.08a7.8,7.8,0,0,1-.7.38,9.6,9.6,0,0,1-1.56.63,15.15,15.15,0,0,1-3.2.58,29.2,29.2,0,0,1-6.86-.45c-.34-.05-.62.53-.71.73a4.67,4.67,0,0,0-.29,1.77c0,.69.07,2.35,1,2.5a27.05,27.05,0,0,0,7.67.36,14.59,14.59,0,0,0,3.74-1c1.35-.55,2.49-1.24,2.86-2.74.42-1.71.26-4-1.32-5.12-1-.69-2.22-1.09-3.28-1.69a32.2,32.2,0,0,1-3.35-2.2c-.49-.37-1-.75-1.43-1.14-.23-.2-.47-.4-.68-.62s-.34-.51-.55-.7c0,0,0,.11,0,.12a3.36,3.36,0,0,1-.06,1.89c0,.07,0,.06,0,0a5,5,0,0,1,.51-.4,5.4,5.4,0,0,1,1.64-.6,13.53,13.53,0,0,1,4.79-.14c1.25.17,1.53-4.78,0-5Z"/><path class="cls-1" d="M464,255l.27,14.88q.06,3.72.13,7.45a25.23,25.23,0,0,1-.41,6.61c-.23,1-.33,2.62.36,3.42s1.21-.22,1.37-.89c1.24-5,.65-10.47.56-15.59L466,255c0-.59-.08-2.5-1-2.5s-1,2-1,2.5Z"/><path class="cls-1" d="M456.88,265.78q12.66,1.13,25.38,1.53c1.38,0,1.46-4.95,0-5q-12.7-.4-25.38-1.53c-1.32-.11-1.5,4.87,0,5Z"/><path class="cls-1" d="M373.42,312.67c-6.86-.09-12.07,5.93-12.07,12.59,0,3.29,1.23,6.82,4.71,7.71,3.11.81,6.1-1,7.77-3.58,2.47-3.78,2.56-8.49,2.53-12.86,0-.64-.06-1.83-.62-2.28s-.89,0-1.09.52c-2.9,7.82-1.14,16-1.36,24a21.58,21.58,0,0,1-.7,5.06c-.5,1.81-1.2,4.07-3.42,4.1a16.11,16.11,0,0,1-5.86-1.57,30.46,30.46,0,0,1-5.71-3.13c-1.09-.75-1.77,4-.53,4.82a30.25,30.25,0,0,0,6.11,3.29,17,17,0,0,0,6,1.59c2.32,0,3.41-1.87,4.22-3.81a25.56,25.56,0,0,0,1.58-6.08c.61-4.28.25-8.61,0-12.9-.2-4-.35-8.07,1.05-11.87l-1.7-1.77c0,3.24.08,6.66-2.09,9.3-1.82,2.22-5.3,3.24-7.74,1.38s-.54-4.57,1-6.22a10.67,10.67,0,0,1,7.88-3.32c1.4,0,1.44-5,0-5Z"/><path class="cls-1" d="M382.87,324.84c1.94.59,4.07,1.13,6.08.57a5.84,5.84,0,0,0,3.62-2.77c1.89-3.43.84-9.05-3.48-9.92-3.76-.76-6.68,2.95-7.73,6.08a19.3,19.3,0,0,0-1.13,6.51,12,12,0,0,0,2.25,6.37c.89,1.39,2.11,3.15,3.95,3.22,2.39.08,3.18-2.3,3.24-4.28,0-.61-.1-2.46-1-2.5s-1,2-1,2.5c0-.05.24-1.27.23-1.27a3,3,0,0,1-.23.2,4.37,4.37,0,0,1-.48.25,2.13,2.13,0,0,1-1.41,0,5.44,5.44,0,0,1-2.23-2.3c-.33-.52-.68-1-1-1.59-.11-.22-.21-.45-.3-.68,0-.06-.08-.43-.06-.19a9.6,9.6,0,0,1,.69-3.08c.83-2.2,2.69-4.2,5.18-4.29a3.85,3.85,0,0,1,2.95,1.17c.14.15.24.33.37.49s0,.35.06-.1c0-.18-.15-.83,0-.88s0,.13-.07.19a6.19,6.19,0,0,1-.41.59c-2,2.34-5.61,1.52-8.17.74-1-.31-1.57,4.52,0,5Z"/><path class="cls-1" d="M397.54,316.22l-1.92,10.19a4.64,4.64,0,0,0,.36,3.42c.67.92,1.2-.33,1.37-.89a23.17,23.17,0,0,1,2-4.65,9.14,9.14,0,0,1,1.33-2.07c.63-.62.93,0,1.27.53a13.33,13.33,0,0,1,1,2,11,11,0,0,1,.65,2.16c0,.06.12.62.08.39s.05.35.05.4c0,.23.05.46.07.69.06.75,0-.49,0,.27v.58c0,.19,0,.52,0,.15,0,.47-.09.93-.16,1.39-.13.81-.12,2.57.7,3.07s1.16-1.33,1.23-1.74a20.39,20.39,0,0,0-2.74-13.88c-.54-.83-1.28-1.66-2.34-1.09a6.2,6.2,0,0,0-2,2.51,30.3,30.3,0,0,0-2.88,6.76l1.73,2.53,1.92-10.2a4.66,4.66,0,0,0-.36-3.42c-.64-.88-1.25.28-1.37.9Z"/><path class="cls-1" d="M415.79,316.11a19.74,19.74,0,0,0-2,2.95,10.94,10.94,0,0,0-1.26,4.69c-.1,2.17.53,5.26,2.67,6.37s4.52-.34,5.6-2.25A12.18,12.18,0,0,0,422.1,324a11.7,11.7,0,0,0,0-5.33,5.88,5.88,0,0,0-2.71-3.33,7.14,7.14,0,0,0-1.89-.95,2.93,2.93,0,0,0-2,.07c-.32.12-.53.91-.59,1.15a5.45,5.45,0,0,0-.1,1.93c.08.64.31,2.07,1.23,1.74a2.86,2.86,0,0,1,2.25.53,8.48,8.48,0,0,1,1.91,1.4,2.56,2.56,0,0,1,.2.26l0,.07c.05.09.06.1,0,0s-.1-.61-.1-.71c0,.4,0-.08,0-.09s0,.26,0,.29a2.7,2.7,0,0,1,0,.28s-.1.59,0,.25-.06.33-.08.42-.11.42-.16.63,0,0,0-.07L420,323a5.58,5.58,0,0,1-.28.67c.1-.19-.17.26-.2.31a4.49,4.49,0,0,1-.37.49,3.87,3.87,0,0,1-.87.67,2.91,2.91,0,0,1-2.21.36,2.48,2.48,0,0,1-.73-.36,1.74,1.74,0,0,1-.57-.58c-.07-.1-.26-.45-.11-.16-.08-.14-.12-.31-.2-.46s.07.18,0,.17,0-.27-.07-.28.05.58,0,.17,0,.17,0,.23a1.4,1.4,0,0,0,0-.29c0,.08-.05.58,0,.24,0,.08-.12.52,0,.09l.09-.36c-.1.36.12-.26.16-.37a3.51,3.51,0,0,1,.22-.44,23.76,23.76,0,0,1,1.83-2.63,4.41,4.41,0,0,0,.36-3.42c-.16-.63-.68-1.77-1.36-.89Z"/><path class="cls-1" d="M428.49,329.66a29.06,29.06,0,0,1,1.48-5.31,9.34,9.34,0,0,1,3.15-4.12l-1-.64a15.74,15.74,0,0,1,1.15,3.25,10.39,10.39,0,0,1,.25,1.42c0,.3.06.6.08.9,0-.42,0,.53,0,.62a3.37,3.37,0,0,0,.61,2.28c.5.44.89,0,1.1-.52l1.94-4.66c.46-1.12.76-2.53,1.81-3.19l-1-.64a69.73,69.73,0,0,1,2.71,11.4c.08.51.36,2.23,1.23,1.75s.81-2.36.7-3.08a80.62,80.62,0,0,0-3.22-13.61c-.13-.38-.51-.93-1-.64-1.36.85-1.89,2.55-2.48,4L433.91,324l1.71,1.77a23.22,23.22,0,0,0-2.06-9.72c-.16-.34-.5-1-1-.65-3.75,2.65-4.93,7.48-5.83,11.73a4.66,4.66,0,0,0,.36,3.42c.65.89,1.24-.29,1.37-.9Z"/><path class="cls-1" d="M449,313.78l-1.31,12a5.68,5.68,0,0,0,.1,1.93,2,2,0,0,0,.59,1.15c.86.52,1.19-1.33,1.23-1.75l1.32-12a6.19,6.19,0,0,0-.1-1.92,2,2,0,0,0-.6-1.15c-.85-.52-1.19,1.32-1.23,1.75Z"/><path class="cls-1" d="M451,307.45c1.41,0,1.43-5,0-5s-1.43,5,0,5Z"/><path class="cls-1" d="M462.48,311.79a28.29,28.29,0,0,0-5.61,2.6,13.07,13.07,0,0,0-4.47,3.85,8.32,8.32,0,0,0-.63,7.47,7.93,7.93,0,0,0,4.13,3.91c2,.88,4.42,1,6.08-.64a3.77,3.77,0,0,0,.7-3.08c0-.31-.51-2.44-1.23-1.74a4.64,4.64,0,0,1-5.34.49,8.25,8.25,0,0,1-2.35-1.67,8.36,8.36,0,0,1-.58-.8c-.21-.34,0,.06,0,.26s-.09.71-.07.73.53-.94.6-1a6.37,6.37,0,0,1,.79-.85,17.11,17.11,0,0,1,2.59-1.88,28.17,28.17,0,0,1,5.93-2.79c.32-.11.53-.91.59-1.15a5.45,5.45,0,0,0,.1-1.93c-.08-.65-.3-2.06-1.23-1.74Z"/><path class="cls-1" d="M480,306a160.93,160.93,0,0,0-1.54,26c0,.58.08,2.5,1,2.5s1-2,1-2.5a153.59,153.59,0,0,1,1.46-24.72c.11-.76.15-2.65-.69-3.07s-1.17,1.25-1.23,1.74Z"/><path class="cls-1" d="M481.69,308.13c5.16,1.24,7.94,6.55,7.32,11.57s-3.63,13.2-10.06,11.91c-1.18-.24-1.56,4.69,0,5,3.71.74,6.92-1.93,8.63-5A28.6,28.6,0,0,0,491,320.11c.54-6.8-1.85-15.18-9.34-17-1.12-.27-1.57,4.62,0,5Z"/><path class="cls-1" d="M498.3,334.11a100.64,100.64,0,0,0,0-14c-.2-4.46-.39-9,.47-13.4l-1.83-.59a50.22,50.22,0,0,0,3.09,14.57,47,47,0,0,0,3.05,6.56c1.17,2.1,2.85,4.1,3.49,6.44.13.49.44,1.5,1.13,1.15s.74-1.8.73-2.41a119.65,119.65,0,0,1,3.9-31.34c.25-.94.33-2.62-.36-3.42s-1.19.24-1.37.9a129.76,129.76,0,0,0-4.17,33.86l1.87-1.26a24.45,24.45,0,0,0-3.1-6.35,43.33,43.33,0,0,1-3.28-6.44,42.6,42.6,0,0,1-3-13.59c0-.48-.24-1.67-.83-1.79s-.9.72-1,1.19c-1.86,9.51.22,19-.72,28.59-.08.77-.16,2.64.7,3.07s1.18-1.25,1.23-1.74Z"/><path class="cls-1" d="M523.48,303.15c-7.14,8-8.51,19.17-13.25,28.5a4.69,4.69,0,0,0,0,3.53c.41.93,1,.86,1.41,0,4.61-9.07,5.92-19.92,12.85-27.72.7-.78.59-2.47.36-3.42-.17-.7-.65-1.7-1.37-.89Z"/><path class="cls-1" d="M524.12,307.3c3.29,8.69,2.5,18.32,5.69,27.07.33.93,1,.83,1.41,0a5.1,5.1,0,0,0,0-3.53c-3.18-8.73-2.38-18.34-5.68-27.07-.35-.92-1-.84-1.42,0a5.1,5.1,0,0,0,0,3.53Z"/><path class="cls-1" d="M514.91,324.09A62.35,62.35,0,0,0,527.49,322c1.55-.43,1.09-5.3,0-5a62.35,62.35,0,0,1-12.58,2.07c-.91.06-1,1.87-1,2.5s.1,2.56,1,2.5Z"/><path class="cls-3" d="M292.06,158.44v23.72c0,.58.09,2.5,1,2.5s1-2,1-2.5V158.44c0-.59-.1-2.5-1-2.5s-1,2-1,2.5Z"/><path class="cls-3" d="M282.17,160.33q17.59.13,35.18-.89c1.46-.09,1.36-5.08,0-5q-17.58,1-35.18.89c-1.4,0-1.43,5,0,5Z"/><path class="cls-3" d="M305.9,176.21a1.59,1.59,0,0,1,.61.51,2.14,2.14,0,0,1,.13.19c-.07-.14-.08-.15,0,0s.19.54.11.27a3.15,3.15,0,0,1,.08.38l0-.27c0,.12,0,.23,0,.34s0,.33,0,.49c.05.53,0-.65,0,0,0,.89.07,1.77.06,2.66,0,.23,0,.45,0,.67,0-.56,0,.09,0,.22s0,.29-.05.43,0,.3,0,.14,0-.11,0,.14l-.09.43,1.82,1.93c0-.52.1-1,.17-1.55-.08.56,0-.26.07-.36.06-.26.11-.51.18-.76s.13-.5.2-.75c-.11.37.13-.36.15-.42.15-.43.32-.85.5-1.27a15.29,15.29,0,0,1,1.39-2.51c.25-.37.52-.74.8-1.1a6.36,6.36,0,0,1,1-1.18c.31-.23.41,0,.62.26a8.81,8.81,0,0,1,.69,1l0,.07.15.32c.09.21.17.43.26.65h0c0,.11.07.23.1.34s.11.47.16.7,0,.24.07.35c-.05-.29-.06-.31,0,0s.05.36.07.54,0,.49.07.73,0,.25,0-.11c0,.12,0,.25,0,.37,0,1,0,2,0,2.94,0,.58.1,2.5,1,2.5s1-2,1-2.5c.11-3.85,0-8.11-2.07-11.47-.4-.64-1.1-1.8-2-1.81-.51,0-.89.49-1.2.82s-.6.68-.89,1a20.4,20.4,0,0,0-2.9,5,22.25,22.25,0,0,0-1.59,6.87c-.06.85-.14,2.31.57,3s1.13-.46,1.25-1a29.32,29.32,0,0,0,.4-8.26c-.11-2-.48-4.61-2.36-5.69-1.22-.71-1.79,4.08-.53,4.82Z"/><path class="cls-3" d="M325.15,157.87l9.54.77a6.12,6.12,0,0,0,1.22.1s.3-1.54,0-.7c-.27.69-.48,1.41-.76,2.1-.59,1.44-1.2,2.86-1.82,4.28a119.39,119.39,0,0,0-6.45,17c-.25,1-.32,2.63.36,3.42s1.19-.23,1.37-.89c1.84-7,5.13-13.41,7.86-20.05a16.46,16.46,0,0,0,1.44-5.27c.1-1.42.14-4.2-1.52-4.79a10.25,10.25,0,0,0-2.42-.25l-2.93-.23-5.87-.48c-1.33-.1-1.49,4.88,0,5Z"/><path class="cls-3" d="M360.27,155.82a99.42,99.42,0,0,0,.83,22c.09.55.34,2.17,1.23,1.74s.8-2.4.7-3.07a87.6,87.6,0,0,1-.83-19.35c.06-.78.18-2.63-.7-3.07s-1.19,1.25-1.23,1.74Z"/><path class="cls-3" d="M352.8,158.26A66.64,66.64,0,0,1,371.75,157c1.33.11,1.5-4.88,0-5a66.64,66.64,0,0,0-18.95,1.25c-1.54.32-1.17,5.25,0,5Z"/><path class="cls-3" d="M353.06,181.33q11.46-.83,22.89-2.17c1.5-.17,1.3-5.15,0-5q-11.42,1.35-22.89,2.17c-1.47.1-1.36,5.09,0,5Z"/><path class="cls-3" d="M380.19,167.72c.12.84.21,1.67.27,2.51,0,.17,0,.55,0,.18,0,.2,0,.4,0,.6,0,.44,0,.88,0,1.32s0,.8,0,1.2v.24q0-.33,0-.06c0,.2,0,.4,0,.6-.07.88-.17,1.75-.3,2.63h1.92l-.06-.72c0-.13,0-.7,0-.28,0-.56,0-1.11,0-1.67,0-.23,0-.47,0-.71,0,.42,0-.15,0-.29,0-.49.11-1,.17-1.46,0-.26,0,.05,0,.09,0-.14.05-.27.09-.41s.14-.56.06-.29a3.68,3.68,0,0,1,.44-1,3.31,3.31,0,0,1,1.75-1.39,2.35,2.35,0,0,1,2,.26,2.45,2.45,0,0,1,.69.63,4.15,4.15,0,0,1,.3.43c0,.07.27.49.19.32a22.66,22.66,0,0,1,1.67,5.05c.13.57.25,1.14.35,1.72l0,.16c0-.19,0,.24,0,.28l.12.81c.11.78.43,3.14,1.69,2.89.91-.19,1-1.78,1-2.5a4.81,4.81,0,0,0-.3-1.77c-.1-.25-.36-.8-.7-.73-.13,0-.08,0-.08,0s.2.32.24.42a2.66,2.66,0,0,0,.08.33s-.06-.41-.07-.47c-.09-.66-.2-1.32-.32-2a33.42,33.42,0,0,0-.77-3.29,18.4,18.4,0,0,0-2.41-6,3.55,3.55,0,0,0-4.67-1.29c-1.94,1-2.79,3.31-3.16,5.32a30.83,30.83,0,0,0-.28,8.79c0,.46.25,1.83,1,1.83s.89-1.36,1-1.83a41.48,41.48,0,0,0,.05-11.88c-.07-.47-.38-2.26-1.23-1.74s-.81,2.31-.7,3.07Z"/><path class="cls-3" d="M406.3,162.2c-2.16-.24-4.48-.29-6,1.55-1.67,2.05-1.67,6,.27,7.84a14.34,14.34,0,0,0,2.84,1.86c1.08.62,2.19,1.21,3.31,1.78.44.23.89.44,1.31.71a5.74,5.74,0,0,1,.5.36l.12.09.13.16c.13.22.14.21,0,0l-.07-.18V174.6c0-.08.27-.45.07-.27s-.19.25-.31.36a5.12,5.12,0,0,1-1.27.82,18.11,18.11,0,0,1-7.88,1.69c-.9,0-1,1.91-1,2.5s.09,2.5,1,2.5a20.16,20.16,0,0,0,7-1.26,8.81,8.81,0,0,0,2.73-1.43,4.83,4.83,0,0,0,1.57-3.37,5.58,5.58,0,0,0-1.09-4.21,9.06,9.06,0,0,0-2.65-1.71c-1.08-.56-2.14-1.13-3.18-1.74q-.8-.45-1.56-.93c-.2-.13-.4-.26-.59-.4s-.4-.48-.59-.58c.18.09.74,7.81.08.76a1.8,1.8,0,0,1,.05.86.57.57,0,0,1,0,.18s0,.12,0,.11.27-.39.29-.41a2.86,2.86,0,0,1,1.06-.72,8.2,8.2,0,0,1,3.91-.15c1.3.14,1.52-4.84,0-5Z"/><path class="cls-3" d="M415.55,170.63a34.25,34.25,0,0,0,6.71-.59c1.91-.36,4.25-.74,5.69-2.16,2.85-2.8,2.36-9.53-2.36-9.93-1.86-.16-3.64,1-5.08,2a15.46,15.46,0,0,0-4.34,4.34A10.72,10.72,0,0,0,417.83,177a9.17,9.17,0,0,0,11.41,1.68c1.24-.75.67-5.55-.53-4.82a8.09,8.09,0,0,1-8.23,0,8.72,8.72,0,0,1-2.81-2.63,9.87,9.87,0,0,1-.87-1.71c.07,0,0-.08,0,0s0,.19,0,.23-.21.69,0-.22c0-.14.1-.28.15-.42a9,9,0,0,1,2.78-3.3,16.46,16.46,0,0,1,3.66-2.47,3.93,3.93,0,0,1,3.68.07,3,3,0,0,1,.55.44c.35.38.14.26.17-.67,0-1.35,0-.68-.27-.28a3.41,3.41,0,0,1-.94.79,14.28,14.28,0,0,1-5.09,1.47,34.72,34.72,0,0,1-5.94.45c-1.4,0-1.43,5,0,5Z"/><path class="cls-3" d="M433.68,164.82a16.28,16.28,0,0,1,1.58,4.63c0,.16,0,.14,0,0a3.06,3.06,0,0,1,.05.32c0,.22.06.44.08.66l.06.67c0,.18,0,.14,0-.11,0,.11,0,.22,0,.33s0,.44,0,.66,0,.76,0,.45,0,.36,0,.44c0,.25-.05.51-.09.77-.11.82-.11,2.33.58,2.95s1.13-.45,1.25-1a70.65,70.65,0,0,1,2.27-8.39c.38-1.14.59-2.31,1.72-2.87a6.41,6.41,0,0,1,3.45-.17c.34,0,.61-.52.7-.73a4.68,4.68,0,0,0,.3-1.77c0-.66-.07-2.39-1-2.5a7,7,0,0,0-4,.35c-1.41.69-2,2.31-2.45,3.7A80,80,0,0,0,435.4,173l1.83,1.93a24,24,0,0,0-2.54-14.41c-.54-1-1.26.4-1.37.89a5,5,0,0,0,.36,3.42Z"/><path class="cls-3" d="M451.66,144.09c-.59,10.82-.77,21.65-.48,32.48,0,.59.08,2.5,1,2.5s1-2,1-2.5q-.42-15.57.41-31.15c0-.78.18-2.63-.7-3.07s-1.2,1.24-1.23,1.74Z"/><path class="cls-3" d="M447.38,157.73l14.24-.56c.91,0,1-1.89,1-2.5s-.09-2.54-1-2.5l-14.24.56c-.91,0-1,1.89-1,2.5s.09,2.54,1,2.5Z"/><path class="cls-3" d="M464,165.13l-.35,11.72c0,.59.1,2.5,1,2.5s1-2,1-2.5l.35-11.72c0-.58-.11-2.5-1-2.5s-1,2-1,2.5Z"/><path class="cls-3" d="M464.68,160.66c1.41,0,1.43-5,0-5s-1.42,5,0,5Z"/><path class="cls-3" d="M475.42,162.9a10.51,10.51,0,0,0-5.25,5.2,11.24,11.24,0,0,0-.77,5.29,7.9,7.9,0,0,0,1.41,4.18,4.66,4.66,0,0,0,6.06,1.48c2.73-1.65,3.23-5.43,3-8.31-.23-3.1-1.34-6.51-3.69-8.65-.27-.25-.62,0-.77.25a3.46,3.46,0,0,0-.46,1.5c-.09,1-.09,2.35.7,3.07a5.52,5.52,0,0,1,.81.93,6.92,6.92,0,0,1,.59,1,10.5,10.5,0,0,1,.48,1.21c.12.32-.07-.26,0,.07l.09.31c.08.29.15.59.21.89,0,0,.06.38,0,.15s0,.15,0,.15c.06.49,0,.13,0,0,0,.11,0,.23,0,.34,0,.28,0-.05,0-.1,0,.15,0,.3-.05.45,0,0,.05-.31,0,0s.17-.41,0,.13a3.42,3.42,0,0,1-5.6,1.3,3.85,3.85,0,0,1-.64-.75c-.17-.23-.11-.16-.06-.07a1.39,1.39,0,0,1-.12-.28,2.33,2.33,0,0,1-.11-.28c.13.42-.05-.33,0,0s0-.06,0-.09,0,.52,0,.06c0,.45,0,.08,0-.14,0,.1-.1.43,0,0,0,0,.09-.33,0-.14s.05-.13.05-.13a3.9,3.9,0,0,1,.2-.47,9.11,9.11,0,0,1,4.28-3.73c.34-.16.53-.86.6-1.15a5.69,5.69,0,0,0,.1-1.93c-.07-.54-.34-2.18-1.23-1.74Z"/><path class="cls-3" d="M482.67,166.35a23,23,0,0,1,1,4c.05.34.09.69.13,1s0,.43.05.65c0,0,0,.51,0,.31s0,.4,0,.45v.53c0,.21,0,.43,0,.65,0,.06,0,.62,0,.24l2,.67c0-.3,0-.3,0,0,0-.16,0-.31,0-.46,0-.3.07-.6.11-.9s0-.29,0-.07l.09-.44c.06-.3.13-.59.21-.88a16.27,16.27,0,0,1,2.74-5.61c.32-.42.65-.83,1-1.23s.72-.92,1.17-1.06c.74-.22,1.81,1.48,2.17,2a15.63,15.63,0,0,1,1.66,2.74c.25.55.47,1.12.68,1.69.09.27.23.78.34,1.25.07.3.13.6.18.89-.07-.41.05.46.06.54s.07,1,.05.47c0,.3,0,.61,0,.91,0,.59.1,2.5,1,2.5s1-2,1-2.5a21,21,0,0,0-4.39-13.35c-.6-.74-1.37-1.88-2.36-2.08s-2,1-2.58,1.73a20.18,20.18,0,0,0-3.48,5.65,23.89,23.89,0,0,0-1.7,8.26c0,.6.09,2.27.87,2.45s1.07-1.28,1.1-1.79a32.76,32.76,0,0,0-1.7-12.69c-.1-.26-.37-.73-.71-.73s-.6.47-.71.73a5.19,5.19,0,0,0,0,3.54Z"/></g><g id="Layer_26" data-name="Layer 26"><path class="cls-3" d="M172.05,105c1.29,4.79.71,9.77.86,14.66a66.7,66.7,0,0,0,2.54,15.41c.18.68.65,1.69,1.36.9s.6-2.54.36-3.42a57.78,57.78,0,0,1-2.29-14.76c0-5.13.25-10.3-1.1-15.31-.18-.68-.65-1.69-1.37-.9s-.59,2.54-.36,3.42Z"/><path class="cls-3" d="M173.41,105.32c6.86-1.73,10.22,6,11.08,11.41a10.48,10.48,0,0,1-1.6,8.08,9,9,0,0,1-3.15,2.67,14.16,14.16,0,0,0-3.67,2.27,3.8,3.8,0,0,0-.7,3.07c0,.31.52,2.46,1.23,1.75,1.28-1.28,3-1.79,4.5-2.74a10.78,10.78,0,0,0,3.51-3.81c2.07-3.67,2.41-8.1,1.87-12.21-.52-3.87-1.56-8.1-3.85-11.35-2-2.91-5.58-5-9.22-4.14-1.56.39-1.12,5.28,0,5Z"/><path class="cls-3" d="M193.87,130.39c-1.12-9.51-2-19.48,1.64-28.58l-1.67-2.44c-.36,5.66,1.59,10.94,3.48,16.18a57,57,0,0,0,7.35,13.83c.84,1.18,1.42-1,1.47-1.49a82.13,82.13,0,0,1,5.31-22.49,4.94,4.94,0,0,0,0-3.53c-.38-.85-1-1-1.42,0a90.41,90.41,0,0,0-5.82,24.69l1.47-1.5a51.94,51.94,0,0,1-6.45-11.73c-.81-2.11-1.54-4.26-2.24-6.42a17,17,0,0,1-1.22-6.21,4.36,4.36,0,0,0-.46-2.82c-.49-.57-1-.23-1.22.39-4.26,10.63-3.45,22.32-2.15,33.45.06.57.34,2.15,1.23,1.75s.77-2.41.7-3.08Z"/><path class="cls-3" d="M215.55,101.48c.16,4.17-1.05,8.16-2.42,12.06a100.49,100.49,0,0,0-3.95,12.56L211,128a68.38,68.38,0,0,1,8.37-24.53l-.77.25c1.35,1.39,1.85,3.39,2.44,5.17.73,2.17,1.44,4.36,2.14,6.55,1.4,4.37,2.76,8.76,4.11,13.15l1.42-3.54-.26-.77c-.31-1-1.06-.81-1.41,0a5.1,5.1,0,0,0,0,3.53l.25.78c.32.95,1.06.8,1.42,0a5.25,5.25,0,0,0,0-3.54c-1.46-4.7-2.91-9.4-4.42-14.09-.74-2.31-1.48-4.62-2.27-6.92a13.24,13.24,0,0,0-2.89-5.14c-.24-.25-.65,0-.77.25a76.44,76.44,0,0,0-9.29,27.52c-.11.78-.12,2.4.58,2.95s1.12-.39,1.25-1c1.91-9.18,7-17.5,6.64-27.14,0-.59-.08-2.5-1-2.5s-1,2-1,2.5Z"/><path class="cls-3" d="M213.82,118.11a119.27,119.27,0,0,0,13.09.92c.9,0,1-1.93,1-2.5s-.08-2.49-1-2.5a119.27,119.27,0,0,1-13.09-.92c-.35,0-.62.52-.71.74a4.59,4.59,0,0,0-.29,1.76c0,.66.07,2.39,1,2.5Z"/><path class="cls-3" d="M239.05,97.6l.74,27.24c0,.34.18,2.77,1,2.5,4.8-1.55,10.65-4.38,10.9-10.13a7.41,7.41,0,0,0-3.32-6.78,16.2,16.2,0,0,0-7.52-2.53c-1.32-.12-1.5,4.86,0,5a15.31,15.31,0,0,1,5.39,1.45,10.85,10.85,0,0,1,2.36,1.47,4.49,4.49,0,0,1,.8.83,2.46,2.46,0,0,1,.34.56c.1-.91.1-1.18,0-.81-.14.07-.44.79-.56.95a6,6,0,0,1-.79.88,13.58,13.58,0,0,1-2.06,1.53,25.09,25.09,0,0,1-5.53,2.58l1,2.5-.74-27.24c0-.59-.08-2.5-1-2.5s-1,2-1,2.5Z"/><path class="cls-3" d="M260.44,107.81c-5.08,2.49-5.41,10.09-2.79,14.42a9.71,9.71,0,0,0,2.42,2.65c1,.74,2.13,1.45,3.23.54,2.44-2,3-5.53,2.76-8.52-.24-3.45-1.85-6.42-3.45-9.41-.4-.74-1-.07-1.21.39a5.14,5.14,0,0,0-.16,3A23,23,0,0,0,271.39,125c1.19.72,1.79-4.06.53-4.83a20.25,20.25,0,0,1-5.74-5.17,19,19,0,0,1-1.93-3.13c-.27-.56-.52-1.14-.74-1.73-.12-.32-.23-.63-.33-1l-.07-.24c-.05-.18-.09-.36-.14-.54l-1.37,3.42a37.85,37.85,0,0,1,1.83,3.66,9.84,9.84,0,0,1,.51,1.47c0,.16.08.31.11.47,0-.21,0-.17,0,.11s0,.31.05.47c0-.27,0-.25,0,.05s0,.32,0,0c0,.12,0,.23,0,.35s0,.16,0,0a3.84,3.84,0,0,1-.11.46,5.64,5.64,0,0,1-.67,1.15c-.24.31-.63.81-1,.88s-1.11-.46-1.48-.72a7.69,7.69,0,0,1-2.12-2.28,5.1,5.1,0,0,1-.29-.57c0-.07-.28-.75-.21-.5,0-.11-.15-.65-.08-.25,0-.14,0-.29-.05-.43,0,.32,0,.34,0,0,.07.77.1-.58,0,0,0-.08.21-.79.11-.49a5,5,0,0,1,.51-1.09,5.63,5.63,0,0,1,2.32-2c1.26-.62.82-5.49-.53-4.82Z"/><path class="cls-3" d="M273.1,109.88a43.51,43.51,0,0,0,1.7,12.37c.12.38.31,1.24.87,1.24s.79-.85.86-1.24c.3-1.54.62-3.08,1-4.61.08-.33.15-.66.24-1,0-.16.09-.32.14-.48-.1.31,0-.12.06-.17a5.69,5.69,0,0,1,.83-1.65c1.45-2,4.19-2.58,6.47-3.07.91-.2,1-1.77,1-2.5A4.8,4.8,0,0,0,286,107c-.1-.24-.37-.81-.71-.73-2.77.59-5.72,1.34-7.48,3.76a12.78,12.78,0,0,0-1.87,4.58c-.41,1.69-.75,3.4-1.09,5.11h1.73c-.25-.87-.48-1.74-.67-2.61-.1-.42-.18-.85-.26-1.27,0,0-.12-.72-.06-.33,0-.23-.07-.46-.1-.69-.12-.85-.22-1.71-.28-2.57,0,0-.05-.8,0-.27l0-.7c0-.47,0-.94,0-1.41s-.1-2.5-1-2.5-1,2-1,2.5Z"/><path class="cls-3" d="M298.11,104.45a10.81,10.81,0,0,0-4.58,3.61,10,10,0,0,0-1.76,6.13c.11,3.83,1.92,7.74,6,8.57a7,7,0,0,0,5.41-1.17c.81-.58.81-2.2.69-3.07-.05-.42-.41-2.33-1.23-1.75a6.13,6.13,0,0,1-4.87,1,5.67,5.67,0,0,1-2.33-1.09,4.2,4.2,0,0,1-.73-.73,3.91,3.91,0,0,1-.3-.41c0-.06-.35-.59-.23-.36a5.55,5.55,0,0,1-.24-.56c-.18-.47,0,.15-.08-.23,0-.11,0-.22-.08-.34.05.32.06.34,0,.09a2.28,2.28,0,0,1,0-.26c0-.19,0-.11,0,.23v-.34c0,.38,0,.43,0,.15,0-.48,0,.44,0-.17,0-.14,0-.11,0,.09l.12-.32a3.56,3.56,0,0,1,.24-.52,9.29,9.29,0,0,1,4.52-3.72c.33-.14.53-.88.59-1.15a5.17,5.17,0,0,0,.1-1.92c-.07-.6-.32-2.13-1.23-1.75Z"/><path class="cls-3" d="M311.84,103.46c-2.73,1.39-3.71,4.83-3.65,7.68a11.67,11.67,0,0,0,4,8.59A4.09,4.09,0,0,0,319,119a12.08,12.08,0,0,0,1.63-10.39,6.49,6.49,0,0,0-3.26-3.46c-1.64-.86-3.35-1.61-5-2.41-.88-.42-1.18,1.19-1.23,1.74a6,6,0,0,0,.1,1.93c.08.36.24,1,.6,1.15l3.59,1.72a14.36,14.36,0,0,1,2.84,1.59,3.58,3.58,0,0,1,.85,1c.34.58-.12-.09.08.22s0-.08,0-.18c-.08-.38,0,.56,0-.11,0,0-.05.38,0,.14s0,.21-.06.26a2.67,2.67,0,0,1-.13.48,9.55,9.55,0,0,1-.57,1.37,4.73,4.73,0,0,1-1.77,2,2.83,2.83,0,0,1-2.77-.19,8.15,8.15,0,0,1-2.25-2,9.23,9.23,0,0,1-.9-1.34c-.07-.14-.15-.31-.22-.48s-.11-.26-.16-.4l0-.1c0-.14-.07-.28-.1-.41.07.32,0,0,0-.15s0,.15,0,.18c0-.6-.06.33,0,0l0-.28c0,.49,0,0,0-.06.07-.32-.1.26,0,0,.05-.15.11-.3.17-.44a4.48,4.48,0,0,1,.71-1,4.34,4.34,0,0,1,1.24-.89c1.26-.64.8-5.5-.53-4.82Z"/><path class="cls-3" d="M329.82,95A116.07,116.07,0,0,1,331,106.7a42.58,42.58,0,0,1-.13,5.76c-.09.94-.2,1.89-.38,2.81-.07.41,0,.62-.46.49a4.07,4.07,0,0,1-1.15-.64l-2.25-1.51c-.38-.26-.8-.51-1.16-.8a1.67,1.67,0,0,1-.36-.34c.09,1.44.16,1.87.21,1.28a13,13,0,0,1,1.43-3.9c1.88-2.72,5.44-2.32,7.85-4.25.81-.64.8-2.15.7-3.07,0-.38-.45-2.37-1.23-1.75a13.81,13.81,0,0,1-4.43,1.88,7.42,7.42,0,0,0-3.7,2.6c-2,2.6-3.23,7.16-2.36,10.33.5,1.81,2.2,2.62,3.65,3.6,1.23.83,3,2.47,4.22.74,1-1.49,1.12-3.94,1.31-5.68a54.71,54.71,0,0,0,.27-6.4,119.07,119.07,0,0,0-1.31-14.23c-.07-.57-.33-2.15-1.23-1.75s-.78,2.42-.7,3.08Z"/><path class="cls-3" d="M338.28,109.7c3.51.21,7.12-.65,8.68-4.12a9.11,9.11,0,0,0,.27-6.48A3.41,3.41,0,0,0,346,97.23c-.72-.41-1.73,0-2.46.24a8.16,8.16,0,0,0-4.46,2.7,16.56,16.56,0,0,0-2.65,5.19,13.51,13.51,0,0,0-.48,7.21,13.7,13.7,0,0,0,2.61,5.16,8.78,8.78,0,0,0,2,2.23,4,4,0,0,0,2.76.46,13.16,13.16,0,0,0,5.69-2.64c.81-.62.8-2.17.69-3.08,0-.39-.43-2.35-1.23-1.74a14.2,14.2,0,0,1-3.56,2c-1.1.42-2.59.84-3.69.24a9,9,0,0,1-2.53-3,4.65,4.65,0,0,1-1-2.47,9.59,9.59,0,0,1,1.29-3.48,6.94,6.94,0,0,1,2.39-2.86,9.59,9.59,0,0,1,3.75-1.3.59.59,0,0,1,.47,0c.08.05.1.25.12.25s0-.86,0-.89-.14.46-.18.55c-1.27,2.58-4.78,2.81-7.27,2.66-1.35-.08-1.48,4.92,0,5Z"/><path class="cls-3" d="M185,134.64c-1.75,4.1-3.42,8.25-4,12.71a36.76,36.76,0,0,0-.13,6.8,28.51,28.51,0,0,1-.09,6.53l1.37-.9a52.48,52.48,0,0,0-4.54-7l-.77,4.57a40.34,40.34,0,0,1,5.1,6.67c.14.24.5.47.77.25a56.22,56.22,0,0,1,14.21-8.43c1.26-.51.93-5.41-.53-4.82a56,56,0,0,0-14.21,8.43l.77.25a44.44,44.44,0,0,0-5.58-7.18c-.63-.67-1.14,1.22-1.18,1.45a4.48,4.48,0,0,0,.41,3.12,53.23,53.23,0,0,1,4.54,7c.54,1,1.28-.42,1.37-.9.83-4.44,0-8.78.28-13.24.25-4.13,2-8,3.63-11.78a4.91,4.91,0,0,0,0-3.54c-.39-.87-1-.91-1.42,0Z"/><path class="cls-3" d="M167.2,177.93a185,185,0,0,0,8.45,20.39c.4.83,1,.92,1.41,0a4.89,4.89,0,0,0,0-3.53,190,190,0,0,1-8.45-20.4c-.32-.92-1.07-.83-1.41,0a5.19,5.19,0,0,0,0,3.54Z"/><path class="cls-3" d="M169.11,179.55a8.44,8.44,0,0,1,8.26.26c.28.18.93.92,1.12.95,0,0,0-1.37,0-1.39s-.09.21-.13.27a2.87,2.87,0,0,1-.56.69,8.17,8.17,0,0,1-4.29,1.54v5a4.45,4.45,0,0,1,4.94,2.21s0,.35,0,.08a3.08,3.08,0,0,1,0-.43c0-.19,0-.21,0,0a9.17,9.17,0,0,1-.46.95,4.1,4.1,0,0,1-2.51,1.67c-1.55.33-1.18,5.25,0,5,4-.83,5.41-5.38,4.81-9-.53-3.22-3.33-6.21-6.83-5.44-1.49.32-1.25,5.2,0,5,2.06-.34,4.21-.79,5.58-2.51a7.3,7.3,0,0,0,.46-7.71c-1-1.73-3.22-2.62-5.12-2.93a9.52,9.52,0,0,0-5.88,1c-1.26.65-.78,5.5.53,4.82Z"/><path class="cls-3" d="M193,173.1a8.82,8.82,0,0,0-5.57,2.77,10.4,10.4,0,0,0-2.63,7c-.11,4.5,2.38,9.59,7.38,9.87a7.36,7.36,0,0,0,6.09-2.7,4.44,4.44,0,0,0,.36-3.43c-.16-.66-.67-1.74-1.37-.89a6.32,6.32,0,0,1-8.56.69,6.15,6.15,0,0,1-1.41-1.72,9.07,9.07,0,0,1-.38-.93c.1.31,0-.14-.06-.24s-.08-.35,0-.08,0-.12,0-.17a1.59,1.59,0,0,1,0-.29s0,.63,0,.08-.06.39,0-.1-.08.27,0-.16a2.86,2.86,0,0,0,.07-.28c.09-.31-.09.25,0-.06a6.29,6.29,0,0,1,1.19-1.95A7.59,7.59,0,0,1,193,178.1c.91-.09,1-1.85,1-2.5,0-.49-.11-2.59-1-2.5Z"/></g></g></svg>