<svg xmlns="http://www.w3.org/2000/svg" viewBox="0 0 558.17 540.83"><defs><style>.cls-1{fill:#fff;}</style></defs><title>2SlideIntro</title><g id="Layer_44" data-name="Layer 44"><g id="IntroToSlides"><path class="cls-1" d="M94.17,80.34q1.14,68.58,2.29,137.15c.76,45.77,2.93,91.59-5.25,136.86-4.1,22.68-8.48,45.57-3.91,68.53.08.41.33,1.21.86,1.24,99.32,6,198.85,1.19,298-6.17,28-2.09,56-4.36,84-6.65.92-.08,1-1.92,1-2.5,1.26-42.87,1-85.77.43-128.65-.58-41,.78-82.93-8-123.22-2.46-11.28-5.54-22.42-8.64-33.54-1.55-5.57-3.12-11.13-4.61-16.71-2-7.39-4.45-15.23-2-22.8.25-.77.75-4.22-.71-4.27-47.11-1.62-94.29-3.24-141.41-1-46.14,2.2-92,8.49-138.21,9.67-26.16.67-52.36-.43-78.2-4.73-1.22-.21-1.54,4.74,0,5,45.86,7.63,92.41,4.92,138.49,1,46.43-3.92,92.58-7.41,139.22-7,26.71.22,53.42,1.13,80.11,2l-.7-4.27c-2.66,8.11-1.59,16.18.45,24.32,2.56,10.23,5.6,20.35,8.38,30.53,5.85,21.41,10.19,42.85,11.76,65s1.52,44.73,1.87,67.07c.34,22.1.62,44.21.67,66.31.06,25.08-.18,50.15-.91,75.21l1-2.5c-99.09,8.09-198.36,16.11-297.86,15.55q-42.09-.24-84.12-2.73l.87,1.24C84.42,397.23,90,374,94,351.21a390.27,390.27,0,0,0,5.33-62c.57-44.41-1.11-88.93-1.85-133.34L96.17,80.34c0-2.93-2-3-2,0Z"/><path class="cls-1" d="M157.82,446.76l-1.56,14.76a50.8,50.8,0,0,1-.59,5.53,3.67,3.67,0,0,1-2.3,4l-2.76-1.4c-7.22-3.74-14.21-7.89-19.06-14.61l-.24,4.57,26.51-12.41-1-4.18a59.85,59.85,0,0,0-3.21,27.38l1.23-3.08a32,32,0,0,0-10-5.81c-2.49-.87-7.39-.87-8.61-3.54l-.45,4.18,19.19-9.5-1.27-2.41c.08,2,1.68,12.35.22,13.42-1.18.86-9.41-5.23-11-6.23v4.82l8.75-5-1.26-2.41.16,3.05q.66,3.39-1.64-.38l-1.13,3.67c4.27,2.08,4.09-4.13,5.43-6.28.7-1.12-.08-5.82-1-4.32-.71,1.13-2.22,6.59-3.89,5.78-1.43-.69-1.25,3.09-1.13,3.67.36,1.69,2.13,6,4.59,4.3,2-1.42.71-7.75.62-9.49,0-.42-.2-3-1.27-2.41l-8.75,5c-1.11.64-1.06,4.17,0,4.82,3.25,2,6.54,4.46,10,6.11,1.6.77,2.23,1.44,3.4-.12.94-1.25.53-3.5.49-4.92-.1-4.36-.34-8.72-.51-13.08,0-.49-.17-2.95-1.26-2.41l-19.19,9.5c-1.1.55-.83,3.32-.44,4.18,1.23,2.68,3.34,3.19,6,3.88a32.91,32.91,0,0,1,13.47,6.75c1.09.91,1.27-2.73,1.23-3.07a49.17,49.17,0,0,1,2.69-22.52c.23-.62.6-4.91-1-4.18l-26.51,12.42c-1.2.56-.86,3.71-.24,4.57A41.26,41.26,0,0,0,142,469.85c2.18,1.4,4.45,2.66,6.74,3.86,1.43.75,4.12,2.89,5.8,2.6,3.17-.54,2.85-5.53,3.1-7.93l2.14-20.29c.23-2.12-1.56-4.72-1.92-1.33Z"/><path class="cls-1" d="M354.92,437.33c-2.09,3.33-2.08,6.91-1.79,10.73.27,3.61.63,7.22.95,10.83.15,1.78-.19,5.16.84,6.83,2.12,3.45,7.33-1.6,9.64-2.93q9.27-5.37,18.45-10.9c1-.61,1.15-4.29,0-4.82L355.35,434.4c-.68-.31-1,.64-1.13,1.15a83.19,83.19,0,0,0-1.79,14.33c-.08,2.7-.56,6.81,1.19,9.2,4.26,5.81,16.95-3.48,20.73-6.07,1-.72,1.12-4.13,0-4.82-4.23-2.62-8.43-5.28-12.69-7.85-2-1.17-4.84-3.36-7-1.37-3.5,3.22-1.43,12.64-.67,16.5.1.48.47,1.49,1.13,1.14l8.5-4.42c1.12-.58.82-3.28.44-4.18a21.07,21.07,0,0,0-4.46-6.7c-.26-.27-.62.08-.77.25A14.38,14.38,0,0,0,356,454c1.57,5.51,7.52,1.18,11.14-.2,1.24-.47,1-4.58-.26-4.91-3.06-.78-5.95-1.65-7.54-4.59l-.51,4.66a124.77,124.77,0,0,1,15.44,4.29c1.51.52,1.81-4.38.53-4.83a131.22,131.22,0,0,0-16-4.46c-1.51-.32-.81,4.09-.5,4.66,1.79,3.31,5.08,4.39,8.55,5.27l-.27-4.91c-1.65.63-6.22,3.27-7.87,2.93q-1.87-7.35,2-3.87a13.71,13.71,0,0,1,1.88,3.47l.44-4.18-8.5,4.42,1.13,1.15a25.83,25.83,0,0,1-.65-6.07l2.15-3.67c1.15-.48,5.26,2.79,6.3,3.44L373.82,453v-4.82c-4.12,2.82-10.29,7.2-15.37,7.66-3.6.32-4.11-1.91-4-5A70.17,70.17,0,0,1,356,438.07l-1.13,1.15,27.66,12.67v-4.82q-10.44,6.29-21,12.35c-1.5.87-3.44,2.78-4.73,1.76s-.8-4.14-.93-5.59c-.34-3.89-2.07-10.49.1-13.95.7-1.11-.07-5.81-1-4.31Z"/><path class="cls-1" d="M353.74,444.81a99.28,99.28,0,0,0-1.11,14.71c0,1.56-.15,4.64,1.78,5.31,1,.33,2.57-.74,3.32-1.06,2.32-1,4.63-2,6.94-3l15.6-6.85c1.08-.47,1-5.09-.26-4.91-4.33.61-8.28-4.64-12-6.66-3-1.66-6.76-3.31-10-1.29-4.26,2.66-4.9,8.73-3.07,13,1,2.38,1.93-2.35,1.41-3.54-1.18-2.74,2.39-5.29,4.69-5.45,2.95-.2,6.2,1.86,8.59,3.4,3.44,2.22,5.92,6.18,10.35,5.55l-.27-4.91-18.2,8a25.43,25.43,0,0,1-4.34,1.9c-2,.42-2,1.11-2.53-1.3-.68-3.12.57-8.32,1-11.5.29-2.14-1.48-4.71-1.92-1.33Z"/><path class="cls-1" d="M261.54,441.77l-14.07,28.64c-.57,1.16.26,5.88,1.42,3.53L263,445.31c.57-1.17-.27-5.88-1.42-3.54Z"/><path class="cls-1" d="M268.89,452.65c2.18-1,4.74-2.3,7.24-1.83,2.14.39,3.51,1.71,1.55,3.26-2.33,1.83-6.38,1.13-9,2.9-1.06.71-1.11,4.13,0,4.82a178.63,178.63,0,0,0,15.76,8.67l-.24-4.57c-2.13,3.12-7.68,2.83-11.05,3.24l-13,1.59c-1.5.18-1.29,5.15,0,5l16.76-2c3.21-.4,6.37-.6,8.33-3.47.59-.86,1-4-.24-4.57A178.45,178.45,0,0,1,269.21,457v4.82c4.7-3.17,13.16-1.52,12.42-9.72-.69-7.51-8.11-6.61-13.28-4.25-1.26.58-.86,5.46.54,4.82Z"/></g><g id="Layer_46" data-name="Layer 46"><path class="cls-1" d="M225.14,450.31c6.21-2.74,14.6,0,15,7.51a7.78,7.78,0,0,1-6.32,8.21,8.43,8.43,0,0,1-7.78-1.84l.7,1.74c-.25-2.62,6.16-2.25,7.46-1.76,3.24,1.22,5.29,4.22,7.2,6.95,1,1.47,1.79-3.21,1-4.32-3.24-4.61-10.26-12.12-16-6-1.64,1.76-2.5,5.31-1.37,7.57,1.54,3.05,6.55,3.29,9.35,2.49,15.89-4.53,7.08-32.83-9.82-25.37-1.27.56-.89,5.45.53,4.82Z"/><path class="cls-1" d="M146.69,132.36c-8.23,7.21-15.19,17-11.87,28.46,3.43,11.84,18.53,12.65,28.73,10.76,10.72-2,10.89-15.76,9-24.19-1.1-4.91-3.4-11.51-7.47-14.78-2.25-1.81-5.68-2.23-8.36-3.05s-4.76-1.39-7.28.08c-1.25.72-.71,5.54.53,4.82,3.34-1.94,7.48.31,10.87,1.32,4.77,1.41,7,5.57,8.76,10,1.8,4.72,2.88,10.86.74,15.63-1.84,4.09-5.56,5.14-9.69,5.47-6.67.54-16,.86-21.21-4.08-8.9-8.41,1.14-19.84,7.78-25.65,1.13-1,.37-5.61-.53-4.83Z"/><path class="cls-1" d="M185.89,152.52c3.09,6.07,4.16,12.6,5.09,19.28.39,2.85,1.9,1.53,2-.66.11-4.06.19-8.12.33-12.17.09-2.64-.2-6.52,2.08-8.41,1.66-1.39,4.25-1.8,5.88,0,1.31,1.41,1.92-3.33,1-4.32-3.63-3.93-8.44-.77-9.92,3.48-2.26,6.5-1.2,14.69-1.38,21.45l2-.67c-1-7.39-2.18-14.76-5.6-21.48-1.19-2.34-2,2.36-1.42,3.53Z"/><path class="cls-1" d="M272.17,147.5c1.41,0,1.42-5,0-5s-1.43,5,0,5Z"/><path class="cls-1" d="M273.65,158.15c1.75,7,2.54,16.11-.58,22.93-1.26,2.74-2.45,4.6-5.72,3a20,20,0,0,1-3.19-2.22c-3.36-2.53-7.28-5.77-7.26-10.47,0-2.94-2-3-2,0a16.27,16.27,0,0,0,4.71,11.86c2.63,2.74,9.27,9.29,13.05,5.29,3.11-3.28,3.7-10.42,4.13-14.66a53.48,53.48,0,0,0-1.41-18.3c-.78-3.12-2.1,1-1.73,2.53Z"/><path class="cls-1" d="M285.18,152a33.08,33.08,0,0,0,1.32,12c1.17,3.42,3.63,3.92,6.94,2.65,7.4-2.84,9.25-11.44,9.46-18.48L301,149.42a145.74,145.74,0,0,1,2.53,16.76c.31,3.38,2.13.81,1.93-1.33a157.4,157.4,0,0,0-2.73-17.95c-.57-2.67-1.83-.07-1.87,1.26-.15,5.09-1.77,10.34-6.5,13a9.35,9.35,0,0,1-3,1.1l-1,.1c-1.26.25-1.95-.23-2.09-1.43-1.53-2.1-1.21-6.45-1.1-8.89.14-3-1.86-2.95-2,0Z"/><path class="cls-1" d="M331.67,141.92c-4.38.49-11.2,1.83-9.86,7.67.57,2.52,3,3.55,5,4.83l5.54,3.52c1.43.91,4,1.9,4.83,3.44l-.2-3.93c-.7,1.91-5.43,3.32-7.13,4.05a65,65,0,0,1-9.62,3.21c-1.55.39-1.11,5.28,0,5a67.33,67.33,0,0,0,12.34-4.38c2.62-1.25,5.72-2.21,6.08-5.44.25-2.17-.63-3.4-2.31-4.58-2-1.4-4.16-2.64-6.23-3.95-.44-.28-6.35-3.56-6.35-3.73L323,150c2.39-2.09,5.56-2.77,8.66-3.12,1.49-.16,1.3-5.14,0-5Z"/><path class="cls-1" d="M352.39,120.86q-2.28,21.2-3.9,42.46c-.16,2.11,1.67,4.74,1.93,1.33q1.62-21.27,3.9-42.46c.23-2.13-1.56-4.73-1.93-1.33Z"/><path class="cls-1" d="M343.66,139.42a123.17,123.17,0,0,0,21-3.81c1.55-.43,1.09-5.3,0-5a123.17,123.17,0,0,1-21,3.81c-1.49.13-1.33,5.12,0,5Z"/><path class="cls-1" d="M160.75,217.19c-7.31,3.21-17.86,6.05-16.69,16.06a6.5,6.5,0,0,0,5.5,6.17c4.3,1,9.24,1.28,12.95-1.44,1.2-.87.53-5.59-.53-4.82-2.52,1.85-5.35,2.07-8.39,1.82-2.28-.19-7-.23-7.34-3.12-.58-4.9,11.76-8.41,15-9.85,1.26-.56.88-5.45-.54-4.82Z"/><path class="cls-1" d="M173,205.7a68.24,68.24,0,0,1,1.16,28c-.25,1.47,1.19,5.67,1.73,2.52a80.45,80.45,0,0,0-1.16-33.06c-.78-3.13-2.1,1-1.73,2.52Z"/><path class="cls-1" d="M187.05,224.68a80.13,80.13,0,0,1,.36,15.17c0,.59-.16,2.9.7,3.08s1.17-1,1.23-1.75a93.91,93.91,0,0,0-.37-17.82c-.39-3.38-2.18-.83-1.92,1.32Z"/><path class="cls-1" d="M189.17,216.5h.5c.36,0,.59-.47.7-.73a4.68,4.68,0,0,0,.3-1.77,4.43,4.43,0,0,0-.3-1.77c-.13-.29-.32-.73-.7-.73h-.5c-.36,0-.6.47-.71.73a4.67,4.67,0,0,0-.29,1.77,4.42,4.42,0,0,0,.29,1.77c.13.29.33.73.71.73Z"/><path class="cls-1" d="M206.82,216.51c-4.75,4.45-9.49,11.11-9.11,18,.36,6.58,7.29,9.69,12.1,4.84,1.07-1.08.24-5.6-.53-4.82-3.05,3.07-10,3.72-9.07-2.76.53-3.71,4.57-8,7.14-10.39,1.11-1,.31-5.61-.53-4.82Z"/><path class="cls-1" d="M219,204.74c3.32,10.47,2.94,21.43,2.53,32.26-.11,3,1.89,3,2,0,.46-12.11.58-24.12-3.12-35.79-.76-2.4-1.79,2.33-1.41,3.53Z"/><path class="cls-1" d="M235.68,217.67c-4.73,1.2-15.22,1.45-12.37,9,2.52,6.63,11.26,9,14,15.69,1,2.38,1.9-2.34,1.41-3.54a20.89,20.89,0,0,0-5.84-7.72c-1.37-1.22-2.81-2.34-4.17-3.56-.85-.74-3.7-2.88-3.87-4.08l-.46,2.82c1.3-2.34,8.83-2.94,11.27-3.56,1.56-.39,1.12-5.28,0-5Z"/><path class="cls-1" d="M271.84,224.15l1,12.89c.17,2.21,1.71,2.17,1.92,0,.29-2.92-.23-9.21,2.42-11,2.88-1.91,7.18-2.66,10.47-3.56,1.55-.42,1.09-5.29,0-5-2.34.64-4.65,1.34-6.93,2.15-1.85.66-4.28,1.2-5.59,2.75a8.43,8.43,0,0,0-1.44,4.5c-.35,2.93-.57,5.87-.85,8.8h1.92l-1-12.89c0-.64-.34-2-1.23-1.74s-.75,2.47-.7,3.07Z"/><path class="cls-1" d="M298.8,220.51,298.22,233c0,.59.1,2.5,1,2.5s1-2,1-2.5l.58-12.49c0-.59-.11-2.5-1-2.5s-1,2-1,2.5Z"/><path class="cls-1" d="M298.9,210.41l.5.5c.26.26.63-.06.77-.25a3.21,3.21,0,0,0,.46-1.5,3.83,3.83,0,0,0-.7-3.07l-.5-.5c-.26-.26-.63.06-.77.25a3.46,3.46,0,0,0-.46,1.5,3.87,3.87,0,0,0,.7,3.07Z"/><path class="cls-1" d="M327.85,215.22c-5.17-2-12.52.68-15,5.86-1.89,3.88-.47,8.58,1.85,11.94,2.78,4,7.73,6.6,11.24,1.76,3-4.2,1.72-10.08-.05-14.46-.83-2-1.74.92-1.71,1.77.19,6.54.52,13.36-1.59,19.64-.91,2.7-2.18,5.8-4.93,7.13-3.53,1.69-7.22-.44-10.23-2.22-1.21-.72-1.79,4.07-.53,4.82,6.88,4.07,12.95,3.79,16.37-4.13s3.16-16.86,2.91-25.24l-1.71,1.77c1.39,3.42,1.42,9-3.62,8.71-3.35-.19-5-3.41-5.71-6.13-1.15-1.81-.72-3.13,1.3-4a18.4,18.4,0,0,1,2.66-1.69c2.76-1.4,5.31-1.86,8.25-.73,1.47.56,1.81-4.33.53-4.82Z"/><path class="cls-1" d="M338.64,201.09a100.72,100.72,0,0,1,.47,26.53L341,229a25.65,25.65,0,0,1,1.71-7.07l1.26-2.65c.42-1.77,1.12-1.92,2.13-.43,2.91,1.77,3.48,7.43,4.06,10.48s2-1,1.73-2.52c-.52-2.73-2.46-15.12-6.87-14.36-1.81.3-3.12,4.47-3.72,5.95a34.38,34.38,0,0,0-2.22,9.27c-.25,2.13,1.53,4.72,1.92,1.33a110.93,110.93,0,0,0-.46-29.18c-.5-3.36-2.25-.83-1.93,1.32Z"/><path class="cls-1" d="M368.76,192.66a121.1,121.1,0,0,1-2.52,35.06c-.33,1.49,1,5.66,1.73,2.53a134.25,134.25,0,0,0,2.72-38.92c-.25-3.4-2.09-.8-1.93,1.33Z"/><path class="cls-1" d="M361.67,214.59a63.37,63.37,0,0,0,20.82-4c1.25-.47,1-5.38-.53-4.82a61.72,61.72,0,0,1-20.29,3.86c-1.43,0-1.41,5,0,5Z"/><path class="cls-1" d="M153.06,278.24c-.75,2.18-3.07,3.33-3.82,5.6a10.1,10.1,0,0,0,.14,6.27,9,9,0,0,0,4.45,5c1.85,1,4.85,2.56,7,1.79,4.09-1.46,4.42-7.88,3.53-11.36a9.28,9.28,0,0,0-10.65-7c-1.52.24-1.25,5.2,0,5a8.38,8.38,0,0,1,7.3,2c1.32,1.27,2.15,3.13,1.2,4.88-1.06,2-3.05,1.79-4.89,1.15s-6.32-2.33-6.4-4.6c0-1,1.43-1.89,2-2.59a7.82,7.82,0,0,0,1.55-2.6c.33-1,.59-2.62,0-3.53-.45-.69-1-1.1-1.42,0Z"/><path class="cls-1" d="M169.82,278.51l-.54,15.38,2-.66c-.31-4.1,2.13-8.12,5.37-10.47,2.72-2,3.93,1.08,4.8,3.31a25.13,25.13,0,0,1,1.66,7.94c0,.54.09,2.56,1,2.5s1-1.93,1-2.5c-.16-3.56-2.15-20.23-8.26-16.57-5.83,3.5-8,10.7-7.5,17.12.23,2.9,1.89,1.47,2-.67l.54-15.38c.1-3-1.9-3-2,0Z"/><path class="cls-1" d="M218.69,267.5A178.74,178.74,0,0,0,220,288.69c.42,3.37,2.19.82,1.93-1.33a164.84,164.84,0,0,1-1.27-19.86c0-2.94-2-3-2,0Z"/><path class="cls-1" d="M213.16,280.48l16-2.1c1.51-.2,1.28-5.17,0-5l-16,2.1c-1.51.2-1.28,5.17,0,5Z"/><path class="cls-1" d="M235.35,265.15q1.25,15.09,1.36,30.23l2-.66c-.35-2.23-1-5.48-.38-7.66,1.42-4.89,3.74-1.26,5.38.92,2.21,2.94,3.57,6.84,4.79,10.29.84,2.4,1.83-2.33,1.41-3.53-1.07-3.05-5.87-17.63-11.21-15-4.26,2.1-2.47,12.81-1.91,16.31.44,2.78,2,1.59,2-.67q-.12-15.81-1.43-31.56c-.28-3.39-2.11-.8-1.93,1.33Z"/><path class="cls-1" d="M256.65,288.68c5.58.93,12.86-.06,11.46-7.34-1.2-6.27-9.47-5.73-13.31-2.31-10,8.87,8.75,27.33,14.75,17.06.66-1.14-.14-5.82-1-4.32-2.08,3.56-6.37,2.49-9.2.49a15.76,15.76,0,0,1-3.7-3.68c-1.58-2.19-2-3.58.49-5.38a9.09,9.09,0,0,1,4.54-1.69c1-.09,3.95-.14,4.5.88,1,1.93-7.12,1.53-8.52,1.29-1.22-.2-1.54,4.75,0,5Z"/><path class="cls-1" d="M308.81,284.26a27.82,27.82,0,0,1,.85,9.57c-.06.65-.16,2.81.7,3.08s1.17-1.1,1.23-1.75a39.13,39.13,0,0,0-1.06-13.42c-.19-.76-.61-1.61-1.36-.9s-.58,2.6-.36,3.42Z"/><path class="cls-1" d="M308.67,279.5c1.41,0,1.42-5,0-5s-1.43,5,0,5Z"/><path class="cls-1" d="M322.19,295.32c1.13-3.71,2.17-9.4,4.43-12.67,0-1.42.71-2,2-1.83,1.37-.67,2-.15,2,1.55,1.37,2.13,1.75,6,2.24,8.54.1.49.81,1.92,1.37.9l3.43-6.28,1.72-3.13q.48-2.73,2.17-.74c3.77,1.57,4.7,10.61,5.33,14.17.56,3.16,2-1,1.73-2.52A62.35,62.35,0,0,0,346,283.16c-.69-1.92-1.72-6.44-3.76-7.64-1.5-.88-2.08,0-3,1-2.49,2.94-4.17,7.61-6,11l1.37.9c-.44-2.21-2.82-16.59-6.81-14.33-2,1.14-2.84,5.55-3.58,7.49-1.41,3.7-2.65,7.46-3.8,11.25-.45,1.5.79,5.61,1.73,2.52Z"/><path class="cls-1" d="M368.91,274.1c-4.4,1.6-11.75,3.65-13.42,8.62-1.11,3.29-.37,9.34,2.58,11.58,3.18,2.41,8.43-2.37,10.23-4.85a17.46,17.46,0,0,0,2.92-12.58l-1.67,2.43a111.78,111.78,0,0,0,6.34,11c1,1.48,1.75-3.19,1-4.32A105.58,105.58,0,0,1,371,275.76c-1.12-2.23-1.78,1.56-1.67,2.44a10,10,0,0,1-2.64,7.75c-1.51,1.75-4.85,4.52-7.26,3.64a3.21,3.21,0,0,1-1.27-5.06,11,11,0,0,1,3.48-2.19,63.45,63.45,0,0,1,7.84-3.42c1.25-.45,1-5.37-.53-4.82Z"/><path class="cls-1" d="M389.94,273.12c-3.38,3.21-9.44,6.78-9.12,12.09a8.28,8.28,0,0,0,8.16,7.92c10.32-.21,10-16.89,2.71-20.93-1.43-.8-1.4,4-.53,4.82,6.57,6.1,5.88,15.83,5.27,24-.27,3.6.41,11-4.34,11.52-4.37.43-8.64-2.2-11.27-5.45-1.17-1.46-1.86,3.26-1,4.31,2.93,3.64,8.81,7.68,13.82,5.9,4.84-1.72,4.33-10,4.66-14,.84-10.41,1.77-23.34-6.6-31.11l-.53,4.82c3.45,1.92,4.7,8.16.7,10.37a6.42,6.42,0,0,1-6.39-.17c-2.89-1.66-2.27-2.07-.52-4s3.71-3.52,5.52-5.25c1.1-1,.3-5.61-.53-4.82Z"/><path class="cls-1" d="M408.71,284.16a10,10,0,0,0,8.72-9.78c0-1.69-.37-4-2.1-4.82-2.55-1.15-4.71,1.86-6.09,3.54-3.51,4.3-6.83,9.33-5.27,15.14a6.91,6.91,0,0,0,10.51,4.23c1.22-.8.61-5.57-.54-4.82a5.74,5.74,0,0,1-6.23.22c-3.66-2.33-.87-6.08,1-8.48.81-1.07,4.24-6.23,5.82-5.11,2.67,1.92-5.34,4.81-5.79,4.88-1.52.23-1.26,5.19,0,5Z"/><path class="cls-1" d="M152.15,335.19a130.13,130.13,0,0,0-5,42.31c.13,2.91,2.13,3,2,0a121.84,121.84,0,0,1,4.74-39.78c.43-1.5-.83-5.62-1.73-2.53Z"/><path class="cls-1" d="M138.17,367a128.72,128.72,0,0,0,16.48-2.12c1.54-.29,1.2-5.23,0-5A128.72,128.72,0,0,1,138.17,362c-1.47.1-1.36,5.09,0,5Z"/><path class="cls-1" d="M167.59,361.06c-4.93,2.43-7.17,7.81-6.36,13.13s5.06,9.86,10.69,8.81c12.7-2.35,5.64-21.76-4.27-22.6-1.32-.11-1.49,4.88,0,5,3.18.27,5.2,2.33,6.93,4.85.92,1.34,2.58,3.44,1.62,5.21-.73,1.35-2.89,2.26-4.28,2.54a7.53,7.53,0,0,1-7.78-3.12c-2.58-3.82.68-7.37,4-9,1.26-.62.82-5.49-.53-4.82Z"/><path class="cls-1" d="M232.41,359.86c-4.06,1.93-7.66,4.24-8.49,9-.58,3.32.23,7.56,3.85,8.7,8.87,2.77,9.82-10.58,5.46-15.21-1.37-1.46-1.75,3.34-1,4.32,2,2.6,3.82,5.53,6,7.95,1.12,1.23,2.25,1.5,2.93-.28.35-.91.6-2.67,0-3.53-.47-.69-1-1.09-1.41,0l-.2.51.71-.73c-1.68.41-6.07-6.94-7.06-8.24l-1,4.32c1.61,1.71,2.38,3.76.16,5.37a5.1,5.1,0,0,1-4.33.56c-6-1.83,2.76-6.88,4.89-7.89,1.26-.59.84-5.47-.54-4.82Z"/><path class="cls-1" d="M254.22,341.85c1.1,3.3,2.21,6.6,3,10,.71,3,3,13.28-.69,15.22-2.79,1.47-7.24-1.45-7.16-4.56,0-2.08,1.87-2.1,3.92-2.73,1.61-.49,3.24-.88,4.88-1.25s1.16-5.26,0-5c-5.16,1.16-12.23,2-11.71,8.63.3,3.87,3.31,10,7.75,10.34,5.65.46,6.12-7.24,6.19-11.2.12-7.94-2.29-15.53-4.77-23-.79-2.4-1.81,2.33-1.41,3.53Z"/><path class="cls-1" d="M266.79,357.59,273,369a.56.56,0,0,0,.77.26,44.8,44.8,0,0,0,14.46-14.59c.69-1.12-.09-5.81-1-4.32a42.56,42.56,0,0,1-9.79,11.18,9.53,9.53,0,0,1-2.58,1.87c-1.58.45-1.57-.4-2.39-1.57-1.82-2.6-3.14-5.79-4.65-8.58-.8-1.48-1.65,3.14-1,4.32Z"/><path class="cls-1" d="M300.05,350.82c-4.26,2.09-10.68,4.66-12.55,9.47-1.18,3-.92,8.13,2.7,9.39,4,1.38,7.95-2.34,9.45-5.66a14.85,14.85,0,0,0,.14-11.66l-1.21,3.93a71.31,71.31,0,0,1,7.88,12c.55,1.07,1.21-.47,1.36-.89a4.67,4.67,0,0,0-.35-3.42,71,71,0,0,0-7.88-12c-1.34-1.65-1.49,3.24-1.21,3.93,1.08,2.63-.14,5.47-2.22,7.25-1.22,1-4.88,3-6.34,1.33-2.38-2.72,9.08-8,10.76-8.84,1.26-.62.82-5.49-.53-4.82Z"/><path class="cls-1" d="M310.54,351.09c1,4.58,1.83,9.18,2.43,13.83L314.8,363c-.59-2.93.88-5.85,2.15-8.38.34-.66.7-2,1.33-2.42,1.52-1.12,2.16.31,2.94,1.34a21.32,21.32,0,0,1,4.22,11.63c0,.65.34,2.06,1.23,1.75s.74-2.47.7-3.08a28.2,28.2,0,0,0-2.81-10.8c-.83-1.66-3.25-6.93-5.73-6.41s-4.3,6.35-5,8.38a19.59,19.59,0,0,0-.75,10.51c.59,3,2-.53,1.83-1.92q-1-7.59-2.63-15c-.2-.88-.59-1.46-1.37-.89s-.52,2.69-.36,3.42Z"/><path class="cls-1" d="M350.09,344.81c-4,.12-8.4.37-11.34,3.45a10.23,10.23,0,0,0-2.18,9.38,17.42,17.42,0,0,0,6.55,9.47c3.5,2.53,6.58-.3,8.87-3,.85-1,.21-5.77-1-4.32-1.53,1.83-3.4,3.89-6,3.17-2.23-.61-4.2-3.29-5.45-5.17-4.4-6.61,6.61-7.83,10.54-7.95,1.44-.05,1.39-5.05,0-5Z"/><path class="cls-1" d="M361.18,357.5c6.27-.51,15.68-1.87,16.95-9.54.31-1.86.23-4.77-1.6-5.86-2.95-1.75-8.09,1.47-10.19,3.36-4.74,4.26-7.19,11.8-5.15,18,2.78,8.43,14,5.86,18.95,1.16,1.1-1,.3-5.61-.54-4.82-3.19,3-7.56,4.9-12,4-7.9-1.53-4.24-10.82.21-14.3a13.52,13.52,0,0,1,5.07-2.53c3.2-.75,2.75.79.48,2.36-3.49,2.43-8.05,2.82-12.17,3.16-1.48.12-1.34,5.11,0,5Z"/></g></g></svg>