<svg xmlns="http://www.w3.org/2000/svg" viewBox="0 0 558.17 540.83"><defs><style>.cls-1{fill:#fff;}</style></defs><g id="Layer_13" data-name="Layer 13"><g id="Layer_16" data-name="Layer 16"><path class="cls-1" d="M128.21,163.07C130.15,193,130.9,223,130.16,253q-.56,22.44-2.27,44.84-.87,11.2-2.06,22.4c-.79,7.44-1.62,14.89-1.7,22.38-.09,8.28,1.07,16.43,2.28,24.6,1.19,7.93,2.38,16,1.77,24,0,.59-.14,3.14,1,3.17l109.25,2.95c36.46,1,73,2.57,109.43.92,20.56-.94,41.07-2.61,61.58-4.28,1.48-.12,1.34-5.11,0-5-18.25,1.49-36.51,3-54.79,3.94s-36.27,1.26-54.42,1c-36.46-.57-72.91-1.86-109.35-2.85l-61.7-1.66,1,3.16c1.12-14.85-3-29.22-3.86-43.95a136.49,136.49,0,0,1,1-22c.79-7.63,1.59-15.27,2.22-22.92A898.17,898.17,0,0,0,132.29,213q-.45-25.65-2.15-51.26c0-.59-.36-2.14-1.23-1.75s-.74,2.4-.7,3.08Z"/><path class="cls-1" d="M110.47,234.38c-5.74-.79-12.16-1.56-17.41,1.51A7.11,7.11,0,0,0,89.7,244c.7,2.68,3,3.55,5.34,4.43,4.83,1.81,10.35,5,12,10.28,1.52,4.79-2.08,8.91-6.71,9.82-6,1.17-12-1.06-18,.25-1.55.34-1.17,5.26,0,5,5.4-1.19,10.86.45,16.3,0a11.91,11.91,0,0,0,6.91-2.64,11.74,11.74,0,0,0,3.6-6.73,17,17,0,0,0-4.92-15.62,24.08,24.08,0,0,0-7-4.52c-1.11-.48-2.26-.84-3.37-1.31a8.19,8.19,0,0,1-1.47-.76,8.88,8.88,0,0,1-.7-.55,3.09,3.09,0,0,1-.26-.37c-.23,1.49-.21,2,.07,1.36a9.24,9.24,0,0,1,1.8-1.73,13.25,13.25,0,0,1,2.16-1.09,17.05,17.05,0,0,1,4.79-1.06,46,46,0,0,1,10.28.61c1.26.17,1.53-4.79,0-5Z"/><path class="cls-1" d="M275.53,409a96.65,96.65,0,0,0-28.85,28.39,4.66,4.66,0,0,0-.35,3.42c.13.57.74,1.85,1.36.9a94.67,94.67,0,0,1,28.37-27.89c1.23-.78.64-5.57-.53-4.82Z"/><path class="cls-1" d="M245.9,416.05c5.89,3.41,8.63,10.09,12.86,15.12a47,47,0,0,0,16.76,12.68c1.39.62,1.81-4.25.53-4.82a45.57,45.57,0,0,1-16.8-12.81c-4.11-5.09-6.94-11.6-12.82-15-1.23-.7-1.8,4.09-.53,4.82Z"/><path class="cls-1" d="M24.05,115.07a127.45,127.45,0,0,1,4.47,19c.09.55.34,2.17,1.23,1.75s.81-2.41.7-3.08a142.81,142.81,0,0,0-5-21.2c-.3-.94-1.08-.81-1.42,0a5.37,5.37,0,0,0,0,3.54Z"/><path class="cls-1" d="M24.78,113a110.35,110.35,0,0,0,15.11-2.34c1.54-.35,1.15-5.26,0-5A110.35,110.35,0,0,1,24.78,108c-.91.07-1,1.85-1,2.5,0,.5.1,2.57,1,2.5Z"/><path class="cls-1" d="M29.24,124.19a67.59,67.59,0,0,0,10.33-1.13c.91-.17,1-1.79,1-2.5a4.61,4.61,0,0,0-.29-1.77c-.11-.25-.35-.8-.71-.73a67.59,67.59,0,0,1-10.33,1.13c-.9,0-1,1.89-1,2.5a4.43,4.43,0,0,0,.3,1.77c.12.28.33.74.7.73Z"/><path class="cls-1" d="M48.39,124.26c.14.37.27.75.4,1.13s-.09-.31,0,.15c.05.17.1.33.14.5.2.72.38,1.44.52,2.17,0,.17.07.34.1.51l.06.33,0-.25a7.75,7.75,0,0,1,.16,1.19c0,.34.08.68.11,1,0,.17,0,.34,0,.52s0,.22,0,.34c0-.38,0-.43,0-.15a5.1,5.1,0,0,0,.29,1.77c.11.26.35.73.71.73.88,0,1-2,1-2.5a36.55,36.55,0,0,0-2.12-11c-.1-.26-.36-.73-.71-.73s-.6.47-.71.73a5.37,5.37,0,0,0,0,3.54Z"/><path class="cls-1" d="M47.1,115.52c1.42,0,1.43-5,0-5s-1.42,5,0,5Z"/><path class="cls-1" d="M55.32,101.69q2.53,15.51,6.55,30.73c.18.68.65,1.69,1.37.9s.59-2.54.36-3.43c-2.59-9.73-4.73-19.59-6.35-29.53-.09-.57-.32-2.16-1.23-1.75s-.8,2.43-.7,3.08Z"/><path class="cls-1" d="M52.68,118.23a123.64,123.64,0,0,0,18.45-3.75c1.55-.44,1.07-5.31,0-5a123.64,123.64,0,0,1-18.45,3.75c-1.51.18-1.29,5.16,0,5Z"/><path class="cls-1" d="M76.39,115.37a43.45,43.45,0,0,0,3,12.41c.1.27.35.74.71.74s.6-.47.7-.74a5.22,5.22,0,0,0,0-3.53c-.22-.62-.31-.92-.47-1.52,0-.22-.11-.45-.16-.68,0-.08-.18-.93-.12-.56-.09-.54-.14-1.09-.2-1.63,0-.33,0-.32,0,0,0-.13,0-.25,0-.38V119c0-.29,0-.26,0,.09,0-.13,0-.26,0-.38s0-.26,0-.38q-.08.42,0,0c0-.18.08-.37.13-.55-.1.4.11-.3.14-.37a3.56,3.56,0,0,1,1.38-1.71c.63-.31,1.48,1.12,1.81,1.54a22.41,22.41,0,0,1,1.74,2.58,20,20,0,0,1,2.14,5.36c.15.61.72,1.79,1.37.9a4.61,4.61,0,0,0,.36-3.42,25.23,25.23,0,0,0-5.63-11c-.7-.78-1.44-1.45-2.47-.71a6.2,6.2,0,0,0-1.78,2.19,13.56,13.56,0,0,0-1.26,6.47,26.1,26.1,0,0,0,1.55,8.15l1.41-3.53a35.77,35.77,0,0,1-1.63-5c-.1-.42-.2-.85-.28-1.28-.05-.23-.1-.46-.14-.7,0,0-.13-.72-.06-.34-.16-.94-.27-1.89-.36-2.84,0-.48-.39-2.26-1.23-1.74s-.77,2.29-.69,3.07Z"/><path class="cls-1" d="M93.16,117.3a13,13,0,0,0,4.63-1.49c1.29-.7,3-1.8,3.56-3.22s.56-3.63-.6-4.66a9.43,9.43,0,0,0-2.22-1.28,5.69,5.69,0,0,0-4.68-.37c-3,1.27-3.7,5.58-3.41,8.43.37,3.61,2.57,6.45,5,9a3,3,0,0,0,2.37,1.06,12.24,12.24,0,0,0,2.65-.66,10.19,10.19,0,0,0,4.69-2.71,3,3,0,0,0,.46-1.49,5.69,5.69,0,0,0-.1-1.93c-.17-.72-.64-1.68-1.37-.89-1.22,1.31-3.14,1.88-4.82,2.35-1,.28-2,.61-2.89-.12a15,15,0,0,1-1.94-2.12,13.17,13.17,0,0,1-1.61-2.32c-.1-.2-.19-.41-.27-.61s-.2-.54-.13-.34a4.18,4.18,0,0,1-.15-.61c.11.5,0,.2,0,.08,0,.15,0,.46,0,.13s-.08.41,0,0c0-.12.1-.41,0,.07a2,2,0,0,1,.06-.26l.06-.26s-.1.3,0,.09l.09-.24c.1-.26,0,0,.07-.16A3.41,3.41,0,0,1,94,111.29a4,4,0,0,1,3-.19,8.09,8.09,0,0,1,1.63.7c.29.15.57.32.85.48l.31.19c.23.14.26.3.13-.06l-.3-1.77v.18l.3-1.76c0-.09-.35.28-.43.36-.25.22-.51.43-.77.62A12.5,12.5,0,0,1,97,111.15a11.52,11.52,0,0,1-3.81,1.15c-.91.11-1,1.83-1,2.5,0,.47.12,2.61,1,2.5Z"/><path class="cls-1" d="M115.19,99.89c-2.17.67-5,2-5.86,4.31a5.82,5.82,0,0,0,.83,5.51,17.54,17.54,0,0,0,2.87,2.64,20.88,20.88,0,0,0,3.29,2c.53.26,1.09.47,1.62.74.32.16.69.57,1,.68.39-.32.36-.82-.11-1.51,0-.11,0,0-.08.18s-.16.28-.25.41a4,4,0,0,1-1.09,1,4.6,4.6,0,0,1-3,.77c-1.31-.12-1.5,4.86,0,5,4.86.43,7.7-5.44,5.94-9.53-.81-1.89-3.09-2.34-4.71-3.28a19.24,19.24,0,0,1-2.59-1.79q-.68-.54-1.29-1.14a5.5,5.5,0,0,1-.54-.54c-.68-.78,0-.69-.17,1.23l-.25,1.1c.2-.62,1.27-1.24,1.82-1.6a11,11,0,0,1,2.62-1.24c1.56-.47,1-5.31,0-5Z"/><path class="cls-1" d="M130.27,94.34c-2.89.24-7.14,1-8,4.27a7.61,7.61,0,0,0,.71,5.83,10.64,10.64,0,0,0,3.38,3,29.4,29.4,0,0,0,4.25,2.28c.69.3,1.43.53,2.12.84a3.29,3.29,0,0,1,.49.26c.45.37.47,0,0-1.11.08-.07,0,.2,0,.25a6.73,6.73,0,0,1-6,4.14c-1.43,0-1.4,5,0,5a8.11,8.11,0,0,0,6.62-4,10.18,10.18,0,0,0,1.37-4.36c.14-1.68,0-4-1.7-4.9-1.34-.74-2.87-1.14-4.23-1.85a26.29,26.29,0,0,1-4-2.54,5.85,5.85,0,0,1-.9-.82c-.15-.18-.28-.54-.44-.69-.32,1.52-.28,2,.13,1.4a3.87,3.87,0,0,1,.45-.35,5.57,5.57,0,0,1,.76-.41,14.69,14.69,0,0,1,5.05-1.24c1.48-.12,1.35-5.11,0-5Z"/><path class="cls-1" d="M40.53,148c1.09,2.51.62,5.35.65,8a43.64,43.64,0,0,0,1.31,10.18,4.54,4.54,0,0,0,.84,2,2.38,2.38,0,0,0,1.77.58,40.08,40.08,0,0,0,4.65,0A37.65,37.65,0,0,0,59.21,167c1.56-.51,1-5.33,0-5a37.63,37.63,0,0,1-8.72,1.78,34.92,34.92,0,0,1-4.46.1l-1.11-.06a4.21,4.21,0,0,1-.5,0c-.19-.06-.23,0-.11.31-.24-.08-.46-1.94-.52-2.24a39.28,39.28,0,0,1-.58-8.45,21.06,21.06,0,0,0-1.27-8.88c-.38-.86-1-.89-1.41,0a4.94,4.94,0,0,0,0,3.53Z"/><path class="cls-1" d="M43.75,157.34a39.76,39.76,0,0,0,12-2.81c.32-.13.53-.89.59-1.15a5.45,5.45,0,0,0,.1-1.93c-.08-.6-.32-2.11-1.23-1.74a38,38,0,0,1-11.47,2.63c-.91.06-1,1.86-1,2.5a4.6,4.6,0,0,0,.3,1.76c.11.28.34.76.7.74Z"/><path class="cls-1" d="M41.8,148.75a26.64,26.64,0,0,0,10.86-2.09c.33-.14.53-.88.6-1.15a5.69,5.69,0,0,0,.1-1.93c-.08-.6-.32-2.12-1.23-1.74a25.35,25.35,0,0,1-10.33,1.91c-.36,0-.6.48-.71.73a4.67,4.67,0,0,0-.29,1.77,4.61,4.61,0,0,0,.29,1.77c.14.29.33.72.71.73Z"/><path class="cls-1" d="M69.43,162.81a37.14,37.14,0,0,1-2.71-13.45,29.48,29.48,0,0,1,.11-3.12c.07-.78.22-1.3,1-1.61,1.69-.63,3.56.49,5.13-.78.8-.65.8-2.15.69-3.08,0-.37-.45-2.37-1.23-1.74-1.72,1.39-4.29-.36-6,1.4-1.88,1.93-1.7,5.6-1.73,8.09A46.67,46.67,0,0,0,68,166.35c.36.9,1,.84,1.41,0a5,5,0,0,0,0-3.54Z"/><path class="cls-1" d="M61.33,157.88l11.74-1.24c.91-.09,1-1.84,1-2.5a4.87,4.87,0,0,0-.29-1.77c-.12-.26-.35-.77-.71-.73l-11.74,1.24c-.91.09-1,1.84-1,2.5a4.87,4.87,0,0,0,.29,1.77c.11.26.35.77.71.73Z"/><path class="cls-1" d="M84.77,160.72a84,84,0,0,1-4.42-14.62,14.84,14.84,0,0,1-.13-5.71,8.72,8.72,0,0,1,1.07-2.78c.71-1.17,1.77-.78,2.8-.23,1.29.68,1.81-4.15.53-4.83-1.1-.58-2.42-1.13-3.53-.25a8,8,0,0,0-2,3.54,22.17,22.17,0,0,0-.95,9.33c.57,6.52,2.95,13,5.23,19.08.35.92,1.05.84,1.42,0a5,5,0,0,0,0-3.53Z"/><path class="cls-1" d="M74.46,150.34a16.32,16.32,0,0,0,10-1.73c.34-.17.53-.84.6-1.14a5.45,5.45,0,0,0,.1-1.93c-.07-.53-.35-2.21-1.23-1.75a15.4,15.4,0,0,1-9.48,1.55c-.34-.05-.62.53-.7.73a4.68,4.68,0,0,0-.3,1.77,4.43,4.43,0,0,0,.3,1.77c.14.32.31.67.7.73Z"/><path class="cls-1" d="M92.34,154.18a24.29,24.29,0,0,0,4.8-1.35c1.44-.58,3-1.24,3.66-2.72a5.93,5.93,0,0,0-.88-6.36,4.54,4.54,0,0,0-3.59-1.18,8.25,8.25,0,0,0-4.1,1.9,7.15,7.15,0,0,0-2.81,4,8.86,8.86,0,0,0,1.07,6.5,26.45,26.45,0,0,0,3,3.84,6.25,6.25,0,0,0,1.86,1.69,4.92,4.92,0,0,0,2.69.11,11.39,11.39,0,0,0,4.93-1.5c.82-.54.81-2.23.69-3.08-.06-.45-.39-2.29-1.23-1.74a8.18,8.18,0,0,1-3.1,1.14c-.57.1-1.14.17-1.71.23a4.09,4.09,0,0,1-1.74,0,3.16,3.16,0,0,1-1.22-1c-.43-.46-.84-.94-1.24-1.43a15.78,15.78,0,0,1-2.08-2.87,2.88,2.88,0,0,1-.13-.31c-.2-.49,0-.15,0-.1,0,.26.19,1.09-.06,1.17,0,0,.22-.4.27-.48a4,4,0,0,1,.51-.57,11,11,0,0,1,2.8-2,4.81,4.81,0,0,1,3-.42,3.31,3.31,0,0,1,1.15.48,2.79,2.79,0,0,1,.42.35c.08.09.14.21.22.3-.52-.54-.54-2,0-2.39a3.77,3.77,0,0,1-.39.37,5,5,0,0,1-.73.47,17.31,17.31,0,0,1-1.86.84,20.83,20.83,0,0,1-4.16,1.13c-.92.15-1,1.79-1,2.5,0,.43.13,2.64,1,2.5Z"/><path class="cls-1" d="M113.58,138.34a9.23,9.23,0,0,0-4.21,2.78,11.05,11.05,0,0,0-.53,12.38,2.37,2.37,0,0,0,1.14.86,5.09,5.09,0,0,0,1.51.12,17.14,17.14,0,0,0,3-.22,6.63,6.63,0,0,0,4.79-3.09,4.81,4.81,0,0,0,.36-3.42,1.87,1.87,0,0,0-.6-1.15.55.55,0,0,0-.77.26,5.43,5.43,0,0,1-4.18,2.47,22.11,22.11,0,0,1-3,.15,1.72,1.72,0,0,1-1.18-.24,2.2,2.2,0,0,1-.31-.41,3.07,3.07,0,0,1-.17-.31c.07.14.06.11,0-.07s-.24-.78-.13-.32a3.38,3.38,0,0,1-.08-.34c0,.31,0,.34,0,.08l0-.17c0-.28,0-.23,0,.14v-.35c0,.37,0,.42,0,.14s0-.24,0,.07c0-.11,0-.23.07-.34s.06-.23,0,0l.12-.33.21-.47c-.13.26.18-.28.21-.33a7.38,7.38,0,0,1,3.8-2.89c1.56-.52,1-5.33,0-5Z"/><path class="cls-1" d="M120.63,129.41l4.27,10a66.42,66.42,0,0,1,3.61,9.53c.16.63.69,1.74,1.37.89a4.6,4.6,0,0,0,.36-3.42,70.94,70.94,0,0,0-3.77-10.17L122,125.87c-.37-.86-1.05-.88-1.41,0a5,5,0,0,0,0,3.54Z"/><path class="cls-1" d="M117.16,139.28a59.9,59.9,0,0,0,13.34-4.93c1.26-.65.8-5.51-.53-4.83a57.39,57.39,0,0,1-12.81,4.76c-1.55.37-1.14,5.27,0,5Z"/><path class="cls-1" d="M39.29,168.38c-4.45,6.38-8.37,13.28-9.63,21.05-1.18,7.36.21,14.8,2.26,21.87A63.94,63.94,0,0,0,36.1,223a35.79,35.79,0,0,0,6,8.34c4.93,5.14,11.06,8.92,17.19,12.45,7.31,4.21,14.83,8.17,21.43,13.47.72.58,1-1.6,1-1.8l-.61-15.72-1.39.94,2.45,9.4c.21.79.41,1.57.62,2.35a4.36,4.36,0,0,1,.35,1.57c-.28,1.17-2.21,1-3.09.94-6.57-.31-13.12-.77-19.67-1.33-1-.09-1.12,3.65,0,3.75q5.82.49,11.65.87c1.94.13,3.89.24,5.83.34,1.52.09,3.45.49,4.89-.19,2.8-1.33,1.88-5.76,1.27-8.07l-3-11.52c-.1-.4-.32-1.08-.85-.86s-.56,1.39-.55,1.81l.61,15.72,1-1.81C70.23,244.83,56.69,240,46,230.94a39.2,39.2,0,0,1-6.64-7.1,34.79,34.79,0,0,1-4.59-9.43c-2.2-6.68-4.43-13.82-4-20.93.48-8.12,4.74-15.35,9.29-21.86a3.42,3.42,0,0,0,.26-2.57c-.11-.44-.54-1.37-1-.67Z"/><path class="cls-1" d="M333.14,443.41a85.29,85.29,0,0,0-2.33,31.81c.05.44.4,2.29,1.23,1.75,2.12-1.37,4.68-1.56,6.91-2.67a6.86,6.86,0,0,0,3.9-5.51,8.78,8.78,0,0,0-2.26-7.11,46.47,46.47,0,0,0-6.39-5.13v4.82a47.7,47.7,0,0,0,8.06-4.4c2.42-1.65,4.6-3.46,4.93-6.56.3-2.85-.76-5.42-3.43-6.63a22.41,22.41,0,0,0-9.34-1.72c-1.41,0-1.42,5,0,5a24.86,24.86,0,0,1,7.52,1.06,8.88,8.88,0,0,1,2.33,1c.35.24.61.64.94.86q.42.74,0-1a4.07,4.07,0,0,1-.37.55c-1.22,1.6-3.29,2.75-5,3.79a46.88,46.88,0,0,1-6.22,3.21c-.66.28-.74,1.86-.74,2.41,0,.75.08,1.92.74,2.41,1.68,1.26,3.44,2.47,5,3.84a9.52,9.52,0,0,1,1.81,1.94c.07.12.42.86.45.87-.46-.1.47-1.27-.17-.48-2.34,2.91-6.31,2.69-9.29,4.6l1.23,1.75a74.7,74.7,0,0,1,2.13-28c.25-.94.32-2.62-.36-3.42s-1.19.24-1.37.9Z"/><path class="cls-1" d="M360.42,457.79a10.7,10.7,0,0,0-5.51,4.32,10.49,10.49,0,0,0-.65,9,5,5,0,0,0,5,3.19c2.6-.36,3.66-3,4-5.3a14.65,14.65,0,0,0-.25-5.07c-.15-.71-.34-1.4-.51-2.09q-.14-.56-.24-1.11c.05.29,0-.11,0-.14,0-.25-.05-.5-.07-.75l-1.67,2.43,7,13.73c.14.26.34.74.71.74s.6-.47.71-.74a4.89,4.89,0,0,0,0-3.53l-7-13.74c-.27-.53-.72-1.06-1.21-.39a4.46,4.46,0,0,0-.46,2.83,25.29,25.29,0,0,0,.82,4.3c.17.67.24,1.09.32,1.57,0,.28,0,.26,0-.08v.39c0-.85-.12.61,0-.08,0,.13-.05.26-.08.38.06-.2.06-.18,0,.05a1.91,1.91,0,0,1-.23.44,2.51,2.51,0,0,1-.82.8,3.09,3.09,0,0,1-2.59.23,3.62,3.62,0,0,1-2-1.59c-.09-.23-.11-.27-.06-.1-.06-.26-.07-.27,0,0l0-.21c0,.31,0,.32,0,0,0,.31,0,.32,0,0,0,.24,0,.22,0,0l0-.12c0-.14.1-.27.15-.41.9-2,3.17-3.3,5.17-4.1.33-.13.54-.89.6-1.15a5.38,5.38,0,0,0,.1-1.92c-.08-.61-.32-2.11-1.23-1.75Z"/><path class="cls-1" d="M387.06,454.67c-2.47,1.52-5.06,2.94-7.39,4.66a10.2,10.2,0,0,0-4.31,6.06c-.56,2.85,0,6,2.19,8a7.82,7.82,0,0,0,6.14,1.84c3.13-.41,5.85-2.23,8.39-4,.82-.57.79-2.21.69-3.08,0-.43-.41-2.31-1.23-1.74-3.34,2.3-7.69,5.22-11.85,3.21a5.67,5.67,0,0,1-2-1.47,3.75,3.75,0,0,1-.53-.87c-.14-.33,0,.1-.07-.25a3.06,3.06,0,0,1,0,.32c0,.29-.13.39,0,.12-.18.34.08-.17,0,.06a4,4,0,0,1,.15-.39,6.13,6.13,0,0,1,.88-1.27,12.58,12.58,0,0,1,2.2-1.92c2.29-1.65,4.8-3,7.2-4.52,1.24-.76.67-5.56-.53-4.82Z"/><path class="cls-1" d="M400.78,444.81a72.16,72.16,0,0,0-1.87,24.88c0,.58.34,2.14,1.23,1.75s.76-2.41.7-3.08a60.77,60.77,0,0,1,1.67-21c.24-.95.33-2.62-.36-3.43s-1.2.24-1.37.9Z"/><path class="cls-1" d="M411.8,452.19l-8,4.83a29.33,29.33,0,0,0-3.8,2.34c-1.46,1.23-1.52,3.69-1,5.38a5.2,5.2,0,0,0,2.59,2.85q1.94,1.13,3.9,2.21c2.66,1.46,5.37,2.82,8.13,4.11,1.36.64,1.81-4.22.53-4.82-2.51-1.17-5-2.42-7.43-3.73-1.22-.66-2.43-1.34-3.63-2-.53-.31-1.07-.6-1.58-.94a3.84,3.84,0,0,1-.61-.45c-1-.92.49-.67-.22,1.68l-.36.9c.45-.85,1.78-1.33,2.57-1.81l3.16-1.9,6.31-3.79c1.24-.75.68-5.56-.53-4.83Z"/><path class="cls-1" d="M432.08,454.2c-2,.58-4,1.22-5.95,2a5.35,5.35,0,0,0-3.54,3.42A15.92,15.92,0,0,0,422,465a8.56,8.56,0,0,0,1.49,5.2c2.51,3,6.44.14,8.09-2.28a15,15,0,0,0,1.95-11.32c-.1-.5-.46-1.49-1.13-1.15s-.76,1.8-.73,2.41q.21,4.64.55,9.27c.21,2.72.54,5.44.57,8.17a16.49,16.49,0,0,1-1.14,7c-.18.41-.37,1.06-.82,1.22s-1.4-.26-1.92-.47a28.89,28.89,0,0,1-4.05-1.93c-1.24-.7-1.8,4.1-.53,4.82a28.4,28.4,0,0,0,4.47,2.09c1.31.48,2.46.91,3.36-.43,1.74-2.57,2.34-6.07,2.54-9.09a64,64,0,0,0-.31-9.79c-.31-3.61-.56-7.23-.72-10.85l-1.87,1.26a6.42,6.42,0,0,1-1.56,4.94c-1.15,1.5-4,3.6-5.76,1.79a3.08,3.08,0,0,1,.31-3.9,11.21,11.21,0,0,1,3.19-1.44c1.36-.49,2.73-.93,4.12-1.33,1.56-.45,1.07-5.31,0-5Z"/><path class="cls-1" d="M440,459.67a39.8,39.8,0,0,0,2.37,10.14c.15.39.49.92,1,.64s.64-1.24.7-1.75a51,51,0,0,0,.21-5.93c0-.45,0-.9,0-1.36,0-.25,0-.5,0-.75,0-.49,0,.26,0-.15a11.81,11.81,0,0,1,.28-2,7,7,0,0,1,1.68-3.32c.58-.58,1.55-.06,2.23.13l2.81.79c1.06.3,1.57-4.55,0-5l-3.11-.87c-.89-.25-1.69-.56-2.46.13a10.35,10.35,0,0,0-2.69,4.9c-1.14,3.95-.48,8.26-.92,12.07l1.68-1.1a30.1,30.1,0,0,1-1.86-7.93c-.05-.52-.37-2.22-1.23-1.75s-.77,2.34-.7,3.08Z"/><path class="cls-1" d="M460.86,451.57a10.88,10.88,0,0,0-4.48,9c0,3.27,1.28,7,4.67,8.05a5.2,5.2,0,0,0,4-.29,7.68,7.68,0,0,0,3-3.41c1.73-3.24,4.18-7.8,1.88-11.33a8.11,8.11,0,0,0-3.87-2.64l-2.86-1.26c-.76-.32-1.65-.73-2.37-.1s-.83,2.13-.7,3.07c0,.35.47,2.41,1.23,1.75.38-.33.9-.07,1.31.11l1.91.83a23.78,23.78,0,0,1,3.22,1.54,3.86,3.86,0,0,1,1,.87c.05.06.14.26.2.29s-.11-.23-.11-.24a6.32,6.32,0,0,1-.05-1.29c.06,0,0,.08-.07.17-.51,1.25-1,2.49-1.63,3.69-1,1.94-2.32,3.64-4.69,3.52a4.73,4.73,0,0,1-2.78-1.08,4.08,4.08,0,0,1-.88-1.06,4.2,4.2,0,0,1-.26-.52c-.16-.33-.08-.19-.05-.08-.05-.17-.08-.34-.12-.51-.09-.35,0,.34,0,0s0,.44,0-.06,0-.05,0,0,.1-.6,0-.31,0-.16.06-.22-.05.09.07-.21.2-.48.29-.67a8.41,8.41,0,0,1,2.56-2.81c.81-.59.81-2.2.7-3.08-.06-.41-.42-2.33-1.23-1.74Z"/><path class="cls-1" d="M475.5,453a3.05,3.05,0,0,1,.61.95c.13.32,0-.09.07.26l.09.39c0-.22,0-.2,0,0,.11,1,.15,1.95.27,2.92a15.37,15.37,0,0,0,2.39,6.89,1.88,1.88,0,0,0,2.76.47,10.59,10.59,0,0,0,2.2-1.62,13.63,13.63,0,0,0,3.28-4.83,16.52,16.52,0,0,0,1-7.81c-.05-.48-.39-2.26-1.23-1.75s-.77,2.3-.7,3.08a108.29,108.29,0,0,0,2.17,13.63c.14.61.72,1.78,1.37.9a4.7,4.7,0,0,0,.36-3.42,95.34,95.34,0,0,1-2-12.44l-1.93,1.33c0,.13,0,.26,0,.39,0-.34,0-.36,0-.08s.07,1,0,.32a4,4,0,0,1-.09.77c.07-.55-.06.27-.08.37s-.22.8-.11.43c-.08.25-.17.5-.27.74a7.48,7.48,0,0,1-.57,1.2,10.3,10.3,0,0,1-4.19,4.06c-.52.25-.84.27-1.16-.22a8.16,8.16,0,0,1-.72-1.45,10,10,0,0,1-.69-2.72c-.25-2.4-.22-5.16-1.9-7.09-.69-.79-1.22.21-1.37.9-.2.92-.34,2.62.36,3.42Z"/><path class="cls-1" d="M492.71,453.21A111.38,111.38,0,0,1,494,464.88c0,.5.24,1.64.83,1.79s.92-.75,1-1.19c.49-2.78.52-5.76,1.08-8.43a10.89,10.89,0,0,1,1-2.9c.24-.48,1.45-2.62,2.07-2.31.14.07.31.54.38.67s.29.53.42.79c.31.6.59,1.21.86,1.83a31.82,31.82,0,0,1,1.31,3.53c.38,1.28.63,2.58.91,3.88a2.6,2.6,0,0,0,1,1.81c.71.35,1.18-.28,1.44-.87a4.89,4.89,0,0,0,0-3.53c-.38-.91-1-.88-1.42,0l-.05.13.44-.65a2.25,2.25,0,0,0,.33.68l-.09-.45-.21-1.05c-.15-.7-.33-1.4-.52-2.09a39.6,39.6,0,0,0-1.38-4.06,38,38,0,0,0-1.91-4,3.93,3.93,0,0,0-1-1.44c-.63-.42-1.2-.12-1.69.34-4.28,4.05-3.75,10.42-4.68,15.62l1.83.6a111.68,111.68,0,0,0-1.31-11.67c-.09-.5-.35-2.23-1.23-1.75s-.82,2.36-.7,3.08Z"/><path class="cls-1" d="M515.42,428.31q.8,18.33,2.07,36.64l1-3.17c-1.67-.32-2.45-2-3.22-3.35a19.89,19.89,0,0,0-3.76-4.42,9.46,9.46,0,0,1-1.1-1.19c-.16-.21-.45-1-.64-1.12-.22.95-.2,1.17.06.67a1.79,1.79,0,0,1,.48-.47,4.37,4.37,0,0,1,1.32-.64c2-.61,4.15-.23,6.14-1.08,1.26-.53.91-5.43-.53-4.82-2.51,1.06-5.69,0-7.85,2.05s-1.95,6.23-.59,8.76c1.26,2.37,3.75,3.72,5.13,6,1.15,1.91,2.16,4.13,4.56,4.59,1.06.21,1-2.79,1-3.16-.8-11.77-1.49-23.53-2-35.31,0-.59-.08-2.5-1-2.5s-1,2-1,2.5Z"/><path class="cls-1" d="M340.82,495.11q1.19,15.13,1.47,30.3c0,.58.08,2.5,1,2.5s1-2,1-2.5q-.3-15.84-1.54-31.63c-.05-.57-.35-2.14-1.23-1.74s-.75,2.4-.7,3.07Z"/><path class="cls-1" d="M343.92,495.8a110.55,110.55,0,0,0,14.27-3.19c1.56-.45,1.06-5.31,0-5a110.55,110.55,0,0,1-14.27,3.19c-.92.14-1,1.81-1,2.5,0,.45.12,2.64,1,2.5Z"/><path class="cls-1" d="M343.08,509.81a29.85,29.85,0,0,0,15.51-4.48c.84-.52.8-2.24.7-3.07-.05-.47-.39-2.27-1.23-1.75a28.62,28.62,0,0,1-15,4.3c-.9,0-1,1.91-1,2.5s.09,2.51,1,2.5Z"/><path class="cls-1" d="M366.82,514.13c-.38,3.38-.6,6.77-.7,10.17a4.6,4.6,0,0,0,.3,1.76c.1.27.34.74.7.74.91,0,1-2,1-2.5q0-1.17.09-2.34c0-.14,0-.86,0-.17,0-.19,0-.38,0-.56,0-.38.05-.75.07-1.12.11-1.55.26-3.11.43-4.65a5.69,5.69,0,0,0-.1-1.93,2,2,0,0,0-.6-1.15c-.85-.52-1.18,1.33-1.23,1.75Z"/><path class="cls-1" d="M367.92,509.49c1.41,0,1.43-5,0-5s-1.43,5,0,5Z"/><path class="cls-1" d="M380.26,490.71,378,523.62c-.06.78-.18,2.63.7,3.08s1.19-1.25,1.23-1.75l2.3-32.91c.05-.78.17-2.63-.7-3.07s-1.2,1.25-1.23,1.74Z"/><path class="cls-1" d="M378,511.53a91.25,91.25,0,0,0,11.68-3.29c.32-.11.53-.9.59-1.14a5.23,5.23,0,0,0,.1-1.93c-.08-.65-.3-2.07-1.23-1.75A86,86,0,0,1,378,506.53c-.91.2-1,1.77-1,2.5a4.8,4.8,0,0,0,.29,1.77c.11.24.37.81.71.73Z"/><path class="cls-1" d="M393,511l-3.11,13.06,1.86,1.26c0-.38,0-.76,0-1.14s0,0,0,.09a1,1,0,0,1,0-.29c0-.22,0-.45.06-.67,0-.38.08-.77.14-1.15,0,0,.05-.36,0-.08s0-.11,0-.18.09-.44.14-.66.18-.74.29-1.1c-.1.32.05-.11.08-.22l.27-.7a8.86,8.86,0,0,1,1.05-1.87,6.1,6.1,0,0,1,3.52-2.63,1.9,1.9,0,0,1,1.93.51,6.07,6.07,0,0,1,.79,2.33l.18.83s.07.38,0,.18.06.43.06.42c.08.56.14,1.12.17,1.68,0-.05,0-.35,0-.05s0,.32,0,.48,0,.57,0,.85c0,.5,0,.17,0,.06l0,.48c0,.33-.07.65-.11,1a4.52,4.52,0,0,0,.36,2.62c.24.41.78.84,1.11.2l.36-.7a4.87,4.87,0,0,0,.36-3.42c-.12-.46-.82-2-1.37-.89l-.36.69,1.47,2.83a28.15,28.15,0,0,0-.27-8.69,23.35,23.35,0,0,0-1.06-3.85,3.65,3.65,0,0,0-2.29-2.49c-2-.56-3.94,1.06-5.16,2.42a14.09,14.09,0,0,0-2.86,5.62,27.24,27.24,0,0,0-.92,7.52c0,.66.06,2,.74,2.41s1-.71,1.13-1.14l3.11-13.07a4.55,4.55,0,0,0-.36-3.42c-.66-.9-1.23.3-1.37.9Z"/><path class="cls-1" d="M411.18,518.74a19.79,19.79,0,0,0,6.17-1.27,5.82,5.82,0,0,0,3.79-3.38c.74-2.15.52-5.31-1.52-6.7-1.59-1.08-3.64-.62-5.29.05a9.45,9.45,0,0,0-5.78,9c0,3.35,1.67,7.52,5.47,7.89,2.2.21,4.27-.94,6.43-1.1s4.27.31,6.13-.91c.83-.55.79-2.23.69-3.08,0-.45-.4-2.29-1.23-1.75a6.73,6.73,0,0,1-4,.71,16.39,16.39,0,0,0-4.41.59c-2.45.65-5.27,1.06-6.74-1.51a4.43,4.43,0,0,1-.27-.58c-.08-.22,0-.07,0,0,0-.13-.07-.28-.1-.42.07.4,0,0,0,0,.12.34,0,.21,0,0a3.85,3.85,0,0,1,0,.4s.14-.55.1-.43a6,6,0,0,1,1.94-2.57,8.52,8.52,0,0,1,3.52-1.72,4.76,4.76,0,0,1,2.25,0,2.46,2.46,0,0,1,.77.36c.21.14.35.4.55.53,0,0,.05-2,0-2s-.21.31-.29.4a3.81,3.81,0,0,1-.76.62,9.06,9.06,0,0,1-2.09,1,18.46,18.46,0,0,1-5.36,1c-1.45.07-1.39,5.06,0,5Z"/><path class="cls-1" d="M437.73,503l-3.38,1.22a17.87,17.87,0,0,0-2.84,1.13c-2.38,1.38-2.75,4.88-1.55,7.17,1,1.82,3.22,3,5,3.92.94.46,1.92.79,2.89,1.16a5.8,5.8,0,0,1,1.15.55c.16.1.3.25.45.33s0,.13,0-.15l-.14-1.26c-.12-2.28.59-1.36.12-1l-.38.29a6.69,6.69,0,0,1-1,.55,8.86,8.86,0,0,1-2.12.67,10.35,10.35,0,0,1-4.63-.2c-1.07-.29-1.57,4.58,0,5a10.71,10.71,0,0,0,6.62-.37,5.36,5.36,0,0,0,2.69-1.82,6.11,6.11,0,0,0,.35-5.18c-.81-2.07-3.31-2.36-5.09-3.2a19,19,0,0,1-3.05-1.78,8.57,8.57,0,0,1-1.29-1c-.12-.11-.2-.29-.32-.39s0,2.25,0,2.25-.07.05.07-.06a9,9,0,0,1,2.85-1.45l4.16-1.5c.32-.12.53-.9.59-1.15a5.4,5.4,0,0,0,.11-1.92c-.09-.64-.32-2.08-1.23-1.75Z"/><path class="cls-1" d="M454.46,499.33l-3.39,1.33a6,6,0,0,0-2.63,1.36c-1.51,1.87-.95,5.17-.15,7.24a11,11,0,0,0,3.19,4.3,15.9,15.9,0,0,0,2.25,1.57c.4.22.8.44,1.21.64s.95.32,1.14.67l-.46-1.49v.3l.26-2.44a5,5,0,0,1-2.42,2.28,11.59,11.59,0,0,1-3.42,1.19c-2.8.56-5.7.51-8.46,1.3-1.56.45-1.07,5.31,0,5,5-1.43,12-.19,15.26-5.27.93-1.47,1.29-4.49-.21-5.74a7.79,7.79,0,0,0-1.54-.81,18.32,18.32,0,0,1-1.66-1,11.54,11.54,0,0,1-2.77-2.44,7.14,7.14,0,0,1-.86-1.39c-.07-.15-.15-.36-.19-.48-.05-.28-.07-.34-.05-.17-.06-.54-.07-.35,0,.55l-.36.9c.41-.77,1.68-1,2.43-1.29l3.39-1.33c.33-.13.54-.89.6-1.15a5.64,5.64,0,0,0,.1-1.92c-.07-.62-.32-2.1-1.23-1.75Z"/><path class="cls-1" d="M318.54,478.8A116.62,116.62,0,0,1,275.42,451l-.26,4.91,16.7-1.34c1.42-.11,1.43-4.86,0-5a111,111,0,0,1-22.39-4.51c-.64-.2-.93,1.56-1,1.84a4.73,4.73,0,0,0,.46,2.82,30.36,30.36,0,0,1,2.51,23.43,4.37,4.37,0,0,0,.36,3.42c.72.84,1.18-.25,1.37-.9A39.77,39.77,0,0,0,270,445.4l-.5,4.66a111,111,0,0,0,22.39,4.51v-5l-16.7,1.34c-.83.07-1,1.61-1,2.17a3.63,3.63,0,0,0,.72,2.74A116.62,116.62,0,0,0,318,483.62c1.49.55,1.8-4.35.53-4.82Z"/><path class="cls-1" d="M131.83,239.92l19.53-.73c.72,0,.69-2.52,0-2.5l-19.53.73c-.72,0-.7,2.52,0,2.5Z"/><path class="cls-1" d="M167,238.59A140.76,140.76,0,0,1,192.1,237c.7,0,.73-2.48,0-2.5a140.76,140.76,0,0,0-25.12,1.6c-.76.12-.63,2.59,0,2.5Z"/><path class="cls-1" d="M208.3,237.09l27.33.31c.7,0,.72-2.49,0-2.5l-27.33-.31c-.7,0-.72,2.49,0,2.5Z"/><path class="cls-1" d="M250.15,238.66h29.58c.71,0,.72-2.5,0-2.5H250.15c-.71,0-.71,2.5,0,2.5Z"/><path class="cls-1" d="M299.28,239.13q11.67,1.2,23.43,1.26c.7,0,.71-2.5,0-2.5q-11.74-.06-23.43-1.26c-.65-.07-.76,2.42,0,2.5Z"/><path class="cls-1" d="M348.94,239.78H364c.71,0,.71-2.5,0-2.5H348.94c-.7,0-.71,2.5,0,2.5Z"/><path class="cls-1" d="M388,239.88a140.83,140.83,0,0,1,17.3-.93c.7,0,.71-2.5,0-2.5a140.83,140.83,0,0,0-17.3.93c-.75.09-.65,2.58,0,2.5Z"/><path class="cls-1" d="M58.78,18a63,63,0,0,1,1,32.94c-.29,1.23-.39,3.22.45,4.27s1.52-.32,1.71-1.12A75.64,75.64,0,0,0,60.93,14.8c-.23-.77-.84-2.2-1.71-1.12s-.79,3.14-.44,4.28Z"/><path class="cls-1" d="M61.7,16.87c3,.5,5.92-.35,8.87.1A5.24,5.24,0,0,1,74,18.81a8.64,8.64,0,0,1,1.39,3.08c.09.36.18.72.26,1.08s.09.46.07.28c0,.39,0,.46,0,.2-.22,0,.33-.51,0-.18a5.34,5.34,0,0,0-.37.62,11,11,0,0,1-3.26,2.78,18.37,18.37,0,0,1-8.87,2.75c-1.14.06-1.27,2.35-1.25,3.13s.12,3.18,1.25,3.12a20.09,20.09,0,0,0,8.44-2.34c2.46-1.32,4.93-3.21,5.93-5.9,1.32-3.57.49-7.76-.84-11.21-1-2.69-2.83-4.83-5.74-5.42-3.06-.63-6.2.35-9.28-.18-1.52-.26-1.93,5.92,0,6.25Z"/><path class="cls-1" d="M91.6,30.67c-3.4,1.93-6.8,4.72-8.27,8.45s-1.35,9.31,2.11,12c3.21,2.49,6.73-.36,7.88-3.53a17.75,17.75,0,0,0,.67-7.7c-.17-1.75-.68-3.55-.29-5.14l-2,.63A56.7,56.7,0,0,0,105.24,54c.94.85,1.49-1.76,1.54-2.19.14-1.2.1-3-.87-3.84A52,52,0,0,1,93.5,31c-.72-1.61-1.65-.63-2,.63a19.69,19.69,0,0,0-.39,6.17c.11,1.44.42,3,.47,4.37.07,2.08-2,4.26-4.33,3.6a3.74,3.74,0,0,1-2.24-1.94c0-.08-.21-.41-.16-.51-.09.19.22.76,0,.94,0,0,.16-.61.19-.68a5.12,5.12,0,0,1,.35-.75c1.48-2.66,4.22-4.62,6.81-6.09,1.56-.88.91-6.92-.66-6Z"/><path class="cls-1" d="M112.77,13.88q1,16.63,3.56,33.1c.11.69.42,2.72,1.54,2.18s1-3,.87-3.84q-2.59-16.45-3.56-33.1c0-.7-.46-2.7-1.54-2.18s-.92,3-.87,3.84Z"/><path class="cls-1" d="M107.08,29.22a146.25,146.25,0,0,0,22.69-2.28c1.92-.35,1.53-6.53,0-6.25A146.25,146.25,0,0,1,107.08,23c-1.79,0-1.76,6.29,0,6.25Z"/><path class="cls-1" d="M138.75,14.15q.76,16.19,1.25,32.38c0,.77.09,3.08,1.25,3.13s1.27-2.53,1.25-3.13q-.5-16.2-1.25-32.38c0-.77-.08-3.08-1.25-3.13s-1.27,2.53-1.25,3.13Z"/><path class="cls-1" d="M130.45,33.4q11.31-3.15,22.79-5.6c1.93-.41,1.47-6.56,0-6.25q-11.48,2.44-22.79,5.6c-1.94.54-1.35,6.63,0,6.25Z"/><path class="cls-1" d="M159.92,41.46a45.25,45.25,0,0,0,6.16-.89c2.79-.78,3.1-4,2.88-6.45A9.58,9.58,0,0,0,166.35,28a5.12,5.12,0,0,0-4.91-1.28c-4.16,1.26-4.45,6.88-4.6,10.46-.11,2.47.14,5.28,1.74,7.28a16.06,16.06,0,0,0,4.59,3.68c3.68,2.11,8.51,2.88,12,0,1-.8,1-2.7.88-3.85-.07-.46-.57-3-1.54-2.18a8.57,8.57,0,0,1-7.95,1.2,14.78,14.78,0,0,1-4-2,9.86,9.86,0,0,1-3.18-2.84s-.22-.52-.13-.28,0,0,0-.12c.12.46,0,.12,0,0s0-.4,0-.6,0-.62,0-.06c0-.36.05-.71.08-1.07s.08-.56.1-.84c-.06.62.07-.25.1-.44.1-.48.05-.16,0,0,0-.15.1-.29.16-.44a2.13,2.13,0,0,1,.35-.6c1.58-2.15,5-1.23,6.13.85,0,0,.3.77.21.44l.11.5c-.18,0,.08-1.24.06-1.13.16-.88.25-.7-.25-.44a2.85,2.85,0,0,1-.87.27c-1.84.34-3.73.51-5.59.76-1.15.15-1.27,2.27-1.25,3.12,0,.58.14,3.27,1.25,3.13Z"/><path class="cls-1" d="M177.3,35.37l-.11,8.13,2.14-2.21a4.4,4.4,0,0,0-.17-.46c.06.24-.12-.66,0,0,0-.17,0-.35-.06-.52.08.66,0,.05,0-.1,0-.37-.08.48,0-.11,0-.06.11-.77.05-.43s.1-.46.1-.44c0-.18.09-.36.14-.53.22-.86-.07.18.08-.31.07-.22.15-.45.23-.67.16-.44.33-.88.51-1.31.33-.81.68-1.6,1-2.39a4.3,4.3,0,0,1,1-1.5,3.65,3.65,0,0,1,1.93-.75c1.58-.23,3.15-.15,4.63-.89.41-.2.65-1.06.74-1.43a7,7,0,0,0,.13-2.41c-.09-.68-.43-2.73-1.54-2.18-1.63.81-3.61.39-5.32,1-2.09.73-3,2.85-3.81,4.72-2.11,4.72-3.48,10.1-1.52,15.12.24.6.76,1.22,1.37.64a4.27,4.27,0,0,0,.76-2.85l.11-8.13c0-.74-.12-3.13-1.25-3.13s-1.24,2.48-1.25,3.13Z"/><path class="cls-1" d="M192.61,28.68c-.25,5.5-.38,11.08,1,16.45.14.54.59,1.94,1.41,1.43s1-2.19.92-3,0-1.46,0-2.19c0,.76.05-.4.07-.53s.06-.55.1-.82.06-.36,0-.06c0-.18.07-.36.11-.54.07-.36.16-.71.25-1.07a10.19,10.19,0,0,1,.46-1.45,19.57,19.57,0,0,1,1.66-3.45,9,9,0,0,1,2.4-3c1.15-.72,1.89.46,2.4,1.33a17.49,17.49,0,0,1,1.6,3.62,15.76,15.76,0,0,1,.64,3.31l0,.42c0-.36,0-.35,0,0v1.12c0,.38,0,.38,0,0,0,.19,0,.37,0,.56,0,.38-.09.75-.14,1.12-.15,1-.16,3.22.87,3.85s1.47-1.67,1.54-2.19A26.45,26.45,0,0,0,204.45,26c-.62-1-1.62-2.18-2.92-2s-2.21,1.28-2.95,2.25a24.18,24.18,0,0,0-3.71,7.14,28.59,28.59,0,0,0-1.41,10.18L195.79,42c-.16-.6-.29-1.2-.42-1.81a2.82,2.82,0,0,1-.08-.48c0-.26-.07-.51-.1-.77-.07-.56-.13-1.13-.17-1.7,0,0-.05-1,0-.41l0-.94c-.06-2.39,0-4.79.15-7.18,0-.73-.13-3.13-1.25-3.13s-1.22,2.48-1.25,3.13Z"/><path class="cls-1" d="M225.78,25.9a9.89,9.89,0,0,0-6.65,2.23,9.71,9.71,0,0,0-2.43,2.94c-1,1.92-1.22,5,.15,6.88A12.12,12.12,0,0,0,220,40.46a30.64,30.64,0,0,0,3.58,2,15.36,15.36,0,0,1,3.18,1.62c.21.17.1.07.08.06l.12.16-.06-.13c.06,0-.11-3.14,0-3.14s.06,0-.07.06a11.1,11.1,0,0,1-1.16.74,15.06,15.06,0,0,1-4,1,9.63,9.63,0,0,1-4.77-.2c-1.13-.41-1.46,1.4-1.54,2.19a7.44,7.44,0,0,0,.13,2.4c.1.42.3,1.28.74,1.44,2.74,1,5.49.53,8.24-.17a7.34,7.34,0,0,0,2.92-1.26,5.68,5.68,0,0,0,1.78-4.47,6,6,0,0,0-1.64-4.65,12.4,12.4,0,0,0-3-1.56,30.69,30.69,0,0,1-3.6-2c-.54-.34-1.06-.69-1.58-1.06-.28-.2-.55-.4-.82-.62s-.44-.62-.26.11l.17,1.58v-.28l-.17,1.58c0,.08-.12.16,0,0s.22-.34.35-.51a6.43,6.43,0,0,1,.68-.79,9.18,9.18,0,0,1,1.9-1.39,8.49,8.49,0,0,1,4.55-1C226.9,32.2,227,29.72,227,29s-.09-3.08-1.25-3.13Z"/><path class="cls-1" d="M274.57,29.78c-4.36,1.44-5.63,6.44-5.06,10.59.51,3.75,3.13,8.36,7.49,8.2,3.66-.12,6.36-3.77,7.39-7,1.3-4.06,1.14-8.93-1.16-12.61a10.63,10.63,0,0,0-9.81-5c-1.14.12-1.26,2.31-1.25,3.13,0,.61.14,3.23,1.25,3.12a9.23,9.23,0,0,1,6.87,2.15,7.52,7.52,0,0,1,2,2.62l.14.36c0,.05.18.55.1.29s.16.9.06.19c0,.26.07.75.05.19,0,.17,0,.34,0,.51,0,.36,0,.2,0-.06,0,.17,0,.34-.06.51,0,0,.1-.43,0-.11,0,.1-.21.83-.1.49a7,7,0,0,1-.66,1.49,7.7,7.7,0,0,1-2.53,2.61A4.94,4.94,0,0,1,272.64,40a5.63,5.63,0,0,1-.49-.81,6.14,6.14,0,0,1-.27-.79c-.14-.38,0,0,0,0,0,.29,0,.32,0,.09s0-.2,0,0a2.48,2.48,0,0,1,0,.27c0-.58,0,0,.07-.24A4.53,4.53,0,0,1,274.57,36c1.94-.64,1.26-6.66,0-6.25Z"/><path class="cls-1" d="M296,47Q297.46,35.78,300,24.7q1.28-5.52,2.8-11c.26-.93.51-1.87.8-2.79.19-.58.27-.87,1-.85,1.51,0,3.41,1.78,4.46,2.73s1.49-1.76,1.53-2.19c.14-1.2.11-2.95-.87-3.84-1.29-1.17-3.29-2.85-5.12-2.95s-2.61,2-3,3.48c-1.23,4.09-2.31,8.23-3.3,12.38a257.2,257.2,0,0,0-4.76,25.68c-.12.95-.18,3.31.88,3.84S295.87,47.62,296,47Z"/><path class="cls-1" d="M290.17,25.35a94.83,94.83,0,0,0,15.24,1.13c1.13,0,1.26-2.38,1.25-3.12s-.11-3.13-1.25-3.13a94.83,94.83,0,0,1-15.24-1.13c-.42-.07-.78.66-.88.91a5.77,5.77,0,0,0-.37,2.21c0,.86.08,2.94,1.25,3.13Z"/><path class="cls-1" d="M340,10.49A153.93,153.93,0,0,0,334.37,34c-.3,2-.57,3.91-.79,5.87a18.52,18.52,0,0,0,0,6.08c.3,1.43,1,3,2.59,3.36A5.33,5.33,0,0,0,338.5,49c1-.26,2-.53,3-.81,4.36-1.19,8.67-2.53,12.95-4,.4-.13.67-1.13.74-1.43a7,7,0,0,0,.13-2.41c-.09-.82-.39-2.57-1.54-2.18Q347.6,40.27,341.28,42c-1.08.29-2.16.59-3.24.86a6,6,0,0,1-1.32.22,4.45,4.45,0,0,1-.94-.25c-.15.12-.06,1.21.08-.15.1-1,.23-2,.36-3.06a137.78,137.78,0,0,1,5.52-24.72,6.61,6.61,0,0,0,0-4.41c-.43-1-1.38-1.23-1.77,0Z"/><path class="cls-1" d="M337.79,31.11a87.06,87.06,0,0,0,16.72-4.55c.41-.16.67-1.12.75-1.44a7,7,0,0,0,.13-2.41c-.11-.78-.4-2.62-1.54-2.18a83.59,83.59,0,0,1-16.06,4.33c-1.14.19-1.27,2.25-1.25,3.13,0,.55.16,3.31,1.25,3.12Z"/><path class="cls-1" d="M341.12,15.35a71,71,0,0,1,19.74.76c1.5.27,1.93-5.9,0-6.25a71,71,0,0,0-19.74-.76c-1.14.12-1.26,2.31-1.25,3.13,0,.61.14,3.24,1.25,3.12Z"/><path class="cls-1" d="M362.17,43.18a62.64,62.64,0,0,1-.43,11.29l2.41,1.67q.92-7.41,2-14.8.51-3.63,1.06-7.26c.18-1.21.37-2.42.56-3.63.09-.58.14-2.26.49-2.52h-.67a15.66,15.66,0,0,1,2.66,3,17.33,17.33,0,0,1,.9,1.49c.14.27.24.58.39.84l.16.38c.61-2.23.66-3,.13-2.18-.39.25-.76.75-1.15,1-.58.43-1.18.84-1.8,1.21a22.68,22.68,0,0,1-3.91,1.88c-1.56.58-1.2,6.72.67,6a22,22,0,0,0,5.7-3.09,6.52,6.52,0,0,0,2.82-5.45c.1-4.3-2.78-8.42-5.9-11.15a.55.55,0,0,0-.67,0c-2,1.5-2,5.1-2.31,7.37-.44,2.82-.86,5.65-1.27,8.47q-1.2,8.35-2.23,16.73c-.11,1-.18,3.31.88,3.85s1.45-1.57,1.53-2.18a72,72,0,0,0,.52-13c0-.77-.08-3.07-1.25-3.12s-1.28,2.52-1.25,3.12Z"/><path class="cls-1" d="M380.51,27.47l-1.23,10.4a7,7,0,0,0,.13,2.41,2.48,2.48,0,0,0,.74,1.44c1.07.65,1.48-1.66,1.54-2.18l1.23-10.41a7,7,0,0,0-.12-2.41,2.47,2.47,0,0,0-.75-1.43c-1.07-.65-1.47,1.66-1.54,2.18Z"/><path class="cls-1" d="M381.31,22.12c1.77,0,1.79-6.25,0-6.25s-1.78,6.25,0,6.25Z"/><path class="cls-1" d="M402.15,22.59a31,31,0,0,0-7.76,1.31,23.35,23.35,0,0,0-3.82,1.42,4.5,4.5,0,0,0-2.29,3.21A8.2,8.2,0,0,0,391,37c1,.74,2,1.36,3,2.12.48.39.94.8,1.39,1.22.19.19.38.37.57.57s.59,1,.34.1l-.17-1.58v.24l.17-1.57q.4-.77.06-.24a2.75,2.75,0,0,1-.26.22,6.51,6.51,0,0,1-.68.49,8.65,8.65,0,0,1-1.74.89,8.87,8.87,0,0,1-3.79.5c-1.11-.07-1.26,2.45-1.25,3.13s.1,3,1.25,3.12c2.74.18,6.52-.84,8-3.38a6.73,6.73,0,0,0-.32-6.91,19.24,19.24,0,0,0-3.65-3.39,19.85,19.85,0,0,1-3.35-2.69c-.28-.31,0-.08,0,.26l-.07,1.46c-.24.53-.25.62,0,.28a13.76,13.76,0,0,1,1.91-1,30.09,30.09,0,0,1,9.82-2c1.14,0,1.27-2.35,1.25-3.12s-.11-3.17-1.25-3.13Z"/><path class="cls-1" d="M409.37,9.33q-.42,18.93-1.46,37.85c-.05,1-.23,3.29.87,3.85s1.51-1.56,1.54-2.19q1.1-19.74,1.55-39.51c0-.77-.12-3.08-1.25-3.13s-1.24,2.52-1.25,3.13Z"/><path class="cls-1" d="M403.26,21.47l14.89.69c.44,0,.75-.61.88-.91A5.77,5.77,0,0,0,419.4,19c0-.75-.1-3.07-1.25-3.13l-14.89-.69c-.44,0-.75.61-.88.92a5.74,5.74,0,0,0-.37,2.21c0,.75.1,3.07,1.25,3.12Z"/><path class="cls-1" d="M427.82,27.08c-2.47.65-5.17,1.42-7.11,3.16C418,32.67,417.36,36.51,418,40a10.72,10.72,0,0,0,1.85,4.43c.75,1,2,2.57,3.38,2a12.61,12.61,0,0,0,3.64-2.65,10.92,10.92,0,0,0,2.71-3.84c1.37-3.46,1.31-8.57-1.66-11.21-.75-.66-1.32,1.07-1.41,1.44a6,6,0,0,0,.19,3.79A58.33,58.33,0,0,0,439,50.24a.59.59,0,0,0,.67,0l.8-.66c1-.83,1-2.68.87-3.85-.05-.46-.57-3-1.53-2.18l-.81.66h.67a53,53,0,0,1-11.19-14.69l-1.22,5.22a2.79,2.79,0,0,1,.7,1c-.07-.16,0-.6,0,0,0-.22.05-.49,0-.69.07.63-.89,1.82-1.45,2.42a16.84,16.84,0,0,1-3.11,2.46c-.53.35-.75.54-1.29.15a5.43,5.43,0,0,1-1.16-1.32,5.19,5.19,0,0,1-.68-1.35c-.2-.66-.05.38,0,.43-.21-.23,1.11-1.56,1.44-1.82a16,16,0,0,1,6.13-2.67c1.94-.52,1.37-6.62,0-6.25Z"/><path class="cls-1" d="M455,24.19a8,8,0,0,0-6.49.88,8.26,8.26,0,0,0-3.11,6.82,9,9,0,0,0,2.93,7A16.94,16.94,0,0,0,451,40.75c.53.31,1.06.62,1.57,1,.26.17.51.34.76.53l.24.18c.33.33.31.19-.06-.43l-.13-2.4,0,.25.32-1.38A5.46,5.46,0,0,1,452,40.08a10.61,10.61,0,0,1-2.4,1.38,10,10,0,0,1-5.37.56c-1.54-.24-1.92,5.95,0,6.25a11.28,11.28,0,0,0,8.12-1.93,8.22,8.22,0,0,0,3-3.47,7.15,7.15,0,0,0,0-4.91A4.33,4.33,0,0,0,453.69,36c-1.32-.94-2.81-1.63-4.11-2.61A6.65,6.65,0,0,1,448.14,32a5.8,5.8,0,0,0-.39-.7c.34.22-.07,1.15,0,1.46-.08.21-.07.18,0-.11s.12-.32.1-.2a3.28,3.28,0,0,1,.51-.71,5,5,0,0,1,1.81-1.19,8.08,8.08,0,0,1,4.72-.06c1.39.33,2-5.78,0-6.25Z"/><path class="cls-1" d="M465.38,27.47c-.3,4.36-.48,8.73-.51,13.11a6,6,0,0,0,.37,2.21c.13.32.43.91.88.91,1.13,0,1.25-2.48,1.25-3.12,0-2,.06-4,.13-6,0-1,.06-1.92.13-2.88-.05.8,0,0,0-.13s0-.49,0-.73c0-.56.07-1.12.11-1.68a7.8,7.8,0,0,0-.12-2.41,2.56,2.56,0,0,0-.75-1.43c-1.05-.64-1.5,1.65-1.54,2.18Z"/><path class="cls-1" d="M465,22.49c1.77,0,1.79-6.25,0-6.25s-1.78,6.25,0,6.25Z"/><path class="cls-1" d="M485.51,19.64a15.57,15.57,0,0,0-6.64,1.5,4.22,4.22,0,0,0-2.31,2.22,7.92,7.92,0,0,0-.09,5.39c.81,2.22,3,3.18,4.89,4.3l3.32,2,1.75,1,.7.41c.1.06.51.42.44.23l-.32-1.37c-.18-1.23.22-1.51-.06-1-.11.22-.17.46-.28.68a9.05,9.05,0,0,1-.7,1.15,9.91,9.91,0,0,1-2,2.11,10.21,10.21,0,0,1-5.75,2.17c-1.82.11-1.71,6.35,0,6.25a12.31,12.31,0,0,0,10.82-8.81,8.27,8.27,0,0,0-.15-6.15c-.7-1.31-2.36-1.94-3.58-2.66l-4.2-2.48c-.89-.52-2.72-1.22-3.08-2.28l.32,1.38c.37,2.3-.93,2.58.11,1.91.28-.17.57-.32.86-.46a12.4,12.4,0,0,1,1.87-.71,15.43,15.43,0,0,1,4.11-.56c1.77,0,1.78-6.25,0-6.25Z"/><path class="cls-1" d="M27,68.63c30.31,3.62,60.87,2.1,91.26.38,14.94-.84,29.89-1.72,44.85-2.05,15.44-.33,30.89-.11,46.33.38,30.61,1,61.18,2.79,91.79,3.62s61.36,1,92,.5c33.31-.54,66.88-1.82,99.4-9.67,1.94-.47,1.42-6.59,0-6.25-29,7-58.88,8.78-88.61,9.46-30.55.7-61.12.64-91.68,0s-61.21-2.33-91.82-3.5-60.85-1-91.32.66C95.17,64,61,66.44,27,62.38c-1.6-.19-1.9,6,0,6.25Z"/></g><g id="Layer_19" data-name="Layer 19"><path class="cls-1" d="M141.31,279.32a1.35,1.35,0,1,0,0-2.7,1.35,1.35,0,1,0,0,2.7Z"/><path class="cls-1" d="M143.56,286.53l.74.37a1.17,1.17,0,0,0,.54.16,1.14,1.14,0,0,0,.58,0,1,1,0,0,0,.5-.23,1.06,1.06,0,0,0,.37-.36l.15-.31a1.16,1.16,0,0,0,0-.69l-.15-.31a1.36,1.36,0,0,0-.52-.46l-.75-.38a1.25,1.25,0,0,0-.54-.15,1.27,1.27,0,0,0-.58,0,1.23,1.23,0,0,0-.49.23,1,1,0,0,0-.38.37l-.14.31a1.16,1.16,0,0,0,0,.69l.14.31a1.39,1.39,0,0,0,.53.46Z"/><path class="cls-1" d="M187.82,282.25a1.3,1.3,0,1,0,0-2.6,1.3,1.3,0,1,0,0,2.6Z"/><path class="cls-1" d="M168.85,283.4a1.34,1.34,0,1,0,0-2.67,1.34,1.34,0,1,0,0,2.67Z"/><path class="cls-1" d="M174.8,289.77a1.38,1.38,0,1,0,0-2.76,1.38,1.38,0,1,0,0,2.76Z"/><path class="cls-1" d="M240.29,280.05a1.34,1.34,0,1,0,0-2.67,1.34,1.34,0,1,0,0,2.67Z"/><path class="cls-1" d="M218,285.28a1.36,1.36,0,1,0,0-2.71,1.36,1.36,0,1,0,0,2.71Z"/><path class="cls-1" d="M210.15,282.26a1.31,1.31,0,1,0,0-2.62,1.31,1.31,0,1,0,0,2.62Z"/><path class="cls-1" d="M250.34,289.74a1.36,1.36,0,1,0,0-2.71,1.36,1.36,0,1,0,0,2.71Z"/><path class="cls-1" d="M280.1,279.71a1.37,1.37,0,1,0,0-2.73,1.37,1.37,0,1,0,0,2.73Z"/><path class="cls-1" d="M295,292.69a1.33,1.33,0,1,0,0-2.65,1.33,1.33,0,1,0,0,2.65Z"/><path class="cls-1" d="M319.17,280.44a1.35,1.35,0,1,0,0-2.7,1.35,1.35,0,1,0,0,2.7Z"/><path class="cls-1" d="M336.66,293.07a1.34,1.34,0,1,0,0-2.67,1.34,1.34,0,1,0,0,2.67Z"/><path class="cls-1" d="M371.64,278.15a1.3,1.3,0,1,0,0-2.59,1.3,1.3,0,1,0,0,2.59Z"/><path class="cls-1" d="M315.82,291.62a1.37,1.37,0,1,0,0-2.74,1.37,1.37,0,1,0,0,2.74Z"/><path class="cls-1" d="M297.22,282.29a1.34,1.34,0,1,0,0-2.68,1.34,1.34,0,1,0,0,2.68Z"/><path class="cls-1" d="M288.29,288.6a1.33,1.33,0,1,0,0-2.65,1.33,1.33,0,1,0,0,2.65Z"/><path class="cls-1" d="M275.64,290.49a1.36,1.36,0,1,0,0-2.72,1.36,1.36,0,1,0,0,2.72Z"/><path class="cls-1" d="M243.27,294.57a1.34,1.34,0,1,0,0-2.68,1.34,1.34,0,1,0,0,2.68Z"/><path class="cls-1" d="M262.62,280.41a1.32,1.32,0,1,0,0-2.64,1.32,1.32,0,1,0,0,2.64Z"/><path class="cls-1" d="M374.24,294.91a1.31,1.31,0,1,0,0-2.62,1.31,1.31,0,1,0,0,2.62Z"/><path class="cls-1" d="M359.36,283a1.33,1.33,0,1,0,0-2.66,1.33,1.33,0,1,0,0,2.66Z"/><path class="cls-1" d="M156.7,326.37l.74-11.1.09-1.37a5.56,5.56,0,0,0,.08-1.22l0-.21c-.17.3-.19.39,0,.27a2.6,2.6,0,0,1,.49-.07,1.2,1.2,0,0,1,.79.65,25.56,25.56,0,0,1,1.58,3.78,31.55,31.55,0,0,0,3.76,7.72c.57.76,1.9,2.74,3,2.32,1.37-.51,1.29-2.82,1.38-4a42.88,42.88,0,0,1,2.4-11.24,3.83,3.83,0,0,0,0-2.65c-.27-.63-.81-.71-1.06,0A49.68,49.68,0,0,0,167.38,320q-.15,1.22-.24,2.43c0,.24,0,.48,0,.72s-.12.32,0,.23a.69.69,0,0,1-.26.06c-.51,0-1.21-1.06-1.51-1.43a14.53,14.53,0,0,1-1.24-1.78c-1.49-2.5-2.32-5.33-3.44-8-.47-1.13-1-2.93-2.35-3.28-2-.5-2.1,2.37-2.18,3.63l-.86,12.77c0,.58-.13,2,.52,2.31s.9-.94.93-1.31Z"/><path class="cls-1" d="M176.88,317.16a4.32,4.32,0,0,0-1.74,3.2,7,7,0,0,0,.74,4.23,6.13,6.13,0,0,0,4.69,3.05,6.37,6.37,0,0,0,2.71-.29,4.07,4.07,0,0,0,2.34-1.59c.87-1.53.39-3.44-.44-4.87a8.36,8.36,0,0,0-1.94-2.25,8.22,8.22,0,0,0-5.92-1.85c-.69.06-.76,1.38-.75,1.87s.08,1.94.75,1.88a7.63,7.63,0,0,1,6.23,2.38,7.19,7.19,0,0,1,.74,1l.14.23,0,.07.15.32c.1.22,0-.3,0,.13l-.11-.94v-.2l.2-.83c0-.11.06,0,0,.07a2,2,0,0,1-.32.25,6.71,6.71,0,0,1-.68.4,4.86,4.86,0,0,1-1.43.45,6,6,0,0,1-3.12-.3,4.88,4.88,0,0,1-2.43-2l-.11-.25a1.8,1.8,0,0,1-.08-.21c0,.12,0,.13,0,0,.07-.27,0,.52,0,.22s-.1.54,0,.27c0-.11,0-.09,0,0a1.08,1.08,0,0,1,.08-.19c0-.08,0-.09,0,0a1,1,0,0,1,.11-.17,1.79,1.79,0,0,1,.56-.5c.62-.39.61-1.69.52-2.31,0-.35-.29-1.7-.92-1.31Z"/><path class="cls-1" d="M201.21,305.28a145.85,145.85,0,0,0-14.05,26,3.62,3.62,0,0,0,0,2.65c.3.64.77.7,1.06,0A142.62,142.62,0,0,1,202,308.51a3.4,3.4,0,0,0,.27-2.56c-.11-.43-.54-1.38-1-.67Z"/><path class="cls-1" d="M208,314.56c.48,2.57-.16,5.27-.59,7.8a28.22,28.22,0,0,0-.44,9.07c.06.43.24,1.62.92,1.31s.6-1.81.52-2.3c-.43-2.83.22-5.65.68-8.43a26.71,26.71,0,0,0,.21-9.35c-.1-.51-.52-1.27-1-.67a3.51,3.51,0,0,0-.27,2.57Z"/><path class="cls-1" d="M216.42,322.25l.23,6.69a3.75,3.75,0,0,0,.22,1.33c.08.19.26.55.53.55.66,0,.76-1.49.75-1.88l-.23-6.69a3.49,3.49,0,0,0-.22-1.32c-.08-.2-.26-.55-.53-.55-.66,0-.76,1.48-.75,1.87Z"/><path class="cls-1" d="M219.17,316.87c1.06,0,1.07-3.75,0-3.75s-1.07,3.75,0,3.75Z"/><path class="cls-1" d="M224.07,312a96,96,0,0,1,1.38,15.79c0,.46.06,1.85.75,1.88s.75-1.52.75-1.88a106.91,106.91,0,0,0-1.58-17.68c-.09-.52-.53-1.27-1-.68a3.52,3.52,0,0,0-.27,2.57Z"/><path class="cls-1" d="M223.36,322.19a16.45,16.45,0,0,0,7.73-1.76c.25-.13.4-.64.45-.86a4.16,4.16,0,0,0,.08-1.45c-.06-.4-.26-1.64-.92-1.31a15.46,15.46,0,0,1-7.34,1.63c-.27,0-.45.36-.53.55a3.31,3.31,0,0,0-.22,1.32,3.54,3.54,0,0,0,.22,1.33c.1.22.24.54.53.55Z"/><path class="cls-1" d="M236.63,312.83a58.84,58.84,0,0,0-.09,16.34c.06.42.25,1.63.92,1.31s.59-1.8.53-2.3a51.17,51.17,0,0,1,.09-14.36c.08-.56.1-2-.52-2.3s-.87.94-.93,1.31Z"/><path class="cls-1" d="M232.58,323.22a38.59,38.59,0,0,0,7.79-1.1c.68-.17.76-1.31.75-1.87a3.51,3.51,0,0,0-.22-1.33c-.08-.18-.27-.61-.53-.55a38.59,38.59,0,0,1-7.79,1.1c-.68,0-.76,1.42-.75,1.88a3.11,3.11,0,0,0,.22,1.32c.09.21.24.56.53.55Z"/><path class="cls-1" d="M245.32,313.35a77.4,77.4,0,0,0-.25,19.71c.05.43.26,1.61.93,1.31s.58-1.81.52-2.31a69.07,69.07,0,0,1,.25-17.71c.08-.57.1-2-.53-2.31s-.87.95-.92,1.31Z"/><path class="cls-1" d="M249.13,326.54a7.87,7.87,0,0,0,8-.3,6,6,0,0,0,2.79-3.8c.36-1.8-.07-4.06-1.82-5a4.14,4.14,0,0,0-4.37.54,9.84,9.84,0,0,0-3,4c-.88,1.88-1.63,3.84-1.14,6a8.59,8.59,0,0,0,2.84,4.16c1.3,1.17,3,2,4.74,1.24s2.49-2.45,3.24-3.91a3.57,3.57,0,0,0,0-2.65c-.3-.72-.74-.63-1.06,0a7,7,0,0,1-1.82,2.49,3,3,0,0,1-3.17.29,8.5,8.5,0,0,1-2.72-2.34,7.91,7.91,0,0,1-.54-.75c-.07-.12-.14-.33-.21-.42.25.32-.13,1,.15.29.14-.34.29-.67.43-1,.92-2.09,2.37-4.63,5-4.61a2.7,2.7,0,0,1,1.44.43,4,4,0,0,1,.53.47s.08.15.11.15.12-1.09,0-1-.31.47-.43.63a5.9,5.9,0,0,1-.49.51,7.14,7.14,0,0,1-8.09,1c-.95-.53-1.35,3.09-.4,3.61Z"/><path class="cls-1" d="M285.58,325.77c3.13-.18,7.74-.88,8.7-4.47a5.91,5.91,0,0,0-1-5.34,7.47,7.47,0,0,0-4-2.15,5.69,5.69,0,0,0-4.56.64,6.55,6.55,0,0,0-2.24,4.42,51.84,51.84,0,0,0-.41,5.71,14,14,0,0,0,.5,5.27,4.13,4.13,0,0,0,3.74,3c2,.08,3.78-1.17,5.33-2.33.61-.46.6-1.63.52-2.31,0-.3-.32-1.76-.92-1.31-1.8,1.35-4.94,3.49-7,1.36a2.91,2.91,0,0,1-.71-2.26c0-1.38.11-2.78.19-4.14a6.34,6.34,0,0,1,.59-2.88,3.52,3.52,0,0,1,3-1.6,7.57,7.57,0,0,1,3.6.75,6.58,6.58,0,0,1,1.41.92,2.62,2.62,0,0,1,.5.55c.21.29.18.63.18,0,0-.41.11-.43-.11-.1a2.44,2.44,0,0,1-.53.58,6.47,6.47,0,0,1-1.67,1,16.15,16.15,0,0,1-5.1,1c-1.1.06-1,3.81,0,3.75Z"/><path class="cls-1" d="M298.23,321.75a97.71,97.71,0,0,0,.1,17.19c.05.43.25,1.61.92,1.31s.56-1.8.53-2.3l-1-14.4a11.29,11.29,0,0,1-.17-2.95c.22-1,1.06-.74,1.68-.29a8.23,8.23,0,0,1,2.64,3.19c.1.23.2.46.28.7s.1.8.08,0l.22-1.32c-.15.48-2.43.7-2.85.75a14.32,14.32,0,0,1-3.07,0c-1-.09-1.12,3.65,0,3.75a13.83,13.83,0,0,0,5.71-.65c1.78-.62,1.65-2.85,1.24-4.38a10.52,10.52,0,0,0-2.26-4.26c-.72-.81-2.28-2.58-3.52-1.9s-1.62,3-1.65,4.34c0,1.91.22,3.86.35,5.77l.87,12.57,1.45-1a84.8,84.8,0,0,1-.1-15.2c0-.59.14-2-.53-2.31s-.9.93-.92,1.31Z"/><path class="cls-1" d="M310.49,318.34c.07,1.51.09,3,.07,4.52,0,.73,0,1.45-.07,2.17,0,.08,0,.56,0,.23l0,.54-.09,1.26a4.7,4.7,0,0,0,.07,1.45,1.6,1.6,0,0,0,.45.86c.64.38.9-1,.93-1.31a78.81,78.81,0,0,0,.18-9.72,3.93,3.93,0,0,0-.22-1.32c-.08-.2-.26-.55-.53-.55-.66,0-.77,1.49-.75,1.87Z"/><path class="cls-1" d="M309.31,313c1.41,0,1.43-5,0-5s-1.42,5,0,5Z"/><path class="cls-1" d="M324.94,314.76a16.58,16.58,0,0,0-3,.41,4.52,4.52,0,0,0-2,.85,4,4,0,0,0-1,3.38,4.18,4.18,0,0,0,1.39,2.69,13.23,13.23,0,0,0,4,2.2c.72.29,1.44.59,2.13.95.35.19.69.39,1,.61s.61.42.66.56l-.19-.82,0-.66.19-.82c-.22.63-1,1-1.55,1.23a11.92,11.92,0,0,1-2.57.63,20,20,0,0,1-5.89.08c-1-.12-1.14,3.6,0,3.75a20.06,20.06,0,0,0,5.58,0c1.47-.22,3.31-.5,4.47-1.52a3.86,3.86,0,0,0,1.26-2.74,3.32,3.32,0,0,0-1.27-3.07,17.27,17.27,0,0,0-4-2,15.32,15.32,0,0,1-2.31-1.11,8,8,0,0,1-1-.69,2.92,2.92,0,0,1-.44-.42,1.25,1.25,0,0,0-.16-.22c-.06-.11-.06-.1,0,0s0,.13,0-.06l.1.94c0,.9-.35.83,0,.64.13-.07.24-.17.38-.25a4.6,4.6,0,0,1,1.08-.37,16.58,16.58,0,0,1,3-.41c.68,0,.76-1.41.75-1.87s-.07-1.9-.75-1.88Z"/><path class="cls-1" d="M334.19,306.82q.9,9.65.87,19.34c0,.44.06,1.87.75,1.87s.74-1.49.75-1.87q0-10.19-.92-20.34c0-.43-.26-1.6-.93-1.3s-.57,1.8-.52,2.3Z"/><path class="cls-1" d="M330.72,318c4.09-1.49,8.27-3,12.67-2.91,1.05,0,1.08-3.74,0-3.75-4.54-.06-8.86,1.51-13.06,3.05-.25.09-.41.67-.45.86a4.37,4.37,0,0,0-.08,1.44c.06.48.24,1.56.92,1.31Z"/><path class="cls-1" d="M348.7,315.51a7.35,7.35,0,0,0-4.68,3,8.77,8.77,0,0,0-1,7.08,5.09,5.09,0,0,0,4.05,3.92,4.07,4.07,0,0,0,4.28-3.27,9.89,9.89,0,0,0,0-4.59c-.25-1.22-.73-2.38-.94-3.62l-1.18,2.28a26.16,26.16,0,0,0,4.85,6.81c.19.2.47-.05.58-.19a2.44,2.44,0,0,0,.34-1.12,2.92,2.92,0,0,0-.52-2.3,23,23,0,0,1-4.19-5.85c-.25-.52-.64-.77-1-.15a3.78,3.78,0,0,0-.19,2.42,20.15,20.15,0,0,0,.63,2.43c.12.39.22.78.31,1.18s0,.13,0,.06l0,.25a2.28,2.28,0,0,1,0,.26c0-.36,0,.16,0-.06s0,.06,0,.09,0-.24,0,0,0,.07,0,0a2.45,2.45,0,0,1-.12.31,2.09,2.09,0,0,1-.5.61,3,3,0,0,1-1.76.72,3.51,3.51,0,0,1-3.32-1.87s-.09-.21-.11-.27-.09-.25-.05-.12,0-.18-.05-.2v0s0-.3,0-.07,0,0,0-.08c0-.49-.06.21,0-.07a2,2,0,0,0,0-.24c0,.05-.06.22,0,.05s.1-.35,0-.21.05-.13.05-.12a4.18,4.18,0,0,1,.44-.87,6.29,6.29,0,0,1,3.93-2.47c1.15-.24.88-3.93,0-3.75Z"/><path class="cls-1" d="M362.29,314.91c-1.68-.29-3.7-.39-4.71,1.28a5.42,5.42,0,0,0,.94,6.33,12.83,12.83,0,0,0,4.28,3.08,14.33,14.33,0,0,1,2.44,1.07,3,3,0,0,1,.59.58l0,.08c.1.28.1.09,0-.58,0,.46-.1-.86.05-.89-.11,0-.4.34-.51.41a8,8,0,0,1-5.87.86c-.86-.2-1.17,3.48,0,3.75a8.68,8.68,0,0,0,5.16-.45,3.84,3.84,0,0,0,2.14-1.62,5.22,5.22,0,0,0,.22-3.71,3.68,3.68,0,0,0-1.43-2.05,14,14,0,0,0-2.44-1.07,11.79,11.79,0,0,1-4.19-3c-.18-.21-.32-.45-.49-.66,0,0-.07-.14-.09-.15s0,1.19,0,1.19.15-.2.22-.26a2,2,0,0,1,.5-.35,5,5,0,0,1,3.19-.09c.91.15,1.16-3.56,0-3.75Z"/><path class="cls-1" d="M371.7,318c.12.77.23,1.55.32,2.33.05.41.08.82.12,1.22,0,.19,0,.38,0,.57s0,.6,0,.25c0,.75.06,1.51.05,2.26,0,.38,0,.76,0,1.13l0,.66a2.81,2.81,0,0,1,0,.29q0-.29,0,.06a5,5,0,0,0,.07,1.45,1.5,1.5,0,0,0,.45.86c.63.38.9-1,.92-1.31a47.93,47.93,0,0,0-.5-10.77c-.05-.35-.27-1.7-.92-1.31s-.62,1.74-.52,2.31Z"/><path class="cls-1" d="M374.06,313c1.41,0,1.43-5,0-5s-1.43,5,0,5Z"/><path class="cls-1" d="M388.28,312.53a22.17,22.17,0,0,0-6.06,1.51,4.78,4.78,0,0,0-3.05,4.29,5.26,5.26,0,0,0,.79,3.26,5.76,5.76,0,0,0,1.89,1.61,9,9,0,0,1,2.11,1.44c.12.14.22.3.33.44l.06.11,0,.08a2.29,2.29,0,0,1-.05-1.13c-.07-.24.1-.14-.12,0s-.34.26-.53.37a8.77,8.77,0,0,1-3.19.8,19.74,19.74,0,0,1-3.92.05c-1-.08-1.12,3.66,0,3.75a17,17,0,0,0,6.47-.56,3.64,3.64,0,0,0,2.1-1.41,5.21,5.21,0,0,0,.49-3.91,4.71,4.71,0,0,0-1.51-2.44,15.44,15.44,0,0,0-2.17-1.4,6.07,6.07,0,0,1-.92-.68,1.89,1.89,0,0,1-.32-.37c-.13-.21-.14-.5-.06.06a2.72,2.72,0,0,1,0,.7c0,.4-.05.12,0,0s.15-.22.22-.3a3.56,3.56,0,0,1,.84-.7,9.7,9.7,0,0,1,2.8-1.11,29,29,0,0,1,3.8-.76c1.13-.15,1-3.88,0-3.75Z"/><path class="cls-1" d="M183.42,344.35c-1,2.43-2.65,4.46-4,6.69A15.41,15.41,0,0,0,177,358.3c-.29,6.12,3.13,11,6.81,15.55.52.64.9-.19,1-.67a3.37,3.37,0,0,0-.27-2.57c-2.72-3.34-6.83-7.91-6-12.62a15,15,0,0,1,2.74-5.5,31.42,31.42,0,0,0,3.14-5.49,3.67,3.67,0,0,0,0-2.65c-.29-.64-.78-.71-1.06,0Z"/><path class="cls-1" d="M198.07,354.51c-.8.36-1.75.06-2.59.22a4.53,4.53,0,0,0-2.1,1,8.83,8.83,0,0,0-2.56,4.6c-.84,3.49-.22,8.22,3.3,10a5.29,5.29,0,0,0,4.82.17c.94-.46.62-4.11-.4-3.62a4.66,4.66,0,0,1-4.4-.37,4.94,4.94,0,0,1-1.51-1.44,4.5,4.5,0,0,1-.52-1.11,2,2,0,0,0-.07-.33c0,.16-.07-.65,0-.25a3.74,3.74,0,0,1,0-.58c0,.42.07-.5,0-.23a6.14,6.14,0,0,1,.28-1,5.89,5.89,0,0,1,1.21-2,3.76,3.76,0,0,1,2.14-1.19,8.87,8.87,0,0,0,2.81-.33c.95-.44.64-4.1-.4-3.61Z"/><path class="cls-1" d="M208.08,358.38a13.46,13.46,0,0,0-2.18,2.22,7.38,7.38,0,0,0-1.3,3.31c-.29,2,.14,4.58,2.12,5.62a3.87,3.87,0,0,0,4.11-.25c1.69-1.33,2.13-3.72,2-5.75a6,6,0,0,0-1.09-3.19,2.62,2.62,0,0,0-2.59-1.17c-.69.19-.76,1.3-.75,1.88a3.11,3.11,0,0,0,.22,1.32c.07.17.27.62.53.55a1.7,1.7,0,0,1,1.66.48c.15.14.09.09.06.05l.14.18a2,2,0,0,1,.17.23s.13.23.06.09,0,.14,0,.14a1.07,1.07,0,0,0,.07.19s-.09-.36,0-.1c0,.1,0,.2.07.3s-.07-.44,0-.15,0-.18,0-.2v.2c0,.36,0-.4,0-.15a1.36,1.36,0,0,1,0,.2c0,.22.08-.37,0-.15l-.06.24c-.06.27.1-.2,0,0s-.11.28-.17.41c.11-.25,0,.05-.09.14s-.17.24-.26.35l-.08.09-.16.15a3.08,3.08,0,0,1-3,.53l-.06,0-.17-.07a2.58,2.58,0,0,1-.37-.19l-.33-.22-.14-.12s-.23-.21-.08-.06a2.15,2.15,0,0,1-.23-.28l-.09-.15c-.17-.23,0,.18,0,0a.87.87,0,0,0-.07-.17c-.09-.15,0,.24,0,0s-.09-.41,0,0c-.07-.34,0,.3,0,.07s-.06.47,0,.06c0,.2-.05.24,0,0s.11-.35,0-.05c0-.1.07-.2.11-.29s.09-.2.13-.29c-.08.16,0,0,.06-.09s.24-.37.37-.54a10.76,10.76,0,0,1,1.78-1.79,2.81,2.81,0,0,0,.52-2.31c0-.26-.35-1.8-.92-1.31Z"/><path class="cls-1" d="M216.07,361.7s.09.54,0,.15c0,.1,0,.2.05.3l.09.82c0,.21,0,.28,0,0,0,.12,0,.26,0,.38,0,.28,0,.55,0,.83s0-.2,0,0l0,.38q0,.38-.09.75c-.06.49.07-.34,0,.15,0,.12-.05.24-.08.37s-.12.54-.19.81l1.39.94a1,1,0,0,0,0-.25c0,.48,0,.2,0,.07s0-.37.07-.55,0,0,0,.08a.7.7,0,0,0,.05-.25c0-.18.08-.36.13-.54s.07-.24,0,0a2.25,2.25,0,0,1,.08-.24c.06-.18.12-.35.19-.52s.15-.35.23-.51a2.4,2.4,0,0,1,.11-.23c-.08.16,0,0,0-.09a9.37,9.37,0,0,1,2.82-3.15l-.58-.18a9.29,9.29,0,0,1,.83,1.55c.13.3.25.6.35.91l.09.26c0-.13,0-.15,0,0s.09.31.13.47a6,6,0,0,1,.21,1c0-.42,0,0,0,.1s0,.37.07.56a1.39,1.39,0,0,0,0,.41c0-.26,0-.29,0-.08v.7a2.62,2.62,0,0,1,0,.28c0-.27,0-.29,0-.08a4.64,4.64,0,0,0,.08,1.44,1.47,1.47,0,0,0,.45.87c.63.38.9-1,.92-1.31A16.82,16.82,0,0,0,221.14,358a.42.42,0,0,0-.58-.19,12.17,12.17,0,0,0-4.83,9.82c0,.49.06,1.51.55,1.81s.77-.54.85-.86a19.29,19.29,0,0,0,.23-8.78c-.08-.44-.57-1.36-1-.67a3.59,3.59,0,0,0-.27,2.56Z"/><path class="cls-1" d="M234,356.13l-3.77.72a4.33,4.33,0,0,0-2.36.89c-1,1-1.06,3-.59,4.27a4,4,0,0,0,1.89,2.06c1,.56,2,1,3,1.56a6.8,6.8,0,0,1,1.18.8,2.44,2.44,0,0,1,.42.43c.22.31.17.59.13-.42a1.3,1.3,0,0,1,0-.85,1.5,1.5,0,0,1-.19.25,3.54,3.54,0,0,1-.61.49,8.62,8.62,0,0,1-1.38.79,20.8,20.8,0,0,1-3,1c-1.17.32-.81,4,0,3.75,1.92-.55,4.1-1.11,5.55-2.58a4.61,4.61,0,0,0,.93-4.17,4.29,4.29,0,0,0-1.65-2.51,17.61,17.61,0,0,0-2.75-1.54,7.43,7.43,0,0,1-2.37-1.55c-.4-.45-.5,2-.06,1.7a5.43,5.43,0,0,1,.51-.32,5.79,5.79,0,0,1,1.35-.33l3.77-.72c1.15-.22.9-3.93,0-3.75Z"/><path class="cls-1" d="M242.46,348.26a127.09,127.09,0,0,0-.87,18.08c0,.44.06,1.88.75,1.88s.76-1.49.75-1.88a120.33,120.33,0,0,1,.82-17.08c.07-.57.11-2-.52-2.31s-.88.95-.93,1.31Z"/><path class="cls-1" d="M239,358.76a19,19,0,0,0,6-1.25c.25-.09.41-.67.45-.86a4.12,4.12,0,0,0,.08-1.44,2.27,2.27,0,0,0-.35-1.12c-.17-.22-.3-.3-.57-.19l-.72.25.2-.06A19.08,19.08,0,0,1,239,355c-.27,0-.44.35-.53.55a3.35,3.35,0,0,0-.22,1.33,3.28,3.28,0,0,0,.22,1.32c.09.21.25.56.53.55Z"/><path class="cls-1" d="M254.08,358.23a7.78,7.78,0,0,0-4.24,2.27,6.16,6.16,0,0,0-.56,6.07,7.83,7.83,0,0,0,1.4,2c.45.49,1.09,1.38,1.87,1.2a3.73,3.73,0,0,0,1.77-1.4,6.6,6.6,0,0,0,1.07-1.9,9.66,9.66,0,0,0,.11-6.41l-1.06,2.65a25.76,25.76,0,0,0,3.72,7.17c.48.65.92-.21,1-.68a3.4,3.4,0,0,0-.27-2.56,23.67,23.67,0,0,1-3.41-6.58c-.07-.2-.27-.55-.53-.55s-.46.35-.53.55a4.08,4.08,0,0,0,0,2.65c-.12-.36.06.18.05.24,0-.24,0-.26,0-.07a2.11,2.11,0,0,1,0,.25c0-.28,0-.32,0-.11a2.09,2.09,0,0,1,0,.25v-.24a2.11,2.11,0,0,1,0,.25c0,.19,0,.17,0-.07a1.84,1.84,0,0,1-.05.25l-.06.25c.05-.17.05-.18,0,0l-.17.42-.08.17c.06-.1.05-.09,0,.05a5,5,0,0,1-1.13,1.36c-.23.18-.48.43-.79.32a2.61,2.61,0,0,1-.74-.67c-.2-.22-.4-.44-.59-.68s-.23-.31-.33-.47l-.15-.24,0-.08a1.86,1.86,0,0,1-.1-.25c0,.16,0,.16,0,0,.06.42,0-.28,0,.26a1.84,1.84,0,0,1,0,.41c-.06.16,0,.16,0,0s.07-.17,0-.08l.14-.23c.8-1.21,2.35-1.66,3.68-2,1.17-.33.81-4,0-3.75Z"/><path class="cls-1" d="M260.14,358a55,55,0,0,0,.81,10.25c.05.26.4,1.22.85.86a3.72,3.72,0,0,0,1.11-2.71,12.7,12.7,0,0,0,0-1.85,10,10,0,0,1,0-1.1,9.63,9.63,0,0,1,.43-2.33,11,11,0,0,1,1.24-2.65l-.58.19a22.2,22.2,0,0,1,1.81,2.29,23.57,23.57,0,0,1,1.7,2.59,8.24,8.24,0,0,1,1,2.57s0,.35,0,.4c0-.33,0,.62,0,.28a3,3,0,0,1-.25,1,3.78,3.78,0,0,0,0,2.65c.27.65.79.69,1.06,0a11.64,11.64,0,0,0-.42-8.88,20,20,0,0,0-2-3.42,25,25,0,0,0-2.49-3.11c-.19-.19-.49,0-.58.18a15.84,15.84,0,0,0-2.18,5.79,17.54,17.54,0,0,0-.23,3.24c0,.3,0,.61.05.92,0,.06.11.8,0,.38.07.35.09-.16,0,.17.15-.56.14-.39,0-.24l.84.86a45,45,0,0,1-.6-8.35c0-.46-.07-1.84-.75-1.87s-.74,1.51-.75,1.87Z"/><path class="cls-1" d="M276.08,347.09l-.08,24c0,.44.07,1.87.75,1.87s.75-1.49.75-1.87l.08-24c0-.44-.07-1.88-.75-1.88s-.74,1.49-.75,1.88Z"/><path class="cls-1" d="M270.53,358.21a91.59,91.59,0,0,1,10-1.25c.68,0,.76-1.4.75-1.88s-.07-1.92-.75-1.87a91.59,91.59,0,0,0-10,1.25c-.69.13-.76,1.34-.75,1.88,0,.32.1,2,.75,1.87Z"/><path class="cls-1" d="M300,362.7a8.64,8.64,0,0,0,4.84.48,4.26,4.26,0,0,0,2.72-2.46,5.72,5.72,0,0,0-.3-5.11,3.91,3.91,0,0,0-2.94-1.52,8.72,8.72,0,0,0-3.83.45,5.33,5.33,0,0,0-2.8,2.73,9.43,9.43,0,0,0,.58,9c1.6,2.55,4.88,4.87,8,3.74.25-.09.41-.67.45-.86a4.37,4.37,0,0,0,.08-1.44c-.06-.48-.24-1.56-.93-1.31-2.06.75-4.35-.61-5.76-2a6.71,6.71,0,0,1-1.58-2.45,2,2,0,0,1-.13-.5c0,.07,0,.25,0-.11,0-.14-.11-.23,0,0,0-.05,0-.39,0,0,0-.11,0-.23,0-.34-.05.34.11-.37.05-.18a3.93,3.93,0,0,1,1.53-2.07,5.81,5.81,0,0,1,3-.82,5.9,5.9,0,0,1,2.54.28,2.57,2.57,0,0,1,.88.57c0,.05.27.33.22.37a8.24,8.24,0,0,1-.08-.9c0-.1.12-.26,0-.14a4.76,4.76,0,0,1-.84,1,3.23,3.23,0,0,1-1.49.59A10,10,0,0,1,300,359c-.78-.23-1.18,3.4,0,3.75Z"/><path class="cls-1" d="M314.65,368.06c-.37-4.94-1.57-10.1-.32-15,.52-2.05,1.62-4.93,3.93-5.46,2.46-.57,5.44,0,7.82.72.79.23,1.18-3.41,0-3.75a21.79,21.79,0,0,0-4.67-.83,8.41,8.41,0,0,0-4.31.5c-2.24,1.13-3.34,4.32-4,6.56-1.67,6-.38,12.2.07,18.27,0,.44.26,1.6.92,1.31s.56-1.8.53-2.31Z"/><path class="cls-1" d="M309,359.4a75.43,75.43,0,0,0,11.74,0c.69-.05.76-1.39.75-1.87s-.07-1.93-.75-1.88a75.43,75.43,0,0,1-11.74,0c-1-.07-1.11,3.67,0,3.75Z"/><path class="cls-1" d="M325.69,366.62a13.58,13.58,0,0,0,1.51-5.94c.13-2.35.18-4.72.19-7.08,0-1.14,0-2.29,0-3.43,0-.24,0-.48,0-.72s.07-.54,0-.43.21-.07.18-.06c.18,0,.34-.2.53-.25a7,7,0,0,1,2.63,0c1.17.11,2.34.27,3.5.47.91.16,1.16-3.55,0-3.75s-2.33-.36-3.5-.47a7.88,7.88,0,0,0-2.74,0c-2.14.59-2.11,3.21-2.07,5,.06,2.41,0,4.82,0,7.22-.06,2,.11,4.37-.91,6.17a3.65,3.65,0,0,0-.26,2.56c.09.38.59,1.44,1,.68Z"/><path class="cls-1" d="M321.88,357.53a96,96,0,0,0,13.67.47c1.08,0,1-3.78,0-3.75a96,96,0,0,1-13.67-.47c-1-.1-1.13,3.63,0,3.75Z"/><path class="cls-1" d="M337.23,365.72c3-1,7-1.13,8-4.87a6.2,6.2,0,0,0-.73-5.14c-1-1.31-2.64-1.11-4-.58-6,2.28-8.25,10.47-4.5,15.65a6,6,0,0,0,4.2,2.69c1.84.08,3.3-1.31,4.48-2.54a2.87,2.87,0,0,0,.53-2.3c0-.22-.4-1.85-.92-1.31a8.54,8.54,0,0,1-2.86,2.21,3.55,3.55,0,0,1-3.32-.65,5.91,5.91,0,0,1-1.93-2.3,5.48,5.48,0,0,1-.41-1.2,4.44,4.44,0,0,1-.08-.59c0,.32,0-.54,0-.25.16-1.89,1.69-3.72,3.3-4.81a7.05,7.05,0,0,1,3.07-1.27,2,2,0,0,1,1.57.36c.21.17.37.68.35.24,0-.25.06-.2-.08-.05a7.81,7.81,0,0,1-.58.71,5.59,5.59,0,0,1-1.57,1c-1.44.63-3,.78-4.52,1.27-1.17.38-.76,4,0,3.75Z"/><path class="cls-1" d="M354,356.07c-1.4,1.14-3.16,1.67-4.57,2.77A6.14,6.14,0,0,0,347,364a8.55,8.55,0,0,0,2.49,5.75,4.08,4.08,0,0,0,4.67.82c1.92-.77,3.2-2.5,4.79-3.74.6-.47.62-1.63.52-2.31,0-.29-.32-1.77-.92-1.31-1.5,1.17-2.71,2.78-4.46,3.6a3.93,3.93,0,0,1-2.65.33,3.81,3.81,0,0,1-2-1.57,8,8,0,0,1-.68-1.07c-.07-.15-.18-.41-.22-.52s-.06-.24,0-.1c0-.23,0-.25,0-.07s-.12.48,0,.18a3.24,3.24,0,0,1,.22-.4,4,4,0,0,1,.75-.84c1.46-1.27,3.39-1.8,4.89-3a2.77,2.77,0,0,0,.52-2.31c0-.27-.34-1.78-.92-1.31Z"/><path class="cls-1" d="M364.84,349q1.19,8.61,2,17.27c0,.43.26,1.61.92,1.31s.57-1.8.53-2.31q-.78-8.65-1.95-17.27c-.06-.43-.25-1.61-.92-1.31s-.59,1.81-.53,2.31Z"/><path class="cls-1" d="M361.2,357.8a47.37,47.37,0,0,1,10.89-.82c.68,0,.76-1.45.75-1.87s0-1.85-.75-1.88a47.37,47.37,0,0,0-10.89.82c-1.15.22-.9,3.92,0,3.75Z"/><path class="cls-1" d="M373.11,344.81l4.86,7.77c.77,1.22,1.55,2.44,2.3,3.68s1.39,2.19,1,3.5a36.83,36.83,0,0,1-3.47,7.45,69.54,69.54,0,0,1-4.69,7.29,3.42,3.42,0,0,0-.27,2.57c.12.45.53,1.35,1,.67a68.5,68.5,0,0,0,5.44-8.7c1.47-2.79,3.23-5.87,3.58-9.06.36-3.38-1.27-6-3-8.75l-6.05-9.66c-.45-.72-.92.27-1,.67a3.48,3.48,0,0,0,.27,2.57Z"/></g></g></svg>