<svg xmlns="http://www.w3.org/2000/svg" viewBox="0 0 558.17 540.83"><defs><style>.cls-1{fill:#fff;}</style></defs><title>1SlideIntro</title><g id="Layer_44" data-name="Layer 44"><g id="IntroToSlides"><path class="cls-1" d="M94.17,80.34q1.14,68.58,2.29,137.15c.76,45.77,2.93,91.59-5.25,136.86-4.1,22.68-8.48,45.57-3.91,68.53.08.41.33,1.21.86,1.24,99.32,6,198.85,1.19,298-6.17,28-2.09,56-4.36,84-6.65.92-.08,1-1.92,1-2.5,1.26-42.87,1-85.77.43-128.65-.58-41,.78-82.93-8-123.22-2.46-11.28-5.54-22.42-8.64-33.54-1.55-5.57-3.12-11.13-4.61-16.71-2-7.39-4.45-15.23-2-22.8.25-.77.75-4.22-.71-4.27-47.11-1.62-94.29-3.24-141.41-1-46.14,2.2-92,8.49-138.21,9.67-26.16.67-52.36-.43-78.2-4.73-1.22-.21-1.54,4.74,0,5,45.86,7.63,92.41,4.92,138.49,1,46.43-3.92,92.58-7.41,139.22-7,26.71.22,53.42,1.13,80.11,2l-.7-4.27c-2.66,8.11-1.59,16.18.45,24.32,2.56,10.23,5.6,20.35,8.38,30.53,5.85,21.41,10.19,42.85,11.76,65s1.52,44.73,1.87,67.07c.34,22.1.62,44.21.67,66.31.06,25.08-.18,50.15-.91,75.21l1-2.5c-99.09,8.09-198.36,16.11-297.86,15.55q-42.09-.24-84.12-2.73l.87,1.24C84.42,397.23,90,374,94,351.21a390.27,390.27,0,0,0,5.33-62c.57-44.41-1.11-88.93-1.85-133.34L96.17,80.34c0-2.93-2-3-2,0Z"/><path class="cls-1" d="M157.82,446.76l-1.56,14.76a50.8,50.8,0,0,1-.59,5.53,3.67,3.67,0,0,1-2.3,4l-2.76-1.4c-7.22-3.74-14.21-7.89-19.06-14.61l-.24,4.57,26.51-12.41-1-4.18a59.85,59.85,0,0,0-3.21,27.38l1.23-3.08a32,32,0,0,0-10-5.81c-2.49-.87-7.39-.87-8.61-3.54l-.45,4.18,19.19-9.5-1.27-2.41c.08,2,1.68,12.35.22,13.42-1.18.86-9.41-5.23-11-6.23v4.82l8.75-5-1.26-2.41.16,3.05q.66,3.39-1.64-.38l-1.13,3.67c4.27,2.08,4.09-4.13,5.43-6.28.7-1.12-.08-5.82-1-4.32-.71,1.13-2.22,6.59-3.89,5.78-1.43-.69-1.25,3.09-1.13,3.67.36,1.69,2.13,6,4.59,4.3,2-1.42.71-7.75.62-9.49,0-.42-.2-3-1.27-2.41l-8.75,5c-1.11.64-1.06,4.17,0,4.82,3.25,2,6.54,4.46,10,6.11,1.6.77,2.23,1.44,3.4-.12.94-1.25.53-3.5.49-4.92-.1-4.36-.34-8.72-.51-13.08,0-.49-.17-2.95-1.26-2.41l-19.19,9.5c-1.1.55-.83,3.32-.44,4.18,1.23,2.68,3.34,3.19,6,3.88a32.91,32.91,0,0,1,13.47,6.75c1.09.91,1.27-2.73,1.23-3.07a49.17,49.17,0,0,1,2.69-22.52c.23-.62.6-4.91-1-4.18l-26.51,12.42c-1.2.56-.86,3.71-.24,4.57A41.26,41.26,0,0,0,142,469.85c2.18,1.4,4.45,2.66,6.74,3.86,1.43.75,4.12,2.89,5.8,2.6,3.17-.54,2.85-5.53,3.1-7.93l2.14-20.29c.23-2.12-1.56-4.72-1.92-1.33Z"/><path class="cls-1" d="M354.92,437.33c-2.09,3.33-2.08,6.91-1.79,10.73.27,3.61.63,7.22.95,10.83.15,1.78-.19,5.16.84,6.83,2.12,3.45,7.33-1.6,9.64-2.93q9.27-5.37,18.45-10.9c1-.61,1.15-4.29,0-4.82L355.35,434.4c-.68-.31-1,.64-1.13,1.15a83.19,83.19,0,0,0-1.79,14.33c-.08,2.7-.56,6.81,1.19,9.2,4.26,5.81,16.95-3.48,20.73-6.07,1-.72,1.12-4.13,0-4.82-4.23-2.62-8.43-5.28-12.69-7.85-2-1.17-4.84-3.36-7-1.37-3.5,3.22-1.43,12.64-.67,16.5.1.48.47,1.49,1.13,1.14l8.5-4.42c1.12-.58.82-3.28.44-4.18a21.07,21.07,0,0,0-4.46-6.7c-.26-.27-.62.08-.77.25A14.38,14.38,0,0,0,356,454c1.57,5.51,7.52,1.18,11.14-.2,1.24-.47,1-4.58-.26-4.91-3.06-.78-5.95-1.65-7.54-4.59l-.51,4.66a124.77,124.77,0,0,1,15.44,4.29c1.51.52,1.81-4.38.53-4.83a131.22,131.22,0,0,0-16-4.46c-1.51-.32-.81,4.09-.5,4.66,1.79,3.31,5.08,4.39,8.55,5.27l-.27-4.91c-1.65.63-6.22,3.27-7.87,2.93q-1.87-7.35,2-3.87a13.71,13.71,0,0,1,1.88,3.47l.44-4.18-8.5,4.42,1.13,1.15a25.83,25.83,0,0,1-.65-6.07l2.15-3.67c1.15-.48,5.26,2.79,6.3,3.44L373.82,453v-4.82c-4.12,2.82-10.29,7.2-15.37,7.66-3.6.32-4.11-1.91-4-5A70.17,70.17,0,0,1,356,438.07l-1.13,1.15,27.66,12.67v-4.82q-10.44,6.29-21,12.35c-1.5.87-3.44,2.78-4.73,1.76s-.8-4.14-.93-5.59c-.34-3.89-2.07-10.49.1-13.95.7-1.11-.07-5.81-1-4.31Z"/><path class="cls-1" d="M353.74,444.81a99.28,99.28,0,0,0-1.11,14.71c0,1.56-.15,4.64,1.78,5.31,1,.33,2.57-.74,3.32-1.06,2.32-1,4.63-2,6.94-3l15.6-6.85c1.08-.47,1-5.09-.26-4.91-4.33.61-8.28-4.64-12-6.66-3-1.66-6.76-3.31-10-1.29-4.26,2.66-4.9,8.73-3.07,13,1,2.38,1.93-2.35,1.41-3.54-1.18-2.74,2.39-5.29,4.69-5.45,2.95-.2,6.2,1.86,8.59,3.4,3.44,2.22,5.92,6.18,10.35,5.55l-.27-4.91-18.2,8a25.43,25.43,0,0,1-4.34,1.9c-2,.42-2,1.11-2.53-1.3-.68-3.12.57-8.32,1-11.5.29-2.14-1.48-4.71-1.92-1.33Z"/><path class="cls-1" d="M261.54,441.77l-14.07,28.64c-.57,1.16.26,5.88,1.42,3.53L263,445.31c.57-1.17-.27-5.88-1.42-3.54Z"/><path class="cls-1" d="M268.89,452.65c2.18-1,4.74-2.3,7.24-1.83,2.14.39,3.51,1.71,1.55,3.26-2.33,1.83-6.38,1.13-9,2.9-1.06.71-1.11,4.13,0,4.82a178.63,178.63,0,0,0,15.76,8.67l-.24-4.57c-2.13,3.12-7.68,2.83-11.05,3.24l-13,1.59c-1.5.18-1.29,5.15,0,5l16.76-2c3.21-.4,6.37-.6,8.33-3.47.59-.86,1-4-.24-4.57A178.45,178.45,0,0,1,269.21,457v4.82c4.7-3.17,13.16-1.52,12.42-9.72-.69-7.51-8.11-6.61-13.28-4.25-1.26.58-.86,5.46.54,4.82Z"/></g><g id="Layer_45" data-name="Layer 45"><path class="cls-1" d="M154.71,126.33q-5.44,23.31-10,46.8c-.29,1.49,1.12,5.67,1.72,2.53q4.52-23.5,10-46.8c.35-1.5-1-5.66-1.72-2.53Z"/><path class="cls-1" d="M149.17,158a80.6,80.6,0,0,0,27-1.12c1.54-.32,1.18-5.24,0-5a80.6,80.6,0,0,1-27,1.12c-1.27-.15-1.52,4.81,0,5Z"/><path class="cls-1" d="M177.75,134.83a105.92,105.92,0,0,0-5.46,43.33c.27,3.39,2.1.8,1.93-1.33a94.11,94.11,0,0,1,4.94-38.46c.41-1.19-.58-5.93-1.41-3.54Z"/><path class="cls-1" d="M193.24,157.34a13.52,13.52,0,0,0-9.6,8.08c-1.21,3-1.57,8,1.72,9.79,2.88,1.59,6.64,0,8.25-2.58,2.55-4.15,1.69-9.57.83-14.08l-1.57,3,5.44,13.74c.42,1,.94.69,1.42,0s.34-2.66,0-3.53l-5.45-13.74c-1-2.52-1.72,2.23-1.57,3,.55,2.89,1.37,6.7-1.43,8.73a5.72,5.72,0,0,1-4.56.88c-2.74-.72-1.44-2.67-.13-4.29a12,12,0,0,1,6.65-4.06c1.55-.37,1.13-5.27,0-5Z"/><path class="cls-1" d="M208,157.82l-1.64,18.37c-.12,1.31,1.08,5,1.83,1.93A34.72,34.72,0,0,1,214,165.69c1.8-2.43,3.87-3.92,5.78-.72a12.25,12.25,0,0,1,1.3,9.21c-.36,1.49,1,5.65,1.72,2.52a23.14,23.14,0,0,0,.15-10.63c-.56-2.42-2-7.52-4.94-8.2-3.11-.73-5.75,4.4-7,6.45a41.1,41.1,0,0,0-4.53,11.27l1.83,1.93,1.64-18.37c.19-2.12-1.62-4.74-1.93-1.33Z"/><path class="cls-1" d="M240.15,139.5l0,31.64c0,2.49.73,6-2.48,6.71-1.91.39-4.55-1-5.68-2.47-2.16-2.88-1.22-7.07,2.34-8a5.88,5.88,0,0,1,5.69,1.29c.91.77,1.69-3.84.53-4.82-4.24-3.58-10.51-1.07-12.13,4-1.73,5.39.67,12.46,6.23,14.55,7,2.63,7.51-4.45,7.51-9.33l0-33.55c0-2.94-2-3-2,0Z"/><path class="cls-1" d="M252.42,170.89a98.22,98.22,0,0,1,21.73-6c1.53-.24,1.25-5.19,0-5a100.6,100.6,0,0,0-22.26,6.16c-1.26.51-.93,5.41.53,4.82Z"/><path class="cls-1" d="M300.71,218.61c-3.65,1.12-5.65,4.46-6,8.14-.35,3.41.86,9.34,5.47,8.53,4.09-.72,6.65-5,6.87-8.83s-1.79-8.54-6.23-8.32c-1.46.07-1.38,5.06,0,5,1.63-.08,4.46,1,4.11,3.13-.3,1.86-3.06,3.69-4.75,4-2.09.4-4.12-1.18-3.23-3.31a6,6,0,0,1,3.79-3.36c1.55-.48,1-5.32,0-5Z"/><path class="cls-1" d="M316,231.45c-.62-3,.36-10.69,5.47-8.23,2.26,1.09,2.71,3.95,3,6.19.05.42.7,2.77,1.47,1.49,1.07-1.76,3.17-7,5.25-7,1.78-.08,2,1.7,2.63,3.34a27.8,27.8,0,0,1,1.24,5c.54,3.15,2-1.05,1.72-2.53-.47-2.76-1.61-10-4.52-11.43-3.19-1.56-6.15,6.39-7.33,8.32l1.47,1.5c-.45-4-2.2-11.89-8-9.88-6.22,2.16-5.07,10.87-4.08,15.77.64,3.15,2-1,1.73-2.52Z"/><path class="cls-1" d="M339.22,221.64l2.12,27.93,1.93-1.33a80.44,80.44,0,0,1,.5-27.94l-.86,1.23c2.35.42,6.51,2.19,4.67,6-.83,1.72-3.34,2.52-5,2.73s-1.29,5.17,0,5c10.11-1.3,10.25-17,.32-18.75-.51-.09-.8.94-.86,1.24a91.58,91.58,0,0,0-.71,31.8c.52,3.41,2.08.78,1.93-1.33l-2.12-27.93c-.26-3.4-2.09-.8-1.93,1.33Z"/><path class="cls-1" d="M355.1,215.81a32.89,32.89,0,0,0,1.19,18c.1.28.56,1,1,.64a24.21,24.21,0,0,0,7.26-17.11l-1.87,1.26q1.43,5.85,2.84,11.69c.76,3.14,2.09-1,1.72-2.52q-1.41-5.85-2.83-11.69c-.64-2.64-1.82-.09-1.86,1.26a18.15,18.15,0,0,1-5.79,12.29l1,.64a21.83,21.83,0,0,1-.88-12c.17-.8.43-2.84-.35-3.42s-1.18,0-1.37.9Z"/><path class="cls-1" d="M372,194.64a171.43,171.43,0,0,1-.62,35.66c-.26,2.13,1.52,4.71,1.93,1.32a183.75,183.75,0,0,0,.62-38.31c-.3-3.39-2.12-.81-1.93,1.33Z"/><path class="cls-1" d="M364.64,220.29l17.06-2.54c1.52-.23,1.26-5.19,0-5l-17.06,2.54c-1.52.22-1.26,5.18,0,5Z"/><path class="cls-1" d="M384.69,225.8c5.41-.73,15.46-2.79,14.72-10-.85-8.33-10.51-2.48-13.9.57-3.84,3.46-5.91,10.72-2.1,15s12.57,1.44,15.72-2.18c.87-1,.25-5.76-1-4.32-2.09,2.4-6.77,3.61-9.85,3.55-1.53,0-3.63-.56-4.39-2.06-1.22-2.39,1.7-4.9,3.31-6.13a34.7,34.7,0,0,1,4.21-2.66c.73-.41,4.86-2.25,5.2-.95.11.42-4.29,2.21-4.74,2.39a31.07,31.07,0,0,1-7.17,1.76c-1.51.2-1.27,5.17,0,5Z"/><path class="cls-1" d="M401.44,213.05a33.22,33.22,0,0,1,1.11,13.52l2,.66c0-7.61,5.95-14.11,13.07-16.1,1.55-.43,1.08-5.3,0-5-9.51,2.65-15.11,11.47-15.07,21.1,0,2.11,1.6,3.61,2,.67a43,43,0,0,0-1.31-17.38c-.89-3.1-2.16,1-1.73,2.53Z"/><path class="cls-1" d="M299.63,138.36a279.85,279.85,0,0,1-.1,29.68c-.17,2.7-.29,7.47-4.2,7a5,5,0,0,1-4-6.09c1.23-4.49,6.53-6.69,10.7-6.19,1.28.15,1.52-4.82,0-5-6-.73-11.26,3.59-12.65,9.4-1,4.33-.07,10.87,4.8,12.56,7,2.42,7.18-8.26,7.39-12.28.51-9.71.51-19.42.07-29.12-.13-2.91-2.14-3-2,0Z"/><path class="cls-1" d="M309.26,157.84a58.59,58.59,0,0,0,1.05,16.71c.55,2.65,1.84.09,1.86-1.26.05-4.24.05-9,3-12.42,2.37-2.75,6.15-4.2,9.6-2.64,1.38.62,1.81-4.25.53-4.83-4.47-2-9.33.21-11.93,4.18-3,4.58-3.1,10.43-3.17,15.71L312,172a45.53,45.53,0,0,1-.84-12.86c.16-2.12-1.66-4.74-1.93-1.33Z"/><path class="cls-1" d="M339.23,153.7c-12.06,2.21-11.71,18.56-3.68,25.06,5.74,4.65,8.22-1.26,8.95-6.61.95-6.92-1.35-13.72-3.81-20.08L339.48,156a120,120,0,0,1,10.83,18.35c1.12,2.35,2-2.36,1.42-3.54a124.25,124.25,0,0,0-11.24-19.12c-1.22-1.7-1.48,3.24-1.21,3.92a68.31,68.31,0,0,1,2.65,7.89c.77,3,2.05,14.22-4.7,11.29a8.93,8.93,0,0,1-2.54-2.2c-1.8-2-3.15-6-2.43-8.59.81-2.91,4.26-4.79,7-5.29,1.53-.28,1.21-5.22,0-5Z"/><path class="cls-1" d="M351.94,157.51a160.13,160.13,0,0,0,13.21,20.37c.68.89,1.2-.3,1.37-.9a103.43,103.43,0,0,1,6.72-17.4h-1.41l5.44,13.81c.36.9,1,.89,1.42,0L386.25,156c.52-1.18-.38-5.91-1.41-3.53l-7.57,17.37h1.42l-5.45-13.81c-.37-.94-1-.84-1.41,0a106.47,106.47,0,0,0-7,18.41l1.36-.9A160.13,160.13,0,0,1,353,153.19c-.8-1.47-1.65,3.14-1,4.32Z"/><path class="cls-1" d="M395.17,152.5l0,14.27,2-.67c-.25-3.19,1.23-22.46,7.93-15.66,4.06,4.11,5.44,12.62,5.63,18.08.1,2.91,2.1,3,2,0A46.58,46.58,0,0,0,410,154c-1.08-2.95-3.18-9.64-7.06-9.87s-5.75,5.05-6.53,7.94a45.34,45.34,0,0,0-1.21,15.39c.23,2.86,2,1.53,2-.66l0-14.27c0-2.94-2-3-2,0Z"/><path class="cls-1" d="M423.8,167.58l6.89,12.07c.57,1,1.23-.41,1.36-.9a4.77,4.77,0,0,0-.36-3.42l-6.88-12.07c-.57-1-1.23.4-1.37.9a4.82,4.82,0,0,0,.36,3.42Z"/><path class="cls-1" d="M195.4,275.16c-2.36,3.24-4.17,6.77-3.83,10.89.24,2.92,1.81,5.74,4.92,6.31,8.43,1.56,3.89-12.64,1.9-15.93l-1,4.32q5.56,7.68,10.72,15.63c1,1.48,1.75-3.19,1-4.32q-5.15-7.95-10.72-15.63c-1.12-1.55-1.63,3.29-1,4.32,1.33,2.2,3.76,7.86-1.09,6.54-4.48-1.22-1.72-5.28.12-7.81.78-1.07.07-5.8-1-4.32Z"/><path class="cls-1" d="M208.77,283.59l11.12,16.48a.56.56,0,0,0,1,0l3.87-6.67c.55-.94,2.13-4.84,2.91-5,3.34-.7,6.29,8.81,7.24,10.8.25.52.75,1.07,1.21.39l11.53-16.94c.74-1.09,0-5.81-1-4.32l-11.53,16.94,1.21.39c-1.73-3.61-3.15-8-5.43-11.28-1.55-2.24-2.53-2.25-4.23-.3s-2.66,4.59-3.87,6.67l-1.94,3.33c-1.18.32-1.9-.22-2.18-1.63-3.51-3.54-6.1-9-8.9-13.18-1-1.48-1.77,3.2-1,4.32Z"/><path class="cls-1" d="M251,293c5.29.52,13-2.17,14-8.24.83-5.15-4.08-9-8.33-5.06-3.65,3.4-6.51,10.46-4.9,15.4,2.31,7.14,15.67,6,21.44,5.63,1.47-.09,1.36-5.09,0-5a54.79,54.79,0,0,1-12.73-.51c-1.37-.23-4.49-.57-5.51-1.42-2.61-2.18-.3-5.89,1.08-7.79,1.25-1.71,2.7-3.27,5-3s1.54.81,0,2.11A13.22,13.22,0,0,1,251,288c-1.3-.13-1.5,4.85,0,5Z"/><path class="cls-1" d="M287.06,279.46c-3.86-.21-8.21-.17-10.49,3.52a8.9,8.9,0,0,0-.68,7.37c.92,2.45,2.95,3.42,5.34,4.12,1.17.34,5.06.7,5.53,1.87.4,1,.12.7-.88,1.7-1.17,1.17-2.58,2.17-3.85,3.23s-.4,5.61.53,4.82c3.65-3.06,10.71-7.74,6.2-13.31-1.7-2.1-4.61-2.46-7.05-3.17-1.74-.52-4.87-1.34-2.7-3.89,1.57-1.86,5.89-1.38,8.05-1.26,1.35.07,1.47-4.92,0-5Z"/><path class="cls-1" d="M305.86,282.07c-3.87,2.94-6.64,6.68-5.37,11.8s6.93,4.53,10.8,2.58a10,10,0,0,0,5.39-10.83c-.7-3.81-4.24-7.84-8.34-5.8-1.26.63-.82,5.49.53,4.82a4.21,4.21,0,0,1,5.32,1.66c1.42,2.44-1.81,4.58-3.78,5.49s-4.7,1.69-6.68.86c-3.36-1.43,1.13-4.6,2.67-5.76,1.18-.9.49-5.6-.54-4.82Z"/><path class="cls-1" d="M326,296.14a61.73,61.73,0,0,1,4.34-14.75l-1,.64c2.51,1.68,4.48,3.93,4.61,7.12,0,.64.36,3.39,1.5,2.16a8.41,8.41,0,0,0,1.88-3.09,26.2,26.2,0,0,1,.74-2.74l3.29-3.75a4.22,4.22,0,0,1,2.37,2.62c2.78,4.48,4.48,10.14,6.61,15,1,2.37,1.94-2.34,1.41-3.53l-5-11.44c-.87-2-1.73-5.93-3.86-7.16-5.3-3.08-6.63,7.9-8.4,9.81l1.51,2.16c-.21-4.95-1.85-9.11-6.08-11.94-.48-.32-.83.29-1,.64a71.64,71.64,0,0,0-4.85,17c-.34,2.15,1.39,4.69,1.93,1.33Z"/><path class="cls-1" d="M357.17,289.66c6.65.11,14.33-3.92,13.81-11.5-.15-2.16-1-4.87-3.27-5.67-3.17-1.12-7.5,2.54-9.45,4.7-3.93,4.34-3.5,11.23.26,15.53,5.89,6.77,15.18,3.26,21.18-1.37,1.18-.91.48-5.6-.53-4.82-3.42,2.64-7.34,5-11.8,5-4.29.08-8.83-2.13-9-6.71-.11-3,1.42-4,3.76-5.59,1.28-.87,5.63-3.84,6.58-.85,1.41,4.46-9.1,6.28-11.54,6.24-1.39,0-1.44,5,0,5Z"/><path class="cls-1" d="M172.1,338.4a15.44,15.44,0,0,0,19-8.7c1.15-2.77,1.82-6.59.58-9.46-1.95-4.51-6.41-1.46-9.35.43-5.52,3.54-15.67,11.72-12.46,19.45,3,7.2,16.29,8.87,21.57,3.82,1.09-1,.29-5.6-.53-4.82-4,3.85-9.73,3.23-14.49,1.14-3.49-1.52-5.25-3.38-2.54-6.75a37,37,0,0,1,6.3-6.14c2-1.5,4.31-3.36,6.68-4.13,5.64-1.82,2.52,4.16.74,6.16a14.21,14.21,0,0,1-15,4.18c-1.52-.51-1.8,4.39-.53,4.82Z"/><path class="cls-1" d="M217.86,324a132.77,132.77,0,0,0-18.94,16.08c-1.06,1.09-.23,5.6.53,4.82a132.77,132.77,0,0,1,18.94-16.08c1.21-.85.57-5.59-.53-4.82Z"/><path class="cls-1" d="M199.68,331.65a38.38,38.38,0,0,0,15.35,15c1.27.69,1.8-4.14.53-4.82a37,37,0,0,1-14.87-14.52c-.57-1-1.22.42-1.37.9a4.77,4.77,0,0,0,.36,3.42Z"/><path class="cls-1" d="M222.19,339.79a50.74,50.74,0,0,1,.29,18.63l2,.67c.21-4.7.53-9.39,1-14.07.42-4.33-.09-10.49,5.28-11.36a13.89,13.89,0,0,1,3.7-.06c3.59.44,3.85,1.71,1.84,4.73-2.21,3.32-6.19,5.34-10,6.17-1.55.35-1.16,5.26,0,5a18,18,0,0,0,13.23-10.9c1.43-3.73,1.13-8.45-3.27-9.68-5.2-1.47-10.28.06-11.62,5.46-1.95,7.82-1.83,16.69-2.19,24.71-.1,2.18,1.49,3.51,2,.66a61.41,61.41,0,0,0-.49-22.49c-.64-3.14-2,1-1.73,2.53Z"/><path class="cls-1" d="M245.91,316.51l1.3,28c.14,2.91,2.14,3,2,0l-1.3-28c-.14-2.91-2.14-3-2,0Z"/><path class="cls-1" d="M265.26,327.38c-3.87,1-7.21,3.29-8.13,7.4-.65,2.9-.35,7,2.07,9a4.85,4.85,0,0,0,7.44-1.81,8,8,0,0,0,.45-4.65,11.63,11.63,0,0,0-.86-2.68l-.6-1.17c-.43-1.36-.63-1.53-.59-.49l-1.22.4A36,36,0,0,0,275,344.71c1.16.74,1.79-4,.54-4.82a34.33,34.33,0,0,1-10.73-10.79c-.43-.69-1-.13-1.21.39a8.15,8.15,0,0,0-.5,4.45c.13.82,2.21,4.68,2.05,5.06,0,0-1.86.77-2.14.84-1.07.25-3.13,0-3.6-1.19-1.36-3.57,3.24-5.58,5.83-6.27,1.56-.42,1.1-5.3,0-5Z"/><path class="cls-1" d="M279.54,331.14l1.24,16.6c.21,2.91,1.87,1.47,2-.66a20.05,20.05,0,0,1,2-7.86c.78-1.62,2.9-5.88,4.74-6.49s4,3.47,4.75,4.83a22.8,22.8,0,0,1,2.57,7.11c.18.88.61,1.46,1.37.89s.51-2.67.36-3.42a27.6,27.6,0,0,0-8.22-15,.44.44,0,0,0-.53,0c-5.84,5.19-8.7,12.17-9,19.9l2-.67-1.24-16.6c-.25-3.39-2.08-.8-1.93,1.33Z"/><path class="cls-1" d="M316.21,326.77c-9,.84-15.54,11-9.41,18.89,1,1.33,2.87,2.94,4.68,2.94,2.31,0,3.65-2.71,4.71-4.59a26.94,26.94,0,0,0,3.09-15.76l-1.82,1.93A36.87,36.87,0,0,0,327,346.77c.77.77,1.62-3.73.53-4.82a32.27,32.27,0,0,1-8.38-14.3c-.82-3-1.94.6-1.82,1.93.31,3.76-2.28,17.26-8.34,12.95-6.82-4.85,2.59-10.33,7.19-10.76,1.48-.13,1.33-5.12,0-5Z"/><path class="cls-1" d="M330.6,314.71a98.36,98.36,0,0,1,.54,29.12c-.28,2.13,1.49,4.71,1.93,1.33a111.11,111.11,0,0,0-.75-33c-.53-3.16-2,1-1.72,2.52Z"/><path class="cls-1" d="M320.16,330a87.55,87.55,0,0,0,20,.92c1.47-.11,1.36-5.1,0-5a87.55,87.55,0,0,1-20-.92c-1.22-.19-1.54,4.76,0,5Z"/><path class="cls-1" d="M349.89,327.46a40.43,40.43,0,0,0-3.58,13.38c-.07.66-.17,2.81.69,3.08s1.17-1.1,1.23-1.75A33.77,33.77,0,0,1,351.3,331c.55-1.17-.31-5.89-1.41-3.53Z"/><path class="cls-1" d="M349.17,322c1.41,0,1.42-5,0-5s-1.43,5,0,5Z"/><path class="cls-1" d="M359.45,327.53c-3.54,4.44-6.37,10-3.77,15.66,2.77,6,9.82,7,15.43,4.66,5.19-2.2,8-5.44,5-10.74a23.66,23.66,0,0,0-15.82-11.35c-1.16-.24-1.56,4.67,0,5a22.66,22.66,0,0,1,9.57,4.47,21.42,21.42,0,0,1,3.93,4.14,21.08,21.08,0,0,1,1.31,2.06c-.69-.68-1.34-.57-2,.32-4.2,1.33-7.52,3.63-12,1.51-2.4-1.12-4.8-3.26-3.93-6.41.49-1.78,2.21-3.58,3.34-5,.83-1,.17-5.79-1-4.32Z"/><path class="cls-1" d="M378.44,327.28a50.61,50.61,0,0,1,2.45,18.41l1.83-.6a14.78,14.78,0,0,1,1.64-9.64c1-1.86,2.94-5.26,5.07-5.95,4.93-1.59,7.94,13.61,8.45,16.71.56,3.34,2.29.83,1.93-1.33a57,57,0,0,0-4.46-14.95c-1.7-3.63-3.25-7.89-7.4-4.5-6.5,5.31-8.39,14.26-7,22.19.37,2,1.75.9,1.83-.6a63.56,63.56,0,0,0-3-23.28c-.77-2.4-1.8,2.33-1.41,3.54Z"/><path class="cls-1" d="M284.09,218.73c-5.61,1.31-10.4,4.08-9.9,10.58.46,6,7.41,7.95,12.48,8.19,1.36.07,1.47-4.93,0-5-3.19-.15-6.82-.93-9.36-3-3.61-2.91,4.91-5.36,6.78-5.8,1.55-.36,1.15-5.26,0-5Z"/><path class="cls-1" d="M189,223.89c-2.14,3.84-3.56,9.4.51,12.59,4.4,3.45,8.34.73,10.21-3.81,1.61-3.91,1.47-9.73-2.9-11.76a8.82,8.82,0,0,0-6.69-.3c-1.94.88-1.85,3.1-1.52,4.92.16.9.61,1.45,1.37.9s.49-2.68.36-3.42l-.08-.44-.36,3.42c.93-1.42,4.67-.94,6.06-.41,2.67,1,3,2.95,1.39,5.31-1.34,1.92-3.05,2.82-5.34,1.89a8.16,8.16,0,0,1-2-1.12c-1.5-1.21-.84-2,0-3.46a4.71,4.71,0,0,0,.36-3.42c-.14-.47-.79-1.93-1.37-.89Z"/><path class="cls-1" d="M202.91,222.17a55.82,55.82,0,0,1,.17,9.05c-.09,1.3,1,4.95,1.83,1.93.6-2.09,2.55-8.62,5.83-7.77,1.38.36,2.59,2.63,3.15,3.8a16.9,16.9,0,0,1,1.41,5.5c.07.64.32,2.06,1.23,1.74s.77-2.48.7-3.07a25.24,25.24,0,0,0-1.92-7.7c-.81-1.76-2.49-4.84-4.58-5.27s-3.91,2-4.84,3.46a25.52,25.52,0,0,0-2.71,6.78l1.83,1.93a71.55,71.55,0,0,0-.18-11.71c-.06-.64-.32-2.06-1.23-1.75s-.75,2.48-.69,3.08Z"/><path class="cls-1" d="M244.17,222.37c-3.37,1.38-8.18,3.47-9.4,7.27-.84,2.63-.38,6.3,2.31,7.66,3.27,1.66,6.88-1,8.35-3.85a12,12,0,0,0,.43-9.49l-1.41,3.53,6,11.56c1.2,2.33,2-2.37,1.42-3.54l-6-11.55c-1.25-2.44-1.78,2.47-1.41,3.53.56,1.59-.91,3.36-2.15,4.22-.83.57-4.52,2.06-5.33.52-.67-1.26,6.44-4.51,7.73-5s.92-5.42-.53-4.83Z"/><path class="cls-1" d="M180.38,200.21c-6.26,6.13-12.49,12.86-13,22.06s4.22,16.88,10.4,23.1c.76.77,1.61-3.73.53-4.82-5.3-5.33-10.75-12.92-8.28-20.83,1.84-5.89,6.59-10.48,10.89-14.69,1.08-1.06.27-5.6-.53-4.82Z"/><path class="cls-1" d="M417.71,194.3c5.6,3.59,9,10.1,12.05,15.84,4.11,7.71,6.58,16.74.18,24-.88,1-.27,5.76,1,4.32,5.79-6.52,6.06-16,3.58-24a62.09,62.09,0,0,0-6.28-13c-2.72-4.57-5.45-9-10-11.93-1.15-.74-1.78,4-.53,4.82Z"/><path class="cls-1" d="M232.41,446.85l3.61,22c.55,3.34,2.29.83,1.93-1.33l-3.61-22c-.55-3.34-2.28-.83-1.93,1.33Z"/><path class="cls-1" d="M434.83,430.67c-3.06,1.92-7.36,3.72-9.65,6.6-1.94,2.43-1.87,5.91-1.06,8.77.76,2.66,2.23,5.06,5.26,4.88,1.88-.11,4-1,5.81-1.53,1.52-.42,3-.6,3.81-2.07a4.72,4.72,0,0,0,.36-3.42c-.14-.47-.79-1.93-1.37-.9-.85,1.53-4.75,1.93-6.4,2.38-1.91.51-3.95,1.2-5.25-.83-2.35-3.65,6.66-7.57,9-9.05,1.24-.78.65-5.57-.53-4.83Z"/><path class="cls-1" d="M442.1,425.61a104.25,104.25,0,0,1,7.14,21.83c.65,3.15,2-1,1.72-2.52a109.14,109.14,0,0,0-7.44-22.84c-1.07-2.37-1.95,2.35-1.42,3.53Z"/><path class="cls-1" d="M455.47,436.72,458,447.09c.19.76.63,1.61,1.37.9s.56-2.59.36-3.42L457.2,434.2c-.18-.76-.62-1.61-1.37-.9s-.56,2.59-.36,3.42Z"/><path class="cls-1" d="M455.83,432.33c1.41,0,1.43-5,0-5s-1.42,5,0,5Z"/><path class="cls-1" d="M470.55,427.08c-2,1.83-4.56,3.18-5.66,5.75a10,10,0,0,0,.48,8c1.18,2.42,3.34,5.7,6,6.63a4.08,4.08,0,0,0,5.34-2.62c.33-.92.61-2.66,0-3.53-.46-.67-1-1.11-1.41,0-1.53,4.24-6.47-1-7.57-2.58s-1.56-2.71.12-4.18c1-.93,2.21-1.71,3.23-2.67s.31-5.61-.53-4.82Z"/><path class="cls-1" d="M478.62,417.43l7.23,27c.83,3.12,2.13-1,1.73-2.52l-7.23-27c-.83-3.12-2.13,1-1.73,2.52Z"/><path class="cls-1" d="M497.69,423.4a91.53,91.53,0,0,0-14.85,7.43c-.94.59-1.19,4.94.27,4.92a21.88,21.88,0,0,1,13.44,4.17c1.06.76,1.76-3.94.54-4.82a23,23,0,0,0-14-4.35l.26,4.91a90.77,90.77,0,0,1,14.85-7.44c1.26-.49.94-5.4-.53-4.82Z"/><path class="cls-1" d="M421.24,463.42c-3.32,2.75-7.5,5.1-7.29,9.92.17,3.91,3.76,7.48,7.56,8.28,4.91,1,6-4.71,6.44-8.36s.51-8.79-3.46-10.49c-1.65-.71-1.25,3.88-.77,4.57l6.19,8.91c1.47,2.13,2.76,4.7,5,6.14,1.13.74,1.78-4,.53-4.82-2.37-1.55-3.79-4.63-5.37-6.91l-5.3-7.64-.77,4.57c2.81,1.2,2.85,8.08-.58,9.14-1.68.52-3.6-.86-4.88-1.76-3.76-2.63.9-4.76,3.28-6.73,1.15-.95.42-5.61-.54-4.82Z"/><path class="cls-1" d="M436.5,467.37l3.62,11.8c.77,2.53,1.84.21,1.86-1.26,0-2.37-.29-5.1.16-7.43a3.91,3.91,0,0,1,5.33-2.69c1.49.54,1.8-4.36.53-4.82-8.89-3.2-7.95,10.07-8,14.94l1.87-1.26-3.62-11.8c-.94-3.09-2.18,1-1.73,2.52Z"/><path class="cls-1" d="M451.32,467.16c.08,3,.29,6,.66,9,0,.41.41,2.32,1.23,1.75,2.57-1.79,1.77-6.56,2.21-9.19.3-1.87.68-4,2.39-5.1,2.14-1.43,4.93-.36,7.05.48,1.45.58,1.81-4.31.53-4.82-3.68-1.47-7.71-2.3-10,1.65a14.64,14.64,0,0,0-1.54,4.5c-.25,1.25-.44,2.53-.58,3.8-.07.68.14,3.38-.55,3.86l1.23,1.74c-.32-2.54-.52-5.08-.59-7.65,0-.54-.09-2.56-1-2.5s-1,1.93-1,2.5Z"/><path class="cls-1" d="M467,462.52c-1.93,3.87-3.75,9.81-.35,13.5,2,2.15,5.32,1.89,8,1.56s7.32-1,9.22-3.19c3-3.36-.1-9.22-2.17-12.19-3.88-5.61-9.86-4.63-14.72-.8-1.18.93-.47,5.61.53,4.83,2.43-1.92,5.52-3.75,8.74-3.05a7.43,7.43,0,0,1,4.17,2.93c.49.66,2.46,3.28,2.22,4-.32.94-3.95,1.66-4.8,1.88a25.33,25.33,0,0,1-5.13.77c-1.32.07-3.38.23-4.46-.68-2.12-1.77-.79-4,.21-6,.58-1.16-.25-5.88-1.42-3.54Z"/><path class="cls-1" d="M483.45,460.8a126.87,126.87,0,0,0,9.8,19.18c.81,1.24,1.42-1,1.47-1.49.12-1,0-6.1.76-6.7,1.86-1.51,2.47,1.59,3.44,2.9,1.31,1.76,3.12,4.33,5.29,2.8,2.51-1.78,4.29-6.64,5.59-9.4a60.64,60.64,0,0,0,4-11.71c.36-1.49-1-5.65-1.73-2.52a54.06,54.06,0,0,1-5.86,14.8c-1.63,2.77-3.65,5.24-6.29,1.71-.88-1.17-1.46-3-2.6-4-4.55-3.69-4.29,8.58-4.54,10.75l1.47-1.5a122.48,122.48,0,0,1-9.4-18.39c-1-2.37-1.93,2.34-1.41,3.53Z"/><path class="cls-1" d="M523.8,453.53c-2.32,1-6.42,2-7.54,4.59a6.79,6.79,0,0,0,.52,5.92c1.21,1.78,8.18,5.28,4.32,7.38-2.67,1.46-8.48-.25-11.27-.75-1.2-.22-1.54,4.72,0,5,5.13.92,14.51,3.4,14.73-4.4a14.53,14.53,0,0,0-2.33-7.84,17.15,17.15,0,0,0-3.27-2.52c0-.42,4.48-2.2,5.37-2.56,1.26-.52.93-5.42-.53-4.82Z"/><path class="cls-1" d="M380.8,494.81q.92,12.66.91,25.36c0,2.94,2,3,2,0q0-13.36-1-26.69c-.24-3.39-2.08-.8-1.92,1.33Z"/><path class="cls-1" d="M377.83,510q7.68.24,15.34-.16c1.46-.07,1.38-5.07,0-5q-7.67.4-15.34.16c-1.38,0-1.45,5,0,5Z"/><path class="cls-1" d="M400.51,510.22c-2.47,3-5.08,8.29-1.9,11.72a7.38,7.38,0,0,0,10.77,0,11,11,0,0,0,1.54-11.5c-1.95-4.28-7-5.3-10.12-1.64-.85,1-.22,5.76,1,4.31a4.63,4.63,0,0,1,6.59-.52c2.31,2,1.06,4.52-1.15,5.87a6.42,6.42,0,0,1-5.86.32,17.84,17.84,0,0,0-1.94-1c-.15-.77,1.6-2.64,2.07-3.21.84-1,.19-5.77-1-4.31Z"/><path class="cls-1" d="M440,505.22c-3.22,1.77-7,3.62-7.27,7.7a9.56,9.56,0,0,0,3.49,8c2.34,2.08,5.4-.31,6.43-2.79,1.38-3.36-.24-7.49-1-10.79l-1.57,3c1.06,2.29,2.14,4.57,3.26,6.83.71,1.43,1.19,3.09,2.84,3.54,1.08.29,1.57-4.58,0-5-1.11-.3-2.18-3.61-2.67-4.62q-1-2.13-2-4.28c-1.14-2.46-1.76,2.19-1.57,3,.26,1.19,1.41,3.88,1.12,5.06-.17.73-2.56,2.17-3.78,1.66a4.84,4.84,0,0,1-1.79-1.83c-.44-1-.4-1,.46-1.82a20.67,20.67,0,0,1,4.57-2.87c1.26-.69.76-5.53-.53-4.83Z"/><path class="cls-1" d="M456,496.53a79.24,79.24,0,0,1,.4,22l1-1.83c-1.46-.38-6.42-1.72-6.85-3.59-.28-1.21,1.71-1.29,3.05-1.74l4.28-1.37c1.55-.51,1-5.33,0-5-4.47,1.44-10.72,1.86-10.47,7.77.22,5.28,5.46,7.75,10,8.93.65.17.92-1.54,1-1.84a89.11,89.11,0,0,0-.41-24.68c-.52-3.34-2.26-.83-1.92,1.33Z"/><path class="cls-1" d="M462.79,509.94q1.92,5.46,4.28,10.73c.36.82,1.05,1,1.41,0a56.21,56.21,0,0,1,6.75-12.75c.76-1.08,0-5.81-1-4.32a59.81,59.81,0,0,0-7.15,13.53h1.41q-2.36-5.28-4.27-10.72c-.35-1-1-.75-1.42,0a4.88,4.88,0,0,0,0,3.53Z"/><path class="cls-1" d="M483.66,504.32c-3.06,1.26-6.39,3.74-7.64,6.94-1.33,3.41.42,6.92,3.47,8.67,3.45,2,5.53-1,6-4.2a15.86,15.86,0,0,0-2.34-10.66l-1,4.32a45.41,45.41,0,0,1,6.36,9.88c1.2,2.32,2-2.37,1.41-3.54-1.95-3.77-3.9-7.49-6.76-10.66-1.38-1.52-1.62,3.37-1,4.32,1,1.59,2.79,5.22.08,6.08-1.49.47-4.4-1.43-4.75-3V515c.61-2.76,4.39-4.9,6.76-5.88,1.27-.52.92-5.42-.53-4.82Z"/><path class="cls-1" d="M491.9,506.49a105.1,105.1,0,0,1,1,10.47c.06,1.41,1.1,3.84,1.86,1.26,1-3.4,1.63-8.16,4.17-10.82.94-1,1.27-.92,2.22.17a11.18,11.18,0,0,1,1.5,2.65,15.43,15.43,0,0,1,1.37,6.28c0,.58.09,2.5,1,2.5s1-2,1-2.5a25.25,25.25,0,0,0-1.46-8.61c-.6-1.62-2.36-6.35-4.43-6.44-1.84-.08-3.48,3.34-4.06,4.65a82.26,82.26,0,0,0-3,9.6l1.86,1.26a116.81,116.81,0,0,0-1.1-11.8c-.09-.63-.3-2.07-1.23-1.74s-.78,2.49-.7,3.07Z"/><path class="cls-1" d="M521.84,500.48c-2.83.86-5.76,1.84-7.42,4.48a10.14,10.14,0,0,0-1,7.11c.33,1.85,1.18,5.83,2.9,6.94,2,1.28,6.22-1.56,7.88-2.59,1.23-.78.65-5.57-.54-4.82a24.24,24.24,0,0,1-3.45,1.84c-2.15.9-3.22,1.4-4.24-1.08-1.77-4.32,2.5-5.86,5.86-6.88,1.56-.47,1-5.32,0-5Z"/><path class="cls-1" d="M527.63,509.16c5,2.76,9.26-3.66,9.2-8.14,0-1.87-.57-3.72-2.69-3.92a8.89,8.89,0,0,0-6.45,2.35c-3.32,3.65-1,9.71,1.27,13.24,2.44,3.75,8.56,6.86,11.36,1.63a4.77,4.77,0,0,0,.36-3.42c-.14-.46-.8-1.95-1.37-.9-2.45,4.57-7.74,1-9.57-2-.41-.67-1.75-2.65-1.61-3.51.11-.63,1.33-1.24,1.81-1.46,1.15-.56,4.45-1.76,5.36-.27l-.5-2.16c.06,1.11-1.53,2.89-2.35,3.47a3.84,3.84,0,0,1-4.29.27c-1.26-.7-1.8,4.12-.53,4.82Z"/></g></g></svg>