<svg xmlns="http://www.w3.org/2000/svg" viewBox="0 0 558.17 540.83"><defs><style>.cls-1{fill:#fff;}.cls-2{fill:#474beb;}.cls-3{fill:#40c0f0;}.cls-4{fill:#ffc107;}.cls-5{fill:#d81b60;}</style></defs><title>3SlideIntro</title><g id="Layer_44" data-name="Layer 44"><g id="IntroToSlides"><path class="cls-1" d="M94.17,80.34q1.14,68.58,2.29,137.15c.76,45.77,2.93,91.59-5.25,136.86-4.1,22.68-8.48,45.57-3.91,68.53.08.41.33,1.21.86,1.24,99.32,6,198.85,1.19,298-6.17,28-2.09,56-4.36,84-6.65.92-.08,1-1.92,1-2.5,1.26-42.87,1-85.77.43-128.65-.58-41,.78-82.93-8-123.22-2.46-11.28-5.54-22.42-8.64-33.54-1.55-5.57-3.12-11.13-4.61-16.71-2-7.39-4.45-15.23-2-22.8.25-.77.75-4.22-.71-4.27-47.11-1.62-94.29-3.24-141.41-1-46.14,2.2-92,8.49-138.21,9.67-26.16.67-52.36-.43-78.2-4.73-1.22-.21-1.54,4.74,0,5,45.86,7.63,92.41,4.92,138.49,1,46.43-3.92,92.58-7.41,139.22-7,26.71.22,53.42,1.13,80.11,2l-.7-4.27c-2.66,8.11-1.59,16.18.45,24.32,2.56,10.23,5.6,20.35,8.38,30.53,5.85,21.41,10.19,42.85,11.76,65s1.52,44.73,1.87,67.07c.34,22.1.62,44.21.67,66.31.06,25.08-.18,50.15-.91,75.21l1-2.5c-99.09,8.09-198.36,16.11-297.86,15.55q-42.09-.24-84.12-2.73l.87,1.24C84.42,397.23,90,374,94,351.21a390.27,390.27,0,0,0,5.33-62c.57-44.41-1.11-88.93-1.85-133.34L96.17,80.34c0-2.93-2-3-2,0Z"/><path class="cls-1" d="M157.82,446.76l-1.56,14.76a50.8,50.8,0,0,1-.59,5.53,3.67,3.67,0,0,1-2.3,4l-2.76-1.4c-7.22-3.74-14.21-7.89-19.06-14.61l-.24,4.57,26.51-12.41-1-4.18a59.85,59.85,0,0,0-3.21,27.38l1.23-3.08a32,32,0,0,0-10-5.81c-2.49-.87-7.39-.87-8.61-3.54l-.45,4.18,19.19-9.5-1.27-2.41c.08,2,1.68,12.35.22,13.42-1.18.86-9.41-5.23-11-6.23v4.82l8.75-5-1.26-2.41.16,3.05q.66,3.39-1.64-.38l-1.13,3.67c4.27,2.08,4.09-4.13,5.43-6.28.7-1.12-.08-5.82-1-4.32-.71,1.13-2.22,6.59-3.89,5.78-1.43-.69-1.25,3.09-1.13,3.67.36,1.69,2.13,6,4.59,4.3,2-1.42.71-7.75.62-9.49,0-.42-.2-3-1.27-2.41l-8.75,5c-1.11.64-1.06,4.17,0,4.82,3.25,2,6.54,4.46,10,6.11,1.6.77,2.23,1.44,3.4-.12.94-1.25.53-3.5.49-4.92-.1-4.36-.34-8.72-.51-13.08,0-.49-.17-2.95-1.26-2.41l-19.19,9.5c-1.1.55-.83,3.32-.44,4.18,1.23,2.68,3.34,3.19,6,3.88a32.91,32.91,0,0,1,13.47,6.75c1.09.91,1.27-2.73,1.23-3.07a49.17,49.17,0,0,1,2.69-22.52c.23-.62.6-4.91-1-4.18l-26.51,12.42c-1.2.56-.86,3.71-.24,4.57A41.26,41.26,0,0,0,142,469.85c2.18,1.4,4.45,2.66,6.74,3.86,1.43.75,4.12,2.89,5.8,2.6,3.17-.54,2.85-5.53,3.1-7.93l2.14-20.29c.23-2.12-1.56-4.72-1.92-1.33Z"/><path class="cls-1" d="M354.92,437.33c-2.09,3.33-2.08,6.91-1.79,10.73.27,3.61.63,7.22.95,10.83.15,1.78-.19,5.16.84,6.83,2.12,3.45,7.33-1.6,9.64-2.93q9.27-5.37,18.45-10.9c1-.61,1.15-4.29,0-4.82L355.35,434.4c-.68-.31-1,.64-1.13,1.15a83.19,83.19,0,0,0-1.79,14.33c-.08,2.7-.56,6.81,1.19,9.2,4.26,5.81,16.95-3.48,20.73-6.07,1-.72,1.12-4.13,0-4.82-4.23-2.62-8.43-5.28-12.69-7.85-2-1.17-4.84-3.36-7-1.37-3.5,3.22-1.43,12.64-.67,16.5.1.48.47,1.49,1.13,1.14l8.5-4.42c1.12-.58.82-3.28.44-4.18a21.07,21.07,0,0,0-4.46-6.7c-.26-.27-.62.08-.77.25A14.38,14.38,0,0,0,356,454c1.57,5.51,7.52,1.18,11.14-.2,1.24-.47,1-4.58-.26-4.91-3.06-.78-5.95-1.65-7.54-4.59l-.51,4.66a124.77,124.77,0,0,1,15.44,4.29c1.51.52,1.81-4.38.53-4.83a131.22,131.22,0,0,0-16-4.46c-1.51-.32-.81,4.09-.5,4.66,1.79,3.31,5.08,4.39,8.55,5.27l-.27-4.91c-1.65.63-6.22,3.27-7.87,2.93q-1.87-7.35,2-3.87a13.71,13.71,0,0,1,1.88,3.47l.44-4.18-8.5,4.42,1.13,1.15a25.83,25.83,0,0,1-.65-6.07l2.15-3.67c1.15-.48,5.26,2.79,6.3,3.44L373.82,453v-4.82c-4.12,2.82-10.29,7.2-15.37,7.66-3.6.32-4.11-1.91-4-5A70.17,70.17,0,0,1,356,438.07l-1.13,1.15,27.66,12.67v-4.82q-10.44,6.29-21,12.35c-1.5.87-3.44,2.78-4.73,1.76s-.8-4.14-.93-5.59c-.34-3.89-2.07-10.49.1-13.95.7-1.11-.07-5.81-1-4.31Z"/><path class="cls-1" d="M353.74,444.81a99.28,99.28,0,0,0-1.11,14.71c0,1.56-.15,4.64,1.78,5.31,1,.33,2.57-.74,3.32-1.06,2.32-1,4.63-2,6.94-3l15.6-6.85c1.08-.47,1-5.09-.26-4.91-4.33.61-8.28-4.64-12-6.66-3-1.66-6.76-3.31-10-1.29-4.26,2.66-4.9,8.73-3.07,13,1,2.38,1.93-2.35,1.41-3.54-1.18-2.74,2.39-5.29,4.69-5.45,2.95-.2,6.2,1.86,8.59,3.4,3.44,2.22,5.92,6.18,10.35,5.55l-.27-4.91-18.2,8a25.43,25.43,0,0,1-4.34,1.9c-2,.42-2,1.11-2.53-1.3-.68-3.12.57-8.32,1-11.5.29-2.14-1.48-4.71-1.92-1.33Z"/><path class="cls-1" d="M261.54,441.77l-14.07,28.64c-.57,1.16.26,5.88,1.42,3.53L263,445.31c.57-1.17-.27-5.88-1.42-3.54Z"/><path class="cls-1" d="M268.89,452.65c2.18-1,4.74-2.3,7.24-1.83,2.14.39,3.51,1.71,1.55,3.26-2.33,1.83-6.38,1.13-9,2.9-1.06.71-1.11,4.13,0,4.82a178.63,178.63,0,0,0,15.76,8.67l-.24-4.57c-2.13,3.12-7.68,2.83-11.05,3.24l-13,1.59c-1.5.18-1.29,5.15,0,5l16.76-2c3.21-.4,6.37-.6,8.33-3.47.59-.86,1-4-.24-4.57A178.45,178.45,0,0,1,269.21,457v4.82c4.7-3.17,13.16-1.52,12.42-9.72-.69-7.51-8.11-6.61-13.28-4.25-1.26.58-.86,5.46.54,4.82Z"/></g><g id="Layer_47" data-name="Layer 47"><path class="cls-1" d="M228.17,448.51c2-.11,9.55,0,10,2.46.1.51-7.2,2.76-7.74,2.95-1.28.45-1,4.53.27,4.91,1.72.53,4.84,1.36,5.85,3.11,1.48,2.6-1.79,5.48-3.55,6.69a12.07,12.07,0,0,1-10.24,1.53c-1.08-.29-1.57,4.58,0,5a12.94,12.94,0,0,0,15.83-8.56c2-6.78-1.7-10.87-7.89-12.77l.26,4.91c4.47-1.56,11-2.39,10.23-8.5-.73-5.67-8.46-7-13-6.73-1.46.09-1.37,5.08,0,5Z"/><path class="cls-2" d="M104.73,278.79c14.59-10.8,26.44-25.89,38.69-39.17Q162.91,218.49,182,197q4.86-5.45,9.71-10.93c1.56-1.76,2.27-3.83,4.21-2,1.34,1.3,2.25,4,3.2,5.63q6.92,12,14.49,23.69a525.52,525.52,0,0,0,32.68,44.88c1.17,1.45,1.86-3.27,1-4.32a527.79,527.79,0,0,1-51.72-76.63c-.28-.5-.71-.34-1,0q-21.92,24.86-44.29,49.3-10.86,11.87-21.83,23.62c-7.7,8.26-15.18,16.91-24.29,23.66-1.2.89-.52,5.6.53,4.82Z"/><path class="cls-2" d="M233.22,238.23l28.23-27.69,13.41-13.15c3.21-3.15,9.76-12.47,14.7-10.85,2.77.91,4.58,3.88,6.41,6l6.45,7.52,12.89,15,25.8,30.06c1.23,1.43,1.88-3.3,1-4.32L315,209.28l-14.18-16.54c-2.93-3.41-6.51-9.62-11-11.26-4.82-1.76-9.08,4.76-12,7.63L263,203.65l-30.35,29.76c-1.08,1.06-.26,5.6.54,4.82Z"/><path class="cls-2" d="M325.51,223.6l32.07-25.15,7.82-6.13c2.31-1.81,4.91-4.68,7.58-5.91,4-1.85,7.52,2.27,10.45,4.55l7.81,6.09L455.33,247c1,.77,1.73-3.88.53-4.82l-67.21-52.39c-2.61-2-5.2-4.08-7.82-6.09-1.83-1.4-4-3.56-6.52-3s-5.09,3.43-7.09,5l-7.82,6.13-34.42,27c-1.17.92-.47,5.6.53,4.82Z"/><path class="cls-3" d="M215.35,211.3,226,202.74c3.35-2.7,6.88-6.43,10.61-8.56a7.1,7.1,0,0,1,6.73-.68,28.9,28.9,0,0,1,5.61,2.89,44.75,44.75,0,0,1,8.56,7c.74.77,1.6-3.71.53-4.82a44.09,44.09,0,0,0-9.92-7.75c-2.27-1.28-6.33-3.93-9.07-3.42-2.06.38-4.43,3.19-6,4.46l-6.07,4.89-12.13,9.78c-1.16.94-.44,5.61.54,4.82Z"/><path class="cls-3" d="M317,204.45c6.12-2.59,11-6.21,16.32-10,3.51-2.49,5.36-.85,8.67,1.24l9.35,5.89c1.17.74,1.79-4,.54-4.82l-10.14-6.39c-2.15-1.35-4.18-3.19-6.82-2.26-2.79,1-5.23,4.12-7.67,5.78a63.7,63.7,0,0,1-10.78,5.75c-1.26.53-.91,5.43.53,4.82Z"/><path class="cls-3" d="M303.64,193.74c3.27-2.06,11.25-9.19,14.69-7.05,1.85,1.16,3.34,3.28,5.18,4.59a35.17,35.17,0,0,0,7.46,4c1.45.58,1.82-4.31.54-4.82a35.23,35.23,0,0,1-8.1-4.43c-1.61-1.2-3.92-4.57-5.76-5.06s-3.82,1.22-5.46,2.25l-9.08,5.72c-1.24.77-.65,5.56.53,4.82Z"/><path class="cls-3" d="M423.15,214.8c3.58-2.09,7.1-4.28,10.51-6.63s6.9-6.17,10.61-8c3.33-1.69,6.84,3,9.73,4.88a54.73,54.73,0,0,0,10.93,5.33c1.49.55,1.8-4.35.53-4.82a54.08,54.08,0,0,1-19.16-11.93.44.44,0,0,0-.53,0A158.83,158.83,0,0,1,422.62,210c-1.24.73-.71,5.54.53,4.82Z"/><path class="cls-4" d="M205,191.66a23.8,23.8,0,0,1,22.42,2.17c1.13.74,1.78-4,.53-4.82a24.87,24.87,0,0,0-23.48-2.17c-1.26.52-.92,5.42.53,4.82Z"/><path class="cls-4" d="M208.2,195.14a35.88,35.88,0,0,1,14.3-.45c1.25.21,1.49-4.64,0-5-3.91-.94-8.22-1.46-10.73,2.36-.53.8-1,4.52.5,4.65l8.24.74c1.32.11,1.5-4.84,0-5a19,19,0,0,0-9.61,1.46c-1.1.46-1.11,4.83.27,4.91l6.64.37v-5a11.08,11.08,0,0,1-3.58.36c-.52,0-.79.88-.86,1.24a7.52,7.52,0,0,0,.08,4.1c.55,1.51,1.44,1.55,2.56,2.51l-.6-3.67-.09.36.59-1.15-.35.15.77.25-.16-.21c-1.1-1.47-1.82,3.23-1,4.31l.16.22a.56.56,0,0,0,.77.25c.73-.31.86-1,1-1.66.27-1,.29-2.91-.6-3.67-.31-.26-1.49-.7-1.57-1.13V199l.13-.66-.87,1.24a11.08,11.08,0,0,0,3.58-.36c1.36-.36,1.49-4.92,0-5l-6.64-.37.27,4.91a17.94,17.94,0,0,1,9.07-1.28v-5l-8.24-.74.51,4.66c2.19-3.33,6.43-2.46,9.72-1.67v-5a35.88,35.88,0,0,0-14.3.45c-1.55.36-1.14,5.27,0,5Z"/><path class="cls-5" d="M229.17,181.64a421.92,421.92,0,0,0,67-5.66c.76-.12.62-2.6,0-2.5a421.92,421.92,0,0,1-67,5.66c-.71,0-.72,2.5,0,2.5Z"/><path class="cls-5" d="M212.65,173a286.2,286.2,0,0,0,54-2.11c.76-.1.64-2.58,0-2.5a286.2,286.2,0,0,1-54,2.11c-.67,0-.73,2.46,0,2.5Z"/><path class="cls-5" d="M127.17,184.29q19.52-.53,39-2c.74,0,.67-2.55,0-2.5q-19.47,1.49-39,2c-.72,0-.7,2.52,0,2.5Z"/><path class="cls-5" d="M151.67,174.75l42-1.42c.72,0,.7-2.52,0-2.5l-42,1.42c-.72,0-.7,2.52,0,2.5Z"/><path class="cls-5" d="M184.67,163.73q31.26.42,62.5-1.47c.73,0,.68-2.54,0-2.5q-31.21,1.89-62.5,1.47c-.7,0-.72,2.49,0,2.5Z"/><path class="cls-4" d="M153.94,279l10.59,18.12c1.44,2.46,4.45,11.1,8.54,8.26,2-1.37,3.23-4.55,4.49-6.55l5.79-9.12,12.1-19.08-1.21-.39,13.63,28.72c.4.84,1,.94,1.41,0l14.29-33c.51-1.18-.39-5.91-1.42-3.53l-14.28,33h1.41l-13.63-28.73c-.24-.5-.76-1.09-1.21-.39L175,297c-.72,1.14-1.35,2.64-2.59,3.32-.69,1.12-1.35,1.1-2-.05a5.17,5.17,0,0,1-1.95-2.53c-1.58-2.36-2.9-5-4.33-7.41l-9.16-15.65c-.86-1.48-1.68,3.16-1,4.32Z"/><path class="cls-4" d="M239.27,271.43c-4.65,1.28-7.31,5.26-7.44,10-.11,4.07,2,10.9,7.28,10.07,9.4-1.47,11.19-19.67.58-20.22-1.36-.07-1.48,4.92,0,5,2.81.15,6.05,2.4,4.83,5.67a7.7,7.7,0,0,1-5.41,4.55c-2.76.45-5.79-2.33-5.2-5.28.49-2.45,3.15-4.18,5.36-4.79,1.55-.42,1.09-5.29,0-5Z"/><path class="cls-4" d="M250.77,275.65a112.2,112.2,0,0,0,7.18,14.7.56.56,0,0,0,1,0,33.81,33.81,0,0,1,3.53-5.1c.3-.34,3.26-4,4.27-4,3.37,0,2.71,6.37,5.6,7.37,2.3.79,3.09-2,4-3.74l6.84-12.56c.62-1.15-.2-5.81-1-4.32l-4.11,7.54c-.65,1.2-2.78,6.94-4.1,7.53-3.86,1.75-3-7.25-6.6-7.16-2.52.06-6,5-7.37,6.85-.4.55-1,2-1.64,1.83-1-.2-2.18-3.48-2.63-4.39-1.32-2.64-2.49-5.35-3.59-8.09-1-2.38-1.89,2.34-1.41,3.54Z"/><path class="cls-4" d="M309.4,268.08c-3,1.37-6.71,3.26-8.38,6.21a9,9,0,0,0,.06,8.08c2.5,4.92,9.54,7.07,13.54,2.76.9-1,.31-5.74-1-4.32-2.46,2.65-6.81,1.92-9.41-.12-.51-.4-1.62-1.21-1.73-1.93-.21-1.31,1.18-2,2.11-2.74a29.7,29.7,0,0,1,5.34-3.12c1.26-.58.86-5.46-.53-4.82Z"/><path class="cls-4" d="M324.05,270.77a12.33,12.33,0,0,0-1.75,10.49c.81,2.66,3.15,4.76,6.08,4.34,3.28-.46,4.27-3.88,4.07-6.77-.3-4.12-2.95-6.42-6.34-8.33-1.25-.7-1.8,4.1-.53,4.82,1.58.89,3.49,1.86,4.47,3.46a5.81,5.81,0,0,1,.36.88c.1-.23-.64.41-.62.4a3.34,3.34,0,0,1-1.78.58,4.42,4.42,0,0,1-3.41-1.22c-1.35-1.42-.51-2.95.46-4.34a4.55,4.55,0,0,0,.36-3.42c-.15-.58-.72-1.82-1.37-.89Z"/><path class="cls-4" d="M341.73,250.87a80.68,80.68,0,0,0-2.65,33.31c.43,3.37,2.21.83,1.93-1.33a70.69,70.69,0,0,1,2.45-29.45c.44-1.5-.81-5.62-1.73-2.53Z"/><path class="cls-4" d="M352.72,268.84c-3.68,1.2-4.89,5.21-4.62,8.8a12.56,12.56,0,0,0,2.06,5.88c.82,1.26,2.93,4.53,4.77,4.18,1.67-.32,3-3.06,3.48-4.42a13.19,13.19,0,0,0,.67-6,9.66,9.66,0,0,0-7.42-8.69c-1.12-.26-1.56,4.63,0,5a7.74,7.74,0,0,1,4.24,2.5c1.34,1.62,1.75,4.49-.25,5.87-2.64,1.84-8.48-6.3-2.93-8.11,1.56-.51,1-5.33,0-5Z"/><path class="cls-4" d="M361.41,276.24l1.43,8.3c.12.72.53,1.47,1.25,1s.64-2.29.57-2.95c-.29-3-.73-6.34,1.37-8.81a5.87,5.87,0,0,1,6.08-2.05c1.1.28,1.57-4.6,0-5-3.45-.88-6.63,1.39-8.16,4.39-2,3.91-1.63,8.58-1.21,12.8l1.82-1.93-1.42-8.3c-.16-.9-.62-1.45-1.37-.9s-.49,2.67-.36,3.42Z"/><path class="cls-4" d="M384.34,265.57c-1.62,1.64-4.19,1.42-5.31,3.65a7.92,7.92,0,0,0-.38,5.26c.62,2.47,2.38,3.64,4.1,5.3,1.9,1.84.57,1.9-1.36,2.76a10,10,0,0,1-5.72.91c-1.27-.16-1.52,4.81,0,5,4.94.64,11-2.12,10.57-7.73a7.9,7.9,0,0,0-2.09-4.94c-.95-1-3.89-2.35-2.81-3.55.8-.88,2.58-.87,3.53-1.84s.23-5.6-.53-4.82Z"/><path class="cls-4" d="M115.6,319.75q.56,11.31,1.51,22.59c.08.87,1,2.87,1.67,1.1.51-1.4,1-2.81,1.52-4.21.84-2.32,1.36-5.28,4.38-4.59s4.46,6.88,5.63,9.69c1,2.38,1.91-2.35,1.41-3.54-1.24-3-2.94-11.38-7.07-11.77-4.72-.44-6.18,7.82-7.28,10.89L119,341q-.92-10.62-1.44-21.26c-.14-2.9-2.15-3-2,0Z"/><path class="cls-4" d="M137.42,331.87c-2.86,2.29-2.92,7-1.68,10.14a5.84,5.84,0,0,0,3,3.55c1.67.61,3.53-.57,4.85-1.51,3.09-2.19,3.53-6.67,1.92-9.93-1.23-2.48-6.64-5.86-8.39-2.34-.57,1.16.25,5.88,1.42,3.54.36-.72,3.86.85,4.31,1.17s1.44,1.26,1.38,1.64c-.08.53-1.24,1.16-1.65,1.41-1.26.79-2.73,1.75-4.13.76s-1.91-2.5-.52-3.61c1.17-.93.45-5.6-.53-4.82Z"/><path class="cls-4" d="M150.45,335.38c1,2.06,2,4.13,3,6.19.32.67.88,2.42,1.82,2.65s1.67-.82,2.22-1.46,1.28-2.26,2-2.52c1.89-.71,2.48,1.39,3.12,2.63.29.56.7,1,1.21.39,2.66-3.32,4-7.4,6.67-10.74.82-1,.15-5.79-1-4.32-2.62,3.35-4,7.43-6.67,10.74l1.21.39c-.87-1.67-2.08-6.28-4.51-4.67-1.51,1-1.62,3.26-3.63,3.32-1.58,0-1.6-1.15-2.22-2.42l-1.8-3.71c-1.15-2.35-2,2.36-1.42,3.53Z"/><path class="cls-4" d="M196.34,317.68q.91,7.21,1.57,14.46c.18,2,.54,4.75-2.25,3.17L194.35,334c-.45,1-.27,1.15.54.53,1.16-.63,2.41-1.16,3.61-1.72s.83-5.48-.54-4.83c-3.35,1.61-6.42,2.21-6,6.46.27,2.6,2.36,6.68,5.43,6.82,2.92.13,2.91-3.4,2.83-5.57-.22-6.42-1.15-12.92-2-19.29-.42-3.37-2.2-.83-1.93,1.33Z"/><path class="cls-4" d="M205,332.11a33.58,33.58,0,0,1,2.79,6.9c.18.68.65,1.7,1.36.9s.61-2.54.36-3.42a41.46,41.46,0,0,0-3.5-8.7c-.55-1-1.24.42-1.37.89a4.9,4.9,0,0,0,.36,3.43Z"/><path class="cls-4" d="M204.42,324.75c1.41,0,1.42-5,0-5s-1.43,5,0,5Z"/><path class="cls-4" d="M221.1,316.1c-.33,4.92-1,9.94-.88,14.88,0,.94.9,4.09.48,4.75-.08.13-2.68-.26-3.06-1-1.24-2.46,2.47-2.62,4-2.74s1.35-5.1,0-5c-4,.3-6.86,2-7.21,6.22a6.74,6.74,0,0,0,4.95,7.38c3.17,1.07,3.54-1.8,3.48-4.52-.07-3.15-.67-6.08-.47-9.29s.42-6.22.63-9.34c.14-2.1-1.7-4.74-1.93-1.32Z"/><path class="cls-4" d="M244.69,315.92q1.2,12,3.58,23.85c.62,3.15,2-1,1.72-2.52q-2.24-11.26-3.37-22.66c-.34-3.39-2.15-.82-1.93,1.33Z"/><path class="cls-4" d="M243.65,329.56a56.9,56.9,0,0,0,11.32-2.4c1.56-.5,1-5.33,0-5a56.9,56.9,0,0,1-11.32,2.4c-1.5.16-1.31,5.14,0,5Z"/><path class="cls-4" d="M256.4,317.2c1.81,2.72,1.23,10,1.51,13.1L259,342.6c.2,2.25,1.64,2.12,1.93,0,.23-1.69.68-9.11,4.07-7.33,1.29.67,1.74,5.62,2,7.1.13.72.66,1.68,1.36.9a3.41,3.41,0,0,0,.9-2c.26-1.48-1.18-5.68-1.72-2.53l-.18.21,1.36.9c-.38-2-1.86-11.62-5-11.29-3.28.34-4.45,10.35-4.78,12.71h1.93l-1.49-17c-.32-3.67.09-8.19-2-11.36-1-1.48-1.76,3.19-1,4.32Z"/><path class="cls-4" d="M273.91,335.54c5.23-.17,12.22-2,11.81-8.38-.13-2.05-.82-3.79-2.94-4.33-2.49-.63-6.56-.13-8.64,1.48-3.63,2.8-3.1,11.14-1.59,14.87,2.25,5.56,8.68,7.67,13,3.09.9-1,.33-5.73-1-4.32a6.21,6.21,0,0,1-8.3.67c-3.25-2.39-4.14-8.8.19-10.33a12.35,12.35,0,0,1,4-.59c.65,0,1.3,0,1.94,0,1.5-.67,1.73-.63.71.11-2.14,2.16-6.26,2.59-9.14,2.69-1.44,0-1.39,5,0,5Z"/><path class="cls-4" d="M288.84,330.87l3.07,7.29c.23.55.76,1,1.21.39L301,327.22l-1.21-3.92q-6.09,18.48-13.87,36.31c-.52,1.18.38,5.91,1.41,3.53q7.79-17.82,13.88-36.31c.22-.68,0-5.64-1.22-3.92l-7.89,11.32,1.22.4-3.08-7.29c-1-2.38-1.92,2.34-1.41,3.53Z"/><path class="cls-4" d="M325.6,326.27a12.11,12.11,0,0,0-2.47,8.78c.28,2.3,1.56,5.31,4.13,5.82,3.14.61,3.24-4.05,3.25-6.11A16.1,16.1,0,0,0,328,326c-.62-.95-1.23.36-1.37.9a4.82,4.82,0,0,0,.36,3.42,66.89,66.89,0,0,0,5.64,8.59c1.13,1.47,1.84-3.24,1-4.31A67.71,67.71,0,0,1,328,326l-1,4.32a9.36,9.36,0,0,1,1.38,3.17,4.67,4.67,0,0,1,.09,1.86c-.21.74-.2.73-1,.51a3.18,3.18,0,0,1-2.24-1.91c-.34-1.14.77-2.5,1.42-3.38a4.46,4.46,0,0,0,.36-3.42c-.16-.61-.69-1.79-1.37-.89Z"/><path class="cls-4" d="M339,331.82c-.46-4.46-1-9-.26-13.46.91-5.45,3.29-6.93,8.44-7.56,1.51-.18,1.3-5.15,0-5-5.38.66-8.37,2.52-9.75,7.88-1.64,6.37-1,13-.36,19.47.36,3.38,2.16.82,1.93-1.33Z"/><path class="cls-4" d="M331.67,322.23a32.77,32.77,0,0,0,8.77-.89c1.55-.38,1.13-5.28,0-5a32.77,32.77,0,0,1-8.77.89c-1.38,0-1.46,5,0,5Z"/><path class="cls-4" d="M350.25,334.57c1.31-6.84-1.52-22.51,7.66-23.4,1.49-.14,1.33-5.13,0-5-11.8,1.14-7.9,18.12-9.38,25.88-.29,1.48,1.12,5.67,1.72,2.52Z"/><path class="cls-4" d="M344.67,323.45a37.21,37.21,0,0,0,10-.15c1.52-.23,1.26-5.19,0-5a37.21,37.21,0,0,1-10,.15c-1.27-.16-1.52,4.81,0,5Z"/><path class="cls-4" d="M360.94,322.13c-2.76,3.18-4.77,7.42-2.92,11.62,1.37,3.12,5.75,6.18,8.92,3.73,5.46-4.2,3.38-19.27-5.28-16.47-1.56.5-1,5.33,0,5,4.31-1.4,9.18,4.33,4.23,7-1.84,1-3.77-.07-5.18-1.32-1.1-1-1.54-1.33-.77-2.65a17.44,17.44,0,0,1,2-2.61c.86-1,.24-5.76-1-4.31Z"/><path class="cls-4" d="M374.76,326.75l0,6c0,.58.08,2.3.87,2.46s1-1.27,1.1-1.79c.37-3.14.66-8.64,4.72-9.06,1.5-.16,1.32-5.14,0-5-5.54.57-6.15,8.47-6.65,12.73l2,.66,0-6c0-.58-.1-2.5-1-2.5s-1,2-1,2.5Z"/><path class="cls-4" d="M396.65,309.26c-1.58,6.47-3.81,13.11-4.68,19.72-.08.64.11,2.81-.22,3.26.25,1-.16,1-1.21-.06a3.7,3.7,0,0,1-2.1-1.84c-1.74-3.22,3.87-5.21,6.43-6,1.55-.5,1-5.33,0-5-3.84,1.23-9,3.64-9.91,8.05-.67,3.34,1.86,7.55,4.33,9.6,2.86,2.38,3.93.22,4.51-2.67.76-3.78.95-7.66,1.88-11.47l2.7-11c.37-1.5-1-5.65-1.73-2.53Z"/><path class="cls-4" d="M138.91,365.24a133,133,0,0,1-.85,22.83c-.27,2.13,1.51,4.71,1.93,1.33a141.4,141.4,0,0,0,.92-24.16c-.14-2.91-2.14-3-2,0Z"/><path class="cls-4" d="M134.42,375.5a28.16,28.16,0,0,0,9.25.24c1.51-.21,1.27-5.18,0-5a28.16,28.16,0,0,1-9.25-.24c-1.19-.23-1.56,4.7,0,5Z"/><path class="cls-4" d="M147.87,366.25l.26,20c0,.88.81,3.81,1.71,1.77.83-1.89,2.67-5,4.94-4.19,1.86.66,2.32,3.66,2.92,5.45.8,2.4,1.82-2.33,1.42-3.53-.63-1.88-1.72-7.78-4.28-7.84-2.88-.07-5.46,4.4-6.42,6.58l1.71,1.76-.26-20c0-2.93-2-3-2,0Z"/><path class="cls-4" d="M162.71,380.72a36.61,36.61,0,0,1,1.18,7.28c0,.59.07,2.5,1,2.5s1-2,1-2.5a49.13,49.13,0,0,0-1.45-9.8c-.2-.76-.62-1.62-1.37-.9s-.57,2.6-.36,3.42Z"/><path class="cls-4" d="M164.42,375.75c1.41,0,1.42-5,0-5s-1.43,5,0,5Z"/><path class="cls-4" d="M176.12,372.28c-1.77.84-4.15,1.47-4.91,3.49a6.76,6.76,0,0,0,.49,5.34c1.07,1.9,2.75,2.77,4.6,3.77a9.42,9.42,0,0,1,1.23.72c.27.21.83-.46-.15.14a9.7,9.7,0,0,1-4.92,1.32c-1.46.08-1.37,5.08,0,5,4.43-.25,7.94-2.18,7.61-7.14a5.42,5.42,0,0,0-2-4.14c-1.33-1-5.06-1.87-5.18-3.91l-.46,2.82c.78-1.37,2.88-1.94,4.24-2.58s.84-5.48-.54-4.83Z"/><path class="cls-4" d="M199.37,389.79a31.53,31.53,0,0,0,.53-10.39c-.22-2.27-.72-4.53-.81-6.81-.11-2.47,1-12.37,6.35-10.46,1.5.53,1.81-4.37.53-4.82-4.49-1.61-7.52,4.52-8.39,8.13-1.75,7.29,1.74,14.62.06,21.83-.35,1.49,1,5.65,1.73,2.52Z"/><path class="cls-4" d="M193.42,375.81l7.25-.75c1.5-.15,1.32-5.14,0-5l-7.25.75c-1.49.15-1.31,5.13,0,5Z"/><path class="cls-4" d="M207.93,375c-5.38,2.17-6,12.83.16,14.51,2.81.76,3.86-4.09,4.1-6.07a12.92,12.92,0,0,0-2.05-9c-.84-1.19-1.41,1-1.47,1.5-.23,2.14.39,3.29,1.62,4.95l4.44,6c.66.89,1.21-.3,1.37-.89a4.54,4.54,0,0,0-.36-3.43c-1.85-2.5-4.15-5-5.64-7.72l.46,2.83,0-.4-1.47,1.49a4.85,4.85,0,0,1,1.13,3.33c-.16,1.35-.89,2.86-2.45,2.24a3.66,3.66,0,0,1-1.34-1c-.08-.09-.79-1.32-.76-.93-.08-1.2,1.86-2.24,2.76-2.6,1.26-.51.93-5.41-.54-4.82Z"/><path class="cls-4" d="M218.76,376.84a44.34,44.34,0,0,0,.39,10.55c.35,2.18,1.59,2.2,1.93,0,.27-1.72.59-9.57,3.63-7.94,2.59,1.4,3.79,5.49,3.38,8.15-.33,2.14,1.41,4.69,1.93,1.33.76-4.95-.56-11.13-4.78-14.3-4.64-3.48-5.77,9.37-6.09,11.43h1.93a33.63,33.63,0,0,1-.39-7.89c.05-.66.17-2.8-.7-3.08s-1.18,1.1-1.23,1.75Z"/><path class="cls-4" d="M241.16,375.34c-2.11,1.69-4.51,1.74-5.7,4.5a12.25,12.25,0,0,0-.42,7.86c.56,2,1.88,4.2,4.18,4.43s3.69-1.38,4.27-3.41c.25-.84.37-2.74-.35-3.42s-1.15.14-1.37.9-1.72,1-2.28,1a3.1,3.1,0,0,1-2.82-2.3c-.58-2.92,3.38-3.39,5-4.7,1.17-.93.45-5.61-.53-4.82Z"/><path class="cls-4" d="M248.06,379.83c1.52,2.81,2.87,6.37,5.09,8.7a.44.44,0,0,0,.53,0c3-1.07,4.91-4.58,6.17-7.32.44-.95-.35-5.48-1.21-3.93q-6.4,11.57-13.83,22.49c-.75,1.09,0,5.81,1,4.32q7.43-10.93,13.83-22.49l-1.21-3.93a16.88,16.88,0,0,1-1.78,3.09l-1.54,1.74c-.65,1.14-1.27,1.16-1.84.06-1.89-1.23-3.17-5.12-4.22-7-.8-1.48-1.64,3.14-1,4.31Z"/><path class="cls-4" d="M278.69,359q.62,17.64,2.57,35.19c.38,3.38,2.17.82,1.93-1.33Q281.3,376,280.69,359c-.1-2.92-2.1-3-2,0Z"/><path class="cls-4" d="M273.43,377.69a29.28,29.28,0,0,0,14-1.3c1.25-.43,1-5.35-.53-4.83a28.34,28.34,0,0,1-13.46,1.13c-1.24-.19-1.54,4.77,0,5Z"/><path class="cls-4" d="M295.19,386.85c5.22-1.17,8.37-4.3,6-9.75s-7.14-3.94-9.5.68a15.23,15.23,0,0,0,.35,13.8c2.92,5.4,8.89,7.89,12.89,2.1.75-1.08,0-5.81-1-4.31-3.23,4.67-8.18,2.65-10.61-1.63a6.63,6.63,0,0,1,1.38-8.28c1.81-1.42,5.33-1,5.18,1.9l.5-2.16c-1.16,1.64-3.36,2.24-5.21,2.65-1.54.35-1.16,5.26,0,5Z"/><path class="cls-4" d="M315,377.4c-3.16,3.83-7,7.64-4.74,13,.68,1.59,2.38,3.8,4.14,4.28,2.26.62,4-2.18,4.85-3.86.59-1.16-.23-5.87-1.41-3.54-.6,1.18-1.87,2.75-3.28,2.38-.77-.21-2.7-1.77-2.75-2.55s1.08-1.61,1.45-2.06c.92-1.12,1.84-2.22,2.75-3.34s.2-5.77-1-4.31Z"/><path class="cls-4" d="M320.25,365.66q1,11.47,1.47,23l2-.67c-.28-2.52.64-12.24,4.85-5.4,1,1.64,1.29,4.54,1.82,6.42.88,3.1,2.15-1,1.73-2.53-.64-2.23-2.29-13.79-6.58-11.73-4.08,2-4.15,11-3.74,14.57.31,2.81,2,1.58,2-.66q-.47-12.18-1.54-24.32c-.3-3.39-2.12-.81-1.93,1.33Z"/><path class="cls-4" d="M334.15,376.65c1,.79,1,4.54,1.27,5.87l1.28,6.75,1.13-3.68c-.27.37-.34.25-.19-.36,0-.45,0-.9,0-1.35a16,16,0,0,1,.47-3.52c.29-1,1.57-4.23,3-4.41s2.7,2.8,3.11,3.79a11.78,11.78,0,0,1,.82,6.07c-.26,2.13,1.52,4.72,1.93,1.33a21.65,21.65,0,0,0-1.51-11.36c-1-2.23-2.81-6.43-5.54-4.13s-3.61,5.75-4,9c-.34,2.66-1.28,8,1.38,9.78,1.33.89,1.22-3.24,1.13-3.68l-1.8-9.56c-.34-1.79-.37-4.14-1.94-5.35-1-.77-1.73,3.9-.53,4.82Z"/><path class="cls-4" d="M354,372.66c-2.31,3.19-3.91,6.73-3.18,10.75.54,3,3.23,6.37,6.55,4.52,3-1.68,3.47-6.42,3.29-9.45-.2-3.37-2-6.63-5.73-6.6-1.42,0-1.42,5,0,5s3.38.62,3.76,2.24a4,4,0,0,1-2,4.05,3,3,0,0,1-3.66-1.05c-.95-1.64,1.1-3.87,2-5.14a4.51,4.51,0,0,0,.36-3.42c-.16-.6-.71-1.81-1.37-.9Z"/><path class="cls-4" d="M363.05,357a139.14,139.14,0,0,1,1.61,15.79c.23,3.37,2.06,7.2,2,10.43-.08,2.95,1.92,3,2,0,.11-4.82-1.88-9.43-2.13-14.3a109.8,109.8,0,0,0-1.74-14.45c-.57-3.15-2,1.05-1.72,2.53Z"/><path class="cls-4" d="M378.91,366.59c-3.84,2.08-6.66,4.85-6.91,9.42a7.72,7.72,0,0,0,5.88,8.33c4.6,1.41,5.48-4.66,5.73-8,.2-2.65.28-10.23-4.15-9.46-1.53.27-1.23,5.22,0,5,2.65-.46,2.37,3,2.05,4.73-.17.9-.46,2.43-1.36,2.91s-2.48-.22-3.38-.64a6.61,6.61,0,0,1-1.87-1.14c-1.21-1.17-.78-2,.23-3.24a14.52,14.52,0,0,1,4.31-3.08c1.25-.68.76-5.52-.53-4.82Z"/><path class="cls-4" d="M391.67,365.76c-3.91,1.15-5.43,4.75-5.18,8.66.17,2.64,1.58,8.05,4.79,8.1,3.78.06,5.19-5.59,5.27-8.43.11-3.83-1.05-8.35-5-9.65-1.36-.45-.94,4.28-.27,4.91,3.09,2.87,5.91,6.87,6.21,11.22.22,3.08-.19,7.55-2.27,10l-.91,1.39c-2.61.35-4.13-.57-4.56-2.74-.91-3.1-2.16,1-1.72,2.52.65,2.22,2.64,6.77,5.73,5.88s4.89-7.92,5.39-10.65a24.32,24.32,0,0,0-7.33-22.46l-.27,4.91q5.12,9.06-.42,7-4.87-.17.51-5.71c1.56-.46,1.06-5.32,0-5Z"/><path class="cls-4" d="M402.24,367c1.34,2.89,2.8,5.69,4.41,8.44.12.21.53.5.77.25a58.13,58.13,0,0,0,6.08-7.21l-1.37-3.42a218.06,218.06,0,0,0-6,38c-.14,2.11,1.7,4.75,1.93,1.33a210.39,210.39,0,0,1,5.76-36.82c.14-.55-.17-5.09-1.37-3.42S410,368.63,408,369c-1.15,1-1.84.64-2.09-1.06-.79-1.47-1.52-3-2.21-4.5-1.09-2.36-2,2.35-1.41,3.54Z"/><path class="cls-4" d="M416.43,345.09c1.07.05,2.13.1,3.19.25,2.55.35,3,.26,4.06,3s.71,3.23-2,3.95c-.75.2-1.5-.08-2.26.11-.92.23-1,1.77-1,2.5-.05,4.09,1.64,8.65,2.49,12.64.67,3.14,2-1,1.72-2.53-.65-3.07-2.25-7-2.21-10.11l-1,2.5c2.54-.64,4.4,0,6.21-2.42a10.62,10.62,0,0,0,1.68-6c.05-1.83-.05-5.11-1.39-6.58-2-2.18-6.84-2.15-9.48-2.28-1.36-.06-1.47,4.93,0,5Z"/><path class="cls-4" d="M423.92,383.5c1.41,0,1.42-5,0-5s-1.43,5,0,5Z"/><path class="cls-4" d="M431.44,341.43c3.32-.65,11.48-.68,7.21,5.35-1.07,1.51-2.9,2-3.54,3.76A7.23,7.23,0,0,0,435,354c.61,3.65,2.3,6.87,2.68,10.69.33,3.38,2.14.81,1.93-1.33a41.58,41.58,0,0,0-1.15-6.75c-.2-.76-.42-1.48-.66-2.22-.17-.52-.77-3.42-.9-1.89l-.7,1.75c3.71-3.32,6.52-6.14,5.88-11.51-.72-6-5.21-7.35-10.67-6.28-1.53.31-1.19,5.24,0,5Z"/><path class="cls-4" d="M441.85,377.74l-.25-.5c-.13-.25-.33-.73-.71-.73s-.6.47-.71.73a4.87,4.87,0,0,0-.29,1.77,4.23,4.23,0,0,0,.29,1.77l.26.5c.13.26.33.73.7.73s.61-.47.71-.73a4.87,4.87,0,0,0,.29-1.77,4.26,4.26,0,0,0-.29-1.77Z"/><path class="cls-4" d="M445.92,335.65c2.34.15,5.11.85,6.63,2.82,3,3.93.12,8.26-4.21,8.85-1.37.19-1.12,3.43-.71,4.27a64.14,64.14,0,0,1,6.22,21.06c.39,3.37,2.18.82,1.93-1.33A70.93,70.93,0,0,0,449,348.05l-.7,4.27c5.47-.75,8.38-5.8,8.13-11.05a10.92,10.92,0,0,0-10.55-10.62c-1.34-.08-1.48,4.91,0,5Z"/><path class="cls-4" d="M456.67,383.75c1.41,0,1.42-5,0-5s-1.43,5,0,5Z"/><path class="cls-4" d="M393.24,252.84q-.78,13.16-1.11,26.33c-.07,2.95,1.93,3,2,0q.31-12.51,1-25c.13-2.11-1.72-4.75-1.93-1.33Z"/><path class="cls-4" d="M393.17,294c1.41,0,1.42-5,0-5s-1.43,5,0,5Z"/><path class="cls-4" d="M403.79,252.47c-1.49,10.61,1,21.36-.9,31.9-.26,1.48,1.17,5.67,1.73,2.52,2-11-.45-22.08,1.1-33.09.3-2.14-1.45-4.7-1.93-1.33Z"/><path class="cls-4" d="M403.5,296.67c1.41,0,1.43-5,0-5s-1.43,5,0,5Z"/><path class="cls-4" d="M412.74,252.48a166.74,166.74,0,0,0-.82,36.35c.29,3.39,2.11.8,1.93-1.33a154.94,154.94,0,0,1,.82-33.69c.28-2.13-1.48-4.71-1.93-1.33Z"/><path class="cls-4" d="M412.17,299c1.41,0,1.42-5,0-5s-1.43,5,0,5Z"/></g></g></svg>