<svg xmlns="http://www.w3.org/2000/svg" viewBox="0 0 558.17 540.83"><defs><style>.cls-1{fill:#fff;}</style></defs><g id="Layer_40" data-name="Layer 40"><g id="Layer_38" data-name="Layer 38"><path class="cls-1" d="M23.67,70.65c31,2.3,62.14,2.21,93.21.87,30.42-1.31,60.77-3.66,91.17-5.23,32.36-1.69,64.7-2,97.09-1.81q49.69.3,99.38,1.2t99.35,2.4l12.3.39c1.38,0,1.45-5,0-5q-49.66-1.57-99.35-2.56t-99.38-1.35c-32.57-.24-65.13-.31-97.69,1.16C189.16,62.1,158.63,64.45,128,66c-30.75,1.56-61.57,2.15-92.34.44q-6-.34-12-.79c-1.34-.1-1.49,4.89,0,5Z"/><path class="cls-1" d="M348.73,200.86c-19-16.37-44.08-22.22-68.62-22.85a243.94,243.94,0,0,0-38.28,2.34,341.3,341.3,0,0,0-43.21,8.29,186.58,186.58,0,0,0-41.1,15.87,101.61,101.61,0,0,0-32,26.72c-4.48,5.75-8.44,11.86-12.34,18s-7.85,12.35-11.45,18.72c-6.91,12.21-12.6,25.32-13.93,39.42-2.75,29.14,11.81,56.27,25.16,81.09,11.71,21.76,25,43.89,44.84,59.23a89.38,89.38,0,0,0,35.39,16.48c13.81,3.07,28.12,3.25,42.17,2a252.85,252.85,0,0,0,81.91-21c24.31-11,46.4-26.76,63.59-47.27a147.74,147.74,0,0,0,20.59-32.14c5.67-12.09,10.06-25.39,10.82-38.79a54.23,54.23,0,0,0-2.61-20.63l-.71,4.27c25.17,1.26,51.11-6.62,70.8-22.48,9.53-7.68,16.41-17.39,19.75-29.21s3.29-24.27,2.6-36.4c-.71-12.51-.91-26.17-7.11-37.41-5.69-10.32-15.65-18.29-25.74-24.06-20.39-11.66-45.41-15.18-68.1-8.85a91,91,0,0,0-52.07,38.87c-1.45,2.3-2.77,4.68-4,7.11-.59,1.15.22,5.86,1.42,3.53A89.3,89.3,0,0,1,392.93,160c21-8.29,45-7.65,65.73,1a83.15,83.15,0,0,1,27.93,18.61,42.59,42.59,0,0,1,9.61,14.82c2.23,6.13,2.72,12.74,3.24,19.2.93,11.6,1.77,23.36,0,34.93a52.7,52.7,0,0,1-15.85,31c-17.33,16.4-41.87,25.36-65.51,26.22-3.06.11-6.11.07-9.17-.08-1.43-.07-.94,3.57-.7,4.27,4.56,13.4,1.11,28.11-3.53,41a137.39,137.39,0,0,1-17.16,32.67c-14.75,20.88-34.65,37.66-57,49.9-24.16,13.22-50.9,21.24-78,25.53-26.71,4.21-55.85,5.26-80.55-7.48-21.64-11.15-36.8-31-49-51.52-6.6-11.06-12.68-22.48-18.37-34-6.3-12.77-12.07-26.2-14.23-40.38s.32-28,6.16-41.14c5.68-12.76,13.48-24.6,21.09-36.27s16.31-22.69,27.82-31c11.26-8.15,24.09-14.07,37.16-18.67a264.12,264.12,0,0,1,42.83-10.71,329.83,329.83,0,0,1,38.23-4.59c23.83-1.28,49,.82,70.29,12.49a83.17,83.17,0,0,1,14.28,9.92c.76.67,1.18-1.39,1.23-1.74.11-.94.09-2.4-.7-3.08Z"/><path class="cls-1" d="M361.1,486.14q-.27,12.33.44,24.66c0,.58.35,2.13,1.23,1.74s.73-2.39.69-3.07c-.43-7.77-.53-15.55-.36-23.33,0-.59-.1-2.5-1-2.5s-1,2-1,2.5Z"/><path class="cls-1" d="M362.84,487c2.76-4.24,4.59-9.11,6.66-13.71L376,458.77a4.83,4.83,0,0,0,0-3.53c-.4-.89-1-.9-1.42,0l-6.33,14.07c-2,4.47-3.76,9.25-6.45,13.37a4.7,4.7,0,0,0-.36,3.42c.14.56.75,1.85,1.37.9Z"/><path class="cls-1" d="M362.1,480.24l-7.3-13.33c-2.36-4.31-4.52-8.84-7.31-12.9-.63-.91-1.23.32-1.37.9a4.61,4.61,0,0,0,.36,3.42c2.79,4.05,4.95,8.59,7.31,12.9l7.3,13.33c.55,1,1.25-.41,1.37-.9a4.93,4.93,0,0,0-.36-3.42Z"/><path class="cls-1" d="M376.41,502.45a23.85,23.85,0,0,0,7.49-.32c2.08-.42,4.56-1,6.13-2.53,3.11-3,2.3-9.73-1.57-11.77s-8.91-.07-11.5,3a12,12,0,0,0-2.31,6.86,22.08,22.08,0,0,0,.5,8.34c.8,2.51,2.7,4.4,4.68,6.06,1.66,1.38,4.45,2.18,5.73-.15a4.87,4.87,0,0,0,.36-3.42c-.12-.49-.8-1.92-1.37-.89-.77,1.4-2.63.79-3.65.06a14.84,14.84,0,0,1-3.66-3.67c-.88-1.35-.78-2.87-.69-4.42a7.09,7.09,0,0,1,1.13-4.09,9.46,9.46,0,0,1,8.52-3.45,4.57,4.57,0,0,1,3.51,2.27c.07.15.1.35.18.48.31.48-.16-.57,0-.59-.07,0-.36.49-.42.55a4.35,4.35,0,0,1-.94.72,15.53,15.53,0,0,1-5.74,1.8,23.91,23.91,0,0,1-6.38.12c-1.29-.14-1.51,4.84,0,5Z"/><path class="cls-1" d="M403.62,489.68c-3,2.05-6.09,4.69-7.73,8A11.3,11.3,0,0,0,397,509c1.66,2.49,4.62,5.12,7.79,3.67,2.89-1.33,3.79-5.3,3.79-8.16,0-4.86-2.19-9.43-3.87-13.88-.34-.91-1.06-.86-1.42,0a5.22,5.22,0,0,0,0,3.53,125,125,0,0,0,5.05,12.41,37.78,37.78,0,0,0,3,5.36,22.57,22.57,0,0,0,1.89,2.37c.63.7,1.22,1.46,2.22,1.06,1.26-.51.93-5.41-.53-4.82-.38.15-1.62-1.65-1.83-1.92q-.76-1-1.44-2a40.06,40.06,0,0,1-2.56-4.85c-1.65-3.63-3.09-7.35-4.43-11.1l-1.42,3.53c.72,1.88,1.44,3.76,2.14,5.65a24.85,24.85,0,0,1,.8,2.49,10,10,0,0,1,.28,1.32s.07,1.21.09.77a3.82,3.82,0,0,1-5,3.48,7.71,7.71,0,0,1-3.48-3.06c-.5-.73-1.35-1.83-1.22-2.72a5.75,5.75,0,0,1,1.34-2.23A20.81,20.81,0,0,1,399.9,498a31.7,31.7,0,0,1,4.25-3.51c.83-.58.8-2.21.7-3.08-.05-.43-.42-2.31-1.23-1.74Z"/><path class="cls-1" d="M431.69,486.43a22.63,22.63,0,0,0-10.1,3.69c-3.42,2.35-2.17,7.19.11,9.92s5.32,4,8.29,5.69a7.89,7.89,0,0,1,3.58,3.34,2.81,2.81,0,0,0,.19.6c-.23-.28.26-.51-.07-.22a5.38,5.38,0,0,1-1.93,1.38,14.57,14.57,0,0,1-6.06.32,21.2,21.2,0,0,1-6.49-1.81c-1.37-.63-1.81,4.23-.53,4.82a21.91,21.91,0,0,0,11.16,2,6.57,6.57,0,0,0,4.33-1.76,7.22,7.22,0,0,0,1.57-5.08c-.05-3.87-2.11-6.69-5.4-8.54-3-1.72-6.49-3.08-8.43-6.18-.38-.61-.53-1.75-.5-.09,0,1.83-.2.85.27.72a3.93,3.93,0,0,0,.8-.55,22.73,22.73,0,0,1,2.64-1.47,21.4,21.4,0,0,1,6.57-1.81c1.5-.17,1.3-5.14,0-5Z"/><path class="cls-1" d="M445.26,463.19a186.21,186.21,0,0,1,4,47.5c0,.58.11,2.5,1,2.5s1-2,1-2.5a195.9,195.9,0,0,0-4.26-50c-.15-.7-.67-1.68-1.37-.9s-.55,2.51-.36,3.42Z"/><path class="cls-1" d="M438.94,478.28l12-.68c3.75-.21,7.57-.26,11.19-1.38,1.55-.48,1-5.32,0-5-3.62,1.12-7.44,1.17-11.19,1.38l-12,.68c-1.46.08-1.37,5.08,0,5Z"/><path class="cls-1" d="M346.58,486.45c-8.17,1.06-16.27-2.89-23.15-6.89-3.05-1.77-6.1-4-7.7-7.21a26,26,0,0,1-1.77-5.5c-.55-2.22-1.09-4.45-1.64-6.67a4.09,4.09,0,0,0-.17-.71c-.11-.52-.15-.32-.12.62-.31.76-.28,1,.08.79a10.58,10.58,0,0,0,1.46-.46,10.52,10.52,0,0,1,2.8-.19,9.93,9.93,0,0,1,5.57,2.24l.54-4.82a23.51,23.51,0,0,0-7.15-2.08,11.18,11.18,0,0,0-3.74,0,3.19,3.19,0,0,0-2.1,2,74.05,74.05,0,0,0-2.71,7.24c-.94,2.69-1.81,5.4-2.63,8.13a4.28,4.28,0,0,0,.36,3.42c.72.85,1.17-.25,1.37-.89,1.35-4.49,2.88-8.93,4.59-13.29.39-1,.56-1.54,1.74-1.68a13.06,13.06,0,0,1,3.12.13,21.51,21.51,0,0,1,6.61,1.9c1.5.7,1.49-4,.54-4.82a11.06,11.06,0,0,0-5.36-2.33c-1.74-.25-4.16-.19-5.69.81-2.19,1.43-1.22,5-.72,7.05.63,2.56,1.23,5.13,1.89,7.68,1.14,4.4,3,8.15,6.58,11a52.56,52.56,0,0,0,11.55,6.46c5,2.21,10.35,3.81,15.85,3.1,1.51-.2,1.28-5.17,0-5Z"/><path class="cls-1" d="M423.9,371.25c-4.31,1.94-9.58,4.38-11.78,8.84s-1.83,9.86-.33,14.36c1.35,4,4.22,7.85,8.58,8.73s8.67-1.62,9.33-6.12c.72-4.94-3.42-12.9-9.39-10.87-1.25.42-1,5.34.53,4.82a4.9,4.9,0,0,1,4.88,1.46,9.86,9.86,0,0,1,1.46,1.94,8.37,8.37,0,0,0,.59,1.2c.15.16-.08.29,0,0,.17-.49-.28.23-.31.28-1.68,2.5-5.3,2.94-8,2.09-5.41-1.73-8.9-9.82-5.71-14.76a13.56,13.56,0,0,1,4.47-3.87,53.89,53.89,0,0,1,6.15-3.26c1.27-.57.88-5.45-.53-4.82Z"/><path class="cls-1" d="M435,393c3.34-.14,7-.92,8.23-4.48,1.1-3.18.26-8.1-3.66-8.78-1.64-.29-3.07.79-4.21,1.82a8.37,8.37,0,0,0-2.74,4.42c-1,4.24.69,8.12,2.91,11.62.9,1.41,1.94,3,3.58,3.63a3.39,3.39,0,0,0,4.14-1.16,4.66,4.66,0,0,0,.36-3.42c-.14-.57-.74-1.84-1.37-.89a2.21,2.21,0,0,1-2.26.71,4.18,4.18,0,0,1-2.51-1.81c-1.25-1.66-2.76-4-3.11-5.83,0,0,0-.32,0-.14a.67.67,0,0,1,.08-.44,4.56,4.56,0,0,1,.78-1.18,7.82,7.82,0,0,1,2.93-2.24,3,3,0,0,1,2.64.42,2.74,2.74,0,0,1,.88.88c.06.1.09.28.17.36a3.91,3.91,0,0,1,0-1.4,6.65,6.65,0,0,1-.79,1.16,5.55,5.55,0,0,1-1.47,1A12,12,0,0,1,435,388c-.91,0-1,1.89-1,2.5s.09,2.54,1,2.5Z"/><path class="cls-1" d="M448.57,381.93a94.42,94.42,0,0,0-.86,15.12c0,.61.07,2.46,1,2.5s1-2,1-2.5c0-.31,0-.61,0-.91,0-.15,0-.3,0-.46,0,.29,0,.28,0,0,0-.54.09-1.07.16-1.59,0-.15.05-.3.07-.45,0,.22,0,.19,0-.08s.09-.45.14-.67.14-.59.22-.88c0,0,.19-.64.1-.36a13.7,13.7,0,0,1,3.15-5.45c.34-.34.7-.72,1.21-.52a3.07,3.07,0,0,1,1.13,1,8.21,8.21,0,0,1,1.53,2.66,12,12,0,0,1,.56,2.94c0,.32,0,.37,0,.16,0,.19,0,.37,0,.55s0,.55,0,.83c0,.74,0,1.47,0,2.21s.09,2.46,1,2.5,1-2,1-2.5c.09-4.87,0-10.54-3.65-14.26-.74-.76-1.67-1.46-2.73-.85a8,8,0,0,0-2.19,2.34,19.43,19.43,0,0,0-2.81,6.05,27.24,27.24,0,0,0-1,7.79h2a82.75,82.75,0,0,1,.79-13.79c.11-.79.14-2.6-.7-3.07s-1.17,1.3-1.23,1.74Z"/><path class="cls-1" d="M472.68,381.69a9.76,9.76,0,0,0-6.85,6,9.46,9.46,0,0,0,.1,6.81,11.25,11.25,0,0,0,3.24,4,5.38,5.38,0,0,0,4.26,1.26,7.46,7.46,0,0,0,4-2.19c2.86-2.95,2.78-7.77.72-11.15a13.57,13.57,0,0,0-8.48-5.85c-1.13-.27-1.57,4.63,0,5a12.86,12.86,0,0,1,6,3.36,7.82,7.82,0,0,1,1.85,2.67c.15.4.08.24.05.15s.15.42,0,.07c0-.09,0-.49,0,0,0-.1,0-.19,0-.29,0-.35,0,.09-.1.23a4.43,4.43,0,0,1-.47.72c-1.32,1.72-3.94,3-6,2a8,8,0,0,1-2.72-2.19,7.25,7.25,0,0,1-.95-1.34,1.73,1.73,0,0,1-.1-.24c-.27-.66-.07-.16-.05-.15v.06a1.62,1.62,0,0,1,0,.66c.05.1-.09.23,0-.11.64-2.24,3.23-4,5.43-4.55,1.55-.39,1.12-5.28,0-5Z"/><path class="cls-1" d="M483.57,398.35a26.47,26.47,0,0,1,5.74-12.6h-1c1.84,3.16,2,6.83,1.71,10.4-.08.83-.13,2.32.58,2.94s1.09-.46,1.25-1c1.41-4.95,2.88-10,5.94-14.19l-.77.25a14.14,14.14,0,0,1,4.92,6,10.26,10.26,0,0,1,.8,6.3c-.21,1-.33,2.56.36,3.42s1.23-.25,1.36-.9c1.51-7.15-.73-15.29-6.91-19.6-.29-.21-.59,0-.77.25-3.43,4.75-5.08,10.42-6.66,16l1.83,1.92c.5-5.46.18-11.19-2.63-16-.28-.48-.71-.36-1,0A32.15,32.15,0,0,0,481.64,397c-.11.76-.13,2.66.7,3.08s1.16-1.26,1.23-1.75Z"/><path class="cls-1" d="M511.49,391.62c2.56,0,5.12.08,7.68,0,2.09,0,3.75-.79,4.25-3,1-4.34-2.15-9.67-7.07-8.83-4.71.8-6.74,5.85-6.62,10.14a13,13,0,0,0,6.18,11.11,9.14,9.14,0,0,0,5.92,1.3,5.09,5.09,0,0,0,4.33-4c.23-1,.32-2.58-.36-3.42s-1.22.26-1.37.89c0-.16-.07.15-.14.25a2.23,2.23,0,0,1-.49.48,4.54,4.54,0,0,1-1.74.77,7.53,7.53,0,0,1-4-.32,9.94,9.94,0,0,1-6.05-5.86,6.82,6.82,0,0,1-.3-1.5,3.82,3.82,0,0,1,.42-1.64,6.18,6.18,0,0,1,2.82-2.74,5.2,5.2,0,0,1,3.91-.27,5.63,5.63,0,0,1,1.77,1,10.61,10.61,0,0,1,1,1.25v0q.15.75.12-.57c.1-1.47.22-.77-.15-.61a5.13,5.13,0,0,1-1,.41,12.21,12.21,0,0,1-2.49.14l-6.61,0c-1.41,0-1.44,5,0,5Z"/><path class="cls-1" d="M405.15,391.74a99.63,99.63,0,0,1-34.7-10.52,77.71,77.71,0,0,1-15.4-9.7A43.52,43.52,0,0,1,344.5,357c-2.94-6.13-4.89-12.74-4.68-19.58l-1,2.5a32.85,32.85,0,0,1,9.4,4.87l.53-4.82-11.14-6a.56.56,0,0,0-.77.25,74.94,74.94,0,0,0-6.32,11.48,4.91,4.91,0,0,0,0,3.54c.39.88,1,.9,1.42,0a69.81,69.81,0,0,1,5.91-10.71l-.77.26,11.14,6c1.35.73,1.6-4,.53-4.82a34.11,34.11,0,0,0-9.93-5.05c-.83-.27-1,2.25-1,2.5A48.52,48.52,0,0,0,341.53,357a53,53,0,0,0,9.87,16.34c4.33,4.66,9.84,8,15.38,11.05a109.81,109.81,0,0,0,17.41,7.69,96.42,96.42,0,0,0,21,4.66c1.3.14,1.51-4.84,0-5Z"/><path class="cls-1" d="M37.06,24.13a180.8,180.8,0,0,0,0,33.31c.06.58.35,2.15,1.23,1.75s.76-2.41.7-3.08a166.15,166.15,0,0,1,0-30.66c.07-.77.16-2.63-.7-3.07s-1.19,1.25-1.23,1.75Z"/><path class="cls-1" d="M37.1,26a6.34,6.34,0,0,1,5.42.72,6.51,6.51,0,0,1,2,2,6.32,6.32,0,0,1,.61,1.22s.19.58.13.36c0,.15.08.3.11.45s.06.29,0,.15,0-.1,0,.15,0,.3,0,.45c0-.44,0,.1,0,.25,0,.74,0-.5,0,.24,0,.27,0,.3,0,.08,0,.11,0,.22-.07.33a2,2,0,0,1-.16.45c-.05.1-.17.28-.23.38A3,3,0,0,1,44,34a8.24,8.24,0,0,1-2.75.86l-3.58.65c-1.53.27-1.21,5.22,0,5A32.06,32.06,0,0,0,43.8,39.2c2-.82,3-2.82,3.4-4.88C48,30,47,24.53,43.15,22a7.12,7.12,0,0,0-6-1c-1.56.51-1,5.34,0,5Z"/><path class="cls-1" d="M45,46.11c.76,4.65,1.59,9.8,4.78,13.48a3.46,3.46,0,0,0,1.25,1.1c.66.26,1.12-.14,1.56-.6.84-.85,1.67-1.72,2.44-2.64a15.08,15.08,0,0,0,3.37-6.53,11.24,11.24,0,0,0,0-5A3.57,3.57,0,0,0,56.07,43c-.51-.13-.8,1-.87,1.24a5.12,5.12,0,0,0,0,2.52c.86,2.84,1.8,5.64,2.86,8.41.24.64.5,1.28.75,1.91A7.12,7.12,0,0,0,59.7,59c.75.92,1.37-.18,1.55-.92a4.87,4.87,0,0,0-.4-3.58.67.67,0,0,0-.51-.34l-.06,0c-1.55.5-1,5.33,0,5l.06,0-.5-.34,0,.07-.49-2.16v.09l.73-2.41.08-.07.51.34a3.89,3.89,0,0,1-.43-1c-.19-.46-.38-.93-.56-1.4-.35-.89-.68-1.79-1-2.69-.64-1.76-1.24-3.55-1.78-5.34L56.07,48a1.19,1.19,0,0,1,.5.28s.33.45.15.22c.08.22.09.23,0,0q.09.39,0,0c0-.68-.06.2,0-.36,0,.15,0,.3-.05.45,0-.23,0-.21,0,.06s-.07.29-.11.43c0-.15,0-.11-.05.13A10.41,10.41,0,0,1,56,50.41a16.23,16.23,0,0,1-2,2.81c-.4.47-.81.94-1.24,1.39s-.72,1-1.13,1.13c-.63.26-1.67-1.6-2-2.07a13.78,13.78,0,0,1-1.3-2.81,24.68,24.68,0,0,1-.81-3q-.18-.84-.33-1.68c-.05-.3-.11-.59-.16-.89.07.42-.07-.44-.08-.52-.09-.5-.35-2.23-1.23-1.74s-.82,2.35-.7,3.07Z"/><path class="cls-1" d="M66.88,21.25a303.82,303.82,0,0,0-.2,39.11c0,.58.36,2.14,1.23,1.75s.74-2.4.7-3.08a282.39,282.39,0,0,1,.2-36.45c0-.78.17-2.63-.7-3.07s-1.2,1.25-1.23,1.74Z"/><path class="cls-1" d="M61.84,39.11a106.21,106.21,0,0,0,14.21-1.83c1.54-.3,1.2-5.23,0-5a106.21,106.21,0,0,1-14.21,1.83c-.91.06-1,1.88-1,2.5s.1,2.56,1,2.5Z"/><path class="cls-1" d="M85.44,24.17l1,34.55c0,.59.08,2.5,1,2.5s1-2,1-2.5l-1-34.55c0-.59-.08-2.5-1-2.5s-1,2-1,2.5Z"/><path class="cls-1" d="M80.63,42.88a67.09,67.09,0,0,0,21.63.2c1.52-.24,1.25-5.2,0-5a67.09,67.09,0,0,1-21.63-.2c-1.21-.21-1.55,4.73,0,5Z"/><path class="cls-1" d="M110.83,38.37a80.26,80.26,0,0,0-1.13,19.08c0,.52.39,2.21,1.23,1.74s.75-2.32.7-3.07a64.29,64.29,0,0,1,.93-15.23,4.7,4.7,0,0,0-.36-3.42c-.64-.88-1.26.28-1.37.9Z"/><path class="cls-1" d="M110.94,29.57c1.41,0,1.43-5,0-5s-1.43,5,0,5Z"/><path class="cls-1" d="M118.45,41q-.2,8.28-.1,16.58h2c-.09-5.35-.27-11.28,3.21-15.81.39-.52.89-.95,1.43-.36a10,10,0,0,1,1.17,1.9,24,24,0,0,1,1.77,4.06A21.27,21.27,0,0,1,129,55.48c-.06.78-.17,2.63.7,3.07s1.19-1.25,1.23-1.74a31.64,31.64,0,0,0-4.08-18.42c-.58-1-1.43-2.7-2.83-2.23-1.21.4-2,2-2.62,3a24.69,24.69,0,0,0-2.65,8.47,61.75,61.75,0,0,0-.4,9.9c0,.61.08,2.46,1,2.5s1-2,1-2.5q-.09-8.3.1-16.58c0-.62-.1-2.47-1-2.5s-1,2-1,2.5Z"/><path class="cls-1" d="M143.73,38.13a13.53,13.53,0,0,0-6.54,9.92,14.34,14.34,0,0,0,.65,6.47c.44,1.26,1.64,4,3.23,4.07s3.11-2.27,3.83-3.33a16.12,16.12,0,0,0,2.18-5,17.78,17.78,0,0,0-1-11.77c-.34-.72-.86-1-1.32-.2a5,5,0,0,0-.25,3.23c1.65,9.45,3.31,19,3,28.65a61.35,61.35,0,0,1-.62,7c-.22,1.47-.41,3.48-2,4.1-1.78.67-4.43-.12-6.09-.82a14.26,14.26,0,0,1-4.78-3.31c-.7-.73-1.2,1.45-1.23,1.75a3.83,3.83,0,0,0,.7,3.07,14.64,14.64,0,0,0,9.2,4.43,4.4,4.4,0,0,0,4.31-1.66,11.43,11.43,0,0,0,1.63-4.8c1.45-8.66,1.06-17.5,0-26.18-.64-5-1.5-9.88-2.36-14.8l-1.57,3a9.19,9.19,0,0,1-2.88,11.18c-1.85,1.33-3-3-2.61-4.35.69-2.58,2.84-4.58,5-5.93,1.24-.76.67-5.55-.53-4.82Z"/><path class="cls-1" d="M178,53.91c1.21-10.66,2.48-21.72,7.92-31.19l-1.37-.9a49.4,49.4,0,0,0,6.1,16.3c.41.69,1,.12,1.21-.39,1.87-5.12,3.75-10.27,6.62-14.92L197,21.32q1.53,15.46,2.59,31c0,.58.36,2.14,1.23,1.75s.75-2.4.7-3.08q-1.06-15.51-2.59-31c0-.44-.69-2.76-1.47-1.5-3,4.91-5.06,10.3-7,15.7l1.21-.39a43.57,43.57,0,0,1-5.38-14.5c-.09-.51-.79-1.9-1.37-.9-6,10.41-7.51,22.45-8.84,34.18-.09.77-.16,2.65.7,3.08s1.17-1.26,1.23-1.75Z"/><path class="cls-1" d="M207.2,37.76a20.19,20.19,0,0,0-.28,7.43,21.33,21.33,0,0,0,.89,3.69,9.78,9.78,0,0,0,1.39,2.89c.8,1,1.85.58,2.82.11a11.67,11.67,0,0,0,2.2-1.39,13.56,13.56,0,0,0,3.46-4.08,15.81,15.81,0,0,0,1.95-6.64l-2-.66a76.84,76.84,0,0,0,.25,8c.11,1.27.25,2.53.43,3.79.09.66.62,3.78,2,2.79.81-.59.81-2.19.69-3.08,0-.4-.42-2.33-1.23-1.74.38-.27.42.92.52.93a5.63,5.63,0,0,1-.11-.82c-.07-.47-.12-.95-.18-1.42-.1-1-.19-2-.26-3,0,0-.05-.81,0-.29l0-.71c0-.48,0-1,0-1.43,0-1,0-2.06,0-3.09,0-.6-.08-2.27-.86-2.46s-1.07,1.29-1.1,1.79c0,.24,0,.48-.06.72s0,.24,0,.36c.06-.31.06-.33,0-.07s-.1.47-.16.7l-.09.35c.07-.22.07-.22,0,0a10.39,10.39,0,0,1-1,2.2,11.66,11.66,0,0,1-3.72,3.74c-.49.31-1.92,1.33-2.49.88a3.16,3.16,0,0,1-.45-.9c-.11-.26-.22-.52-.31-.79l-.15-.4c-.07-.23-.09-.27,0-.1-.08-.28-.15-.55-.22-.83,0-.08-.17-.93-.1-.45,0-.21-.06-.42-.08-.63s-.07-1,0-.4c0-.28,0-.57,0-.85s0-.28,0-.43c0,.31,0,.32,0,0s.06-.56.1-.84c-.07.48.07-.37.09-.45a4.55,4.55,0,0,0-.36-3.42c-.65-.9-1.23.29-1.36.89Z"/><path class="cls-1" d="M226.42,16.74l1.19,31.64c0,.59.08,2.5,1,2.5s1-2,1-2.5l-1.19-31.64c0-.59-.08-2.5-1-2.5s-1,2-1,2.5Z"/><path class="cls-1" d="M220.65,30.6l18.09.61c1.38.05,1.46-4.95,0-5l-18.09-.61c-1.37-.05-1.45,4.95,0,5Z"/><path class="cls-1" d="M246,36.4a16.38,16.38,0,0,0-6,4.73c-2.09,2.62-3.47,6.25-2.09,9.54,1.12,2.67,4,3.27,6.58,2.55a10.66,10.66,0,0,0,3.72-1.65,5.92,5.92,0,0,0,2-3.82A19,19,0,0,0,248.33,37c-.12-.26-.34-.73-.71-.73s-.6.47-.71.73a5,5,0,0,0,0,3.54A92.72,92.72,0,0,0,254,53.18c.62.93,1.23-.33,1.37-.9a4.67,4.67,0,0,0-.36-3.42A85.88,85.88,0,0,1,248.33,37l-1.42,3.54a15.91,15.91,0,0,1,1.28,3.86s.06.42.08.53.12,1.08.06.62c0,.31,0,.34,0,.09,0,.28,0,.33,0,.13s0,.16-.08.24c-.53,1-2,1.57-3,1.94a7.43,7.43,0,0,1-3.89.52,3.31,3.31,0,0,1-2-1.14c-.53-.59,0-.12-.11-.11.6-.05-.27,1.48.15.6.12-.25.24-.48.38-.72a13.76,13.76,0,0,1,1.07-1.55,15,15,0,0,1,5.63-4.32c1.26-.57.87-5.45-.54-4.82Z"/><path class="cls-1" d="M265.89,19.4a158.12,158.12,0,0,0-3,31.9c0,.58.08,2.5,1,2.5s1-2,1-2.5a146.36,146.36,0,0,1,2.75-29.38c.2-1,.36-2.59-.35-3.42s-1.24.21-1.37.9Z"/><path class="cls-1" d="M258.14,35.76q4.67.38,9.31.9c.35,0,.62-.51.71-.73a4.67,4.67,0,0,0,.29-1.77,4.42,4.42,0,0,0-.29-1.77c-.14-.31-.32-.69-.71-.73q-4.65-.53-9.31-.9c-.34,0-.61.5-.7.73a4.65,4.65,0,0,0-.3,1.77,4.46,4.46,0,0,0,.3,1.77c.14.3.32.7.7.73Z"/><path class="cls-1" d="M276,37.75c-1,5-1.81,10.06-2.39,15.14-.09.8-.14,2.59.7,3.07s1.18-1.3,1.23-1.75c.55-4.75,1.26-9.29,2.19-13.93a4.6,4.6,0,0,0-.36-3.42c-.65-.89-1.24.28-1.37.89Z"/><path class="cls-1" d="M277.5,32.8c1.41,0,1.43-5,0-5s-1.43,5,0,5Z"/><path class="cls-1" d="M289.82,36.92c-2.71,1.22-5.56,3.33-6.74,6.15-1.48,3.56-.46,7.56,1.44,10.73.64,1.08,1.52,2.87,2.81,3.26s2.9-.89,3.83-1.57c3-2.15,3.87-5.68,3.47-9.21a19.6,19.6,0,0,0-4.56-10.11c-.69-.83-1.21.23-1.37.89-.23.94-.32,2.61.36,3.42,1.66,2,3.55,4.86,3.67,7.4,0-.2,0-.14,0,.17q0-.31,0,.15c.08-.23-.22.5-.2.48A5,5,0,0,1,291.42,50a8.92,8.92,0,0,1-3.37,2.07c-.61.16-.93-.25-1.26-.7q-.68-.93-1.26-1.92a10.58,10.58,0,0,1-.94-1.91,4.73,4.73,0,0,1-.22-.82c.07.46.14-.26,0,.06a7.83,7.83,0,0,1,2.18-2.69,15.48,15.48,0,0,1,3.77-2.38c1.26-.57.87-5.46-.53-4.82Z"/><path class="cls-1" d="M299.61,37.41a56.78,56.78,0,0,1-2.14,14.5l1.83.59c0-.25-.06-.52-.08-.78,0,.43,0-.38,0-.38v-.26c0,.19,0,.19,0,0s0-.52.08-.78a11.12,11.12,0,0,1,.56-2.18,11.91,11.91,0,0,1,1.27-2.52c.43-.65,1-1.52,1.78-1.73a1.75,1.75,0,0,1,1.71.69,3.29,3.29,0,0,1,.76,1.85,6.53,6.53,0,0,1,.07,1.9,5,5,0,0,1-.64,2.38l.51-.34-.2,0,.5.34-.05-.11.2,3.93.05-.12-.71.73h.11c1.47-.11,1.34-5.1,0-5h-.11c-.37,0-.59.44-.71.73a5.08,5.08,0,0,0,.21,4.16.67.67,0,0,0,.51.34c.84-.08,1.1-1,1.35-1.69a17.54,17.54,0,0,0,.65-2.36,19.39,19.39,0,0,0,.28-5.48c-.2-2.31-.91-6.25-3.62-6.93-1.29-.32-2.33.61-3.07,1.54a15.52,15.52,0,0,0-2.13,3.76,19.94,19.94,0,0,0-1.22,9.61c.05.51.22,1.64.83,1.79s.87-.76,1-1.19a65.32,65.32,0,0,0,2.42-17c0-.62-.09-2.46-1-2.5s-1,2-1,2.5Z"/><path class="cls-1" d="M319.81,35.56c-2.06.6-4.7-.1-6.05,2a6.84,6.84,0,0,0-.56,5,6.57,6.57,0,0,0,1.94,3.23,13,13,0,0,0,2.78,1.93c1,.53,2.07.86,3,1.44a2.74,2.74,0,0,1,.89.79c0-.06.07.17.07.17s-.13-.76-.09-.44c0-.19,0-.38,0-.57l0-.18,0,.15a4,4,0,0,1-1.73,1.49c-2.43,1.1-5.23,0-7.51-1-.9-.37-1.18,1.15-1.24,1.74a5.7,5.7,0,0,0,.11,1.93c.08.34.23,1,.59,1.15,2.16.89,4.51,1.88,6.9,1.48a5.52,5.52,0,0,0,4.59-4.25c.64-2.47.36-5.88-2-7.33-1-.57-2-.9-3-1.44a11.12,11.12,0,0,1-2.88-2,5.13,5.13,0,0,1-.54-.69c0-.06-.09-.17-.13-.22.21.24-2.9,3.61-.08,1.8a4.72,4.72,0,0,1,1-.69c1.26-.46,2.68-.19,4-.57,1.55-.46,1.06-5.31,0-5Z"/><path class="cls-1" d="M348.11,26.11a208,208,0,0,0,1.61,22.31c.08.57.34,2.15,1.23,1.75s.79-2.42.7-3.08a193.64,193.64,0,0,1-1.54-21c0-.62-.08-2.46-1-2.5s-1,2-1,2.5Z"/><path class="cls-1" d="M342.39,26.62a112,112,0,0,1,18.73,1.67c1.2.21,1.54-4.73,0-5a112,112,0,0,0-18.73-1.67c-1.41,0-1.44,5,0,5Z"/><path class="cls-1" d="M343.74,52.28c2.85,1.06,5.74.66,8.68.22,2.78-.42,5.83-.91,8.45.42,1.32.66,1.82-4.18.54-4.82-2.68-1.36-5.6-1.1-8.48-.68s-5.91,1.06-8.66,0c-.91-.33-1.16,1.12-1.23,1.75s-.16,2.76.7,3.07Z"/><path class="cls-1" d="M369.24,40a52.91,52.91,0,0,0-.94,12c0,.67.05,2,.74,2.41s1-.72,1.13-1.15c.25-1,.5-1.91.79-2.86l.12-.38.18-.53c.17-.47.34-.93.53-1.38a12.65,12.65,0,0,1,1.13-2.2,10.07,10.07,0,0,1,1.64-2c.25-.23.65-.71,1-.79a.37.37,0,0,1,.29.07c-.07-.16-.06-.14,0,0s.09.24.13.36a10.17,10.17,0,0,1,.36,1.18c.15.56.27,1.14.38,1.71-.08-.45.06.41.07.49,0,.29.07.58.1.88s0,.43.05.65c0-.6,0,.33,0,.44v.88c0,.14,0,.29,0,.44,0-.3,0-.3,0,0-.05.59-.11,1.17-.19,1.75a5.46,5.46,0,0,0,.1,1.93,2,2,0,0,0,.6,1.14c.86.53,1.17-1.33,1.23-1.74a28.52,28.52,0,0,0,.12-7,22.28,22.28,0,0,0-1.56-6.68c-.4-.91-1.11-1.86-2.2-1.32a7.49,7.49,0,0,0-2,1.81,16.54,16.54,0,0,0-2.73,4.66,48.45,48.45,0,0,0-1.87,6L370.3,52c0-.86,0-1.72,0-2.57,0-.43,0-.86,0-1.29,0-.19,0-.52,0-.16,0-.23,0-.46.05-.7.06-.85.15-1.71.26-2.56.05-.38.11-.77.17-1.16.11-.75-.09.43,0-.32,0-.23.08-.46.13-.69a4.64,4.64,0,0,0-.36-3.42c-.65-.89-1.25.28-1.37.89Z"/><path class="cls-1" d="M384.26,27.42q.81,14.19,1,28.39c0,.59.08,2.5,1,2.5s1-2,1-2.5q-.21-14.87-1.07-29.72c0-.58-.36-2.13-1.23-1.74s-.74,2.39-.7,3.07Z"/><path class="cls-1" d="M380.49,37.59l9.37-.59c.91-.06,1-1.87,1-2.5a4.64,4.64,0,0,0-.29-1.77c-.13-.27-.33-.75-.71-.73l-9.37.59c-.91.06-1,1.88-1,2.5a4.43,4.43,0,0,0,.3,1.77c.12.28.33.76.7.73Z"/><path class="cls-1" d="M399.26,43.41a10.69,10.69,0,0,0-4.18,1.84,7.87,7.87,0,0,0-2.7,4.2c-.9,3.36-.09,7.5,3.24,9.16,2.3,1.15,5.58,1.48,7.78-.08,3.11-2.2,2.77-7.07,1.71-10.25-.92-2.75-3.45-6.58-6.85-6-.91.17-1,1.79-1,2.5a4.88,4.88,0,0,0,.3,1.77c.1.25.35.79.7.73,2.22-.41,3.95,1.4,4.91,3.2.14.27-.08-.18,0,.1s.13.27.19.42.18.46.27.69c.13.38,0,.11,0,0,0,.15.08.3.11.45s.09.46,0,.15.12.63,0,.1,0,.14,0,.21.1-.64,0-.14c.13-.62-.14.37,0-.09a2.1,2.1,0,0,1-.67,1c-1.57,1.39-4,1.34-5.94.79a6.21,6.21,0,0,1-2.56-1.44,2.24,2.24,0,0,1-.31-.36,3.39,3.39,0,0,1-.23-.34c-.15-.24.08.2,0-.05l0-.08c-.08-.21-.08-.21,0,0-.08,0,0-.6,0,.07,0-.13,0-.5,0,.12,0-.63,0,.57,0-.06,0,.44,0,.2,0,.06.16-.56-.16.34.07-.2a2.72,2.72,0,0,1,.3-.59,5,5,0,0,1,1.18-1.29,9.32,9.32,0,0,1,3.65-1.66c1.55-.37,1.15-5.27,0-5Z"/><path class="cls-1" d="M436.76,52.29l1-9.69.5-4.6.26-2.43a5.83,5.83,0,0,1,.24-1.73c.22-.48.91-.87,1.31-1.19L442,31.1,445.85,28l7.66-6.22c.8-.65.8-2.14.69-3.07,0-.38-.45-2.38-1.23-1.75l-8.42,6.84-4,3.26c-1.18,1-2.56,1.85-3.17,3.3a16.42,16.42,0,0,0-.81,4.62L436,40.3,434.83,51c-.08.76-.16,2.64.7,3.07s1.18-1.25,1.23-1.75Z"/><path class="cls-1" d="M438.56,28.83c-1.4-3.36-4.53-5.83-7.15-8.23q-4.29-3.95-8.9-7.51c-.79-.61-1.2,1.35-1.23,1.75-.09.9-.12,2.43.7,3.07q4.36,3.39,8.47,7.11c1.33,1.21,2.65,2.45,3.94,3.72a11.52,11.52,0,0,1,2.76,3.63c.36.87,1.05.87,1.41,0a5,5,0,0,0,0-3.54Z"/><path class="cls-1" d="M449.71,48.45a18.39,18.39,0,0,0,5.64,0c1.57-.26,3.75-.6,4.78-1.95,1.46-1.93,1.13-5.21,0-7.19a6.32,6.32,0,0,0-3.6-2.77c-3.16-1-6.31.52-8.42,2.87a11.31,11.31,0,0,0-2,11.53,7.07,7.07,0,0,0,9.09,4.16c.32-.12.54-.9.6-1.15a5.69,5.69,0,0,0,.1-1.93c-.09-.63-.31-2.08-1.23-1.75a5.86,5.86,0,0,1-6.46-1.73,4.55,4.55,0,0,1-.72-1.23c0-.08-.15-.5-.07-.19a3,3,0,0,1-.09-.41c0,.1,0,.42,0,0,0,.35,0,.2,0-.06s.09.38,0,0-.07.23,0-.07a7.3,7.3,0,0,1,.27-.75,7.87,7.87,0,0,1,1-1.63,7.53,7.53,0,0,1,6.05-3,5.72,5.72,0,0,1,3.12,1,4.12,4.12,0,0,1,1,1c.08.12.14.24.22.36.19.27,0,.32,0,0l-.05-.23a2.19,2.19,0,0,1,.13-1.22c-.09-.22.13-.13-.12,0a9.45,9.45,0,0,1-4.23,1.31,18,18,0,0,1-5.13-.06c-1.24-.18-1.53,4.77,0,5Z"/><path class="cls-1" d="M468.84,39.86c-2.4.85-4.81,1.76-6.58,3.67a9.6,9.6,0,0,0-2.08,8.55A8.07,8.07,0,0,0,462,55.65,17.45,17.45,0,0,0,463.37,57,3.39,3.39,0,0,0,465,58c1.21.21,2.41-.9,3.1-1.77a8.43,8.43,0,0,0,1.52-3.43c.78-3.66-.19-7.18-1.47-10.6l-1.21,3.93a50.74,50.74,0,0,0,6.48,8.19c.26.26.64-.07.78-.25a3.32,3.32,0,0,0,.45-1.5,3.86,3.86,0,0,0-.69-3.07,47.51,47.51,0,0,1-6-7.69c-.53-.83-1.13.11-1.29.65a5.19,5.19,0,0,0,.08,3.28,26.17,26.17,0,0,1,.94,2.79l.09.36s.11.53.07.3,0,.2,0,.19,0,.25.05.37c.05.28,0,0,0,0,0,.11,0,.22,0,.34,0,.28,0-.19,0-.2a3.75,3.75,0,0,1-.05.47c0,.27,0-.1,0-.13s0,.19-.06.28-.05.19-.08.28.1-.28,0-.06-.15.41-.25.61c.06-.13-.17.26-.22.33A3.25,3.25,0,0,1,465.53,53c-.85.19-1.69-.84-2.24-1.39a5.71,5.71,0,0,1-1.37-2c.06.16,0,.09,0,0l0-.1,0,.2s0-.4,0-.06c0,.13,0,.26,0,.4,0,0,.05-.36,0-.09s0-.12.05-.19c.06-.23,0,0,0,0,0-.13.09-.25.14-.37a5.83,5.83,0,0,1,1.36-1.8,17,17,0,0,1,5.9-3c.33-.12.54-.91.6-1.15a5.69,5.69,0,0,0,.1-1.93c-.09-.64-.31-2.07-1.23-1.75Z"/><path class="cls-1" d="M484.25,36.1c-1.94.6-3.95,1.27-5.05,3.1a7.44,7.44,0,0,0,.06,7.57c1.1,1.59,3.05,2.57,4.53,3.76a18.69,18.69,0,0,1,2.28,2.08c.32.36.63.75.92,1.15.14.2.27.41.4.62.54.87-.17.27.22-1.45L488,52c-.25.48-1.08.62-1.55.79-.74.27-1.48.51-2.23.74-1.45.45-2.91.84-4.39,1.19s-1.14,5.26,0,5c1.48-.35,2.94-.74,4.39-1.19.76-.23,1.51-.48,2.26-.74a8.38,8.38,0,0,0,1.79-.68c1.51-.93,1.45-3.44,1.11-4.94a9.22,9.22,0,0,0-2.08-3.69,37.43,37.43,0,0,0-5.93-5,5.92,5.92,0,0,1-.76-.65c-.15-.16-.3-.53-.46-.62.31.17-.41,1.72.1,1.28.18-.16.29-.45.47-.63a8.14,8.14,0,0,1,3.56-1.77c1.56-.47,1-5.32,0-5Z"/><path class="cls-1" d="M497.32,16.43a239.08,239.08,0,0,1-.13,37.75c-.07.78-.17,2.64.69,3.08s1.19-1.25,1.23-1.75a254.76,254.76,0,0,0,.14-40.41c-.05-.58-.36-2.14-1.23-1.75s-.75,2.4-.7,3.08Z"/><path class="cls-1" d="M488.49,29.38l23.58-.21c1.42,0,1.42-5,0-5l-23.58.21c-1.42,0-1.42,5,0,5Z"/></g><g id="Layer_43" data-name="Layer 43"><path class="cls-1" d="M155,302c13.31-6.77,27.47-13.89,42.78-13.78,14.69.11,27.83,8,42.36,9.11,15,1.12,28.31-6.95,42.72-9.4,15.22-2.6,30.86.36,45.31,5.28,8,2.72,15.91,6.91,24.47,7.32,6.5.3,13.52-2.09,17.1-7.81a4.66,4.66,0,0,0,.36-3.42c-.13-.54-.76-1.87-1.36-.89-3.23,5.15-9.55,7.24-15.39,7.14-7.73-.14-14.9-3.67-22-6.24-14.14-5.09-29.3-8.56-44.39-6.95-7.51.81-14.62,3.16-21.76,5.5-6.85,2.26-13.87,4.43-21.14,4.58-14.51.29-27.56-7.51-41.81-9-17-1.75-33,6.24-47.76,13.72-1.26.64-.8,5.5.54,4.82Z"/><path class="cls-1" d="M154.56,333.18c13-7.9,27.14-16.36,42.82-16.69,15.11-.32,27.87,8.7,42.31,11.57,7.53,1.49,14.88.48,22.21-1.52s14.71-4.78,22.4-5.61c16.07-1.74,31.22,5.61,47,7a59.71,59.71,0,0,0,40.54-11.68c1.41-1.06,2.77-2.2,4.09-3.38.78-.71.8-2.11.69-3.08,0-.34-.48-2.42-1.23-1.75A58.72,58.72,0,0,1,336,323.12c-15.92-.09-30.8-7.46-46.73-7.45-15.47,0-29.48,9.43-45.06,8-14.71-1.32-27.3-10.7-42-12-15.55-1.44-30.21,6.07-43.19,13.74q-2.47,1.46-4.93,3c-1.24.75-.67,5.55.54,4.82Z"/></g></g></svg>