<svg xmlns="http://www.w3.org/2000/svg" viewBox="0 0 558.17 540.83"><defs><style>.cls-1{fill:#40c0f0;}.cls-2{fill:#ffc107;}.cls-3{fill:#fff;}.cls-4{fill:#d81b60;}</style></defs><g id="Tagmap"><g id="Layer_28" data-name="Layer 28"><path class="cls-1" d="M212.79,159.17c1.13,4.21.6,8.59.74,12.9a60.42,60.42,0,0,0,2.27,13.74c.18.68.65,1.69,1.36.9s.6-2.54.36-3.42a51.23,51.23,0,0,1-2-13.06c0-4.56.2-9.14-1-13.58-.18-.68-.66-1.7-1.37-.9s-.6,2.54-.36,3.42Z"/><path class="cls-1" d="M214.09,159.57c5.94-1.48,8.88,5,9.68,9.76a8.89,8.89,0,0,1-1.29,6.92c-1.57,2.2-4.22,2.59-6.07,4.4a3.8,3.8,0,0,0-.69,3.08c0,.3.51,2.44,1.23,1.74,1.19-1.17,2.78-1.62,4.14-2.53a10,10,0,0,0,3.1-3.51,18.13,18.13,0,0,0,1.57-11c-.48-3.51-1.42-7.36-3.54-10.27-1.85-2.53-4.94-4.36-8.13-3.56-1.55.38-1.13,5.28,0,5Z"/><path class="cls-1" d="M232.33,181.42c-1-8.34-1.77-17.06,1.42-25l-1.67-2.43c-.31,5.1,1.39,9.81,3.09,14.54a51.5,51.5,0,0,0,6.56,12.37c.84,1.18,1.42-1,1.47-1.5a72.19,72.19,0,0,1,4.68-19.8,5,5,0,0,0,0-3.53c-.38-.85-1-1-1.42,0a80.83,80.83,0,0,0-5.19,22l1.47-1.49a46.09,46.09,0,0,1-5.67-10.29c-.69-1.8-1.31-3.64-1.92-5.48a15.31,15.31,0,0,1-1.14-5.49c.05-.82.13-2.14-.46-2.83s-1-.23-1.21.39c-3.8,9.52-3.11,20-1.94,29.92.06.57.34,2.15,1.23,1.75s.77-2.42.7-3.08Z"/><path class="cls-1" d="M251.31,155.88c.15,3.63-.92,7.11-2.11,10.5a89.8,89.8,0,0,0-3.51,11.17l1.83,1.92a60.19,60.19,0,0,1,7.36-21.57l-.77.26c1.18,1.2,1.61,3,2.13,4.54q.93,2.82,1.84,5.64,1.88,5.88,3.68,11.78l1.42-3.54-.23-.69c-.31-.95-1.06-.8-1.41,0a5.13,5.13,0,0,0,0,3.54l.22.69c.32.95,1.06.8,1.42,0a5.25,5.25,0,0,0,0-3.54c-1.31-4.22-2.61-8.44-4-12.64-.64-2-1.28-4-2-6a11.85,11.85,0,0,0-2.61-4.62c-.24-.25-.65,0-.77.25a68,68,0,0,0-8.28,24.55c-.11.78-.13,2.4.58,3s1.11-.39,1.24-1c1.72-8.2,6.24-15.59,5.9-24.19,0-.59-.07-2.5-1-2.5s-1,2-1,2.5Z"/><path class="cls-1" d="M249.89,170.9a107.3,107.3,0,0,0,11.61.81c.36,0,.6-.48.71-.73a4.67,4.67,0,0,0,.29-1.77,4.84,4.84,0,0,0-.29-1.77c-.13-.29-.34-.73-.71-.73a107.3,107.3,0,0,1-11.61-.81c-.34,0-.61.52-.7.73a4.68,4.68,0,0,0-.3,1.77c0,.66.07,2.38,1,2.5Z"/><path class="cls-1" d="M272.14,152.44l.65,24.14c0,.34.18,2.76,1,2.5,4.37-1.42,9.5-4,9.77-9.16a6.9,6.9,0,0,0-2.83-6.26,14.31,14.31,0,0,0-6.88-2.38c-1.32-.12-1.51,4.86,0,5a13.45,13.45,0,0,1,5,1.4,9.81,9.81,0,0,1,1.79,1.13,9.45,9.45,0,0,1,.76.79,1.76,1.76,0,0,1,.23.37q.25-1.72,0-1c-.46.44-.73,1.1-1.23,1.55a12.72,12.72,0,0,1-1.9,1.37,22.44,22.44,0,0,1-4.67,2.15l1,2.5-.65-24.14c0-.59-.08-2.5-1-2.5s-1,2-1,2.5Z"/><path class="cls-1" d="M291.17,161.21c-4.65,2.28-4.88,9.36-2.49,13.3a8.79,8.79,0,0,0,2.17,2.38c.89.66,1.93,1.3,2.92.47,2.26-1.88,2.72-5.13,2.53-7.89-.22-3.13-1.67-5.81-3.11-8.51-.39-.73-1-.09-1.21.39a5.22,5.22,0,0,0-.16,3A20.55,20.55,0,0,0,300.88,177c.84.51,1.18-1.26,1.23-1.75a5.64,5.64,0,0,0-.1-1.92,1.82,1.82,0,0,0-.6-1.15,17.92,17.92,0,0,1-5.06-4.56,17.7,17.7,0,0,1-1.69-2.72c-.24-.51-.46-1-.66-1.54-.1-.28-.2-.56-.29-.84.09.27,0,0,0-.16l-.12-.47-1.37,3.42c.56,1.05,1.14,2.09,1.6,3.19a9.33,9.33,0,0,1,.43,1.25,3.38,3.38,0,0,1,.09.41c0-.25,0-.24,0,0s0,.28,0,.42c0-.31,0-.32,0,0s0,.28,0,0c0,.1,0,.21,0,.31s0,.14,0-.08c0,.13-.06.26-.1.4.12-.39-.17.36-.11.25a3.41,3.41,0,0,1-.45.67c-.2.26-.52.67-.86.74s-1-.41-1.28-.63a6.63,6.63,0,0,1-1.85-2,2.58,2.58,0,0,1-.24-.46c0-.07-.27-.78-.16-.39-.06-.19-.12-.55-.06-.15,0-.13,0-.25-.05-.38,0,.36,0,.4,0,.12-.06,1,.13-.63,0,.17,0-.09.23-.79.08-.38a3.43,3.43,0,0,1,.43-.92,4.84,4.84,0,0,1,2-1.77c.33-.16.52-.85.59-1.15a5.23,5.23,0,0,0,.1-1.93c-.07-.54-.34-2.18-1.23-1.74Z"/><path class="cls-1" d="M302.31,163.32a38.65,38.65,0,0,0,1.53,11.11c.11.38.3,1.23.86,1.23s.79-.85.86-1.23c.27-1.37.55-2.74.86-4.09q.1-.45.21-.87l.12-.44c-.11.39,0,0,0-.09a4.35,4.35,0,0,1,.71-1.41c1.24-1.71,3.67-2.25,5.68-2.69.91-.19,1-1.76,1-2.5a4.64,4.64,0,0,0-.29-1.77c-.11-.24-.36-.8-.71-.73-2.49.54-5.11,1.21-6.69,3.37a11.79,11.79,0,0,0-1.69,4.17c-.37,1.49-.67,3-1,4.52h1.72c-.22-.76-.42-1.53-.59-2.31-.09-.37-.16-.75-.23-1.12,0-.05-.12-.72,0-.23,0-.2-.07-.41-.1-.61q-.15-1.14-.24-2.28c0-.08-.08-.78,0-.16,0-.21,0-.42,0-.62,0-.42,0-.84,0-1.25a4.65,4.65,0,0,0-.3-1.77c-.11-.26-.34-.73-.7-.73-.9,0-1,2-1,2.5Z"/><path class="cls-1" d="M324.56,158.23a9.74,9.74,0,0,0-4.09,3.23,9.24,9.24,0,0,0-1.61,5.68c.09,3.49,1.68,7.12,5.41,7.88a6.26,6.26,0,0,0,4.82-1.05c.81-.58.81-2.19.69-3.07,0-.42-.41-2.33-1.23-1.75a5.41,5.41,0,0,1-4.28.87,4.86,4.86,0,0,1-2-1,3.59,3.59,0,0,1-.62-.61l-.27-.37c0-.06-.33-.6-.17-.27-.08-.16-.15-.33-.22-.5-.19-.49,0,.25-.05-.15,0-.1,0-.2-.07-.3q.09.52,0,.15a1.79,1.79,0,0,1,0-.23c0-.2,0-.1,0,.28,0-.1,0-.2,0-.3,0,.41,0,.48,0,.21,0-.48-.06.51,0-.08,0-.15,0-.1-.06.14,0-.1.07-.2.11-.29a2.88,2.88,0,0,1,.13-.31l.06-.11a8.33,8.33,0,0,1,4-3.27c.33-.13.53-.87.6-1.14a5.69,5.69,0,0,0,.1-1.93c-.08-.6-.33-2.13-1.23-1.75Z"/><path class="cls-1" d="M336.72,157.36c-2.5,1.27-3.37,4.48-3.32,7.08a10.73,10.73,0,0,0,3.61,7.89,4.38,4.38,0,0,0,3.35,1.3,4.3,4.3,0,0,0,2.78-2,11.22,11.22,0,0,0,1.47-9.65,5.83,5.83,0,0,0-2.94-3.14c-1.45-.77-3-1.43-4.45-2.14-.88-.42-1.18,1.19-1.23,1.75a5.64,5.64,0,0,0,.1,1.92c.1.36.23,1,.6,1.15l3.19,1.52a12.67,12.67,0,0,1,2.51,1.42,2.53,2.53,0,0,1,.73.83c-.05-.09,0-.1.05.13,0,0-.09-.27,0,0s0-.22,0-.26c-.09-.42,0,.54,0-.22,0,0,0,.37,0,.1s0,.12,0,.19-.05.2-.08.29c0-.08.12-.32,0,.08a11.2,11.2,0,0,1-.49,1.18,7.12,7.12,0,0,1-.68,1,3.15,3.15,0,0,1-.85.68,2.45,2.45,0,0,1-2.4-.17,7,7,0,0,1-2-1.75,8,8,0,0,1-.8-1.19,2.9,2.9,0,0,1-.17-.37c-.05-.12-.1-.24-.14-.36s-.06-.23,0,0c0-.12-.05-.25-.08-.37.07.31,0,.18,0-.06s0,.23,0,.24c0-.56-.06.39,0,.07a2.6,2.6,0,0,0,0-.26c-.06.29-.06.35,0,.18s0-.11,0-.16c0-.3-.12.29,0,0s.1-.27.16-.4.12-.25,0-.11.13-.2.15-.24a4.17,4.17,0,0,1,.41-.53,4.26,4.26,0,0,1,1.07-.75c.34-.17.53-.85.6-1.15a5.69,5.69,0,0,0,.1-1.93c-.07-.53-.35-2.19-1.23-1.74Z"/><path class="cls-1" d="M352.58,150.16a102.6,102.6,0,0,1,1.06,10.34,38.37,38.37,0,0,1-.11,5c-.08.81-.17,1.63-.32,2.43,0,.15-.06.31-.1.46q.24-.39-.21-.18c-.31-.2-.67-.34-1-.55-.67-.44-1.33-.89-2-1.34l-1-.71c-.88-.58.32.05-.06,1.25a11.16,11.16,0,0,1,1.23-3.35c1.65-2.39,4.8-2,6.93-3.74.8-.64.8-2.15.69-3.07,0-.38-.45-2.37-1.23-1.75a12.21,12.21,0,0,1-3.91,1.66,6.76,6.76,0,0,0-3.32,2.34c-1.83,2.42-2.92,6.62-2.13,9.55.46,1.67,1.95,2.4,3.3,3.31,1.14.77,2.72,2.21,3.83.63,1-1.37,1-3.6,1.21-5.21a47.75,47.75,0,0,0,.25-5.74,105.76,105.76,0,0,0-1.17-12.68c-.07-.57-.33-2.15-1.23-1.75s-.78,2.42-.69,3.07Z"/><path class="cls-1" d="M360.18,163.45c3.17.19,6.37-.62,7.77-3.74a8.64,8.64,0,0,0,.24-6.15,3.22,3.22,0,0,0-1.1-1.72c-.66-.38-1.55,0-2.22.2a7.38,7.38,0,0,0-4,2.43,14.93,14.93,0,0,0-2.37,4.65,12.72,12.72,0,0,0-.44,6.73,12.43,12.43,0,0,0,2.36,4.67,7.53,7.53,0,0,0,1.81,2,3.57,3.57,0,0,0,2.48.42,11.63,11.63,0,0,0,5.07-2.35c.81-.62.8-2.17.69-3.07,0-.4-.43-2.35-1.23-1.75a12.58,12.58,0,0,1-3.15,1.79,4.07,4.07,0,0,1-3.22.2,12.24,12.24,0,0,1-2.93-4c-.07-.16-.09-.35-.15-.48s0-.13,0-.07-.07.22,0,0c.13-.36.21-.89.38-1.32a15.65,15.65,0,0,1,.72-1.62,6.22,6.22,0,0,1,2.08-2.49,8.77,8.77,0,0,1,3.3-1.14c.14,0,.59,0,.43.15,0,0,0-1,0-1.1,0,.17,0,.19-.14.42-1.11,2.22-4.2,2.41-6.36,2.28-1.35-.08-1.48,4.91,0,5Z"/><path class="cls-1" d="M224.24,185.06a43.92,43.92,0,0,0-3.58,11.38,33.61,33.61,0,0,0-.12,6.1,24.82,24.82,0,0,1-.06,5.65l1.36-.9a46.32,46.32,0,0,0-4-6.24l-.77,4.57a35.53,35.53,0,0,1,4.48,5.88c.15.24.51.47.77.26a49.68,49.68,0,0,1,12.6-7.47c1.26-.52.92-5.42-.53-4.82a49.39,49.39,0,0,0-12.6,7.47l.77.25a38.37,38.37,0,0,0-5-6.39c-.64-.68-1.14,1.21-1.18,1.44a4.4,4.4,0,0,0,.41,3.13,47.39,47.39,0,0,1,4,6.24c.54,1,1.27-.42,1.36-.9a28.65,28.65,0,0,0,.43-6.27c-.07-1.85-.27-3.71-.16-5.57.22-3.59,1.79-7,3.18-10.27a4.86,4.86,0,0,0,0-3.54c-.39-.87-1-.91-1.41,0Z"/><path class="cls-2" d="M194.57,400.17c13.63,7.38,29,10.61,44.25,12.22,7.74.81,15.51,1.23,23.28,1.59a172,172,0,0,0,23.48,0,61.56,61.56,0,0,0,24.7-7.14c1.25-.7.74-5.53-.53-4.82-13.72,7.64-29.53,7.77-44.8,7.09s-30.79-1.43-45.78-4.9a95.45,95.45,0,0,1-24.06-8.87c-1.28-.69-1.81,4.13-.54,4.82Z"/><path class="cls-2" d="M179.74,408.08c12.68,14,31.86,18.46,49.91,20.66a335.91,335.91,0,0,0,33.53,2.56,137.38,137.38,0,0,0,33.85-3c11.36-2.62,22.33-7.18,31.66-14.25.82-.61.8-2.17.7-3.07-.05-.4-.44-2.35-1.23-1.75-17.28,13.1-39.32,17.1-60.56,17.12a315.51,315.51,0,0,1-33.93-2.14c-9.13-1-18.3-2.33-27.1-5-9.67-3-19-7.82-25.82-15.39-.71-.79-1.2.2-1.37.89-.22.9-.34,2.65.36,3.42Z"/><path class="cls-3" d="M310.28,406.85A55.85,55.85,0,0,0,331.57,389c6.56-9.37,9.95-20.51,13.34-31.31a126.65,126.65,0,0,0,4.43-17.55,67.91,67.91,0,0,0,.42-18.4,175.25,175.25,0,0,0-3.09-17.46c-1-4.84-2.17-9.66-3.62-14.39-3.24-10.51-8.09-20.71-16.53-28-.76-.66-1.19,1.39-1.23,1.75-.11.94-.09,2.39.7,3.07,7,6.1,11.45,14.4,14.46,23.1a127.87,127.87,0,0,1,3.75,13.6c1.15,5.09,2.24,10.22,3.05,15.38a61.83,61.83,0,0,1,.62,16.8,95.81,95.81,0,0,1-3.69,16.38c-1.59,5.25-3.27,10.49-5.15,15.64a76,76,0,0,1-6.92,14.78,51.28,51.28,0,0,1-9.05,10.91A60.49,60.49,0,0,1,309.75,402c-1.26.63-.81,5.5.53,4.82Z"/><path class="cls-3" d="M330.1,414.14c15.74-17,28.54-37.18,34.74-59.61a101.29,101.29,0,0,0,3.49-34.73c-.95-12.36-4.31-24.77-8.77-36.32-4.59-11.87-11.14-23.14-20.8-31.59-.76-.67-1.19,1.39-1.23,1.74-.11,1-.09,2.39.69,3.08,8.21,7.18,14.11,16.55,18.38,26.5a126.62,126.62,0,0,1,9.41,34c2.67,21.78-3.86,43.6-14.58,62.43a163.2,163.2,0,0,1-22.34,30.17c-.89,1-.3,5.74,1,4.32Z"/><path class="cls-1" d="M209.46,248.63c11.57-9.25,27.5-8.43,41.31-6.27a350.35,350.35,0,0,1,50.12,11.87q14.16,4.41,27.93,10c1.45.59,1.82-4.3.54-4.82a372.49,372.49,0,0,0-50.28-16.24q-12.79-3.15-25.81-5.38a97.07,97.07,0,0,0-22-1.69c-8,.46-16,2.65-22.36,7.72-.81.65-.8,2.16-.7,3.08,0,.38.45,2.37,1.23,1.75Z"/><path class="cls-1" d="M338.84,250.35l-32.08-14c-10.33-4.5-20.61-9.19-31.31-12.78a140.88,140.88,0,0,0-96.21,2.5c-1.26.5-1,5.4.53,4.82A140.58,140.58,0,0,1,241,221.67a138.77,138.77,0,0,1,30.44,5.61c10.69,3.25,20.92,7.84,31.14,12.31l35.73,15.58c1.4.61,1.81-4.26.53-4.82Z"/><path class="cls-2" d="M272.51,435.72c-3.66,15.12-1.6,30.68-3.16,46a65.39,65.39,0,0,1-2.45,12.55,4.29,4.29,0,0,0,.36,3.42c.72.84,1.17-.25,1.36-.9,4.56-14.9,2.69-30.53,3.76-45.83a76.54,76.54,0,0,1,1.86-12.71c.23-1,.33-2.61-.36-3.42s-1.21.22-1.37.89Z"/><path class="cls-2" d="M273,437.76c1.5,2.92,3.88,5,6.43,7,2.25,1.75,4.93,3.52,6.24,6.14,1.51,3-1.37,6.55-3.43,8.66a20.78,20.78,0,0,1-10.53,5.77c-1.34.28-1.42,4.37-.26,4.91,3.61,1.67,7.25,3.3,10.84,5,1.42.67,2.89,1.49,3.22,3.16a5.85,5.85,0,0,1-.76,3.6c-3.22,6.48-11,8.33-17.48,9.41-1.53.25-1.24,5.2,0,5,8-1.33,16.86-4.06,19.58-12.66,1.2-3.77,1.33-9.48-2.07-12.2-1.65-1.32-3.9-2-5.8-2.91l-7-3.23-.27,4.91c6.89-1.46,13.54-6.4,15.74-13.28a13.39,13.39,0,0,0-.9-10.71c-1.33-2.31-3.53-4-5.6-5.64-2.37-1.83-5.12-3.7-6.54-6.43-.42-.83-1-.92-1.41,0a4.78,4.78,0,0,0,0,3.53Z"/><path class="cls-2" d="M303.69,468.65c-3.4,2-7,4.05-9.17,7.43a13.71,13.71,0,0,0-1.37,12.25,10.17,10.17,0,0,0,3.38,4.22c1.3,1,3.27,2.15,4.94,2.18,2,0,2.82-2.16,3.28-3.74a22.1,22.1,0,0,0,.75-6.92c-.18-4.93-1.73-9.73-1.75-14.66,0-.59-.09-2.5-1-2.5s-1,2-1,2.5a39.81,39.81,0,0,0,8.53,26.6c.68.84,1.22-.25,1.37-.9a4.51,4.51,0,0,0-.36-3.42,33.19,33.19,0,0,1-7.54-22.28h-2c0,4.47,1.14,8.77,1.62,13.19a13.67,13.67,0,0,1-.29,5.66c-.73,2.3-2.88,1.28-4.46.44a8.86,8.86,0,0,1-3.92-3.62,4.08,4.08,0,0,1,.37-3.89c1.86-3.64,5.75-5.77,9.15-7.72,1.25-.72.72-5.54-.53-4.82Z"/><path class="cls-2" d="M328.34,468.46c-3.86,1.81-7.85,3.67-10.92,6.71a16.18,16.18,0,0,0-5.05,11,9.11,9.11,0,0,0,1.74,6.14,10.48,10.48,0,0,0,4.53,2.85c1.85.7,4,1.59,6,1.3a4.75,4.75,0,0,0,3.89-3.13,5.07,5.07,0,0,0,0-3.54c-.37-.83-1.07-1-1.41,0-.48,1.33-2.15,1.75-3.42,1.71a15,15,0,0,1-4.82-1.28,10.49,10.49,0,0,1-3.51-2,2.54,2.54,0,0,1-.74-3c1.88-6.28,8.85-9.43,14.27-12,1.27-.59.86-5.47-.53-4.83Z"/><path class="cls-2" d="M339.92,449.1q-4.05,25.06-7.5,50.22c-.11.76-.15,2.65.69,3.08s1.17-1.26,1.23-1.75q3.45-25.15,7.51-50.22c.12-.76.13-2.66-.7-3.08s-1.15,1.26-1.23,1.75Z"/><path class="cls-2" d="M350.12,470.67a71,71,0,0,0-9.6,5.35c-1.49,1-2.95,2.05-4.36,3.16-1.56,1.23-2.93,2.21-3.14,4.33a5.25,5.25,0,0,0,2.08,4.95c1.56,1.25,3.13,2.46,4.69,3.69l9.75,7.65c.79.62,1.18-1.35,1.23-1.74.1-.9.11-2.44-.7-3.08l-7.87-6.18-4.13-3.24-1.87-1.47c-.34-.27-.68-.58-1-.83l-.28-.29c-.52,2.18-.41,2.93.31,2.25a14.29,14.29,0,0,0,1.67-1.35c.63-.49,1.26-1,1.9-1.43,1.22-.89,2.47-1.73,3.74-2.54a70.32,70.32,0,0,1,8.15-4.4c1.26-.58.86-5.47-.53-4.83Z"/><path class="cls-2" d="M361.06,451.6a180,180,0,0,0-3.17,46.26c0,.42.42,2.31,1.23,1.75a16.18,16.18,0,0,0,7.1-11.86c.34-4.49-1.08-9.69-5.3-12-1.27-.69-1.81,4.13-.53,4.83,2.22,1.21,4.2,3.74,3.85,6.42-.43,3.23-3.12,6-5.66,7.77l1.23,1.75a165.74,165.74,0,0,1,3-42.4c.2-1,.35-2.59-.36-3.42s-1.23.2-1.37.89Z"/><path class="cls-2" d="M379.11,476.88c-2.34,3.25-4.71,6.58-6.09,10.38-1.3,3.58-1.88,9.38,2.45,11.17,3.47,1.43,7.27-.65,9.82-3,3.54-3.26,3.37-8.1,1.21-12.11a40.09,40.09,0,0,0-3.73-5.66c-.73-.93-1.5-1.84-2.32-2.71-.67-.71-1.36-1.25-2.35-.84-1.26.53-.91,5.43.54,4.82.45-.19,1,.59,1.28.87.56.61,1.1,1.25,1.62,1.9a42,42,0,0,1,2.59,3.63c.38.6.75,1.22,1.1,1.84s.51,1.31.86,1.87c.12.2.07-.22,0-.15a4.48,4.48,0,0,0-.33.57,7.17,7.17,0,0,1-1.35,1.46c-2,1.71-4.71,3.39-7.46,2.93a4.15,4.15,0,0,1-2.79-1.67c-.16-.25-.07-.46-.11-.1s.1-.37.13-.47a14.63,14.63,0,0,1,.71-1.95,44.57,44.57,0,0,1,5.24-8.47,4.6,4.6,0,0,0,.36-3.42c-.15-.61-.72-1.81-1.37-.9Z"/><path class="cls-2" d="M392.29,476l2.07,22.32c.05.5.23,1.63.83,1.79s.87-.77,1-1.2c1.1-3.67.78-7.52.42-11.27-.24-2.64-.55-5.53.81-7.93.11-.2.33-.73.55-.81s.44.53.57.76l1.34,2.29c.95,1.64,1.93,3.28,2.87,4.93a5.57,5.57,0,0,1,.81,1.77,11.68,11.68,0,0,1-.24,2.42,23.48,23.48,0,0,0,.18,5.68c.1.57.33,2.15,1.23,1.75s.81-2.43.7-3.08a23.71,23.71,0,0,1,.08-5.52,11.94,11.94,0,0,0-1.37-6.66c-1-1.9-2.17-3.74-3.25-5.61-.59-1-1.11-2.11-1.79-3.06-.44-.62-1-1-1.69-.47-1.34,1-2,3.25-2.4,4.77a22.27,22.27,0,0,0-.6,5.87c.07,3.84,1.18,7.88,0,11.65l1.83.6-2.07-22.32c-.06-.57-.35-2.14-1.23-1.74s-.76,2.4-.7,3.07Z"/><path class="cls-2" d="M412,485.45c4.7-.65,10.64,2,14.32-2.25a7.65,7.65,0,0,0,.65-8.5,6.14,6.14,0,0,0-5.24-2.58,6.67,6.67,0,0,0-5.44,3.05,37.3,37.3,0,0,0-2,3.69c-.72,1.42-1.45,2.83-2.15,4.25-1.38,2.78-2.11,6.34-.51,9.19,1.28,2.26,3.85,2.9,6.26,3a32,32,0,0,0,9.61-.78,8.78,8.78,0,0,0,3.59-1.53c1.4-1.22,1.58-3,1.47-4.79,0-.57-.37-2.16-1.23-1.75s-.74,2.38-.7,3.08c-.14-2.19.61-1.83-.39-1.12a6.05,6.05,0,0,1-1.06.58,16.24,16.24,0,0,1-3.07.85,32.09,32.09,0,0,1-6.42.5c-2,0-4.17.06-5.86-1.08a3.44,3.44,0,0,1-.89-.81c0-.06-.16-.32-.21-.34-.31-.13.23.5,0,.57,0,0,.3-.92.32-1,.22-.53.48-1,.74-1.55,1-1.94,1.92-3.91,3-5.82a5.59,5.59,0,0,1,3.68-3.08,5.76,5.76,0,0,1,4.4.69,4.39,4.39,0,0,1,.75.6,5.07,5.07,0,0,0,.35.46c.49.38.36-1.63,0-1.1a5.13,5.13,0,0,1-1.22,1.45c-3.7,2.68-8.58.51-12.72,1.08-1.52.21-1.28,5.18,0,5Z"/><path class="cls-3" d="M405.46,323c.41-5.36.87-11.1,2.67-16.21a14.89,14.89,0,0,1,3.5-5.87c1.86-1.8,4.33-2.79,6.16-4.62a3.79,3.79,0,0,0,.7-3.07c0-.3-.52-2.46-1.23-1.75-2,2-4.61,3-6.55,5a18.21,18.21,0,0,0-4,6.77c-2.06,5.83-2.71,12.28-3.19,18.41-.06.78-.17,2.64.7,3.08s1.19-1.25,1.23-1.75Z"/><path class="cls-3" d="M406.1,305.88a45.5,45.5,0,0,1-9-14.32c-.1-.26-.35-.73-.71-.73s-.6.47-.71.73a5.19,5.19,0,0,0,0,3.54,48,48,0,0,0,9.39,15.1c.71.76,1.21-.19,1.37-.9.2-.9.35-2.65-.36-3.42Z"/><path class="cls-3" d="M419.27,316.87a31.26,31.26,0,0,0,7.17-.24,8.58,8.58,0,0,0,2.89-.92,3.83,3.83,0,0,0,1.57-2.7,6.81,6.81,0,0,0-2.17-6.52,6.57,6.57,0,0,0-5.09-1.55c-2.15.39-3.29,2.21-4.33,4a30.3,30.3,0,0,0-3.06,6.52,12.83,12.83,0,0,0,3.37,13,6.56,6.56,0,0,0,5.64,1.86c2.26-.49,3.91-2.17,5.31-3.9a4.5,4.5,0,0,0,.36-3.42c-.16-.66-.68-1.76-1.37-.9-1.73,2.14-4.21,4.12-7.11,3a7.53,7.53,0,0,1-3.25-2.55,6.34,6.34,0,0,1-1.53-3.38c0-1.27,1-2.78,1.52-3.88a19.7,19.7,0,0,1,2.58-4.24c1.86-2.1,5.78-1.14,7.16,1.09a2.29,2.29,0,0,0,.18.31c.28.33.69-2.1-.09-1.71a6.83,6.83,0,0,1-1,.5,13,13,0,0,1-2.69.57,37.52,37.52,0,0,1-6.09.07c-1.37-.06-1.47,4.94,0,5Z"/><path class="cls-3" d="M441.55,308.92c-5.72.7-7.36,7.62-5.52,12.29.84,2.15,2.76,4.14,5.21,4.17,2.71,0,4.2-2.73,4.74-5a11.78,11.78,0,0,0-1.62-9.48c-.58-.77-1.11.05-1.29.64a5.51,5.51,0,0,0,.07,3.29,17.93,17.93,0,0,0,6.88,9.37c.82.57,1.19-1.3,1.23-1.74.08-.85.14-2.5-.7-3.08a15.27,15.27,0,0,1-6-8.09l-1.21,3.93a5.42,5.42,0,0,1,.73,1.27l.15.4c-.06-.17-.05-.13,0,.11l.05.21q-.06-.37,0,0c0,.29,0,.28,0,0a3.08,3.08,0,0,1,0,.43c0-.79-.13.62,0,0a3.13,3.13,0,0,1-.38,1.1,3.08,3.08,0,0,1-2.06,1.61,3.92,3.92,0,0,1-2.93-.77,4.38,4.38,0,0,1-1.56-2.08c.16.44-.14-.74,0-.06,0-.2.05-.69,0-.14,0-.29,0-.27,0,.06,0-.26,0-.26,0,0q0-.21.09-.39c-.06.18-.05.17,0-.06a5.39,5.39,0,0,1,4.16-3c.92-.12,1-1.83,1-2.5,0-.47-.11-2.61-1-2.5Z"/><path class="cls-3" d="M463,307.51a10.44,10.44,0,0,0-5.9.66c-2.5,1.21-2.5,5.09-1.3,7.21a8.06,8.06,0,0,0,2.05,2.15,28.16,28.16,0,0,0,2.44,1.78c.85.54,1.72,1,2.62,1.5.4.19.81.37,1.21.57a4.07,4.07,0,0,1,.53.31c.12.1.22.32.14.11l-.26-1.11v-.35l.13-1.26c.13-.59.24-.45-.16-.2-.2.13-.41.23-.62.34a10.17,10.17,0,0,1-1.36.55,13.55,13.55,0,0,1-2.83.51,25.86,25.86,0,0,1-6.08-.4c-.33-.05-.62.53-.7.73a4.68,4.68,0,0,0-.3,1.77c0,.69.07,2.35,1,2.5a23.88,23.88,0,0,0,6.8.32,13.31,13.31,0,0,0,3.35-.86,3.77,3.77,0,0,0,2.59-2.56c.43-1.62.27-3.93-1.23-5-.89-.6-2-1-2.9-1.5a26.7,26.7,0,0,1-3-1.94c-.43-.33-.85-.66-1.26-1a8,8,0,0,1-.61-.55c-.17-.17-.28-.44-.46-.59a.48.48,0,0,1,.07.21,3.08,3.08,0,0,1-.09,2c0,.08,0,.08,0,0s.27-.23.43-.33a4.83,4.83,0,0,1,1.42-.51,12.14,12.14,0,0,1,4.25-.13c.34.05.62-.52.71-.73A4.67,4.67,0,0,0,464,310c0-.68-.07-2.37-1-2.5Z"/><path class="cls-3" d="M471.48,291.91l.23,13.07.12,6.41a23.76,23.76,0,0,1-.34,6c-.23,1-.33,2.61.36,3.42s1.21-.22,1.37-.9c1.1-4.51.59-9.36.51-14l-.25-14c0-.59-.08-2.5-1-2.5s-1,2-1,2.5Z"/><path class="cls-3" d="M465.27,301.75q11.22,1,22.49,1.35c1.38,0,1.46-5,0-5q-11.26-.36-22.49-1.35c-1.32-.12-1.5,4.87,0,5Z"/><path class="cls-3" d="M391.32,342.72a10.69,10.69,0,0,0-8.86,4.76c-2.15,3.23-3,8.6-.54,11.91,2.31,3.14,6.72,2.31,9-.31,3-3.39,3.11-8.37,3.07-12.65,0-.64,0-1.83-.61-2.28s-.89,0-1.1.52c-2.54,6.91-1.08,14.05-1.23,21.2a18.69,18.69,0,0,1-.57,4.47c-.4,1.51-.95,3.5-2.78,3.64s-3.82-.73-5.43-1.4a27.72,27.72,0,0,1-5-2.74c-1.1-.75-1.77,4-.53,4.82a26.85,26.85,0,0,0,5.38,2.9c1.67.67,3.73,1.54,5.56,1.42,3.69-.24,4.62-6,5-8.85a57.15,57.15,0,0,0,.07-11.25c-.18-3.58-.37-7.26.89-10.68L392,346.43c0,2.81.09,5.78-1.84,8.05-1.59,1.89-4.68,2.78-6.76,1.1-1.84-1.48-.25-3.7,1-5a9.45,9.45,0,0,1,6.86-2.84c1.4,0,1.43-5,0-5Z"/><path class="cls-3" d="M399.69,354.08a9.75,9.75,0,0,0,5.39.5,5.28,5.28,0,0,0,3.26-2.49c1.74-3.15.9-8.51-3.14-9.32-3.37-.68-6,2.67-6.93,5.47a17.85,17.85,0,0,0-1,6,11.09,11.09,0,0,0,2,5.89c.81,1.25,1.91,2.83,3.56,2.89,2.25.08,2.93-2.25,3-4.08,0-.61-.1-2.46-1-2.5s-1,2-1,2.5c0,0,.26-1.38.27-1.38s-.17.15-.19.16a3.23,3.23,0,0,1-.41.22,1.83,1.83,0,0,1-1.2,0,4.65,4.65,0,0,1-1.95-2,14.48,14.48,0,0,1-.86-1.42,4.22,4.22,0,0,1-.22-.52c-.17-.44,0,0,0,0v.14l0-.27.06-.4c0-.27,0-.09,0,0,0-.17.07-.34.1-.51a9.35,9.35,0,0,1,.4-1.45,5.32,5.32,0,0,1,4.52-3.72,3.36,3.36,0,0,1,2.57,1,2.78,2.78,0,0,1,.29.39,1.12,1.12,0,0,1,.08.18,3,3,0,0,1-.06-.43c0-.16,0-1.06.06-1s0,0-.06.13a3.72,3.72,0,0,1-.34.48c-1.79,2-4.94,1.3-7.18.62-1-.31-1.57,4.52,0,5Z"/><path class="cls-3" d="M412.59,346l-1.7,9a4.6,4.6,0,0,0,.36,3.42c.67.92,1.19-.33,1.36-.9a2.24,2.24,0,0,1,.11-.34c.06-.17.12-.35.19-.52.14-.39.28-.77.44-1.14a20.66,20.66,0,0,1,1-2,7.86,7.86,0,0,1,1.17-1.82c.53-.52.75,0,1,.46a11.07,11.07,0,0,1,.87,1.72,8.84,8.84,0,0,1,.56,1.86c0,.06.11.61.06.32s0,.25,0,.31l.06.62c.06.68,0-.53,0,.16,0,.17,0,.34,0,.51s.06.38,0,.06A4.32,4.32,0,0,1,418,359c-.12.81-.12,2.57.7,3.07s1.17-1.33,1.23-1.74a18.49,18.49,0,0,0-2.48-12.62c-.49-.77-1.18-1.52-2.15-1a5.71,5.71,0,0,0-1.78,2.25,27.56,27.56,0,0,0-2.59,6.1l1.72,2.52,1.71-9a4.66,4.66,0,0,0-.36-3.42c-.64-.88-1.25.28-1.37.9Z"/><path class="cls-3" d="M428.8,345.81a18.09,18.09,0,0,0-1.79,2.62,10,10,0,0,0-1.17,4.39c-.09,2,.47,4.9,2.45,5.93s4.07-.3,5-2a11.11,11.11,0,0,0,1.21-3.5,11,11,0,0,0,0-5,5.35,5.35,0,0,0-2.46-3.08,6.86,6.86,0,0,0-1.71-.86,2.54,2.54,0,0,0-1.78.08c-.33.11-.54.9-.6,1.15a5.64,5.64,0,0,0-.1,1.92c.08.64.31,2.08,1.23,1.75a2.47,2.47,0,0,1,1.94.47,8.79,8.79,0,0,1,1.66,1.2c.07.08.12.16.18.24s.06.2.05.06a7.21,7.21,0,0,1-.13-.85c0,.25-.11.21,0-.16a1.15,1.15,0,0,0,0,.26l0,.25s-.09.57,0,.19-.05.25-.07.34-.1.37-.14.55,0-.1,0-.12a1.6,1.6,0,0,1-.1.31c-.08.2-.16.4-.25.59.13-.27-.11.16-.16.23a2.73,2.73,0,0,1-.33.43l-.24.22a3.45,3.45,0,0,1-.5.35,2.58,2.58,0,0,1-1.92.31,2.1,2.1,0,0,1-.62-.31,4.15,4.15,0,0,1-.32-.27l0,0c-.06-.08-.13-.16-.19-.25s-.22-.4-.08-.09c-.06-.13-.1-.28-.17-.41s.08.19.06.21a1.49,1.49,0,0,0-.06-.25s.07.59,0,.21,0,.24,0,.29a.75.75,0,0,1,0-.26s-.05.64,0,.29c0,.06-.13.56,0,.14a1.09,1.09,0,0,1,.08-.31c-.18.36,0,.13,0,0l.12-.31.14-.3c-.08.17,0,0,0-.05a18.61,18.61,0,0,1,1.63-2.32,3.33,3.33,0,0,0,.46-1.5,5.62,5.62,0,0,0-.1-1.92c-.17-.64-.69-1.78-1.37-.9Z"/><path class="cls-3" d="M440.21,358.21c.18-.86.37-1.72.6-2.57,0-.18.1-.36.15-.54s.07-.25,0,0l.12-.36q.19-.57.42-1.14a8.52,8.52,0,0,1,1.07-1.93,7,7,0,0,1,1.67-1.64l-1-.65a13.1,13.1,0,0,1,1,2.82c.05.26.11.52.16.78-.07-.41,0,.33,0,.42,0,.26.06.53.07.79,0-.57,0,.37,0,.47a3.39,3.39,0,0,0,.62,2.29c.49.43.88,0,1.09-.52l1.72-4.13c.25-.6.49-1.21.75-1.8A1.61,1.61,0,0,1,449,350a1.74,1.74,0,0,1,.53-.48l-1-.64c.52,1.57,1,3.24,1.4,5,.2.85.39,1.7.55,2.55.09.47.18.94.26,1.4-.06-.37.05.31.05.35,0,.23.07.47.11.7.07.47.37,2.27,1.23,1.75s.81-2.32.7-3.08A71.46,71.46,0,0,0,450,345.33c-.13-.39-.51-.94-1-.65-1.24.77-1.72,2.31-2.25,3.58l-1.91,4.59,1.7,1.77a20.9,20.9,0,0,0-1.86-8.81c-.15-.34-.49-1-1-.64-3.36,2.37-4.43,6.71-5.22,10.51a4.59,4.59,0,0,0,.35,3.42c.65.89,1.24-.28,1.37-.89Z"/><path class="cls-3" d="M458.15,343.91,457,354.55a5.68,5.68,0,0,0,.1,1.93,2,2,0,0,0,.59,1.15c.86.52,1.19-1.33,1.23-1.75l1.17-10.64a6.19,6.19,0,0,0-.1-1.92c-.09-.34-.26-.95-.6-1.15-.85-.52-1.19,1.32-1.23,1.74Z"/><path class="cls-3" d="M460.07,338.67c1.41,0,1.42-5,0-5s-1.43,5,0,5Z"/><path class="cls-3" d="M470.2,342a25.49,25.49,0,0,0-5,2.31,11.82,11.82,0,0,0-4,3.44,7.91,7.91,0,0,0-.58,7.07,7.16,7.16,0,0,0,3.71,3.54,4.89,4.89,0,0,0,5.45-.58,3.74,3.74,0,0,0,.7-3.07c0-.31-.51-2.44-1.23-1.75a4,4,0,0,1-4.67.44,7.19,7.19,0,0,1-2.07-1.46c-.12-.14-.23-.28-.34-.43,0,0-.28-.45-.14-.23-.08-.22-.09-.22,0,0a1.72,1.72,0,0,1,0,.39c0,.12.06.83-.09.88s.22-.49.1-.26a4.07,4.07,0,0,1,.41-.61,5.13,5.13,0,0,1,.67-.73,14.84,14.84,0,0,1,2.29-1.66,25.71,25.71,0,0,1,5.25-2.48c.33-.11.54-.91.6-1.15a5.38,5.38,0,0,0,.1-1.92c-.08-.65-.3-2.06-1.23-1.75Z"/><path class="cls-3" d="M485.65,337a143.35,143.35,0,0,0-1.36,23.15c0,.62.07,2.46,1,2.5s1-2,1-2.5a135,135,0,0,1,1.29-21.82c.11-.76.14-2.65-.7-3.08s-1.16,1.26-1.23,1.75Z"/><path class="cls-3" d="M487.25,339.27c4.51,1.1,7,5.72,6.35,10.12s-3.22,11.2-8.78,10.11c-1.18-.23-1.55,4.7,0,5,7.34,1.44,10.35-9.37,10.81-14.69.54-6.19-1.56-13.88-8.38-15.54-1.11-.27-1.57,4.62,0,5Z"/><path class="cls-3" d="M502.08,362.08a88.34,88.34,0,0,0,0-12.39,50.79,50.79,0,0,1,.4-11.82l-1.83-.59a44.71,44.71,0,0,0,2.8,13.12,41.74,41.74,0,0,0,2.81,6c1,1.75,2.39,3.43,2.93,5.4.14.48.45,1.5,1.13,1.15s.74-1.8.74-2.41a105,105,0,0,1,3.44-27.62c.24-.95.32-2.62-.36-3.42s-1.2.23-1.37.89a115.31,115.31,0,0,0-3.71,30.15l1.86-1.26a21.86,21.86,0,0,0-2.77-5.71,38.39,38.39,0,0,1-2.8-5.45A37.37,37.37,0,0,1,502.62,336c0-.48-.24-1.67-.83-1.79s-.9.72-1,1.19a55.71,55.71,0,0,0-.74,12.9,93.12,93.12,0,0,1,.09,12.5c-.08.77-.16,2.64.7,3.08s1.18-1.26,1.23-1.75Z"/><path class="cls-3" d="M524.23,334.32c-6.34,7.14-7.57,17-11.77,25.3a4.71,4.71,0,0,0,0,3.54c.41.93,1,.85,1.41,0,4.07-8,5.24-17.62,11.37-24.52.7-.79.58-2.48.36-3.42-.17-.7-.66-1.7-1.37-.9Z"/><path class="cls-3" d="M524.77,338.45c2.91,7.7,2.22,16.23,5,24,.33.93,1,.83,1.41,0a5.1,5.1,0,0,0,0-3.53c-2.81-7.74-2.11-16.25-5-24-.35-.92-1.05-.83-1.42,0a5,5,0,0,0,0,3.53Z"/><path class="cls-3" d="M516.69,353.41a55.24,55.24,0,0,0,11.14-1.83c1.56-.43,1.09-5.3,0-5a55.24,55.24,0,0,1-11.14,1.83c-.91.06-1,1.88-1,2.5a4.8,4.8,0,0,0,.29,1.77c.12.28.34.76.71.73Z"/><path class="cls-1" d="M319.11,206.34v21c0,.62.08,2.46,1,2.5s1-2,1-2.5v-21c0-.61-.09-2.46-1-2.5s-1,2-1,2.5Z"/><path class="cls-1" d="M310.46,208.31q15.6.12,31.17-.79c1.46-.09,1.37-5.08,0-5q-15.57.91-31.17.79c-1.4,0-1.43,5,0,5Z"/><path class="cls-1" d="M331.46,222.37a4,4,0,0,1,.34.23c.12.11.14.12.05,0l.12.16a1.63,1.63,0,0,1,.11.17c-.08-.17-.09-.2,0-.08s.16.53.09.21,0,.3.06.31-.07-.53,0,0c0,.15,0,.29,0,.44,0,.5,0-.68,0,0,0,.79.06,1.58.05,2.37,0,.19,0,.39,0,.58.05-.63,0,0,0,.12a4.26,4.26,0,0,0-.05.48c0-.29-.09.4-.1.47l1.83,1.92a6.31,6.31,0,0,1,.14-1.37c-.19.59,0-.11.06-.25s.1-.45.15-.67l.18-.67c-.13.47.09-.23.11-.31.14-.38.29-.76.45-1.12s.19-.42.29-.63.1-.21,0-.07l.17-.3a12.81,12.81,0,0,1,.72-1.18c.22-.34.46-.66.71-1s.28-.36.43-.53a2.56,2.56,0,0,1,.46-.52c.21-.1.24,0,.44.24a8.9,8.9,0,0,1,.61.9v0c.05.1.09.19.13.29s.15.38.23.58.07.19,0-.06c0,.1.06.2.08.3s.1.41.15.62l.06.31q-.09-.5,0-.12l.06.48.06.65c0,.28,0,.22,0-.17,0,.11,0,.22,0,.33,0,.86,0,1.73,0,2.6a4.45,4.45,0,0,0,.29,1.77c.11.26.35.73.71.73.91,0,1-2,1-2.5.09-3.49,0-7.35-1.89-10.41-.37-.59-1-1.62-1.78-1.64-.49,0-.84.46-1.13.77s-.53.59-.79.91a18.11,18.11,0,0,0-2.59,4.47,20.07,20.07,0,0,0-1.44,6.21,5.64,5.64,0,0,0,.1,1.92,2,2,0,0,0,.48,1c.68.61,1.12-.45,1.25-1a27.22,27.22,0,0,0,.36-7.54c-.11-1.79-.45-4.25-2.17-5.25-.85-.49-1.18,1.25-1.23,1.75a5.68,5.68,0,0,0,.1,1.93c.1.38.23.93.6,1.15Z"/><path class="cls-1" d="M348.55,206.13l8.34.68c.12,0,1.12.19,1.19.09l-.1-1.12-.07.29a15.39,15.39,0,0,0-.7,1.83c-.52,1.24-1,2.48-1.59,3.71A105.78,105.78,0,0,0,350,226.56c-.25.95-.32,2.62.36,3.42s1.19-.23,1.37-.89c1.64-6.21,4.6-12,7-17.87a14.52,14.52,0,0,0,1.25-4.88c.05-1.25.06-3.7-1.33-4.31a6.87,6.87,0,0,0-2.22-.26l-2.62-.22-5.24-.42c-1.33-.11-1.5,4.88,0,5Z"/><path class="cls-1" d="M379.56,204a88.41,88.41,0,0,0,.73,19.64c.09.55.33,2.18,1.23,1.75s.8-2.4.7-3.07a76.78,76.78,0,0,1-.74-17c.06-.77.18-2.63-.69-3.07s-1.2,1.25-1.23,1.75Z"/><path class="cls-1" d="M373.05,206.47a58.78,58.78,0,0,1,16.79-1.1c1.33.1,1.49-4.88,0-5a58.78,58.78,0,0,0-16.79,1.1c-1.55.33-1.18,5.25,0,5Z"/><path class="cls-1" d="M373.27,226.91q10.17-.72,20.29-1.91c1.5-.18,1.3-5.16,0-5q-10.12,1.19-20.29,1.91c-1.47.11-1.35,5.1,0,5Z"/><path class="cls-1" d="M397.21,214.65q.15,1.11.24,2.22c0,.25,0,.44,0,.08,0,.18,0,.36,0,.54,0,.39,0,.78,0,1.17l0,1.06c0,.49,0-.23,0,.08s0,.36,0,.53c-.06.78-.15,1.56-.26,2.33h1.92c0-.21,0-.42,0-.63l0-.31c0-.3,0,.11,0,.13a7.21,7.21,0,0,1,0-1.47c0-.21,0-.43,0-.63,0,.45,0,0,0-.18,0-.44.09-.86.14-1.3,0-.27,0,.13,0,.15a1.53,1.53,0,0,1,.07-.36c0-.12.14-.54,0-.21a5.27,5.27,0,0,1,.19-.51l.06-.13.12-.2a2.78,2.78,0,0,1,1.5-1.19,2.08,2.08,0,0,1,1.74.22,2.17,2.17,0,0,1,.58.53,3.77,3.77,0,0,1,.26.39c0,.07.27.49.15.23a19.53,19.53,0,0,1,.86,2.24c0,.07.17.55.09.28.06.2.12.4.17.6.12.43.24.87.34,1.3s.22,1,.31,1.52c0,0,.07.37,0,.11s0,.17,0,.21c0,.24.06.48.1.72a5.77,5.77,0,0,0,.54,2c.2.38.57.87,1.06.77.92-.18,1-1.77,1-2.5a4.87,4.87,0,0,0-.29-1.77c-.1-.24-.36-.8-.71-.73-.16,0,0,0,0,0s.23.35.27.47,0,.34.09.39a2.3,2.3,0,0,1-.05-.41c-.09-.61-.19-1.22-.3-1.82-.18-1-.41-2-.68-2.92a16.74,16.74,0,0,0-2.18-5.38,3.22,3.22,0,0,0-4.22-1.17c-1.76.89-2.54,3-2.87,4.84a27.94,27.94,0,0,0-.26,8c0,.47.25,1.84,1,1.84s.89-1.36,1-1.84a37,37,0,0,0,0-10.67c-.06-.47-.37-2.27-1.23-1.74s-.8,2.31-.69,3.07Z"/><path class="cls-1" d="M420.45,209.39c-1.67-.18-3.64-.31-4.94,1a6.37,6.37,0,0,0-1.06,6.63c.75,1.74,2.82,2.62,4.39,3.48.85.47,1.71.9,2.57,1.35a6.42,6.42,0,0,1,.86.53c.1.07.19.16.28.23a1.37,1.37,0,0,1,.15.21,3.28,3.28,0,0,1-.22-.67v-1.33a1.45,1.45,0,0,1,.14-.46c.11-.26.11-.28,0-.06-.07.06-.13.15-.2.22a4.75,4.75,0,0,1-.87.59,12.43,12.43,0,0,1-2.18.88,17.1,17.1,0,0,1-5,.73c-.9,0-1,1.92-1,2.5s.09,2.5,1,2.5a18,18,0,0,0,6.2-1.12,7.71,7.71,0,0,0,2.41-1.26,4.61,4.61,0,0,0,1.48-3.19,5.39,5.39,0,0,0-1-4.05,8,8,0,0,0-2.37-1.55c-.95-.49-1.89-1-2.82-1.54-.46-.26-.92-.54-1.37-.82-.18-.12-.36-.23-.53-.36s-.32-.35-.49-.48c.15.11.26,2.48.1.85a3.26,3.26,0,0,1,0,1.16s-.06.18-.07.17.23-.34.26-.36a2.29,2.29,0,0,1,.91-.61,7.23,7.23,0,0,1,3.43-.13c.35,0,.62-.51.71-.73a4.64,4.64,0,0,0,.29-1.77c0-.65-.07-2.39-1-2.5Z"/><path class="cls-1" d="M428.65,217.44a31.17,31.17,0,0,0,5.94-.53c1.7-.32,3.79-.66,5.08-1.92,2.61-2.57,2.26-9-2.12-9.36-1.67-.14-3.26.87-4.54,1.82a13.59,13.59,0,0,0-3.87,3.87,10,10,0,0,0,1.5,11.77,8.2,8.2,0,0,0,10.17,1.49c1.24-.76.67-5.56-.53-4.82a7.12,7.12,0,0,1-7.23,0,7.55,7.55,0,0,1-2.47-2.3,7.06,7.06,0,0,1-.75-1.47,3.38,3.38,0,0,1,0,.45c0,.07-.13.42,0-.13-.05.18.1-.27.11-.31a7.7,7.7,0,0,1,2.41-2.85,14.77,14.77,0,0,1,3.24-2.19,3.42,3.42,0,0,1,3.2.07,2,2,0,0,1,.46.36s.25.23.15.18,0-1.86,0-1.06c.05-1.4.1-.86-.2-.46a3.12,3.12,0,0,1-.81.68,12.64,12.64,0,0,1-4.48,1.29,32,32,0,0,1-5.26.4c-.9,0-1,1.92-1,2.5s.08,2.49,1,2.5Z"/><path class="cls-1" d="M444.65,212.25a16.61,16.61,0,0,1,.83,1.94c.07.19.13.37.19.56-.11-.36,0,.18.06.25.11.41.19.83.28,1.24,0,.17,0,.13,0-.11a2.54,2.54,0,0,0,0,.29c0,.2,0,.39.07.59s0,.39.05.59,0,.13,0-.18c0,.1,0,.2,0,.3v.58c0,.08,0,.73,0,.36s0,.28,0,.35c0,.23-.05.46-.08.68-.11.83-.11,2.34.58,2.95s1.13-.45,1.25-1c.26-1.28.56-2.56.91-3.82.17-.65.36-1.3.55-1.94l.06-.21h0c.05-.13.09-.27.13-.4.11-.34.22-.68.34-1a15.82,15.82,0,0,1,.61-1.67c0-.11,0-.11,0,0l.09-.15a3.15,3.15,0,0,1,.22-.29,2.91,2.91,0,0,1,.54-.34,5.66,5.66,0,0,1,3-.14c.34,0,.61-.52.7-.73a4.68,4.68,0,0,0,.3-1.77c0-.66-.07-2.39-1-2.5a6.18,6.18,0,0,0-3.56.32c-1.27.62-1.78,2.1-2.22,3.35a70.82,70.82,0,0,0-2.44,8.8L448,221a21.77,21.77,0,0,0-2.31-13.09.55.55,0,0,0-.77-.25,2,2,0,0,0-.6,1.15,5,5,0,0,0,.36,3.42Z"/><path class="cls-1" d="M460.54,193.56q-.8,14.41-.44,28.86c0,.58.08,2.5,1,2.5s1-2,1-2.5c-.24-9.18-.14-18.36.36-27.53.05-.78.19-2.63-.69-3.08s-1.21,1.25-1.23,1.75Z"/><path class="cls-1" d="M456.85,206l12.62-.5c.9,0,1-1.89,1-2.5s-.1-2.54-1-2.5l-12.62.5c-.91,0-1,1.89-1,2.5s.09,2.53,1,2.5Z"/><path class="cls-1" d="M471.43,212.28l-.3,10.38a4.45,4.45,0,0,0,.29,1.77c.11.26.35.73.71.73.91,0,1-2,1-2.5l.3-10.38a4.45,4.45,0,0,0-.29-1.77c-.11-.26-.35-.73-.71-.73-.91,0-1,2-1,2.5Z"/><path class="cls-1" d="M472.18,208.6c1.41,0,1.43-5,0-5s-1.43,5,0,5Z"/><path class="cls-1" d="M481.67,210a9.52,9.52,0,0,0-4.71,4.69,10.54,10.54,0,0,0-.71,5,7.39,7.39,0,0,0,1.31,3.87,4.19,4.19,0,0,0,5.45,1.34c2.52-1.53,2.95-5.07,2.75-7.72-.22-2.81-1.22-5.92-3.35-7.86-.27-.25-.62.05-.77.25a3.42,3.42,0,0,0-.46,1.49c-.09,1-.09,2.36.7,3.08a4.71,4.71,0,0,1,.69.79c.1.15.2.3.29.45l.18.3c-.09-.16,0,0,0,.09.16.35.28.71.43,1.07s-.08-.3,0,0a2.29,2.29,0,0,1,.08.28c.07.26.13.52.19.79,0,0,.05.36,0,.1s0,.06,0,.1c.06.49,0,0,0-.07a1.61,1.61,0,0,1,0,.31c0,.3,0-.17,0-.17a2,2,0,0,1-.05.4s.07-.37,0-.11.18-.42,0,.06a3.57,3.57,0,0,1-.19.45c.13-.25-.13.18-.18.25a2.62,2.62,0,0,1-.66.67,3,3,0,0,1-3.81-.29,3.18,3.18,0,0,1-.55-.63c-.17-.24-.07-.1,0,0a2.44,2.44,0,0,1-.1-.24c0-.09-.07-.17-.1-.25.18.53,0-.3,0,.12s0,0,0-.06,0,.58,0,.14c0,.58-.09.05,0,0s-.12.55,0,.07c0,0,.09-.32,0-.1s0-.06,0-.09.11-.28.17-.41,0-.05,0,0l.18-.3c.13-.2.26-.39.4-.57a5.68,5.68,0,0,1,.84-.86,10.5,10.5,0,0,1,2.33-1.49c.33-.17.52-.86.6-1.15a5.69,5.69,0,0,0,.1-1.93c-.08-.55-.35-2.18-1.23-1.75Z"/><path class="cls-1" d="M488,213.55a15.26,15.26,0,0,1,.5,1.71c.09.34.16.68.23,1,0,0,.09.46.05.27s.06.4.06.38c0,.31.08.61.11.92s0,.38.05.58c0,0,0,.52,0,.24s0,.3,0,.36v.46c0,.2,0,.39,0,.58s0,.63,0,.15l2,.66c0-.29,0-.27,0,.06,0-.13,0-.26,0-.4s.06-.53.09-.79h0c0-.13.05-.26.07-.39l.18-.79c.05-.19.11-.38.17-.58-.11.35.13-.38.15-.44.19-.5.4-1,.63-1.48a15.19,15.19,0,0,1,1.45-2.36c.28-.37.57-.74.88-1.09s.61-.77,1-.9c.62-.21,1.58,1.31,1.87,1.7A13.6,13.6,0,0,1,499,215.8c.23.49.42,1,.6,1.5.08.23.09.26,0,.07,0,.13.08.26.11.39s.11.39.15.59.12.53.16.79c-.09-.53,0,.31,0,.4s.13,1,0,.35a4.28,4.28,0,0,1,0,.8c0,.59.1,2.5,1,2.5s1-2,1-2.5a19,19,0,0,0-3.95-12.07c-.54-.67-1.24-1.71-2.15-1.89s-1.78,1-2.34,1.58a17.85,17.85,0,0,0-3.1,5.05,21.53,21.53,0,0,0-1.54,7.52c0,.6.09,2.27.87,2.45s1.07-1.28,1.09-1.79A29.66,29.66,0,0,0,489.45,210c-.09-.26-.36-.73-.7-.73s-.61.47-.71.73a5.34,5.34,0,0,0,0,3.53Z"/><path class="cls-3" d="M70.65,16.5Q72.2,37.07,71.8,57.69c0,.59.09,2.5,1,2.5s1-2,1-2.5q.39-21.27-1.23-42.52c0-.58-.35-2.14-1.23-1.74s-.74,2.4-.69,3.07Z"/><path class="cls-3" d="M52.15,16.61q21.75-.73,43.51.49c1.35.07,1.47-4.92,0-5q-21.73-1.22-43.51-.49c-1.45.05-1.4,5.05,0,5Z"/><path class="cls-3" d="M107,36.26c-4,1.25-8.11,2.88-11.12,5.92A14.45,14.45,0,0,0,91.73,53c.1,3.59,1.32,7.78,4.72,9.58a4.82,4.82,0,0,0,2.71.67,3.92,3.92,0,0,0,2.61-1.89,27.72,27.72,0,0,0,3.35-6,31.47,31.47,0,0,0,2-16.06l-1.68,2.43,9,18.29c.41.82,1,.92,1.42,0a5,5,0,0,0,0-3.54l-9-18.29c-.28-.57-.71-1-1.21-.39a4.08,4.08,0,0,0-.46,2.83,21.18,21.18,0,0,1-1,9.86A24,24,0,0,1,102,55.29c-.94,1.51-1.89,3.4-4,2.88a5.76,5.76,0,0,1-3.18-2.32,6,6,0,0,1-1.08-3c0-.29,0-.06,0,0v-.53c0,.35.06-.59.07-.67a10.18,10.18,0,0,1,.44-1.48,10.48,10.48,0,0,1,2.54-3.54c2.84-2.69,6.56-4.26,10.24-5.4,1.56-.48,1-5.32,0-5Z"/><path class="cls-3" d="M130.85,36.94c-8.67,1.31-12.09,10.9-9.46,18.52a12.35,12.35,0,0,0,3.07,4.86,2.21,2.21,0,0,0,2.44.76,7.87,7.87,0,0,0,2.37-1.68,19.39,19.39,0,0,0,5.52-9.31,22.16,22.16,0,0,0-.56-13.38c-.19-.53-.58-.92-1.09-.51a3.23,3.23,0,0,0-.61,2.28c.31,8.05,3.18,16,2.21,24.09a31.65,31.65,0,0,1-3.45,11c-1.45,2.71-3.65,5.69-6.95,6-4,.41-7.24-2.94-9.67-5.66-.7-.79-1.2.21-1.36.89-.22.91-.34,2.65.36,3.43,2.4,2.69,5.24,5.74,9,6.3s6.77-2.14,8.68-5.08c4.82-7.41,6.24-16.86,5.29-25.52-.56-5.16-1.92-10.24-2.12-15.45l-1.71,1.77a11.92,11.92,0,0,1-.15,8.48,16,16,0,0,1-2.6,4.45c-.73.89-2.86,3.43-4.19,3-.71-.22-1.45-1.29-1.85-1.86a9,9,0,0,1-1.16-2.24,5.63,5.63,0,0,1,0-4.08,10.21,10.21,0,0,1,7.95-6.08c1.52-.23,1.26-5.19,0-5Z"/><path class="cls-3" d="M186.67,37.43c-7.13,1.41-9.62,9.49-7.47,15.78a10.33,10.33,0,0,0,2.48,4,2.17,2.17,0,0,0,1.94.85,4.57,4.57,0,0,0,1.94-1.19,16.26,16.26,0,0,0,5-8.18,11.69,11.69,0,0,0,.23-6.18c-.4-1.37-1.38-3.25-3.07-2.47-.51.24-.64,1.29-.7,1.75a5.28,5.28,0,0,0,.26,2.43,80.9,80.9,0,0,0,9.31,17.4c.64.9,1.22-.31,1.37-.9a4.67,4.67,0,0,0-.36-3.42,77,77,0,0,1-8.91-16.61l-.44,4.17a.54.54,0,0,1,.55,0s.43.4.32.38,0-.73,0-.74-.08.66-.07.6a10.52,10.52,0,0,1-1.33,3.59,12.73,12.73,0,0,1-2.4,3A6.25,6.25,0,0,1,183.73,53c-.72.29-1.24-.29-1.68-.8a6.89,6.89,0,0,1-1.56-3,2.21,2.21,0,0,1,0-1,4.53,4.53,0,0,1,.43-1.37,8.2,8.2,0,0,1,5.79-4.39c1.54-.31,1.19-5.24,0-5Z"/><path class="cls-3" d="M202.89,40l2.61,31.63,1.82-1.92c-.91-4.18-1.84-8.36-2.75-12.54-.83-3.84-1.7-7.85-1.32-11.8.14-1.42.31-3.24,1.45-4.26,1.52-1.35,3.45.1,4.71,1.09,1.91,1.5,4.63,4.27,3.29,6.88-2,3.84-7,2.47-10.48,3.1-1.54.28-1.22,5.22,0,5,2.27-.42,4.61,0,6.87-.5a6.78,6.78,0,0,0,4.77-3.56,12.56,12.56,0,0,0-1.33-13.18,12.73,12.73,0,0,0-5.18-4.13c-2.12-.77-3.72.6-4.62,2.43a18.72,18.72,0,0,0-1.51,7.39,39.5,39.5,0,0,0,.5,8.13c1,6.21,2.53,12.34,3.88,18.47.13.61.54,1.59,1.25,1s.64-2.18.58-2.94l-2.62-31.64c0-.58-.35-2.14-1.23-1.75s-.75,2.4-.69,3.08Z"/><path class="cls-3" d="M278.2,11.44c-4.21,1.08-8.49,2.7-11.08,6.41a13.42,13.42,0,0,0-.65,13.41c2.13,4.25,6.08,6.81,9.6,9.79a13.17,13.17,0,0,1,4,4.93c.56,1.48-.63,2.82-1.72,3.75-4.32,3.66-10.25,2.24-15.21,1-1.1-.29-1.57,4.59,0,5,4.53,1.16,9.57,2.36,14,0,4-2.09,5.69-6.39,5.06-10.73-.68-4.67-4.17-7.7-7.67-10.47a32.07,32.07,0,0,1-5.27-4.81c-1.06-1.32-2.46-3.31-2.23-5.11.27-2.13,2.23-4,3.89-5.18a22.54,22.54,0,0,1,7.29-3c1.56-.39,1.12-5.28,0-5Z"/><path class="cls-3" d="M292.15,45.62c4.83.32,10.22-.44,12.31-5.44,1.76-4.23.68-10.72-4.75-11.16-5.11-.42-8.06,4.54-9.35,8.77-1.6,5.27-1.95,12.14,1.92,16.55a8.17,8.17,0,0,0,7.08,2.94c3.18-.36,6-2.27,8.49-4.08.83-.6.8-2.19.7-3.08-.05-.42-.42-2.33-1.23-1.75-3.2,2.3-7.54,5.29-11.63,3.4A7.9,7.9,0,0,1,291.43,43c.57-3.36,2.22-7.48,5.75-8.66a5.81,5.81,0,0,1,4.5.28,3.52,3.52,0,0,1,1.46,1.4c.09.15.12.49.1.25s0-.09-.09.14c-1.86,4.27-6.95,4.52-11,4.25-1.34-.09-1.48,4.9,0,5Z"/><path class="cls-3" d="M326.94,29.91c-5.87,3.38-13.73,10.91-10.32,18.43a4.48,4.48,0,0,0,3.21,2.78c1.57.26,3.48-.58,4.85-1.29a14.28,14.28,0,0,0,6.63-7.54,18.4,18.4,0,0,0-.26-13.48c-.23-.52-.57-.94-1.1-.52s-.61,1.67-.61,2.29c0,13.29-1.14,29.15,7.91,40.09.68.83,1.21-.24,1.37-.89.22-.94.31-2.61-.36-3.42-8.14-9.84-6.9-23.84-6.92-35.78l-1.71,1.76a8.64,8.64,0,0,1-.77,8.45A12.22,12.22,0,0,1,321.41,46a3.37,3.37,0,0,1-2.26-.14,2.67,2.67,0,0,1-.77-.6c-.16-.19-.32-.66-.48-.8s-.07-.21,0,.08,0,.32.05,0,.25-.73.42-1.07a14.59,14.59,0,0,1,1.39-2.09,26,26,0,0,1,7.75-6.7c1.24-.72.71-5.54-.53-4.82Z"/><path class="cls-3" d="M343.14,30.24a54.51,54.51,0,0,0,.22,10.61,51.56,51.56,0,0,0,.88,5.09c.31,1.4.56,3.15,1.53,4.27,1.77,2,5.24-.66,6.73-2A17.59,17.59,0,0,0,357.06,42a20.22,20.22,0,0,0,1.51-9.78c-.05-.52-.31-2-1.1-1.79s-.87,1.88-.87,2.46a37.63,37.63,0,0,0,4.93,18.5c.57,1,1.25-.39,1.37-.9a4.87,4.87,0,0,0-.36-3.42,29.19,29.19,0,0,1-3.94-14.18l-2,.66a9,9,0,0,1-.26,2.79,12.17,12.17,0,0,1-1.31,3.27A14.69,14.69,0,0,1,349.83,45c-.81.48-2.69,1.69-3.34.5a9.13,9.13,0,0,1-.48-1.89c-.19-.8-.35-1.6-.49-2.41a41.24,41.24,0,0,1-.45-9.61c.05-.78.17-2.63-.7-3.08s-1.2,1.25-1.23,1.75Z"/><path class="cls-3" d="M368.09,39.16c5.21,1.15,11.07,2.28,15.89-.76,2.69-1.7,4.36-4.65,3.17-7.87-.85-2.32-3.61-3.39-5.83-3.92a21.51,21.51,0,0,0-7.54-.46c-2.52.37-3.95,2.34-4.79,4.6a34.07,34.07,0,0,0-1.8,8.58c-.25,2.84-.59,6.32.64,9s4.36,3.14,7,2.84a11.6,11.6,0,0,0,6.9-3.33,3.83,3.83,0,0,0,.7-3.07c0-.3-.53-2.46-1.23-1.75a10.49,10.49,0,0,1-10.28,2.86,2.57,2.57,0,0,1-1.81-1.45,9,9,0,0,1-.05-2.71,29.25,29.25,0,0,1,1.05-6.45c.42-1.52,1.08-3.13,2.6-3.82a7.38,7.38,0,0,1,3.17-.36c1,0,2.05.05,3.07.15A12.6,12.6,0,0,1,384.55,33c.34.22.63.5,1,.73l.18.24c.4-2.2.34-2.92-.17-2.16-.18.18-.32.4-.5.58A9.19,9.19,0,0,1,382.78,34c-4.54,2.42-9.94,1.24-14.69.19-1.14-.25-1.56,4.66,0,5Z"/><path class="cls-3" d="M392.48,31a43.88,43.88,0,0,1,1.63,18.15l1.67-1.1a25.79,25.79,0,0,1-1.13-10.43c.25-2.32,1.88-5,4.84-4s5.25,4.51,6.67,7.16A22.21,22.21,0,0,1,408.73,50c0,.56.37,2.16,1.23,1.74s.74-2.37.7-3.07c-.38-6.57-3-13.45-7.83-18-2-2-5.24-3.26-7.55-.95s-2.57,5.85-2.71,8.86a37.48,37.48,0,0,0,1.8,13c.14.45.48.86,1,.65s.64-1.3.7-1.75a53.53,53.53,0,0,0-1.84-22c-.18-.62-.67-1.76-1.37-.9a4.54,4.54,0,0,0-.35,3.43Z"/><path class="cls-3" d="M430,29.57a12.57,12.57,0,0,0-11.46,9.19c-1.4,4.84-.35,12.61,5.57,13.76a6,6,0,0,0,6.35-2.71,4.88,4.88,0,0,0,.36-3.42c-.12-.5-.8-1.92-1.37-.9-1.78,3.19-6.73,2.61-8.61-.14a5.21,5.21,0,0,1-.59-1.15,1.65,1.65,0,0,1-.12-.39c0-.11-.06-.23-.08-.34.05.24,0,0,0-.1s0-.32-.05-.48c0,0,0,.37,0,.08,0-.12,0-.24,0-.36,0,0,0,.36,0,.07,0-.13.08-.62.06-.53s0-.17,0-.17c0-.16.07-.31.12-.46a9.22,9.22,0,0,1,1.23-2.42,10.15,10.15,0,0,1,2.08-2.16A11,11,0,0,1,430,34.57c1.43,0,1.4-5,0-5Z"/><path class="cls-3" d="M439.05,32V46.53c0,.61.09,2.46,1,2.5s1-2,1-2.5V32c0-.62-.08-2.46-1-2.5s-1,2-1,2.5Z"/><path class="cls-3" d="M438.94,26.15c1.41,0,1.43-5,0-5s-1.43,5,0,5Z"/><path class="cls-3" d="M447.39,31.67A45.89,45.89,0,0,1,449.92,47c0,.61.07,2.25.87,2.45s1-1.3,1.09-1.79l1.2-10,.29-2.42c.06-.46.12-.92.17-1.38l0-.35c-.05.24,0,.22,0-.05-.11.2.06-.13.09-.16a.61.61,0,0,1,.45-.16c.59,0,1.22.83,1.6,1.21a21.31,21.31,0,0,1,4.45,6.38,21.62,21.62,0,0,1,1.24,3.49c.14.57.26,1.14.34,1.61s.1.75.14,1.12c0,.19,0,.38,0,.57s0,.37,0,.18c0,.62.06,2.46,1,2.5s1-2,1-2.5a27.35,27.35,0,0,0-5.06-15.15,25.28,25.28,0,0,0-2.44-2.83c-.75-.76-1.78-2-3-1.43s-1.49,1.95-1.69,3c-.3,1.5-.4,3-.58,4.55L450,46.32l2,.67a56.57,56.57,0,0,0-3.11-18.86c-.32-.92-1.07-.83-1.42,0a5.25,5.25,0,0,0,0,3.54Z"/><path class="cls-3" d="M480.8,28.9a12.59,12.59,0,0,0-8.41,3.1,11.88,11.88,0,0,0-3.68,8.36c-.15,3,.55,6.85,3,8.9,1,.85,3.22-.18,4.23-.77a8.28,8.28,0,0,0,3.2-3.51c1.88-3.74,1.43-8.23.8-12.22-.09-.58-.27-1.93-1.1-1.79s-.89,2-.87,2.45c.19,3.86,1.68,7.48,1.87,11.31A31,31,0,0,1,478,55.62c-.61,1.88-1.29,3.74-2,5.59a8,8,0,0,1-1.91,3.42c-1.35,1.14-2.95.46-4.41-.06l-5.86-2.09c-1.5-.54-1.8,4.36-.53,4.82l6.31,2.25c1.61.57,3.22,1.16,4.77.09A8.45,8.45,0,0,0,477,65.8c.84-2,1.56-4.12,2.24-6.19a46.66,46.66,0,0,0,2.62-13.26,29.35,29.35,0,0,0-.63-6.8A42.43,42.43,0,0,1,480,33.42l-2,.67c.42,2.65,1.05,5.64-.7,7.95a6.66,6.66,0,0,1-3.76,2.38c-.79.17-1.22.19-1.74-.48a5.75,5.75,0,0,1-.9-1.67c-.71-2.08.64-4.22,2.16-5.57a11.56,11.56,0,0,1,7.74-2.8c1.41,0,1.42-5,0-5Z"/><path class="cls-3" d="M40.43,68.53q89.66.15,179.32-1.65,89.19-1.78,178.33-5.49,50.28-2.09,100.54-4.79c1.45-.08,1.37-5.07,0-5q-89.55,4.8-179.17,7.69-89.16,2.85-178.38,3.79-50.32.54-100.64.45c-1.41,0-1.43,5,0,5Z"/><path class="cls-1" d="M210.06,224.61A158.85,158.85,0,0,0,217.25,242c.4.83,1,.91,1.41,0a4.91,4.91,0,0,0,0-3.54,162,162,0,0,1-7.19-17.35c-.32-.92-1.07-.83-1.41,0a5.19,5.19,0,0,0,0,3.54Z"/><path class="cls-1" d="M211.83,226.08a7.12,7.12,0,0,1,6.94.22,4.6,4.6,0,0,1,.7.53c.06.07.11.2.18.24a.29.29,0,0,0,0-.13c.24-.08-.22-1.45.05-1.63,0,0-.13.26-.08.17a2.32,2.32,0,0,1-.44.55,6.92,6.92,0,0,1-3.61,1.29v5a3.69,3.69,0,0,1,2.45.25,3.84,3.84,0,0,1,1.65,1.52c.05.14.05.12,0-.06.06.25.06.24,0,0a2.62,2.62,0,0,1,0-.56c0-.25.06-.29,0-.13s0,.13,0,0a3.65,3.65,0,0,1-.14.35c.05-.1-.17.3-.22.36a3.44,3.44,0,0,1-2.07,1.38c-1.54.32-1.17,5.24,0,5,3.6-.76,4.78-5,4.24-8.17a6.11,6.11,0,0,0-2.25-4,4.63,4.63,0,0,0-3.7-.87c-.91.2-1,1.76-1,2.5,0,.44.13,2.64,1,2.5,1.79-.3,3.63-.69,4.82-2.18a6.87,6.87,0,0,0,.39-7.21,6.34,6.34,0,0,0-4.43-2.54,8.1,8.1,0,0,0-5,.87c-1.26.65-.78,5.51.53,4.82Z"/><path class="cls-1" d="M232.11,219.86a7.63,7.63,0,0,0-4.79,2.39,9.29,9.29,0,0,0-2.33,6.31c-.1,3.94,2,8.53,6.42,8.77a6.32,6.32,0,0,0,5.26-2.35,3.17,3.17,0,0,0,.46-1.49,5.44,5.44,0,0,0-.1-1.93c-.17-.66-.67-1.75-1.37-.9a5.32,5.32,0,0,1-7.16.55,5,5,0,0,1-1.17-1.43c-.14-.23.1.21,0,0,0-.08-.07-.15-.1-.22l-.18-.46c.13.33,0,0,0-.13s-.1-.33,0,0,0,0,0-.11a2.11,2.11,0,0,0,0-.25c0,.06.13.59,0,.18,0-.06,0-.4,0,0s0,.09,0,0c.06-.44-.11.38,0-.05a2.1,2.1,0,0,0,.06-.24c.07-.27-.12.29,0,0s.12-.31.19-.46,0,0,0,0l.16-.29a6.79,6.79,0,0,1,.65-.87,6.39,6.39,0,0,1,4.07-2c.91-.09,1-1.84,1-2.5a4.87,4.87,0,0,0-.29-1.77c-.12-.27-.35-.77-.71-.73Z"/><path class="cls-3" d="M147.8,57.3c-.76-6.65-1.55-13.3-2.27-20-.62-5.74-1.22-11.18.74-16.75l-1.82.59a44,44,0,0,1,8.39,15.15c.3,1,.95,2.61,2,1.34a70.78,70.78,0,0,0,11.41-18h-2.12c2.47,5.63,2.16,11,2,17.05-.13,6.82-.05,13.59,2,20.15.44,1.41,1.61,1.22,2.12,0a8.06,8.06,0,0,0,0-5.31,30.08,30.08,0,0,1-1.17-7.76c-.1-3.22,0-6.43.06-9.65.09-6.69-.24-13.58-3-19.78-.58-1.31-1.52-1.37-2.12,0a66.89,66.89,0,0,1-10.8,16.84l2.05,1.34A50.91,50.91,0,0,0,146,14.7c-.72-.86-1.49-.35-1.82.59-2.51,7.16-2.42,14.76-1.69,22.23.71,7.27,1.63,14.52,2.45,21.77.09.77.55,3.34,1.85,2.62s1.17-3.51,1.05-4.61Z"/></g><g id="Layer_29" data-name="Layer 29"><path class="cls-1" d="M76,114.62q-2.48,8-4.19,16.2l5.6,3.79c0-.32,0-.65,0-1,0-1.67-.11,1.27,0,.29.06-.73.11-1.45.2-2.18s.24-1.29.27-1.92l-.14.83c0-.24.09-.48.14-.72s.17-.79.26-1.18a16.56,16.56,0,0,0-.24-8.33c-.29-1-1.6-4.05-3.15-2.69-6.92,6-7.73,17.6-4.54,25.72a4.24,4.24,0,0,0,1.32,1.93,1.35,1.35,0,0,0,1.6,0c4.47-1.54,7.51-5.71,9.29-9.92,2.45-5.83,2.77-12.35,2.87-18.58a13.35,13.35,0,0,0-.88-5.3c-.41-.91-1-2.12-2.12-2.2a12.51,12.51,0,0,0-12.1,7.26c-1.57,3.21-1.8,7-2.24,10.45l-1.14,9.17c-.57,4.6-1.74,9.73.2,14.13.84,1.9,2.16,3,4.17,2.1,1-.48,1.73-1.39,2.68-1.95s1.78-.9,2.61-1.45a8.48,8.48,0,0,0,2.85-3.51c2.28-4.81,1.7-11.42-.85-16a18,18,0,0,0-2.89-3.68c-1-1-2.18-2.13-3.72-1.82S69,125.79,68,127a16.64,16.64,0,0,0-2.6,4.86L70.08,141l2.17-12.22c.51-2.85.78-6.35-.47-9.09a4.77,4.77,0,0,0-1.32-1.93,1.66,1.66,0,0,0-2.31.76c-2.9,4.64-3.63,10-4.45,15.33l-1.15,7.39c-.52,3.41-1.12,6.74-.54,10.2.28,1.63.81,4.2,2.43,5.07,1.17.62,2.31,0,3.45-.43a17.7,17.7,0,0,0,4.93-2.43C77,150.43,78,145,79,140.16l3.39-15.8c.6-2.79.75-6.41-.47-9.09a4.64,4.64,0,0,0-1.32-1.93,1.67,1.67,0,0,0-2.31.75c-2.92,4.66-3.08,10.67-2,15.91A21.66,21.66,0,0,0,81,139.53a35.68,35.68,0,0,0,15.51,10.56c1.1.37,1.54.18,2.31-.76,2-2.5,2.51-6.24,2.5-9.35a22.16,22.16,0,0,0-1.74-8.73,58.92,58.92,0,0,0-5.85-9.68,49.38,49.38,0,0,0-7.26-8.48c-.62-.56-1.25-1.09-1.9-1.6a2.29,2.29,0,0,0-3,0,7.11,7.11,0,0,0-2.28,3.75,19.36,19.36,0,0,0-.67,7.61c.52,5.23,3.66,10.06,7.15,13.86.67.72,1.31,1.36,2.32.76S89.72,135,89.94,134a17,17,0,0,0,.3-5.78c-.19-1.41-.38-3.4-1.38-4.48a34.12,34.12,0,0,1-3.44-4.41c-.47-.72-.91-1.46-1.31-2.22.54,1,0-.14-.13-.36q2.67,5.94-.75,9.18a1.71,1.71,0,0,1,.55-.29l-.79.26.31-.06-.8-.26a28.43,28.43,0,0,1,2.55,2.1c.46.42.9.85,1.33,1.3s-.33-.37.13.14l.55.62a58.24,58.24,0,0,1,4.15,5.47q1.86,2.73,3.59,5.57c.13.22.26.44.38.66.32.55.17.13-.06-.13a3.57,3.57,0,0,1,.4.89c.07.19.36,1.06.09.15-.39-1.28.15,1.09-.12-.56a12,12,0,0,1-.11-2.47,31.27,31.27,0,0,1,.72-3.25c.19-.32.2-.37.05-.13a4.46,4.46,0,0,1-.33.43l2.31-.76a34.64,34.64,0,0,1-12.54-7.48c-.4-.37-.79-.75-1.16-1.14.4.42-.18-.2-.25-.28s-.33-.38-.49-.58c-.36-.44-.71-.9-1-1.38-.18-.27-.35-.54-.52-.82-.06-.11-.49-.87-.16-.26s-.14-.31-.2-.45-.19-.48-.28-.71c-.41-1,.21,1,.09.27,0-.25-.24-1.17,0,0a4.27,4.27,0,0,1,.13,1.18c0,.76,0,.85,0,.28a14.81,14.81,0,0,1-.26,2.4c.16-.81-.1.29-.17.51.39-1.1-.58.9.06-.11l-4.11-10.27q-1.91,8.86-3.8,17.73c-.14.65-.27,1.29-.43,1.94-.06.27-.15.55-.21.82-.17.73.46-1.14,0-.1l-.33.78c.41-1,0-.13-.12.1a7.3,7.3,0,0,1-.6.75c.29-.3.15-.16-.09,0A21.26,21.26,0,0,1,65.21,142l.8-.27a1.33,1.33,0,0,1-.65.1l.8.27a.68.68,0,0,1-.42-.27l1.32,1.93c2,3.83.26,8.09.75,4.92l.23-1.47.45-3,.92-5.91c.14-.94.29-1.88.44-2.82.2-1.34-.31,1.52,0,.09.09-.42.17-.85.26-1.27s.21-.84.31-1.26c.28-1.1-.32.78,0,.1.17-.39.34-.79.48-1.19s.11-.26-.13.22c.14-.25.28-.49.44-.73L67.07,121.2,64.9,133.42c-.56,3.15-.74,6.75.77,9.68.35.67.92,1.61,1.82,1.61,1.07,0,1.84-1.38,2.12-2.2a12.46,12.46,0,0,1,.64-1.56c-.56,1.1.35-.43.49-.62a3.4,3.4,0,0,1,1.85-1.51l-.79.27a2,2,0,0,1,1,0l-.8-.27a5.26,5.26,0,0,1,1.64,1.26c-.39-.4.1.13.23.29a9.75,9.75,0,0,1,.64.8c.18.24.62.69.67,1-.26-.54-.32-.64-.17-.3s.13.23-.16-.63l-.27-2.72a7.21,7.21,0,0,1,.73-4.18c.2-.36.19-.37,0,0,.34-.32.39-.39.17-.19-.5.26-1,.7-1.47,1s-1.09.56-1.62.86c-1.09.63-1.93,1.69-3.11,2.14l.79-.27a.92.92,0,0,1-.52,0l.79.27a.77.77,0,0,1-.43-.3l1.33,1.92-.15-.35.77,3.31,0-.39v4c.48-5.34,1.32-10.68,2-16l.24-2c0-.29.09-.58.12-.88.1-.88-.34,1.34-.07.49,0-.16.26-1.15.06-.31s0,0,.11-.13c.22-.58-.52.76-.13.28.14-.17.25-.38.39-.55s.48-.65.18-.27.16-.15.24-.22A9.53,9.53,0,0,1,76,126a11.36,11.36,0,0,1,2.62-1.28l-.79.26a11.88,11.88,0,0,1,4.43-.55l-3-7.5c0,1-.15,2.12-.08,3.16.07-1.25.08-1.46,0-.65,0,.3,0,.6-.07.9,0,.45-.09.9-.14,1.34l-.12.89c.19-1,.21-1.21.08-.47-.1.44-.19.88-.29,1.31l-.24.87c.26-.81.27-.89,0-.24-.16.4-.31.8-.48,1.2-.54,1.21.39-.55-.15.33-.23.37-.45.74-.69,1.11s-.51.7-.78,1l-.48.57c.25-.27.28-.3.08-.09a12.1,12.1,0,0,1-4.48,2.76l2.92,1.93a5.26,5.26,0,0,0-.25-.66c.1.18.42,1.31.19.5s.09.59.11.75c-.15-1,0,.82,0,.94a2.05,2.05,0,0,0,0-.7c0,.09-.15,2,0,.93s-.16.63-.15.75a2.93,2.93,0,0,1,.21-.86c.16-.72-.46,1.18-.14.51.1-.21.17-.44.26-.66s.48-.75.08-.2,0,0,.14-.18a10.29,10.29,0,0,1,.82-1.14c.06-.07.55-.59.23-.28s.43-.36.41-.35l-3.38-11a63.78,63.78,0,0,0-1.54,13.42,14.84,14.84,0,0,0,.64,4.54,4.78,4.78,0,0,0,1.56,2.69c1.94,1.18,3.11-2.14,3.39-3.45q1.71-8.19,4.18-16.2a15.62,15.62,0,0,0,.3-5.78,9.63,9.63,0,0,0-1.38-4.48c-2.12-2.63-3.54.85-4.1,2.69Z"/><path class="cls-4" d="M64,144.34a137.76,137.76,0,0,1-18.09,24.39c-.71.76-.58,2.49-.35,3.42.17.72.64,1.68,1.36.89A137.69,137.69,0,0,0,65,148.66a4.77,4.77,0,0,0,.36-3.42c-.12-.52-.78-1.9-1.37-.9Z"/><path class="cls-4" d="M67.07,150.25l-3.92,8.36a5.37,5.37,0,0,0,0,3.54c.13.29.32.73.7.73s.58-.46.71-.73l3.93-8.36a5.55,5.55,0,0,0,0-3.54c-.13-.29-.33-.73-.71-.73s-.58.46-.71.73Z"/><path class="cls-4" d="M96.84,140.07c3.49,3.66,5.7,8.38,8.82,12.34A60.43,60.43,0,0,0,116.37,163c.8.61,1.19-1.35,1.23-1.75.1-.89.11-2.45-.7-3.08a57.5,57.5,0,0,1-10.71-10.66c-3.06-4-5.33-8.56-8.82-12.22-.7-.74-1.19,1.45-1.23,1.74a3.9,3.9,0,0,0,.7,3.08Z"/><path class="cls-4" d="M92.65,146.17a50.64,50.64,0,0,1,6,11.05c.11.26.35.73.71.73s.61-.47.71-.73a5.19,5.19,0,0,0,0-3.54,54.81,54.81,0,0,0-6.43-11.82c-.64-.89-1.24.29-1.37.89a4.66,4.66,0,0,0,.36,3.42Z"/><path class="cls-1" d="M106.76,103.46a98.81,98.81,0,0,0,1,14.07c.07.47.38,2.27,1.23,1.75s.81-2.31.7-3.08c-.31-2.17-.55-4.36-.7-6.55-.13-1.86-.2-4-.2-6.19,0-.59-.09-2.5-1-2.5s-1,2-1,2.5Z"/><path class="cls-1" d="M99.59,104.82c4.92-.32,9.86-.39,14.79-.23.9,0,1-1.93,1-2.5s-.08-2.46-1-2.5c-4.93-.16-9.87-.09-14.79.23-.91.06-1,1.87-1,2.5s.1,2.56,1,2.5Z"/><path class="cls-1" d="M117.59,110.72a76.49,76.49,0,0,0,.84,8.53c.08.52.17,1.42.7,1.74s.83-.25,1-.64c.32-.9.64-1.79,1-2.67.19-.47.38-.94.59-1.4.08-.17.16-.34.25-.51l.16-.34c0,.11,0,.08.06-.11A16,16,0,0,1,123.7,113c.17-.21.49-.72.76-.8s.66.33.89.52A9.54,9.54,0,0,1,127,114.4a10.71,10.71,0,0,1,1.21,2,12,12,0,0,1,.44,1.13c.08.23.08.22,0,0,0,.11.07.22.1.33l.15.68c.12.51,0-.4,0,.08,0,.23.05.46.07.69s0,.23,0-.14v.34c0,.23,0,.47,0,.7,0,.58.11,2.5,1,2.5s1-2,1-2.5a15.8,15.8,0,0,0-3-10.19,13.24,13.24,0,0,0-1.65-1.78c-.57-.52-1.37-1.34-2.2-.94a3.65,3.65,0,0,0-.95.89c-.29.32-.57.66-.83,1a16.84,16.84,0,0,0-1.28,2.06,41.55,41.55,0,0,0-2.32,5.56l1.67,1.11c-.2-1.27-.37-2.54-.5-3.82-.07-.62-.12-1.24-.17-1.86l-.06-.87s0-.67,0-.33,0-.33,0-.32a5.26,5.26,0,0,0-.29-1.77c-.11-.26-.35-.73-.71-.73-.88,0-1,2-1,2.5Z"/><path class="cls-1" d="M148.44,94.74l-7.43.74c-2.44.24-5,.26-7.43.73s-1.31,4.66-1,6.3l1.41,7.23c.18,1,.26,2.45,1.1,3.12.65.51,1.59.28,2.35.35a8.31,8.31,0,0,1,5,2.34,7,7,0,0,1,.88,1.08,11.9,11.9,0,0,0,.58,1.13c.27-1.16.26-1.52-.05-1.07a1.63,1.63,0,0,1-.39.35,3.78,3.78,0,0,1-1.11.53c-1.95.6-4.22.48-6.24.63-1.47.1-1.36,5.09,0,5,1.76-.13,3.56-.15,5.3-.43a5.26,5.26,0,0,0,3.26-1.54c2.31-2.66,1.13-7.34-1-9.74a9.49,9.49,0,0,0-3.32-2.5,10.35,10.35,0,0,0-2.09-.66,5.11,5.11,0,0,0-2.19-.14l-.28,0c.17.55.19.53.05,0s-.18-.91-.27-1.36l-.52-2.71c-.36-1.84-.9-3.73-1.08-5.59l-.26,2.43.11-.27-.44.64a4.59,4.59,0,0,1,1.53-.18l1.86-.19,3.95-.39,7.66-.76c1.5-.15,1.33-5.13,0-5Z"/><path class="cls-1" d="M168,89.54a24.64,24.64,0,0,0-3.84,9.37,48.72,48.72,0,0,0-1.09,11c.14,6.61,2.07,13.69,7.65,17.78.81.59,1.19-1.34,1.23-1.75.1-.87.12-2.48-.7-3.08-4.27-3.12-6.15-8.25-6.19-13.41s.81-11.24,4-15.63a4.56,4.56,0,0,0,.36-3.42c-.14-.61-.71-1.81-1.37-.9Z"/><path class="cls-1" d="M183.43,88.79a42.21,42.21,0,0,0-2.65,4.74,4.4,4.4,0,0,0-.29,1.76,4.64,4.64,0,0,0,.29,1.77c.12.26.34.77.71.73s.55-.42.7-.73.34-.68.52-1l-.21.39c.6-1.14,1.24-2.25,1.94-3.32a3.46,3.46,0,0,0,.46-1.5,5.38,5.38,0,0,0-.1-1.92l-.15-.51a1.39,1.39,0,0,0-.45-.64.55.55,0,0,0-.77.25Z"/><path class="cls-1" d="M191.52,88.22l-4.77,9.19a4.88,4.88,0,0,0-.36,3.42A1.82,1.82,0,0,0,187,102a.55.55,0,0,0,.77-.25l4.77-9.2a4.92,4.92,0,0,0,.35-3.42,1.91,1.91,0,0,0-.59-1.15.54.54,0,0,0-.77.26Z"/><path class="cls-1" d="M201.26,97.79a54.7,54.7,0,0,1,6,20.56c.05.58.34,2.14,1.23,1.75s.75-2.41.69-3.08a62.16,62.16,0,0,0-6.91-23.55c-.54-1-1.25.42-1.37.89a5,5,0,0,0,.36,3.43Z"/><path class="cls-1" d="M193.65,99.58,213.19,94c1.55-.44,1.07-5.3,0-5l-19.54,5.57c-1.56.44-1.07,5.31,0,5Z"/><path class="cls-1" d="M220.42,103.85c-4.08,2.24-5.8,7.7-4.64,12.07.48,1.77,1.59,3.9,3.68,4s3.31-1.8,3.91-3.43a12.19,12.19,0,0,0,.66-4.36c0-.69,0-1.37-.06-2.06v-.41c0-.11,0-.62,0-.29a3.3,3.3,0,0,1,.13-.75l-1.57.51a32.52,32.52,0,0,0,8.57,10.64c.78.63,1.19-1.36,1.23-1.75.09-.92.11-2.42-.7-3.07a29.24,29.24,0,0,1-7.69-9.36c-.18-.35-.37-.8-.84-.68s-.63.8-.73,1.19a16.1,16.1,0,0,0-.38,4.38c0,.6,0,1.19.05,1.79a2.94,2.94,0,0,1,0,.43c0,.26,0,.26,0,0,0,.13-.06.26-.09.39.1-.33-.1.21-.13.25-.19.42.08-.07-.17.32a3.12,3.12,0,0,1-.8.86,2.13,2.13,0,0,1-2.08.25,2.22,2.22,0,0,1-.8-.62,2.15,2.15,0,0,1-.48-.87c.12.35,0-.18-.05-.26.05.27.05.28,0,0,0,.34,0,.37,0,.09l0,.22c0-.15,0-.3.05-.44-.06.44.07-.25.08-.27a1.49,1.49,0,0,1,.16-.44,3.38,3.38,0,0,1,.22-.52,7.33,7.33,0,0,1,.73-1.11,7.16,7.16,0,0,1,2.28-1.88c1.25-.68.75-5.52-.54-4.82Z"/><path class="cls-1" d="M224,106.15,221,103.21a.34.34,0,0,0-.39,0,.57.57,0,0,0-.38.3,2.1,2.1,0,0,0-.28.65,3.89,3.89,0,0,0-.18.85,5.64,5.64,0,0,0,.1,1.92l.16.51a1.5,1.5,0,0,0,.44.64l2.92,2.94a.34.34,0,0,0,.4,0,.53.53,0,0,0,.37-.3,1.92,1.92,0,0,0,.28-.64,3.15,3.15,0,0,0,.18-.85,5.68,5.68,0,0,0-.1-1.93l-.16-.51a1.35,1.35,0,0,0-.44-.64Z"/><path class="cls-1" d="M239.41,102.49c-3.21.12-5.28,2.77-5.72,5.78a10.18,10.18,0,0,0,.63,5.4c.55,1.28,1.69,2.92,3.26,2.85a9.93,9.93,0,0,0,4.08-1.37,5.62,5.62,0,0,0,2.53-3.72,8.85,8.85,0,0,0-3.58-9.47c-.74-.51-1.12,1.05-1.18,1.45a4.62,4.62,0,0,0,.41,3.12c1.79,2.83,3.75,6.26,3.75,9.59a8.12,8.12,0,0,1-1,3.84c-.41.71-2.45,3.66-3.47,2.23-.64-.9-1.22.31-1.36.9a4.61,4.61,0,0,0,.35,3.42c1.62,2.27,4,0,5.07-1.58a14.63,14.63,0,0,0,2.34-7.2c.42-5.67-1.69-10.81-4.67-15.52l-.77,4.57a6.91,6.91,0,0,1,1.95,1.86c.08.11.31.71.39.73-.28-.08.29-.49-.1-.12a6.48,6.48,0,0,1-1.85,1.42,10.65,10.65,0,0,1-2.53.8,1.91,1.91,0,0,1-2.05-1.07,1.7,1.7,0,0,1-.3-.62s0,.21,0,0c.4-1.5,2.43-2.29,3.79-2.34s1.39-5,0-5Z"/><path class="cls-1" d="M250.75,112.59l1.14-4.66c.25-1,.37-2.24,1.39-2.82a1.83,1.83,0,0,1,1.41-.19c.51.2.51.59.63,1a27.22,27.22,0,0,1,.78,4.18c.11,1,.86,2.7,1.67,1.11a17.36,17.36,0,0,1,2.62-3.74,17.72,17.72,0,0,1,1.67-1.57,5.92,5.92,0,0,1,1.9-1.34c.22,0,.26,0,.45.09-.06,0,.1.21,0,.09s.06.27.06.29c.17.82.3,1.65.41,2.48a37.44,37.44,0,0,1,.28,5.4c0,.61.09,2.46,1,2.5s1-2,1-2.5a47.56,47.56,0,0,0-.44-7.35,29,29,0,0,0-.65-3.59c-.24-.85-.63-2-1.52-2.31s-1.77.41-2.45.93a18,18,0,0,0-2.17,1.93,20.56,20.56,0,0,0-3.62,5.15l1.67,1.11a34,34,0,0,0-1.18-6.09c-.48-1.64-1.46-3.34-3.43-2.72-1.76.56-2.46,2.42-2.91,4-.56,2-1,4-1.49,6a4.5,4.5,0,0,0,.36,3.42c.66.91,1.22-.3,1.37-.89Z"/><path class="cls-1" d="M273.74,109.64c3.52-.57,8,.63,10.78-2.24a7.65,7.65,0,0,0,1.82-6.18,4.88,4.88,0,0,0-2.82-4.29,6.45,6.45,0,0,0-5.08.44,34.28,34.28,0,0,0-4.73,2.56,6.57,6.57,0,0,0-3,5.06,9.66,9.66,0,0,0,1.56,6.47,15.82,15.82,0,0,0,4.41,4.06c2.11,1.31,4.26.34,6.19-.79,1.25-.73.7-5.55-.53-4.82s-2.81,1.65-4.35,1.18a10.38,10.38,0,0,1-3.27-2.37,10.05,10.05,0,0,1-1.3-1.39,5.57,5.57,0,0,1-.52-.78,1.6,1.6,0,0,1-.1-.23,3.54,3.54,0,0,0-.13-.36c-.14-.48,0,.16,0,.36,0,.38,0-.06,0,0l0-.06a4,4,0,0,1,1.29-1.3,32.67,32.67,0,0,1,3.65-2.07,8.53,8.53,0,0,1,4.08-1.32,4.12,4.12,0,0,1,1.47.27,3.57,3.57,0,0,1,1.3,1c.14.16,0,.05,0,0a3.78,3.78,0,0,0-.08-.56c0-.21.2-.8,0-.41a3.3,3.3,0,0,1-.86,1.14c-2.7,2.2-6.64,1.13-9.81,1.64-.92.15-1,1.8-1,2.5,0,.44.12,2.64,1,2.5Z"/><path class="cls-1" d="M288.64,102.9a34.19,34.19,0,0,1-1.05,9.45l1.86,1.26v-.91c0-.22,0-.27,0,0,0-.16,0-.31,0-.46q0-.51.12-1c0-.38-.06.31,0-.07,0-.15.05-.3.08-.45a15,15,0,0,1,1.07-3.28,16.78,16.78,0,0,1,4.26-5.72l-.78-.25a14.16,14.16,0,0,1,2.72,4.9c.06.22.12.44.17.67s.07.29.1.44l0,.15q0-.22,0,.15c0,.15,0,.31,0,.46s.05.45.07.68c-.05-.55,0,.25,0,.36s0,.91,0,.36c0,.23,0,.45-.06.68,0,.08-.14.94-.06.53a4.65,4.65,0,0,0,.35,3.42c.65.88,1.26-.27,1.37-.89,1-5.61,0-11.78-3.76-16.23-.16-.19-.48-.5-.77-.25a21.61,21.61,0,0,0-7,16.74c0,.63.05,2,.74,2.41s1-.69,1.13-1.14a45.59,45.59,0,0,0,1.32-12c0-.62-.08-2.46-1-2.5s-1,2-1,2.5Z"/><path class="cls-1" d="M307.21,80.48a241.58,241.58,0,0,0-.17,29.23c0,.58.36,2.13,1.23,1.74s.74-2.39.7-3.07a222.2,222.2,0,0,1,.16-26.57c.06-.78.18-2.64-.69-3.08s-1.2,1.25-1.23,1.75Z"/><path class="cls-1" d="M305,96.1a20.83,20.83,0,0,1,6.73-1c.36,0,.6-.47.71-.73a5.52,5.52,0,0,0,0-3.53c-.13-.29-.33-.73-.71-.74a20.83,20.83,0,0,0-6.73,1,1,1,0,0,0-.7.73,4.65,4.65,0,0,0-.3,1.77,4.41,4.41,0,0,0,.3,1.76c.1.22.37.84.7.74Z"/><path class="cls-1" d="M319.48,97.79c-2.7-.11-4.1,2.76-4.29,5.07a9.12,9.12,0,0,0,3.06,7.85,10.88,10.88,0,0,0,3,2,2.82,2.82,0,0,0,3.12-1c1.85-1.94,2.29-5,1.91-7.57a8.5,8.5,0,0,0-4.61-6.57c-.79-.39-1.1.94-1.18,1.44-.15.9-.22,2.38.41,3.13q4.44,5.27,9.14,10.31c.71.75,1.21-.18,1.37-.9a5.45,5.45,0,0,0,.1-1.93,2.76,2.76,0,0,0-.46-1.49q-4.69-5-9.14-10.31l-.77,4.57a6.86,6.86,0,0,1,2.31,1.71,5.54,5.54,0,0,1,.73,1.06l.19.49c0,.14,0,.14,0,0,.06.27.07.28,0,0,0,.25,0,.28,0,.09s0-.17,0,.08c0-.32,0-.33,0,0,0-.22,0-.25,0-.08s-.05.2-.08.3c.05-.18,0-.15,0,.08-.27.54.14-.17-.17.35a2.47,2.47,0,0,1-2.14,1.41,3.43,3.43,0,0,1-1.35-.67c-.46-.3-.92-.61-1.35-1a6.8,6.8,0,0,1-1.83-2,3.75,3.75,0,0,1-.28-.65c.05.12,0,.07,0-.18a1,1,0,0,1,0,.34c0,.07-.07.43-.05.46s.16-.31.18-.34a2.48,2.48,0,0,1,2.21-1.09c.9,0,1-1.94,1-2.5s-.08-2.46-1-2.5Z"/><path class="cls-1" d="M340.94,93.16a9.79,9.79,0,0,0-6.26,3.52,6.09,6.09,0,0,0-.43,5.42,8.42,8.42,0,0,0,2.06,2.88,24,24,0,0,0,5.44,3.63c.95.54,1.9,1.08,2.8,1.71.4.28.8.59,1.18.91a3.43,3.43,0,0,1,.55.59,1.81,1.81,0,0,0,.22.32c.21.23-.07-2.35.11-2.39-.28.06-.65.35-.95.44s-.7.2-1.06.28a16.62,16.62,0,0,1-2.33.37,17.18,17.18,0,0,1-4.69-.29c-1.18-.23-1.56,4.69,0,5a16.63,16.63,0,0,0,8.23-.41,3.45,3.45,0,0,0,1.51-.74,3.72,3.72,0,0,0,.94-2.07,6.49,6.49,0,0,0-1.05-4.94c-1.36-1.76-3.57-2.85-5.48-3.9a18.17,18.17,0,0,1-5.22-3.69,8.17,8.17,0,0,1-.52-.68l-.21-.31c-.64-.81-.85,2.89-.09,2.19A14.19,14.19,0,0,1,337,99.79a9.28,9.28,0,0,1,3.9-1.63c1.53-.27,1.23-5.21,0-5Z"/><path class="cls-1" d="M352.42,103.21c2.09.33,4.21.78,6.32,1a4.52,4.52,0,0,0,4.39-1.74,8.08,8.08,0,0,0,.41-7,5.17,5.17,0,0,0-3.94-3.12c-3.94-.69-7.67,2.81-8.55,6.4a14.87,14.87,0,0,0,2.66,12,7.62,7.62,0,0,0,4.66,3.25,4.9,4.9,0,0,0,4.92-2.48,4.81,4.81,0,0,0,.36-3.42c-.13-.51-.79-1.9-1.37-.89-1.42,2.44-4.39,2.19-6.33.56a9.52,9.52,0,0,1-2.28-3,10.67,10.67,0,0,1-.73-1.79q-.09-.33-.15-.66s-.13-.78-.08-.45a1.64,1.64,0,0,1,.14-.87,4.32,4.32,0,0,1,1-1.54,7.5,7.5,0,0,1,3.76-2.12,4.59,4.59,0,0,1,3.69.71,2.79,2.79,0,0,1,.54.49c.1.12.22.46.26.34a2.72,2.72,0,0,0,0-.64c-.07-.23,0-.09-.17.13-.94,1.07-2.72.87-4,.7-1.86-.25-3.71-.57-5.56-.86-1.24-.19-1.54,4.76,0,5Z"/><path class="cls-1" d="M368.93,80.14a36.61,36.61,0,0,0,2.54,5.94.55.55,0,0,0,.77.25,2,2,0,0,0,.6-1.15,5,5,0,0,0-.36-3.42c-.06-.11-.23-.55,0-.07,0-.1-.1-.19-.14-.28s-.22-.43-.32-.65c-.22-.46-.42-.91-.61-1.38-.39-.91-.73-1.83-1-2.77-.08-.27-.36-.74-.7-.74s-.61.47-.71.74a5.41,5.41,0,0,0,0,3.53Z"/><path class="cls-1" d="M373.14,77.7A34.41,34.41,0,0,0,377,83c.21.25.43.46.77.26a2,2,0,0,0,.59-1.15,5.45,5.45,0,0,0,.1-1.93,2.84,2.84,0,0,0-.46-1.49,35.52,35.52,0,0,1-3.87-5.33.56.56,0,0,0-.77-.26,2,2,0,0,0-.6,1.15,4.92,4.92,0,0,0,.36,3.42Z"/><path class="cls-1" d="M380.16,74.6c4.44,5.35,9.93,11.59,10.22,18.93.27,6.64-5.39,11.93-10.17,15.7-.81.64-.81,2.16-.7,3.07,0,.39.44,2.37,1.23,1.75a36.87,36.87,0,0,0,8.17-8.37,21.15,21.15,0,0,0,3.48-11.83c-.08-9.34-5.52-16.69-11.22-23.57-.69-.83-1.21.24-1.37.9-.22.93-.32,2.6.36,3.42Z"/></g><g id="Layer_30" data-name="Layer 30"><path class="cls-1" d="M82.88,158.89a119.38,119.38,0,0,0,14.65,40A121.5,121.5,0,0,0,125,231.25a114.09,114.09,0,0,0,20,13.28c1.4.73,1.26-3.11,1.13-3.67a74.56,74.56,0,0,0-4.65-13.71l-1.21,3.93a47.22,47.22,0,0,1,7.94,14.64l.71-4.27-16.37,2.22c-1.52.2-1.28,5.17,0,5l16.37-2.22c1.46-.2,1-3.4.71-4.27a50.4,50.4,0,0,0-8.35-15.42c-.59-.74-1.1,0-1.29.64a5,5,0,0,0,.07,3.29,68.61,68.61,0,0,1,4.34,12.69l1.13-3.67a115.84,115.84,0,0,1-32.71-25.53,119.12,119.12,0,0,1-21.9-35.39,111.26,111.26,0,0,1-6.26-22.42c-.13-.72-.69-1.66-1.37-.9s-.52,2.48-.36,3.42Z"/></g><g id="Layer_39" data-name="Layer 39"><path class="cls-3" d="M180.62,405.43c0,.32-.5,2.45-1.23,1.75a99,99,0,0,1-23.23-35.32,126.32,126.32,0,0,1-6.6-23.13l2.23-.21c4.13,20.17,13.1,39.45,28.13,53.83A3.81,3.81,0,0,1,180.62,405.43Z"/><path class="cls-3" d="M187.81,230.43c-11.88,4.71-21.05,14.33-27,25.46a72.18,72.18,0,0,0-4,8.84l-2.42-.61a78.93,78.93,0,0,1,6.9-15.22c6-10.14,14.9-18.9,26-23.29C188.75,225,189.07,229.94,187.81,230.43Z"/><path class="cls-3" d="M195.9,397.74c-.12.5-.8,1.9-1.37.9C188.4,387.77,182.29,376.78,178,365a95.53,95.53,0,0,1-4.88-18.52h.08l2.14.58c3,16.85,12,32.55,20.23,47.24A4.82,4.82,0,0,1,195.9,397.74Z"/><path class="cls-3" d="M211.16,246.59c-4.63,2.77-8.07,6.89-10.92,11.41a144,144,0,0,0-8.06,15.24l-.15.33-2.72-.68c1.08-2.4,2.21-4.79,3.38-7.15,4.38-8.84,9.15-18.72,17.94-24C211.85,241,212.4,245.85,211.16,246.59Z"/></g><g id="Layer_31" data-name="Layer 31"><path class="cls-4" d="M154.33,264.17a150,150,0,0,0-5.8,27.24c-.09.76-.15,2.64.7,3.07s1.17-1.25,1.23-1.74a137.78,137.78,0,0,1,5.29-25,5.25,5.25,0,0,0,0-3.54c-.35-.79-1.1-1-1.42,0Z"/><path class="cls-4" d="M183.7,286.43l-2.16,6.16a5.31,5.31,0,0,0-.3,1.77,4.49,4.49,0,0,0,.3,1.77c.11.26.34.77.7.73s.6-.42.71-.73l2.16-6.17a5.3,5.3,0,0,0,.29-1.77,4.59,4.59,0,0,0-.29-1.76c-.12-.27-.34-.78-.71-.74s-.59.42-.7.74Z"/><path class="cls-4" d="M174,345.05a23.86,23.86,0,0,1-2.56-11.31c.14-4.2,1.38-8.32,2.5-12.34.26-.94.31-2.63-.36-3.42s-1.19.24-1.37.9c-1.4,5-2.71,10.09-2.78,15.34a31.83,31.83,0,0,0,3.16,14.36c.41.85,1,.9,1.41,0a4.78,4.78,0,0,0,0-3.53Z"/><path class="cls-4" d="M150.34,336.89a45.26,45.26,0,0,0,.4-11.39c0-.48-.39-2.26-1.23-1.75a1.84,1.84,0,0,0-.59,1.15,6.52,6.52,0,0,0-.11,1.92c0,.2,0,.39.05.59s.06.82,0,.44,0,.27,0,.35,0,.38,0,.58c0,.81,0,1.62,0,2.42,0,.1,0,.2,0,.3s0,.12,0-.18a2.88,2.88,0,0,1,0,.58c0,.38-.06.77-.1,1.16-.09.83-.21,1.67-.34,2.5a5.16,5.16,0,0,0,.1,1.92,2,2,0,0,0,.59,1.15c.87.53,1.17-1.33,1.23-1.74Z"/></g></g></svg>