<svg xmlns="http://www.w3.org/2000/svg" viewBox="0 0 558.17 540.83"><defs><style>.cls-1{fill:#fff;}.cls-2{fill:#40c0f0;}</style></defs><g id="Layer_40" data-name="Layer 40"><g id="Layer_38" data-name="Layer 38"><path class="cls-1" d="M23.67,70.65c31,2.3,62.14,2.21,93.21.87,30.42-1.31,60.77-3.66,91.17-5.23,32.36-1.69,64.7-2,97.09-1.81q49.69.3,99.38,1.2t99.35,2.4l12.3.39c1.38,0,1.45-5,0-5q-49.66-1.57-99.35-2.56t-99.38-1.35c-32.57-.24-65.13-.31-97.69,1.16C189.16,62.1,158.63,64.45,128,66c-30.75,1.56-61.57,2.15-92.34.44q-6-.34-12-.79c-1.34-.1-1.49,4.89,0,5Z"/><path class="cls-1" d="M348.73,200.86c-19-16.37-44.08-22.22-68.62-22.85a243.94,243.94,0,0,0-38.28,2.34,341.3,341.3,0,0,0-43.21,8.29,186.58,186.58,0,0,0-41.1,15.87,101.61,101.61,0,0,0-32,26.72c-4.48,5.75-8.44,11.86-12.34,18s-7.85,12.35-11.45,18.72c-6.91,12.21-12.6,25.32-13.93,39.42-2.75,29.14,11.81,56.27,25.16,81.09,11.71,21.76,25,43.89,44.84,59.23a89.38,89.38,0,0,0,35.39,16.48c13.81,3.07,28.12,3.25,42.17,2a252.85,252.85,0,0,0,81.91-21c24.31-11,46.4-26.76,63.59-47.27a147.74,147.74,0,0,0,20.59-32.14c5.67-12.09,10.06-25.39,10.82-38.79a54.23,54.23,0,0,0-2.61-20.63l-.71,4.27c25.17,1.26,51.11-6.62,70.8-22.48,9.53-7.68,16.41-17.39,19.75-29.21s3.29-24.27,2.6-36.4c-.71-12.51-.91-26.17-7.11-37.41-5.69-10.32-15.65-18.29-25.74-24.06-20.39-11.66-45.41-15.18-68.1-8.85a91,91,0,0,0-52.07,38.87c-1.45,2.3-2.77,4.68-4,7.11-.59,1.15.22,5.86,1.42,3.53A89.3,89.3,0,0,1,392.93,160c21-8.29,45-7.65,65.73,1a83.15,83.15,0,0,1,27.93,18.61,42.59,42.59,0,0,1,9.61,14.82c2.23,6.13,2.72,12.74,3.24,19.2.93,11.6,1.77,23.36,0,34.93a52.7,52.7,0,0,1-15.85,31c-17.33,16.4-41.87,25.36-65.51,26.22-3.06.11-6.11.07-9.17-.08-1.43-.07-.94,3.57-.7,4.27,4.56,13.4,1.11,28.11-3.53,41a137.39,137.39,0,0,1-17.16,32.67c-14.75,20.88-34.65,37.66-57,49.9-24.16,13.22-50.9,21.24-78,25.53-26.71,4.21-55.85,5.26-80.55-7.48-21.64-11.15-36.8-31-49-51.52-6.6-11.06-12.68-22.48-18.37-34-6.3-12.77-12.07-26.2-14.23-40.38s.32-28,6.16-41.14c5.68-12.76,13.48-24.6,21.09-36.27s16.31-22.69,27.82-31c11.26-8.15,24.09-14.07,37.16-18.67a264.12,264.12,0,0,1,42.83-10.71,329.83,329.83,0,0,1,38.23-4.59c23.83-1.28,49,.82,70.29,12.49a83.17,83.17,0,0,1,14.28,9.92c.76.67,1.18-1.39,1.23-1.74.11-.94.09-2.4-.7-3.08Z"/><path class="cls-1" d="M361.1,486.14q-.27,12.33.44,24.66c0,.58.35,2.13,1.23,1.74s.73-2.39.69-3.07c-.43-7.77-.53-15.55-.36-23.33,0-.59-.1-2.5-1-2.5s-1,2-1,2.5Z"/><path class="cls-1" d="M362.84,487c2.76-4.24,4.59-9.11,6.66-13.71L376,458.77a4.83,4.83,0,0,0,0-3.53c-.4-.89-1-.9-1.42,0l-6.33,14.07c-2,4.47-3.76,9.25-6.45,13.37a4.7,4.7,0,0,0-.36,3.42c.14.56.75,1.85,1.37.9Z"/><path class="cls-1" d="M362.1,480.24l-7.3-13.33c-2.36-4.31-4.52-8.84-7.31-12.9-.63-.91-1.23.32-1.37.9a4.61,4.61,0,0,0,.36,3.42c2.79,4.05,4.95,8.59,7.31,12.9l7.3,13.33c.55,1,1.25-.41,1.37-.9a4.93,4.93,0,0,0-.36-3.42Z"/><path class="cls-1" d="M376.41,502.45a23.85,23.85,0,0,0,7.49-.32c2.08-.42,4.56-1,6.13-2.53,3.11-3,2.3-9.73-1.57-11.77s-8.91-.07-11.5,3a12,12,0,0,0-2.31,6.86,22.08,22.08,0,0,0,.5,8.34c.8,2.51,2.7,4.4,4.68,6.06,1.66,1.38,4.45,2.18,5.73-.15a4.87,4.87,0,0,0,.36-3.42c-.12-.49-.8-1.92-1.37-.89-.77,1.4-2.63.79-3.65.06a14.84,14.84,0,0,1-3.66-3.67c-.88-1.35-.78-2.87-.69-4.42a7.09,7.09,0,0,1,1.13-4.09,9.46,9.46,0,0,1,8.52-3.45,4.57,4.57,0,0,1,3.51,2.27c.07.15.1.35.18.48.31.48-.16-.57,0-.59-.07,0-.36.49-.42.55a4.35,4.35,0,0,1-.94.72,15.53,15.53,0,0,1-5.74,1.8,23.91,23.91,0,0,1-6.38.12c-1.29-.14-1.51,4.84,0,5Z"/><path class="cls-1" d="M403.62,489.68c-3,2.05-6.09,4.69-7.73,8A11.3,11.3,0,0,0,397,509c1.66,2.49,4.62,5.12,7.79,3.67,2.89-1.33,3.79-5.3,3.79-8.16,0-4.86-2.19-9.43-3.87-13.88-.34-.91-1.06-.86-1.42,0a5.22,5.22,0,0,0,0,3.53,125,125,0,0,0,5.05,12.41,37.78,37.78,0,0,0,3,5.36,22.57,22.57,0,0,0,1.89,2.37c.63.7,1.22,1.46,2.22,1.06,1.26-.51.93-5.41-.53-4.82-.38.15-1.62-1.65-1.83-1.92q-.76-1-1.44-2a40.06,40.06,0,0,1-2.56-4.85c-1.65-3.63-3.09-7.35-4.43-11.1l-1.42,3.53c.72,1.88,1.44,3.76,2.14,5.65a24.85,24.85,0,0,1,.8,2.49,10,10,0,0,1,.28,1.32s.07,1.21.09.77a3.82,3.82,0,0,1-5,3.48,7.71,7.71,0,0,1-3.48-3.06c-.5-.73-1.35-1.83-1.22-2.72a5.75,5.75,0,0,1,1.34-2.23A20.81,20.81,0,0,1,399.9,498a31.7,31.7,0,0,1,4.25-3.51c.83-.58.8-2.21.7-3.08-.05-.43-.42-2.31-1.23-1.74Z"/><path class="cls-1" d="M431.69,486.43a22.63,22.63,0,0,0-10.1,3.69c-3.42,2.35-2.17,7.19.11,9.92s5.32,4,8.29,5.69a7.89,7.89,0,0,1,3.58,3.34,2.81,2.81,0,0,0,.19.6c-.23-.28.26-.51-.07-.22a5.38,5.38,0,0,1-1.93,1.38,14.57,14.57,0,0,1-6.06.32,21.2,21.2,0,0,1-6.49-1.81c-1.37-.63-1.81,4.23-.53,4.82a21.91,21.91,0,0,0,11.16,2,6.57,6.57,0,0,0,4.33-1.76,7.22,7.22,0,0,0,1.57-5.08c-.05-3.87-2.11-6.69-5.4-8.54-3-1.72-6.49-3.08-8.43-6.18-.38-.61-.53-1.75-.5-.09,0,1.83-.2.85.27.72a3.93,3.93,0,0,0,.8-.55,22.73,22.73,0,0,1,2.64-1.47,21.4,21.4,0,0,1,6.57-1.81c1.5-.17,1.3-5.14,0-5Z"/><path class="cls-1" d="M445.26,463.19a186.21,186.21,0,0,1,4,47.5c0,.58.11,2.5,1,2.5s1-2,1-2.5a195.9,195.9,0,0,0-4.26-50c-.15-.7-.67-1.68-1.37-.9s-.55,2.51-.36,3.42Z"/><path class="cls-1" d="M438.94,478.28l12-.68c3.75-.21,7.57-.26,11.19-1.38,1.55-.48,1-5.32,0-5-3.62,1.12-7.44,1.17-11.19,1.38l-12,.68c-1.46.08-1.37,5.08,0,5Z"/><path class="cls-1" d="M346.58,486.45c-8.17,1.06-16.27-2.89-23.15-6.89-3.05-1.77-6.1-4-7.7-7.21a26,26,0,0,1-1.77-5.5c-.55-2.22-1.09-4.45-1.64-6.67a4.09,4.09,0,0,0-.17-.71c-.11-.52-.15-.32-.12.62-.31.76-.28,1,.08.79a10.58,10.58,0,0,0,1.46-.46,10.52,10.52,0,0,1,2.8-.19,9.93,9.93,0,0,1,5.57,2.24l.54-4.82a23.51,23.51,0,0,0-7.15-2.08,11.18,11.18,0,0,0-3.74,0,3.19,3.19,0,0,0-2.1,2,74.05,74.05,0,0,0-2.71,7.24c-.94,2.69-1.81,5.4-2.63,8.13a4.28,4.28,0,0,0,.36,3.42c.72.85,1.17-.25,1.37-.89,1.35-4.49,2.88-8.93,4.59-13.29.39-1,.56-1.54,1.74-1.68a13.06,13.06,0,0,1,3.12.13,21.51,21.51,0,0,1,6.61,1.9c1.5.7,1.49-4,.54-4.82a11.06,11.06,0,0,0-5.36-2.33c-1.74-.25-4.16-.19-5.69.81-2.19,1.43-1.22,5-.72,7.05.63,2.56,1.23,5.13,1.89,7.68,1.14,4.4,3,8.15,6.58,11a52.56,52.56,0,0,0,11.55,6.46c5,2.21,10.35,3.81,15.85,3.1,1.51-.2,1.28-5.17,0-5Z"/><path class="cls-1" d="M423.9,371.25c-4.31,1.94-9.58,4.38-11.78,8.84s-1.83,9.86-.33,14.36c1.35,4,4.22,7.85,8.58,8.73s8.67-1.62,9.33-6.12c.72-4.94-3.42-12.9-9.39-10.87-1.25.42-1,5.34.53,4.82a4.9,4.9,0,0,1,4.88,1.46,9.86,9.86,0,0,1,1.46,1.94,8.37,8.37,0,0,0,.59,1.2c.15.16-.08.29,0,0,.17-.49-.28.23-.31.28-1.68,2.5-5.3,2.94-8,2.09-5.41-1.73-8.9-9.82-5.71-14.76a13.56,13.56,0,0,1,4.47-3.87,53.89,53.89,0,0,1,6.15-3.26c1.27-.57.88-5.45-.53-4.82Z"/><path class="cls-1" d="M435,393c3.34-.14,7-.92,8.23-4.48,1.1-3.18.26-8.1-3.66-8.78-1.64-.29-3.07.79-4.21,1.82a8.37,8.37,0,0,0-2.74,4.42c-1,4.24.69,8.12,2.91,11.62.9,1.41,1.94,3,3.58,3.63a3.39,3.39,0,0,0,4.14-1.16,4.66,4.66,0,0,0,.36-3.42c-.14-.57-.74-1.84-1.37-.89a2.21,2.21,0,0,1-2.26.71,4.18,4.18,0,0,1-2.51-1.81c-1.25-1.66-2.76-4-3.11-5.83,0,0,0-.32,0-.14a.67.67,0,0,1,.08-.44,4.56,4.56,0,0,1,.78-1.18,7.82,7.82,0,0,1,2.93-2.24,3,3,0,0,1,2.64.42,2.74,2.74,0,0,1,.88.88c.06.1.09.28.17.36a3.91,3.91,0,0,1,0-1.4,6.65,6.65,0,0,1-.79,1.16,5.55,5.55,0,0,1-1.47,1A12,12,0,0,1,435,388c-.91,0-1,1.89-1,2.5s.09,2.54,1,2.5Z"/><path class="cls-1" d="M448.57,381.93a94.42,94.42,0,0,0-.86,15.12c0,.61.07,2.46,1,2.5s1-2,1-2.5c0-.31,0-.61,0-.91,0-.15,0-.3,0-.46,0,.29,0,.28,0,0,0-.54.09-1.07.16-1.59,0-.15.05-.3.07-.45,0,.22,0,.19,0-.08s.09-.45.14-.67.14-.59.22-.88c0,0,.19-.64.1-.36a13.7,13.7,0,0,1,3.15-5.45c.34-.34.7-.72,1.21-.52a3.07,3.07,0,0,1,1.13,1,8.21,8.21,0,0,1,1.53,2.66,12,12,0,0,1,.56,2.94c0,.32,0,.37,0,.16,0,.19,0,.37,0,.55s0,.55,0,.83c0,.74,0,1.47,0,2.21s.09,2.46,1,2.5,1-2,1-2.5c.09-4.87,0-10.54-3.65-14.26-.74-.76-1.67-1.46-2.73-.85a8,8,0,0,0-2.19,2.34,19.43,19.43,0,0,0-2.81,6.05,27.24,27.24,0,0,0-1,7.79h2a82.75,82.75,0,0,1,.79-13.79c.11-.79.14-2.6-.7-3.07s-1.17,1.3-1.23,1.74Z"/><path class="cls-1" d="M472.68,381.69a9.76,9.76,0,0,0-6.85,6,9.46,9.46,0,0,0,.1,6.81,11.25,11.25,0,0,0,3.24,4,5.38,5.38,0,0,0,4.26,1.26,7.46,7.46,0,0,0,4-2.19c2.86-2.95,2.78-7.77.72-11.15a13.57,13.57,0,0,0-8.48-5.85c-1.13-.27-1.57,4.63,0,5a12.86,12.86,0,0,1,6,3.36,7.82,7.82,0,0,1,1.85,2.67c.15.4.08.24.05.15s.15.42,0,.07c0-.09,0-.49,0,0,0-.1,0-.19,0-.29,0-.35,0,.09-.1.23a4.43,4.43,0,0,1-.47.72c-1.32,1.72-3.94,3-6,2a8,8,0,0,1-2.72-2.19,7.25,7.25,0,0,1-.95-1.34,1.73,1.73,0,0,1-.1-.24c-.27-.66-.07-.16-.05-.15v.06a1.62,1.62,0,0,1,0,.66c.05.1-.09.23,0-.11.64-2.24,3.23-4,5.43-4.55,1.55-.39,1.12-5.28,0-5Z"/><path class="cls-1" d="M483.57,398.35a26.47,26.47,0,0,1,5.74-12.6h-1c1.84,3.16,2,6.83,1.71,10.4-.08.83-.13,2.32.58,2.94s1.09-.46,1.25-1c1.41-4.95,2.88-10,5.94-14.19l-.77.25a14.14,14.14,0,0,1,4.92,6,10.26,10.26,0,0,1,.8,6.3c-.21,1-.33,2.56.36,3.42s1.23-.25,1.36-.9c1.51-7.15-.73-15.29-6.91-19.6-.29-.21-.59,0-.77.25-3.43,4.75-5.08,10.42-6.66,16l1.83,1.92c.5-5.46.18-11.19-2.63-16-.28-.48-.71-.36-1,0A32.15,32.15,0,0,0,481.64,397c-.11.76-.13,2.66.7,3.08s1.16-1.26,1.23-1.75Z"/><path class="cls-1" d="M511.49,391.62c2.56,0,5.12.08,7.68,0,2.09,0,3.75-.79,4.25-3,1-4.34-2.15-9.67-7.07-8.83-4.71.8-6.74,5.85-6.62,10.14a13,13,0,0,0,6.18,11.11,9.14,9.14,0,0,0,5.92,1.3,5.09,5.09,0,0,0,4.33-4c.23-1,.32-2.58-.36-3.42s-1.22.26-1.37.89c0-.16-.07.15-.14.25a2.23,2.23,0,0,1-.49.48,4.54,4.54,0,0,1-1.74.77,7.53,7.53,0,0,1-4-.32,9.94,9.94,0,0,1-6.05-5.86,6.82,6.82,0,0,1-.3-1.5,3.82,3.82,0,0,1,.42-1.64,6.18,6.18,0,0,1,2.82-2.74,5.2,5.2,0,0,1,3.91-.27,5.63,5.63,0,0,1,1.77,1,10.61,10.61,0,0,1,1,1.25v0q.15.75.12-.57c.1-1.47.22-.77-.15-.61a5.13,5.13,0,0,1-1,.41,12.21,12.21,0,0,1-2.49.14l-6.61,0c-1.41,0-1.44,5,0,5Z"/><path class="cls-1" d="M405.15,391.74a99.63,99.63,0,0,1-34.7-10.52,77.71,77.71,0,0,1-15.4-9.7A43.52,43.52,0,0,1,344.5,357c-2.94-6.13-4.89-12.74-4.68-19.58l-1,2.5a32.85,32.85,0,0,1,9.4,4.87l.53-4.82-11.14-6a.56.56,0,0,0-.77.25,74.94,74.94,0,0,0-6.32,11.48,4.91,4.91,0,0,0,0,3.54c.39.88,1,.9,1.42,0a69.81,69.81,0,0,1,5.91-10.71l-.77.26,11.14,6c1.35.73,1.6-4,.53-4.82a34.11,34.11,0,0,0-9.93-5.05c-.83-.27-1,2.25-1,2.5A48.52,48.52,0,0,0,341.53,357a53,53,0,0,0,9.87,16.34c4.33,4.66,9.84,8,15.38,11.05a109.81,109.81,0,0,0,17.41,7.69,96.42,96.42,0,0,0,21,4.66c1.3.14,1.51-4.84,0-5Z"/><path class="cls-1" d="M37.06,24.13a180.8,180.8,0,0,0,0,33.31c.06.58.35,2.15,1.23,1.75s.76-2.41.7-3.08a166.15,166.15,0,0,1,0-30.66c.07-.77.16-2.63-.7-3.07s-1.19,1.25-1.23,1.75Z"/><path class="cls-1" d="M37.1,26a6.34,6.34,0,0,1,5.42.72,6.51,6.51,0,0,1,2,2,6.32,6.32,0,0,1,.61,1.22s.19.58.13.36c0,.15.08.3.11.45s.06.29,0,.15,0-.1,0,.15,0,.3,0,.45c0-.44,0,.1,0,.25,0,.74,0-.5,0,.24,0,.27,0,.3,0,.08,0,.11,0,.22-.07.33a2,2,0,0,1-.16.45c-.05.1-.17.28-.23.38A3,3,0,0,1,44,34a8.24,8.24,0,0,1-2.75.86l-3.58.65c-1.53.27-1.21,5.22,0,5A32.06,32.06,0,0,0,43.8,39.2c2-.82,3-2.82,3.4-4.88C48,30,47,24.53,43.15,22a7.12,7.12,0,0,0-6-1c-1.56.51-1,5.34,0,5Z"/><path class="cls-1" d="M45,46.11c.76,4.65,1.59,9.8,4.78,13.48a3.46,3.46,0,0,0,1.25,1.1c.66.26,1.12-.14,1.56-.6.84-.85,1.67-1.72,2.44-2.64a15.08,15.08,0,0,0,3.37-6.53,11.24,11.24,0,0,0,0-5A3.57,3.57,0,0,0,56.07,43c-.51-.13-.8,1-.87,1.24a5.12,5.12,0,0,0,0,2.52c.86,2.84,1.8,5.64,2.86,8.41.24.64.5,1.28.75,1.91A7.12,7.12,0,0,0,59.7,59c.75.92,1.37-.18,1.55-.92a4.87,4.87,0,0,0-.4-3.58.67.67,0,0,0-.51-.34l-.06,0c-1.55.5-1,5.33,0,5l.06,0-.5-.34,0,.07-.49-2.16v.09l.73-2.41.08-.07.51.34a3.89,3.89,0,0,1-.43-1c-.19-.46-.38-.93-.56-1.4-.35-.89-.68-1.79-1-2.69-.64-1.76-1.24-3.55-1.78-5.34L56.07,48a1.19,1.19,0,0,1,.5.28s.33.45.15.22c.08.22.09.23,0,0q.09.39,0,0c0-.68-.06.2,0-.36,0,.15,0,.3-.05.45,0-.23,0-.21,0,.06s-.07.29-.11.43c0-.15,0-.11-.05.13A10.41,10.41,0,0,1,56,50.41a16.23,16.23,0,0,1-2,2.81c-.4.47-.81.94-1.24,1.39s-.72,1-1.13,1.13c-.63.26-1.67-1.6-2-2.07a13.78,13.78,0,0,1-1.3-2.81,24.68,24.68,0,0,1-.81-3q-.18-.84-.33-1.68c-.05-.3-.11-.59-.16-.89.07.42-.07-.44-.08-.52-.09-.5-.35-2.23-1.23-1.74s-.82,2.35-.7,3.07Z"/><path class="cls-1" d="M66.88,21.25a303.82,303.82,0,0,0-.2,39.11c0,.58.36,2.14,1.23,1.75s.74-2.4.7-3.08a282.39,282.39,0,0,1,.2-36.45c0-.78.17-2.63-.7-3.07s-1.2,1.25-1.23,1.74Z"/><path class="cls-1" d="M61.84,39.11a106.21,106.21,0,0,0,14.21-1.83c1.54-.3,1.2-5.23,0-5a106.21,106.21,0,0,1-14.21,1.83c-.91.06-1,1.88-1,2.5s.1,2.56,1,2.5Z"/><path class="cls-1" d="M85.44,24.17l1,34.55c0,.59.08,2.5,1,2.5s1-2,1-2.5l-1-34.55c0-.59-.08-2.5-1-2.5s-1,2-1,2.5Z"/><path class="cls-1" d="M80.63,42.88a67.09,67.09,0,0,0,21.63.2c1.52-.24,1.25-5.2,0-5a67.09,67.09,0,0,1-21.63-.2c-1.21-.21-1.55,4.73,0,5Z"/><path class="cls-1" d="M110.83,38.37a80.26,80.26,0,0,0-1.13,19.08c0,.52.39,2.21,1.23,1.74s.75-2.32.7-3.07a64.29,64.29,0,0,1,.93-15.23,4.7,4.7,0,0,0-.36-3.42c-.64-.88-1.26.28-1.37.9Z"/><path class="cls-1" d="M110.94,29.57c1.41,0,1.43-5,0-5s-1.43,5,0,5Z"/><path class="cls-1" d="M118.45,41q-.2,8.28-.1,16.58h2c-.09-5.35-.27-11.28,3.21-15.81.39-.52.89-.95,1.43-.36a10,10,0,0,1,1.17,1.9,24,24,0,0,1,1.77,4.06A21.27,21.27,0,0,1,129,55.48c-.06.78-.17,2.63.7,3.07s1.19-1.25,1.23-1.74a31.64,31.64,0,0,0-4.08-18.42c-.58-1-1.43-2.7-2.83-2.23-1.21.4-2,2-2.62,3a24.69,24.69,0,0,0-2.65,8.47,61.75,61.75,0,0,0-.4,9.9c0,.61.08,2.46,1,2.5s1-2,1-2.5q-.09-8.3.1-16.58c0-.62-.1-2.47-1-2.5s-1,2-1,2.5Z"/><path class="cls-1" d="M143.73,38.13a13.53,13.53,0,0,0-6.54,9.92,14.34,14.34,0,0,0,.65,6.47c.44,1.26,1.64,4,3.23,4.07s3.11-2.27,3.83-3.33a16.12,16.12,0,0,0,2.18-5,17.78,17.78,0,0,0-1-11.77c-.34-.72-.86-1-1.32-.2a5,5,0,0,0-.25,3.23c1.65,9.45,3.31,19,3,28.65a61.35,61.35,0,0,1-.62,7c-.22,1.47-.41,3.48-2,4.1-1.78.67-4.43-.12-6.09-.82a14.26,14.26,0,0,1-4.78-3.31c-.7-.73-1.2,1.45-1.23,1.75a3.83,3.83,0,0,0,.7,3.07,14.64,14.64,0,0,0,9.2,4.43,4.4,4.4,0,0,0,4.31-1.66,11.43,11.43,0,0,0,1.63-4.8c1.45-8.66,1.06-17.5,0-26.18-.64-5-1.5-9.88-2.36-14.8l-1.57,3a9.19,9.19,0,0,1-2.88,11.18c-1.85,1.33-3-3-2.61-4.35.69-2.58,2.84-4.58,5-5.93,1.24-.76.67-5.55-.53-4.82Z"/><path class="cls-1" d="M178,53.91c1.21-10.66,2.48-21.72,7.92-31.19l-1.37-.9a49.4,49.4,0,0,0,6.1,16.3c.41.69,1,.12,1.21-.39,1.87-5.12,3.75-10.27,6.62-14.92L197,21.32q1.53,15.46,2.59,31c0,.58.36,2.14,1.23,1.75s.75-2.4.7-3.08q-1.06-15.51-2.59-31c0-.44-.69-2.76-1.47-1.5-3,4.91-5.06,10.3-7,15.7l1.21-.39a43.57,43.57,0,0,1-5.38-14.5c-.09-.51-.79-1.9-1.37-.9-6,10.41-7.51,22.45-8.84,34.18-.09.77-.16,2.65.7,3.08s1.17-1.26,1.23-1.75Z"/><path class="cls-1" d="M207.2,37.76a20.19,20.19,0,0,0-.28,7.43,21.33,21.33,0,0,0,.89,3.69,9.78,9.78,0,0,0,1.39,2.89c.8,1,1.85.58,2.82.11a11.67,11.67,0,0,0,2.2-1.39,13.56,13.56,0,0,0,3.46-4.08,15.81,15.81,0,0,0,1.95-6.64l-2-.66a76.84,76.84,0,0,0,.25,8c.11,1.27.25,2.53.43,3.79.09.66.62,3.78,2,2.79.81-.59.81-2.19.69-3.08,0-.4-.42-2.33-1.23-1.74.38-.27.42.92.52.93a5.63,5.63,0,0,1-.11-.82c-.07-.47-.12-.95-.18-1.42-.1-1-.19-2-.26-3,0,0-.05-.81,0-.29l0-.71c0-.48,0-1,0-1.43,0-1,0-2.06,0-3.09,0-.6-.08-2.27-.86-2.46s-1.07,1.29-1.1,1.79c0,.24,0,.48-.06.72s0,.24,0,.36c.06-.31.06-.33,0-.07s-.1.47-.16.7l-.09.35c.07-.22.07-.22,0,0a10.39,10.39,0,0,1-1,2.2,11.66,11.66,0,0,1-3.72,3.74c-.49.31-1.92,1.33-2.49.88a3.16,3.16,0,0,1-.45-.9c-.11-.26-.22-.52-.31-.79l-.15-.4c-.07-.23-.09-.27,0-.1-.08-.28-.15-.55-.22-.83,0-.08-.17-.93-.1-.45,0-.21-.06-.42-.08-.63s-.07-1,0-.4c0-.28,0-.57,0-.85s0-.28,0-.43c0,.31,0,.32,0,0s.06-.56.1-.84c-.07.48.07-.37.09-.45a4.55,4.55,0,0,0-.36-3.42c-.65-.9-1.23.29-1.36.89Z"/><path class="cls-1" d="M226.42,16.74l1.19,31.64c0,.59.08,2.5,1,2.5s1-2,1-2.5l-1.19-31.64c0-.59-.08-2.5-1-2.5s-1,2-1,2.5Z"/><path class="cls-1" d="M220.65,30.6l18.09.61c1.38.05,1.46-4.95,0-5l-18.09-.61c-1.37-.05-1.45,4.95,0,5Z"/><path class="cls-1" d="M246,36.4a16.38,16.38,0,0,0-6,4.73c-2.09,2.62-3.47,6.25-2.09,9.54,1.12,2.67,4,3.27,6.58,2.55a10.66,10.66,0,0,0,3.72-1.65,5.92,5.92,0,0,0,2-3.82A19,19,0,0,0,248.33,37c-.12-.26-.34-.73-.71-.73s-.6.47-.71.73a5,5,0,0,0,0,3.54A92.72,92.72,0,0,0,254,53.18c.62.93,1.23-.33,1.37-.9a4.67,4.67,0,0,0-.36-3.42A85.88,85.88,0,0,1,248.33,37l-1.42,3.54a15.91,15.91,0,0,1,1.28,3.86s.06.42.08.53.12,1.08.06.62c0,.31,0,.34,0,.09,0,.28,0,.33,0,.13s0,.16-.08.24c-.53,1-2,1.57-3,1.94a7.43,7.43,0,0,1-3.89.52,3.31,3.31,0,0,1-2-1.14c-.53-.59,0-.12-.11-.11.6-.05-.27,1.48.15.6.12-.25.24-.48.38-.72a13.76,13.76,0,0,1,1.07-1.55,15,15,0,0,1,5.63-4.32c1.26-.57.87-5.45-.54-4.82Z"/><path class="cls-1" d="M265.89,19.4a158.12,158.12,0,0,0-3,31.9c0,.58.08,2.5,1,2.5s1-2,1-2.5a146.36,146.36,0,0,1,2.75-29.38c.2-1,.36-2.59-.35-3.42s-1.24.21-1.37.9Z"/><path class="cls-1" d="M258.14,35.76q4.67.38,9.31.9c.35,0,.62-.51.71-.73a4.67,4.67,0,0,0,.29-1.77,4.42,4.42,0,0,0-.29-1.77c-.14-.31-.32-.69-.71-.73q-4.65-.53-9.31-.9c-.34,0-.61.5-.7.73a4.65,4.65,0,0,0-.3,1.77,4.46,4.46,0,0,0,.3,1.77c.14.3.32.7.7.73Z"/><path class="cls-1" d="M276,37.75c-1,5-1.81,10.06-2.39,15.14-.09.8-.14,2.59.7,3.07s1.18-1.3,1.23-1.75c.55-4.75,1.26-9.29,2.19-13.93a4.6,4.6,0,0,0-.36-3.42c-.65-.89-1.24.28-1.37.89Z"/><path class="cls-1" d="M277.5,32.8c1.41,0,1.43-5,0-5s-1.43,5,0,5Z"/><path class="cls-1" d="M289.82,36.92c-2.71,1.22-5.56,3.33-6.74,6.15-1.48,3.56-.46,7.56,1.44,10.73.64,1.08,1.52,2.87,2.81,3.26s2.9-.89,3.83-1.57c3-2.15,3.87-5.68,3.47-9.21a19.6,19.6,0,0,0-4.56-10.11c-.69-.83-1.21.23-1.37.89-.23.94-.32,2.61.36,3.42,1.66,2,3.55,4.86,3.67,7.4,0-.2,0-.14,0,.17q0-.31,0,.15c.08-.23-.22.5-.2.48A5,5,0,0,1,291.42,50a8.92,8.92,0,0,1-3.37,2.07c-.61.16-.93-.25-1.26-.7q-.68-.93-1.26-1.92a10.58,10.58,0,0,1-.94-1.91,4.73,4.73,0,0,1-.22-.82c.07.46.14-.26,0,.06a7.83,7.83,0,0,1,2.18-2.69,15.48,15.48,0,0,1,3.77-2.38c1.26-.57.87-5.46-.53-4.82Z"/><path class="cls-1" d="M299.61,37.41a56.78,56.78,0,0,1-2.14,14.5l1.83.59c0-.25-.06-.52-.08-.78,0,.43,0-.38,0-.38v-.26c0,.19,0,.19,0,0s0-.52.08-.78a11.12,11.12,0,0,1,.56-2.18,11.91,11.91,0,0,1,1.27-2.52c.43-.65,1-1.52,1.78-1.73a1.75,1.75,0,0,1,1.71.69,3.29,3.29,0,0,1,.76,1.85,6.53,6.53,0,0,1,.07,1.9,5,5,0,0,1-.64,2.38l.51-.34-.2,0,.5.34-.05-.11.2,3.93.05-.12-.71.73h.11c1.47-.11,1.34-5.1,0-5h-.11c-.37,0-.59.44-.71.73a5.08,5.08,0,0,0,.21,4.16.67.67,0,0,0,.51.34c.84-.08,1.1-1,1.35-1.69a17.54,17.54,0,0,0,.65-2.36,19.39,19.39,0,0,0,.28-5.48c-.2-2.31-.91-6.25-3.62-6.93-1.29-.32-2.33.61-3.07,1.54a15.52,15.52,0,0,0-2.13,3.76,19.94,19.94,0,0,0-1.22,9.61c.05.51.22,1.64.83,1.79s.87-.76,1-1.19a65.32,65.32,0,0,0,2.42-17c0-.62-.09-2.46-1-2.5s-1,2-1,2.5Z"/><path class="cls-1" d="M319.81,35.56c-2.06.6-4.7-.1-6.05,2a6.84,6.84,0,0,0-.56,5,6.57,6.57,0,0,0,1.94,3.23,13,13,0,0,0,2.78,1.93c1,.53,2.07.86,3,1.44a2.74,2.74,0,0,1,.89.79c0-.06.07.17.07.17s-.13-.76-.09-.44c0-.19,0-.38,0-.57l0-.18,0,.15a4,4,0,0,1-1.73,1.49c-2.43,1.1-5.23,0-7.51-1-.9-.37-1.18,1.15-1.24,1.74a5.7,5.7,0,0,0,.11,1.93c.08.34.23,1,.59,1.15,2.16.89,4.51,1.88,6.9,1.48a5.52,5.52,0,0,0,4.59-4.25c.64-2.47.36-5.88-2-7.33-1-.57-2-.9-3-1.44a11.12,11.12,0,0,1-2.88-2,5.13,5.13,0,0,1-.54-.69c0-.06-.09-.17-.13-.22.21.24-2.9,3.61-.08,1.8a4.72,4.72,0,0,1,1-.69c1.26-.46,2.68-.19,4-.57,1.55-.46,1.06-5.31,0-5Z"/><path class="cls-1" d="M348.11,26.11a208,208,0,0,0,1.61,22.31c.08.57.34,2.15,1.23,1.75s.79-2.42.7-3.08a193.64,193.64,0,0,1-1.54-21c0-.62-.08-2.46-1-2.5s-1,2-1,2.5Z"/><path class="cls-1" d="M342.39,26.62a112,112,0,0,1,18.73,1.67c1.2.21,1.54-4.73,0-5a112,112,0,0,0-18.73-1.67c-1.41,0-1.44,5,0,5Z"/><path class="cls-1" d="M343.74,52.28c2.85,1.06,5.74.66,8.68.22,2.78-.42,5.83-.91,8.45.42,1.32.66,1.82-4.18.54-4.82-2.68-1.36-5.6-1.1-8.48-.68s-5.91,1.06-8.66,0c-.91-.33-1.16,1.12-1.23,1.75s-.16,2.76.7,3.07Z"/><path class="cls-1" d="M369.24,40a52.91,52.91,0,0,0-.94,12c0,.67.05,2,.74,2.41s1-.72,1.13-1.15c.25-1,.5-1.91.79-2.86l.12-.38.18-.53c.17-.47.34-.93.53-1.38a12.65,12.65,0,0,1,1.13-2.2,10.07,10.07,0,0,1,1.64-2c.25-.23.65-.71,1-.79a.37.37,0,0,1,.29.07c-.07-.16-.06-.14,0,0s.09.24.13.36a10.17,10.17,0,0,1,.36,1.18c.15.56.27,1.14.38,1.71-.08-.45.06.41.07.49,0,.29.07.58.1.88s0,.43.05.65c0-.6,0,.33,0,.44v.88c0,.14,0,.29,0,.44,0-.3,0-.3,0,0-.05.59-.11,1.17-.19,1.75a5.46,5.46,0,0,0,.1,1.93,2,2,0,0,0,.6,1.14c.86.53,1.17-1.33,1.23-1.74a28.52,28.52,0,0,0,.12-7,22.28,22.28,0,0,0-1.56-6.68c-.4-.91-1.11-1.86-2.2-1.32a7.49,7.49,0,0,0-2,1.81,16.54,16.54,0,0,0-2.73,4.66,48.45,48.45,0,0,0-1.87,6L370.3,52c0-.86,0-1.72,0-2.57,0-.43,0-.86,0-1.29,0-.19,0-.52,0-.16,0-.23,0-.46.05-.7.06-.85.15-1.71.26-2.56.05-.38.11-.77.17-1.16.11-.75-.09.43,0-.32,0-.23.08-.46.13-.69a4.64,4.64,0,0,0-.36-3.42c-.65-.89-1.25.28-1.37.89Z"/><path class="cls-1" d="M384.26,27.42q.81,14.19,1,28.39c0,.59.08,2.5,1,2.5s1-2,1-2.5q-.21-14.87-1.07-29.72c0-.58-.36-2.13-1.23-1.74s-.74,2.39-.7,3.07Z"/><path class="cls-1" d="M380.49,37.59l9.37-.59c.91-.06,1-1.87,1-2.5a4.64,4.64,0,0,0-.29-1.77c-.13-.27-.33-.75-.71-.73l-9.37.59c-.91.06-1,1.88-1,2.5a4.43,4.43,0,0,0,.3,1.77c.12.28.33.76.7.73Z"/><path class="cls-1" d="M399.26,43.41a10.69,10.69,0,0,0-4.18,1.84,7.87,7.87,0,0,0-2.7,4.2c-.9,3.36-.09,7.5,3.24,9.16,2.3,1.15,5.58,1.48,7.78-.08,3.11-2.2,2.77-7.07,1.71-10.25-.92-2.75-3.45-6.58-6.85-6-.91.17-1,1.79-1,2.5a4.88,4.88,0,0,0,.3,1.77c.1.25.35.79.7.73,2.22-.41,3.95,1.4,4.91,3.2.14.27-.08-.18,0,.1s.13.27.19.42.18.46.27.69c.13.38,0,.11,0,0,0,.15.08.3.11.45s.09.46,0,.15.12.63,0,.1,0,.14,0,.21.1-.64,0-.14c.13-.62-.14.37,0-.09a2.1,2.1,0,0,1-.67,1c-1.57,1.39-4,1.34-5.94.79a6.21,6.21,0,0,1-2.56-1.44,2.24,2.24,0,0,1-.31-.36,3.39,3.39,0,0,1-.23-.34c-.15-.24.08.2,0-.05l0-.08c-.08-.21-.08-.21,0,0-.08,0,0-.6,0,.07,0-.13,0-.5,0,.12,0-.63,0,.57,0-.06,0,.44,0,.2,0,.06.16-.56-.16.34.07-.2a2.72,2.72,0,0,1,.3-.59,5,5,0,0,1,1.18-1.29,9.32,9.32,0,0,1,3.65-1.66c1.55-.37,1.15-5.27,0-5Z"/><path class="cls-1" d="M436.76,52.29l1-9.69.5-4.6.26-2.43a5.83,5.83,0,0,1,.24-1.73c.22-.48.91-.87,1.31-1.19L442,31.1,445.85,28l7.66-6.22c.8-.65.8-2.14.69-3.07,0-.38-.45-2.38-1.23-1.75l-8.42,6.84-4,3.26c-1.18,1-2.56,1.85-3.17,3.3a16.42,16.42,0,0,0-.81,4.62L436,40.3,434.83,51c-.08.76-.16,2.64.7,3.07s1.18-1.25,1.23-1.75Z"/><path class="cls-1" d="M438.56,28.83c-1.4-3.36-4.53-5.83-7.15-8.23q-4.29-3.95-8.9-7.51c-.79-.61-1.2,1.35-1.23,1.75-.09.9-.12,2.43.7,3.07q4.36,3.39,8.47,7.11c1.33,1.21,2.65,2.45,3.94,3.72a11.52,11.52,0,0,1,2.76,3.63c.36.87,1.05.87,1.41,0a5,5,0,0,0,0-3.54Z"/><path class="cls-1" d="M449.71,48.45a18.39,18.39,0,0,0,5.64,0c1.57-.26,3.75-.6,4.78-1.95,1.46-1.93,1.13-5.21,0-7.19a6.32,6.32,0,0,0-3.6-2.77c-3.16-1-6.31.52-8.42,2.87a11.31,11.31,0,0,0-2,11.53,7.07,7.07,0,0,0,9.09,4.16c.32-.12.54-.9.6-1.15a5.69,5.69,0,0,0,.1-1.93c-.09-.63-.31-2.08-1.23-1.75a5.86,5.86,0,0,1-6.46-1.73,4.55,4.55,0,0,1-.72-1.23c0-.08-.15-.5-.07-.19a3,3,0,0,1-.09-.41c0,.1,0,.42,0,0,0,.35,0,.2,0-.06s.09.38,0,0-.07.23,0-.07a7.3,7.3,0,0,1,.27-.75,7.87,7.87,0,0,1,1-1.63,7.53,7.53,0,0,1,6.05-3,5.72,5.72,0,0,1,3.12,1,4.12,4.12,0,0,1,1,1c.08.12.14.24.22.36.19.27,0,.32,0,0l-.05-.23a2.19,2.19,0,0,1,.13-1.22c-.09-.22.13-.13-.12,0a9.45,9.45,0,0,1-4.23,1.31,18,18,0,0,1-5.13-.06c-1.24-.18-1.53,4.77,0,5Z"/><path class="cls-1" d="M468.84,39.86c-2.4.85-4.81,1.76-6.58,3.67a9.6,9.6,0,0,0-2.08,8.55A8.07,8.07,0,0,0,462,55.65,17.45,17.45,0,0,0,463.37,57,3.39,3.39,0,0,0,465,58c1.21.21,2.41-.9,3.1-1.77a8.43,8.43,0,0,0,1.52-3.43c.78-3.66-.19-7.18-1.47-10.6l-1.21,3.93a50.74,50.74,0,0,0,6.48,8.19c.26.26.64-.07.78-.25a3.32,3.32,0,0,0,.45-1.5,3.86,3.86,0,0,0-.69-3.07,47.51,47.51,0,0,1-6-7.69c-.53-.83-1.13.11-1.29.65a5.19,5.19,0,0,0,.08,3.28,26.17,26.17,0,0,1,.94,2.79l.09.36s.11.53.07.3,0,.2,0,.19,0,.25.05.37c.05.28,0,0,0,0,0,.11,0,.22,0,.34,0,.28,0-.19,0-.2a3.75,3.75,0,0,1-.05.47c0,.27,0-.1,0-.13s0,.19-.06.28-.05.19-.08.28.1-.28,0-.06-.15.41-.25.61c.06-.13-.17.26-.22.33A3.25,3.25,0,0,1,465.53,53c-.85.19-1.69-.84-2.24-1.39a5.71,5.71,0,0,1-1.37-2c.06.16,0,.09,0,0l0-.1,0,.2s0-.4,0-.06c0,.13,0,.26,0,.4,0,0,.05-.36,0-.09s0-.12.05-.19c.06-.23,0,0,0,0,0-.13.09-.25.14-.37a5.83,5.83,0,0,1,1.36-1.8,17,17,0,0,1,5.9-3c.33-.12.54-.91.6-1.15a5.69,5.69,0,0,0,.1-1.93c-.09-.64-.31-2.07-1.23-1.75Z"/><path class="cls-1" d="M484.25,36.1c-1.94.6-3.95,1.27-5.05,3.1a7.44,7.44,0,0,0,.06,7.57c1.1,1.59,3.05,2.57,4.53,3.76a18.69,18.69,0,0,1,2.28,2.08c.32.36.63.75.92,1.15.14.2.27.41.4.62.54.87-.17.27.22-1.45L488,52c-.25.48-1.08.62-1.55.79-.74.27-1.48.51-2.23.74-1.45.45-2.91.84-4.39,1.19s-1.14,5.26,0,5c1.48-.35,2.94-.74,4.39-1.19.76-.23,1.51-.48,2.26-.74a8.38,8.38,0,0,0,1.79-.68c1.51-.93,1.45-3.44,1.11-4.94a9.22,9.22,0,0,0-2.08-3.69,37.43,37.43,0,0,0-5.93-5,5.92,5.92,0,0,1-.76-.65c-.15-.16-.3-.53-.46-.62.31.17-.41,1.72.1,1.28.18-.16.29-.45.47-.63a8.14,8.14,0,0,1,3.56-1.77c1.56-.47,1-5.32,0-5Z"/><path class="cls-1" d="M497.32,16.43a239.08,239.08,0,0,1-.13,37.75c-.07.78-.17,2.64.69,3.08s1.19-1.25,1.23-1.75a254.76,254.76,0,0,0,.14-40.41c-.05-.58-.36-2.14-1.23-1.75s-.75,2.4-.7,3.08Z"/><path class="cls-1" d="M488.49,29.38l23.58-.21c1.42,0,1.42-5,0-5l-23.58.21c-1.42,0-1.42,5,0,5Z"/></g><g id="Layer_41" data-name="Layer 41"><path class="cls-1" d="M141,145.17c3.64-2.27,7.67-4.07,12-4,4,0,7.77,1.52,11.35,3.19A87.85,87.85,0,0,0,175.19,149a28.58,28.58,0,0,0,13.51.58,83.9,83.9,0,0,0,15.06-4.68c1.26-.48,1-5.39-.53-4.82-8.6,3.3-18,6.72-27.29,4.14-7.55-2.11-14.07-7.62-22.11-8-4.8-.25-9.35,1.71-13.34,4.2-1.24.77-.66,5.56.53,4.82Z"/><path class="cls-1" d="M144.33,122.12a32.23,32.23,0,0,1,24.28-1.26c3.92,1.38,7.66,3.28,11.71,4.29a31.52,31.52,0,0,0,11.73.63,32.57,32.57,0,0,0,12.5-4.39c1.25-.75.69-5.55-.53-4.82a31.48,31.48,0,0,1-22.9,3.77c-4.17-.92-8-2.89-12-4.3a33.07,33.07,0,0,0-12-2,33.43,33.43,0,0,0-13.35,3.23c-1.26.6-.84,5.47.53,4.82Z"/><path class="cls-1" d="M277.09,120.11c9.16-4,18.69,2.15,27.24,4.9a59.94,59.94,0,0,0,27.16,2.16,60.55,60.55,0,0,0,14.91-4.27c1.26-.55.89-5.44-.54-4.82a59.82,59.82,0,0,1-40.49,2.26c-4.62-1.39-9-3.56-13.55-5-5-1.6-10.35-2.18-15.26,0-1.26.55-.89,5.44.53,4.82Z"/><path class="cls-1" d="M275.67,143.64c9.44-4,19.8-.33,28.83,3A79.45,79.45,0,0,0,319,150.91a40,40,0,0,0,14-.24,41.36,41.36,0,0,0,14.56-5.84c1.23-.79.63-5.57-.53-4.82a40.15,40.15,0,0,1-27,6.06c-10.08-1.36-19-6.73-29-8.53a27.86,27.86,0,0,0-15.91,1.27c-1.26.53-.91,5.43.53,4.83Z"/><path class="cls-2" d="M204.79,121.79l15.1-3.05A66.25,66.25,0,0,1,234.12,117c9.18.13,18.07,2.78,27.13,3.95a47.19,47.19,0,0,0,15.28-.22c1.54-.31,1.19-5.24,0-5-9,1.8-18.07-.12-26.94-1.79a100.52,100.52,0,0,0-13.7-1.89,58.28,58.28,0,0,0-14.12,1.3c-5.66,1.11-11.32,2.29-17,3.43-1.54.32-1.19,5.24,0,5Z"/><path class="cls-2" d="M203.86,145.27c17.24-8.28,36.81-2.48,54.79-.78a77.63,77.63,0,0,0,16.9,0c1.5-.18,1.29-5.15,0-5-19.37,2.37-38.37-5.34-57.74-3.09a45.41,45.41,0,0,0-14.48,4.06c-1.26.6-.83,5.48.53,4.82Z"/><path class="cls-2" d="M214.54,121.47a31.29,31.29,0,0,1,2.11,7,59,59,0,0,1,.46,7.52c0,.62.07,2.46,1,2.5s1-2,1-2.5a68.24,68.24,0,0,0-.58-9.15,41.12,41.12,0,0,0-2.57-8.89c-.11-.27-.36-.74-.71-.74s-.6.47-.71.74a5.1,5.1,0,0,0,0,3.53Z"/><path class="cls-2" d="M215.2,120q2.45.72,4.88,1.5c.83.27,1.65.53,2.47.82a5.58,5.58,0,0,1,.95.39c.08,0,.53.32.42.29a3.46,3.46,0,0,1-.09-1.69c.07-.18,0-.15,0,.08s-.22.37-.36.53a4.2,4.2,0,0,1-1.45,1,29.27,29.27,0,0,0-4,1.68c-.76.48-.76,2-.72,2.74s.15,2,1,2.17a25.78,25.78,0,0,1,2.87.63c.35.1,1.76.35,1.9.73l-.26-1.1c-.23-1.94.57-2.09-.08-1.28a4.51,4.51,0,0,1-.47.51,11,11,0,0,1-1.22,1,12,12,0,0,1-2.79,1.53c-.33.13-.53.89-.6,1.15a5.69,5.69,0,0,0-.1,1.93c.07.61.33,2.1,1.23,1.74,2.64-1,5.6-3.14,6-6.16.2-1.66,0-3.81-1.79-4.51a22,22,0,0,0-4.66-1.21l.27,4.91c1.61-1,3.73-1.14,5.21-2.37a6.73,6.73,0,0,0,2.05-5.9,4.51,4.51,0,0,0-1.2-2.86,6.67,6.67,0,0,0-2.62-1.16c-2.22-.74-4.46-1.44-6.7-2.1-1-.31-1.57,4.53,0,5Z"/><path class="cls-2" d="M237.94,115a18.67,18.67,0,0,0-5.5,3.55,10.48,10.48,0,0,0-2.7,7.54,19.64,19.64,0,0,0,2,8.55,5.77,5.77,0,0,0,5.65,3.1,12,12,0,0,0,4.14-1.17,3.8,3.8,0,0,0,2.1-3.93c0-.61-.07-2.46-1-2.5s-1,2-1,2.5c-.08-1.72.75-1.68-.07-1.17a5.12,5.12,0,0,1-.71.34,12.64,12.64,0,0,1-1.78.65,7.55,7.55,0,0,1-3.44.16c-2.37-.52-3.08-2.57-3.62-4.69a4.32,4.32,0,0,1,1.09-4.74,18.26,18.26,0,0,1,5.32-3.37c1.26-.61.83-5.48-.53-4.82Z"/><path class="cls-2" d="M252.74,78a128.76,128.76,0,0,1,2.13,12.94c0,.42.26,1.63.92,1.31s.58-1.79.53-2.3q-.8-7-2.29-13.84c-.1-.49-.52-1.3-1-.68a3.47,3.47,0,0,0-.27,2.57Z"/><path class="cls-2" d="M247.89,78.42l10-2.58c1.17-.3.84-4,0-3.75l-10,2.58c-1.16.3-.83,4,0,3.75Z"/><path class="cls-2" d="M251.79,94.83q4.47-2,9.1-3.48c1.16-.38.76-4,0-3.75q-4.83,1.58-9.5,3.61c-.25.11-.4.66-.45.86a4.16,4.16,0,0,0-.07,1.45c0,.44.24,1.6.92,1.31Z"/><path class="cls-2" d="M261.87,84.27l.31,6.67,1.47-.5c0,.58,0,0,0-.13v-.5c0-.17,0-.34,0-.51,0-.39,0,.43,0-.07,0-.31.06-.62.1-.94,0-.09.08-.66,0-.17a4.42,4.42,0,0,1,.1-.5,3.49,3.49,0,0,0-.27-2.56c-.49-.67-.94.21-1,.67a21.88,21.88,0,0,0-.37,5.71c0,.36.24,1.53.82,1.34s.67-1.38.65-1.84l-.31-6.67a3.93,3.93,0,0,0-.22-1.32c-.08-.2-.26-.55-.53-.55-.66,0-.77,1.49-.75,1.87Z"/><path class="cls-2" d="M264.42,87.12c.09-.31-.11.27,0,0,0-.09.08-.19.11-.28.11-.27-.1.14,0-.08s.11-.17.17-.26a2.11,2.11,0,0,1,.19-.23c-.11.12.08-.07.11-.09a1.8,1.8,0,0,1,.49-.32,1.63,1.63,0,0,1,1.07,0,2.46,2.46,0,0,1,.44.25,2.43,2.43,0,0,1,.25.2c.09.08.1.09,0,0l.11.12.18.26a.64.64,0,0,1,.08.14c-.06-.13-.07-.15,0,0s.15.42.09.22.12.43,0,.08,0,.15,0,.21a1.23,1.23,0,0,1,0,.19c0-.26,0-.32,0-.18s0,.51,0,.77a15.19,15.19,0,0,0,.19,4c.1.43.57,1.37,1,.67a3.55,3.55,0,0,0,.27-2.56l-.06-.27c0,.22,0,.23,0,0-.07-.42,0,.34,0,0s0-.65,0-1c0-.62.07-1.23,0-1.85a6.19,6.19,0,0,0-1.5-4.34,2.33,2.33,0,0,0-2.8-.47,4.52,4.52,0,0,0-1.88,2.93,3.33,3.33,0,0,0,.27,2.57c.5.68.9-.24,1-.68Z"/><path class="cls-2" d="M275.21,80.31a13.72,13.72,0,0,0-2.46.4A2.27,2.27,0,0,0,270.92,82a4.67,4.67,0,0,0,.26,3.9,5.22,5.22,0,0,0,1.58,1.56c.66.47,1.33.92,2,1.34a9.22,9.22,0,0,1,.9.58c.07.06.25.2.27.23l.15.18c.08.13.08.13,0,0,.46-2,.47-2.7,0-2,.05-.05,0,0-.07,0a2.71,2.71,0,0,1-.41.23,9.57,9.57,0,0,1-1.05.42,3.44,3.44,0,0,1-2.17.16c-.68-.25-.88.83-.92,1.31a4.1,4.1,0,0,0,.07,1.44c.07.25.18.76.45.86a5,5,0,0,0,3.74-.46,2.37,2.37,0,0,0,1.24-1,4.5,4.5,0,0,0,.25-3.38c-.41-1.31-1.51-1.87-2.59-2.56-.53-.34-1.05-.7-1.56-1.07a3.65,3.65,0,0,1-1.1-1c.06.12,0,0,0,0q-.19-.52,0,.9a1.4,1.4,0,0,1,0,1s0,.07,0,.07.17-.11.24-.15a3.72,3.72,0,0,1,.82-.25,14,14,0,0,1,2.23-.34c.68,0,.76-1.4.75-1.87a3.54,3.54,0,0,0-.22-1.33c-.08-.2-.25-.56-.53-.55Z"/><path class="cls-2" d="M282.1,86.12a9.56,9.56,0,0,0,3.33-.17,2.81,2.81,0,0,0,2.28-2.17c.61-2.56-.6-5.47-3.4-5.86-2.38-.33-4.26,1.69-4.54,3.91a7.1,7.1,0,0,0,.94,4.23,32.32,32.32,0,0,0,1.77,3.08q.51.78,1.08,1.53c.37.48.77.89,1.43.78a13.94,13.94,0,0,0,3.68-1.36c.25-.12.39-.63.45-.86a4.35,4.35,0,0,0,.07-1.44c-.05-.41-.26-1.64-.92-1.31a17.36,17.36,0,0,1-2.28.94,5.73,5.73,0,0,1-1.15.3c-.38,0-.53-.3-.73-.58a25.9,25.9,0,0,1-2.57-4.21c-.09-.18-.18-.37-.26-.55a1.33,1.33,0,0,0-.1-.24.5.5,0,0,1,0,.12c-.09.26.14.68,0,.9s0-.1,0-.11a3.13,3.13,0,0,1,.26-.35,3.08,3.08,0,0,1,1.57-1,3.26,3.26,0,0,1,2.09.18,3.16,3.16,0,0,1,.9.58,1.86,1.86,0,0,1,.23.26s.18.26.13.18.14.21.05.09c-.29-.37-.05-.92.05-1.34s.05-.07,0,0a2.72,2.72,0,0,1-.38.29,3.3,3.3,0,0,1-1,.33,10.2,10.2,0,0,1-3,.09c-.25,0-.46.38-.53.54a3.79,3.79,0,0,0-.22,1.33c0,.49.06,1.79.75,1.88Z"/><path class="cls-2" d="M290.13,82.83c.19.5.37,1,.54,1.52,0,.05.14.44.06.19l.12.43c.07.26.14.52.19.78s0,.24.07.36c-.06-.4,0,.08,0,.13a2.09,2.09,0,0,1,0,.43c0-.24,0-.24,0,0,0,.43,0,0,0,0s0,.41,0,.43c0-.19,0-.22,0-.1s0,.14-.05.21-.07.28-.11.42l1.37,1.44c.24-1.91.48-3.82.74-5.73,0-.08,0-.16,0-.24,0-.33-.06.23,0,0l.06-.24c0-.17.08-.21,0,0l.09-.22c-.09.2,0,0,.05-.07s.06-.13.22-.25a1.26,1.26,0,0,1,.77-.26l.3,0a.83.83,0,0,1,.16.09c.16.06,0-.07.09.07.49.65.92-.21,1-.67a3.42,3.42,0,0,0-.27-2.57,1.7,1.7,0,0,0-2.21-.46,3.68,3.68,0,0,0-1.56,2.63c-.24,1.14-.34,2.32-.49,3.48l-.45,3.43a3.88,3.88,0,0,0,.08,1.44,1.52,1.52,0,0,0,.35.77c.53.47.82-.36.94-.77,1-3.13,0-6.39-1.08-9.35-.07-.19-.27-.55-.53-.55s-.46.36-.53.55a4,4,0,0,0,0,2.66Z"/><path class="cls-2" d="M300.73,71.06a22.37,22.37,0,0,0,1.4,7.54c.54,1.74,1.35,3.85.73,5.66a3.89,3.89,0,0,0,0,2.65c.26.62.82.72,1.06,0a14.72,14.72,0,0,0,0-8.57c-.64-2.38-1.77-4.77-1.68-7.28,0-.46-.07-1.85-.75-1.88s-.73,1.52-.75,1.88Z"/><path class="cls-2" d="M298.13,77.28a28.13,28.13,0,0,0,11.7,0c1.16-.25.88-3.94,0-3.75a28.13,28.13,0,0,1-11.7,0c-.87-.18-1.17,3.51,0,3.75Z"/><path class="cls-2" d="M311.78,81.31c.08.37.16.74.23,1.11,0,.13.06.51,0,0a2.56,2.56,0,0,0,.05.27c0,.18.05.36.07.54,0,.35.08.71.1,1.07,0,.09,0,.18,0,.27,0-.34,0-.42,0-.22v.09c0,.21,0,.42,0,.63a3.49,3.49,0,0,0,.22,1.32c.07.17.27.58.53.55s.44-.31.53-.55a3.7,3.7,0,0,0,.22-1.32,25.76,25.76,0,0,0-.68-5.6c-.06-.25-.19-.71-.45-.86a.41.41,0,0,0-.57.19,2.45,2.45,0,0,0-.35,1.12,4.64,4.64,0,0,0,.08,1.44Z"/><path class="cls-2" d="M312.61,77.22c1.06,0,1.07-3.75,0-3.75s-1.07,3.75,0,3.75Z"/><path class="cls-2" d="M317.26,77.16a11.08,11.08,0,0,0-.68,7.35c.45,1.81,1.47,3.83,3.34,4.49A3.21,3.21,0,0,0,324,87.06a7.54,7.54,0,0,0-1.66-7.17,10.57,10.57,0,0,0-5.12-3.41c-.77-.24-1.18,3.38,0,3.75a9.44,9.44,0,0,1,3.57,2.07,8.55,8.55,0,0,1,1.28,1.47c.17.25.37.55.5.79s.15.32.22.49.06.14.08.22c-.08-.28,0,.36,0-.08,0-.21.05-.41,0-.61s-.09.09,0,0l0,0a2.19,2.19,0,0,1-.59.52,2.68,2.68,0,0,1-1.62.31,3,3,0,0,1-1.69-.87,3.75,3.75,0,0,1-.51-.61,3.32,3.32,0,0,1-.44-.83c0-.06,0-.12-.07-.19-.16-.43.06.26-.06-.18-.05-.2-.1-.39-.13-.58.09.48,0-.52,0-.19s0-.06,0-.13a2.29,2.29,0,0,1,0-.37c0,.06,0,.41,0,.06,0,0,.05-.46,0-.22s0,0,0-.07.06-.29.1-.44c0,0,.07-.24,0-.09s.08-.2.09-.23c.09-.24.19-.46.3-.69a3.62,3.62,0,0,0,0-2.65c-.09-.21-.25-.55-.53-.55s-.43.35-.53.55Z"/><path class="cls-2" d="M326.76,78.32a64.49,64.49,0,0,0,.64,8.89l1.37-1.45c-.19-.73-.38-1.46-.52-2.2,0-.08,0-.16-.05-.25,0,.18,0,.16,0,0s-.05-.34-.06-.5,0-.51,0-.17a4,4,0,0,1,0-.6c0,.31,0,.12,0-.09,0-.47-.08.33,0-.13l.06-.28c0-.16,0-.19,0-.09l0-.09.1-.27a3.2,3.2,0,0,1,.32-.6,2.4,2.4,0,0,1,.58-.65,1.05,1.05,0,0,1,1.41.13,1.28,1.28,0,0,1,.17.22c-.11-.17.19.47.06.14l0,.15c0-.2,0-.2,0,0s0,.3,0,.45c.11,1.54.17,3.09.26,4.63,0,.37.3,1.69.92,1.31s.56-1.71.53-2.31c-.09-1.46-.16-2.93-.25-4.4s-.34-3.36-1.74-4.06-2.38.44-3,1.53a9.74,9.74,0,0,0-1.09,4.62,20.13,20.13,0,0,0,.86,5.45c.1.39.42,1.25.94.76a2.89,2.89,0,0,0,.43-2.21c-.2-1.36-.35-2.72-.45-4.09,0-.32,0-.65-.07-1,0,.4,0-.17,0-.2s0-.35,0-.52c0-.71,0-1.41,0-2.11,0-.44-.07-1.87-.75-1.87s-.75,1.48-.75,1.87Z"/><path class="cls-2" d="M284.49,105.27c.07.37,0-.27,0-.34,0,.62,0-.57,0,0,0-.07.09-.7,0-.34,0-.21.09-.41.15-.62-.06.21.12-.31.14-.37a4.28,4.28,0,0,1,.19-.42,4.91,4.91,0,0,1,.71-1,1.21,1.21,0,0,1,.3-.25c.07,0,.12,0,.15,0a.12.12,0,0,1-.06-.08c-.06-.17-.06-.17,0,0l.07.39.15.79.58,3.15c0,.29.21.81.55.9s.51-.25.63-.52a15.42,15.42,0,0,1,1.64-2.84c.33-.44.67-.86,1-1.27.18-.19.35-.38.54-.56s.37-.44.57-.46.58.67.71.91.19.43.28.65l.15.4s.11.34.07.2c.08.27.14.55.2.83,0-.18,0,0,0,.07a4.43,4.43,0,0,1,.06.51c0,.17,0,.21,0,0v.43c0,.15,0,.38,0,.1,0,.18,0,.35-.05.52-.08.61-.11,1.92.52,2.3s.89-1,.92-1.31a14,14,0,0,0-.32-5.2,12.25,12.25,0,0,0-.78-2.15,4.58,4.58,0,0,0-1.22-1.87c-.68-.43-1.26.16-1.7.62a18.09,18.09,0,0,0-1.43,1.61,18.57,18.57,0,0,0-2.27,3.84l1.18.38c-.26-1.44-.49-2.9-.8-4.33-.12-.57-.34-1.41-.91-1.7s-1.14.22-1.5.66c-1.88,2.23-2.24,5.44-1.73,8.21.08.47.55,1.33,1,.68a3.57,3.57,0,0,0,.27-2.57Z"/><path class="cls-2" d="M296.53,100.66a15,15,0,0,0,.74,2.36,6.44,6.44,0,0,0,1.09,2c.94,1,2.45.71,3.48,0,2.38-1.71,2.84-5.46,1.8-8-.1-.25-.39-.75-.73-.49-1,.72-.87,2.46-.63,3.47a23.36,23.36,0,0,0,.8,2.45q.81,2.26,1.78,4.46c.09.2.26.55.53.55s.46-.35.53-.55a3.78,3.78,0,0,0,0-2.65c-.48-1.08-.93-2.17-1.34-3.28-.21-.54-.41-1.08-.59-1.63-.1-.27-.19-.54-.28-.82s-.11-.29-.15-.45l0,.14c-.17-.77-.27-.13-.29,1.93l-.73-.48c0,.06.05.13.07.2l0-.18c.07.07,0,.23.07.3,0-.25-.05-.32,0-.18s0,.1,0,.15c0-.3,0-.38,0-.23v-.13a1.49,1.49,0,0,1,0,.21c-.06-.1.09-.4,0,0,0,0-.1.35,0,.12s-.05.12-.07.16-.15.34-.08.19-.08.15-.1.18a4.14,4.14,0,0,1-.34.48,1.71,1.71,0,0,1-.33.33,3.68,3.68,0,0,1-.51.37c-.64.38-1.7.67-2.23.06a4.33,4.33,0,0,1-.67-1.32,7.59,7.59,0,0,1-.3-.84c.06.21,0,0,0-.12s-.09-.33-.13-.5c-.09-.43-.56-1.37-1-.67a3.54,3.54,0,0,0-.27,2.56Z"/><path class="cls-2" d="M307.45,92.85c-.07,2-.15,4-.22,6.05a22.06,22.06,0,0,0,.48,6.23c.11.45.53,1.34,1,.67a3.44,3.44,0,0,0,.27-2.56,10.21,10.21,0,0,1-.29-2.1c0-.89,0-1.78,0-2.66.06-1.88.13-3.76.2-5.63,0-.46-.08-1.85-.75-1.88s-.74,1.51-.75,1.88Z"/><path class="cls-2" d="M305.54,98.37l7.82-.28c.68,0,.76-1.41.75-1.87a3.54,3.54,0,0,0-.22-1.33c-.1-.21-.25-.56-.53-.55l-7.82.28c-.68,0-.76,1.42-.75,1.87a3.51,3.51,0,0,0,.22,1.33c.1.21.25.56.53.55Z"/><path class="cls-2" d="M317.09,97.42c-3.56.58-4.07,5.62-2.53,8.19a6.57,6.57,0,0,0,1.59,1.73,5.41,5.41,0,0,0,2,1.08c1,.2,1.47-1.15,1.62-1.89a8.23,8.23,0,0,0-.16-3.56,34.75,34.75,0,0,0-1.91-5.53l-.73,3.13a47.15,47.15,0,0,1,5.76,5.72c.51.61.92-.16,1-.67a4.11,4.11,0,0,0,.07-1.44,2.23,2.23,0,0,0-.34-1.12,49.67,49.67,0,0,0-6.12-6.1c-.45-.38-.8.62-.85.86a3.82,3.82,0,0,0,.12,2.27c.32.73.62,1.46.89,2.2.14.4.27.8.4,1.2-.07-.23.06.22.07.23.06.2.12.41.17.61s.19.69.26,1c0-.21,0-.21,0,0a2.8,2.8,0,0,1,0-.41s.07-.38.11-.34-.25.08-.25.08a1.08,1.08,0,0,1-.42-.16,6.73,6.73,0,0,1-.94-.54,5.48,5.48,0,0,1-1.43-1.37c0-.06-.24-.4-.21-.33,0-.09-.07-.18-.1-.27.05.17.05.18,0,0l0,.23c0-.2,0-.15,0,.17,0-.21,0-.15,0,.16,0-.18,0-.14,0,.12q.06-.24,0,.06a1.8,1.8,0,0,1,.08-.21s.18-.33,0-.1a3.34,3.34,0,0,1,.44-.6,2.5,2.5,0,0,1,1.36-.71c.69-.12.76-1.35.75-1.88a3.31,3.31,0,0,0-.22-1.32c-.08-.19-.26-.6-.53-.55Z"/><path class="cls-2" d="M326.47,92.14a57.56,57.56,0,0,0,.18,12.72c0,.38.27,1.67.92,1.31s.59-1.76.52-2.31a48.76,48.76,0,0,1-.17-10.73c.06-.6.12-1.94-.52-2.3s-.89,1-.93,1.31Z"/><path class="cls-2" d="M324,99.57l6.5-1.71c.68-.18.76-1.3.75-1.87a3.54,3.54,0,0,0-.22-1.33c-.08-.17-.27-.62-.53-.55L324,95.82c-.69.18-.76,1.3-.75,1.87a3.35,3.35,0,0,0,.22,1.33c.08.17.27.62.53.55Z"/><path class="cls-2" d="M334.36,99.29l.35,4.84a2.4,2.4,0,0,0,.34,1.12c.13.17.36.35.58.19a1.5,1.5,0,0,0,.45-.87,5,5,0,0,0,.07-1.44l-.35-4.84a2.33,2.33,0,0,0-.34-1.12c-.13-.18-.36-.35-.58-.19a1.5,1.5,0,0,0-.45.86,5,5,0,0,0-.07,1.45Z"/><path class="cls-2" d="M334.94,94.52c1.06,0,1.07-3.75,0-3.75s-1.07,3.75,0,3.75Z"/><path class="cls-2" d="M342.18,94.57a7.59,7.59,0,0,0-1.91,1.37A5,5,0,0,0,339,99a9.09,9.09,0,0,0,2.07,6.35,2.24,2.24,0,0,0,2.3,1,3.39,3.39,0,0,0,1.94-1.21,6.93,6.93,0,0,0,1-5.95,6.37,6.37,0,0,0-3.74-4.31c-.67-.28-.88.86-.92,1.31a4.1,4.1,0,0,0,.07,1.44c.07.26.18.75.45.86a5.52,5.52,0,0,1,2.67,2.2c.13.21,0,.06,0,0a2,2,0,0,1,.1.21c0,.08.05.15.08.22.09.23,0,0,0,0s0,.15,0,.16c.06.22-.06-.36,0-.13,0,.08,0,.32,0,0s0,0,0,.07v-.23c0,.06,0,.31,0,0s0,.13,0,.19c.11-.14.08-.23,0-.08a1.19,1.19,0,0,0-.08.2s-.12.21,0,0l-.14.22a2.73,2.73,0,0,1-.21.3l-.13.15s.1-.09-.05,0a3.13,3.13,0,0,1-.68.46,1.71,1.71,0,0,1-1.63,0,5.28,5.28,0,0,1-1.11-1.54,4.33,4.33,0,0,1-.39-.74c-.06-.15-.11-.3-.17-.44.1.27,0,0,0,0-.13-.38,0,.21,0,0s0-.35,0-.07c0,.11,0,.55,0,.24l0,.1c0,.14,0,.13,0,0,0,0-.09.24,0,0s0,0,0,0a2.9,2.9,0,0,1,.19-.29,1.33,1.33,0,0,1,.21-.24,8.15,8.15,0,0,1,1.75-1.21c.94-.52.55-4.15-.4-3.61Z"/><path class="cls-2" d="M346.84,96.55l2.33,8,1-2.56a7.15,7.15,0,0,1-.78-1.82c0-.07-.14-.7-.08-.34,0-.21,0-.42-.08-.63s0-.22,0,0V99c0-.1,0-.67,0-.23,0-.21,0-.42.07-.63-.05.36.06-.27.08-.34s.12-.46,0-.23a6.13,6.13,0,0,1,.22-.6,3.08,3.08,0,0,1,1.17-1.64c1.29-.73,2.66.57,3.1,1.65a5.72,5.72,0,0,1,.29.85c.13.48.25,1,.38,1.43l.77,2.9c.12.44.54,1.35,1,.67a3.49,3.49,0,0,0,.27-2.56c-.49-1.83-.9-3.7-1.51-5.49a4.62,4.62,0,0,0-3-3.29c-1.73-.44-2.77,1.1-3.4,2.46a12.65,12.65,0,0,0,.66,11.29c.32.53.75.09.91-.29a3.67,3.67,0,0,0,.12-2.27l-2.33-8c-.13-.44-.53-1.36-1-.68a3.47,3.47,0,0,0-.27,2.57Z"/><path class="cls-2" d="M261.49,96.48A21.06,21.06,0,0,0,255,107.86l.85-.86a7.26,7.26,0,0,1-2.06-3.37l-1,2.57c.68,1.29,1.39,2.56,2.11,3.82.36.64.73,1.27,1.1,1.89s.66.89,1.27.6c1.3-.62,2.53-1.44,3.78-2.15l4-2.28c.94-.53.54-4.15-.4-3.61l-7.12,4a5.53,5.53,0,0,0-.62.41c-.1,0-.33-.57-.39-.67-.33-.56-.65-1.12-1-1.68-.69-1.2-1.35-2.4-2-3.62-.29-.56-.76-.06-.9.29a3.78,3.78,0,0,0-.12,2.28,10.48,10.48,0,0,0,2.95,5.08c.43.41.8-.65.84-.86a18,18,0,0,1,5.6-9.65,2.81,2.81,0,0,0,.53-2.31c0-.25-.37-1.81-.93-1.31Z"/><path class="cls-1" d="M403.79,84.39l7.06,12.18c.2.35.54.29.75,0,2.43-3.31,1.92-7.53,3.52-11.15l-.91.3a51.91,51.91,0,0,1,3.36,6c.47,1,.91,2,1.33,3,.3.76.79,1.6,1.6.81a6.54,6.54,0,0,0,1.13-2.79l1.05-3.4,2.21-7.16a3.2,3.2,0,0,0-.27-2.57c-.54-.63-.87.19-1,.67l-1.92,6.23-.93,3a16.23,16.23,0,0,1-.92,2.57l.33.49A56.92,56.92,0,0,0,415,82.48c-.34-.52-.74-.09-.91.29-1.49,3.36-1,7.55-3.21,10.56h.75l-7.05-12.18c-.43-.74-.93.3-1,.68a3.65,3.65,0,0,0,.27,2.56Z"/><path class="cls-1" d="M426.84,92.05a7.28,7.28,0,0,0,3.56-.3,3.78,3.78,0,0,0,2.06-2.31,5.27,5.27,0,0,0-.45-4.7,2.92,2.92,0,0,0-3-1c-4.6,1.08-5.8,7.6-4,11.32a5.11,5.11,0,0,0,2.5,2.62,3.09,3.09,0,0,0,3.32-.52,2.85,2.85,0,0,0,.52-2.31c0-.23-.38-1.83-.92-1.31a2.66,2.66,0,0,1-3.89-.46q-.18-.22-.33-.45a2.12,2.12,0,0,1-.2-.34,3.38,3.38,0,0,1-.18-.44c-.07-.16,0,0,0,.06s-.06-.22-.08-.33-.06-.34,0-.11,0,0,0,0a2.45,2.45,0,0,1,0-.27c-.05.4,0,.22,0,.09,0-.34,0,.33,0-.11l0-.27c0-.24-.1.39,0,0,0-.08.13-.47.08-.34s0-.05,0-.07a2.6,2.6,0,0,0,.1-.25,3.18,3.18,0,0,1,.42-.79,4.63,4.63,0,0,1,1.35-1.33,3.36,3.36,0,0,1,2.41-.63,1.86,1.86,0,0,1,.9.41c.08.07.2.29.27.31-.18-.06-.1-.88-.08-1l0-.09c0-.14.05-.16,0-.05s0,.05-.07.14a2.18,2.18,0,0,1-.26.36,2.77,2.77,0,0,1-1.07.67,7.31,7.31,0,0,1-3.09.14c-.25,0-.46.38-.53.55a3.72,3.72,0,0,0-.22,1.33c0,.48.06,1.8.75,1.87Z"/><path class="cls-1" d="M450.66,85.07c-3.15.43-4.16,4-3.85,6.73a6.85,6.85,0,0,0,1.87,4.13,4,4,0,0,0,3.18,1.26,3.22,3.22,0,0,0,1.65-.68,4,4,0,0,0,1.25-2,3.37,3.37,0,0,0-.27-2.57c-.51-.69-.9.25-1,.68.06-.2.06-.21,0-.06.05-.1.06-.11,0,0a2,2,0,0,1-.24.33,5.55,5.55,0,0,1-.46.32,2.44,2.44,0,0,1-1.4.33,3.56,3.56,0,0,1-2.69-1.67,2.59,2.59,0,0,1-.31-.59c0-.09-.07-.18-.1-.27,0,.13.05.15,0,0a1.42,1.42,0,0,1,0-.2c0,.22,0,.23,0,0-.07-.43,0,.39,0,0,0,.52,0,0,0-.06-.21.51.08-.25,0,0s.12-.28.14-.33c-.09.18.09-.13.1-.15l.22-.3a2.51,2.51,0,0,1,.53-.49,3,3,0,0,1,1.39-.57c.69-.1.76-1.37.75-1.88a3.49,3.49,0,0,0-.22-1.32c-.08-.2-.26-.59-.53-.55Z"/><path class="cls-1" d="M457,86.2a18.34,18.34,0,0,0,.37,5.33c.25,1.08.77,3.67,2.4,3a3.21,3.21,0,0,0,1.33-1.4,11.81,11.81,0,0,0,.92-1.85A14.55,14.55,0,0,0,463,86.4a3.49,3.49,0,0,0-.22-1.32c-.08-.2-.26-.55-.53-.55-.69,0-.74,1.48-.75,1.87a17,17,0,0,0,2.05,8.79.42.42,0,0,0,.58.19,1.5,1.5,0,0,0,.45-.86,3.79,3.79,0,0,0-.27-2.57l-.12-.22c.05.1.05.09,0,0a3.54,3.54,0,0,1-.16-.34c-.13-.27-.24-.54-.34-.81s-.09-.24-.13-.36-.21-.57-.08-.22a5.22,5.22,0,0,1-.21-.8c0-.14-.07-.28-.1-.43s-.11-.5,0,0a8.28,8.28,0,0,1-.12-.87l0-.38c0-.21,0-.17,0,.12a2.18,2.18,0,0,1,0-.25c0-.3,0-.59,0-.89h-1.5c0,.41,0-.38,0,0,0,.14,0,.29,0,.43s0,.25-.05.37,0,.08,0-.14c0,.08,0,.16-.05.24q-.07.36-.18.72c-.11.4.11-.29,0,.1l-.12.35c-.09.23-.19.46-.29.68s-.11.23-.17.34l-.11.2a3,3,0,0,1-.79,1,.57.57,0,0,1-.46.15c-.1,0-.09,0-.17-.07.09.06-.08-.14,0,.06a2.79,2.79,0,0,1-.14-.37c0-.07-.05-.13-.07-.19.05.14.05.16,0,0-.07-.28-.15-.56-.21-.84s-.06-.27-.08-.4c-.07-.36,0,.31,0-.08s-.07-.54-.09-.81a2.45,2.45,0,0,1,0-.27v.23a1.33,1.33,0,0,1,0-.4v-.47c0-.51,0,.28,0-.11a4.64,4.64,0,0,0-.08-1.44,1.47,1.47,0,0,0-.45-.87c-.63-.38-.9,1-.92,1.31Z"/><path class="cls-1" d="M468.4,75.6a94.54,94.54,0,0,0-.42,17c0,.43.27,1.6.92,1.31s.56-1.8.53-2.31a81.74,81.74,0,0,1,.42-15c.06-.57.11-2-.53-2.3s-.88.94-.92,1.31Z"/><path class="cls-1" d="M465.54,83.33q3.42-.49,6.89-.67c.27,0,.44-.34.53-.55a3.49,3.49,0,0,0,.22-1.32,3.54,3.54,0,0,0-.22-1.33c-.1-.21-.25-.56-.53-.55q-3.46.18-6.89.67c-.69.1-.76,1.36-.75,1.88a3.28,3.28,0,0,0,.22,1.32c.09.2.26.59.53.55Z"/><path class="cls-1" d="M489,73.91c-.4,6.61-.53,13.23-.35,19.85,0,.44.06,1.88.75,1.88s.76-1.49.75-1.88q-.25-9.42.29-18.85c0-.58.14-2-.52-2.3s-.9.93-.92,1.3Z"/><path class="cls-1" d="M484.89,84.07q4.13-.55,8.2-1.39c.69-.14.76-1.33.75-1.87a3.35,3.35,0,0,0-.22-1.33c-.08-.18-.26-.6-.53-.55q-4.08.84-8.2,1.39c-.69.09-.76,1.36-.75,1.87a3.19,3.19,0,0,0,.22,1.33c.08.19.25.58.53.55Z"/><path class="cls-1" d="M495.83,75.53q.18,4,.22,8.07c0,1.35,0,2.69,0,4,0,.61,0,1.22,0,1.83,0,.37,0,.74,0,1.1v.37q0,.77,0-.06l1,2.57a11.67,11.67,0,0,1,1.3-3,13.29,13.29,0,0,1,1.07-1.51c.31-.39.78-1.09,1.27-1.25.85-.29,1.37,2.08,1.52,2.73a8.71,8.71,0,0,1,.08,3.22c-.08.56-.1,2,.53,2.3s.87-.94.92-1.31a17.07,17.07,0,0,0-.17-5.79,14.15,14.15,0,0,0-.82-2.69,4.48,4.48,0,0,0-1.3-2.14c-1.29-.79-3,1.83-3.52,2.68a16.42,16.42,0,0,0-2.18,4.87,3.78,3.78,0,0,0,.12,2.28c.18.41.55.77.91.29.88-1.19.71-2.89.73-4.28,0-1.59,0-3.18,0-4.77q0-4.77-.24-9.54c0-.44-.05-1.87-.75-1.87s-.77,1.49-.75,1.87Z"/><path class="cls-1" d="M507.37,86.7c0,.13.05.26.07.39s0,.18,0,0l0,.19c0,.27.07.53.11.8.07.55.12,1.1.16,1.65,0,.14,0,.27,0,.4,0-.52,0-.06,0,0,0,.26,0,.53,0,.79q0,.87,0,1.74A3.31,3.31,0,0,0,508,94c.08.2.26.55.53.55.68,0,.73-1.49.75-1.87a34.91,34.91,0,0,0-.59-7.84c-.08-.44-.57-1.36-1-.68a3.68,3.68,0,0,0-.27,2.57Z"/><path class="cls-1" d="M507.59,81.87c1.06,0,1.07-3.75,0-3.75s-1.07,3.75,0,3.75Z"/><path class="cls-1" d="M518.49,82.23c-1.64-.89-3.31.36-3.87,1.93a7.69,7.69,0,0,0-.21,4,4.39,4.39,0,0,0,1.28,2.56,6.21,6.21,0,0,0,2.12.93,3.71,3.71,0,0,1,1,.57,2.88,2.88,0,0,1,.28.33,1.73,1.73,0,0,1,0-1.78c.06-.11,0-.09,0,0a5.21,5.21,0,0,1-1.92,1.08,5.53,5.53,0,0,1-2.86.45c-.25,0-.46.4-.53.55a3.75,3.75,0,0,0-.22,1.33c0,.51.05,1.77.75,1.87a5.78,5.78,0,0,0,2.9-.45,7.25,7.25,0,0,0,2.09-1,4.34,4.34,0,0,0-.08-6.05,8.08,8.08,0,0,0-2.13-.92,2.68,2.68,0,0,1-1-.59s-.19-.29-.18-.26a2.47,2.47,0,0,1-.1-.29h0c0-.12,0-.11,0,0,0-.22,0-.21,0,0,0-.22,0-.21,0,0s0,.18,0,0c-.13.22.12-.19.12-.18a1.27,1.27,0,0,1,.3-.31,1.78,1.78,0,0,1,1.92-.25c.95.51,1.35-3.1.39-3.62Z"/><path class="cls-1" d="M413.83,110.6c-1.85,1.46-2.39,4-2.16,6.27a6.84,6.84,0,0,0,3.05,5.16,3.92,3.92,0,0,0,2.92.65,4.12,4.12,0,0,0,2.54-1.63,5.81,5.81,0,0,0,.33-4.39,18.26,18.26,0,0,0-1.2-3c-1-2-2.5-4.07-4.92-4.37-.25,0-.46.39-.53.55a3.7,3.7,0,0,0-.22,1.32c0,.5.06,1.79.75,1.88a4.73,4.73,0,0,1,3.24,2.21,11.64,11.64,0,0,1,1.05,2c.14.34.29.68.42,1,0,.08.06.15.08.22s.1.28,0,.07a1.55,1.55,0,0,0,.06.23c.06.18,0-.12,0-.17s0-.73.11-.73-.29.32-.29.31a4.35,4.35,0,0,1-1,.55,2.83,2.83,0,0,1-2.21.08,4.86,4.86,0,0,1-2.71-2.59,1.59,1.59,0,0,1-.07-.2c.05.15,0,.07,0,0-.08-.32,0,0,0,0s-.06-.25,0-.28,0,.46,0,.06c0,.14,0,.29,0,.06,0,0,.06-.26,0-.06s.05-.15.06-.2c-.07.25.11-.24.13-.3a3,3,0,0,0,.17-.27,3.35,3.35,0,0,1,.74-.81c.6-.47.62-1.62.53-2.3,0-.29-.34-1.78-.93-1.31Z"/><path class="cls-1" d="M422.62,112.06a10.61,10.61,0,0,0,2.32,8.44,3.1,3.1,0,0,0,.72.68,1.3,1.3,0,0,0,1.17,0,8.71,8.71,0,0,0,1.72-.75,4.94,4.94,0,0,0,2.09-3.43c.14-.76.21-1.51.29-2.28l.06-.5a1,1,0,0,1,0-.17c.05-.39-.09.39,0,0,0-.15.06-.29.1-.43s0,0,0,.06.09-.24.12-.31L430,111.08a17.81,17.81,0,0,0,.16,8.91c.07.25.18.7.45.86a.41.41,0,0,0,.57-.19,3.47,3.47,0,0,0,.27-2.57l-.21-.8c0-.14,0-.28-.08-.41-.08-.37,0,.3,0-.1s-.07-.51-.09-.76c0-.06-.05-.54,0-.24s0-.18,0-.24c0-.25,0-.51,0-.76,0-.48,0,.42,0-.06l0-.41c0-.14,0-.28.05-.42s.06-.51,0-.1c0-.27.11-.55.17-.82a3.57,3.57,0,0,0-.19-2.41c-.09-.17-.23-.41-.45-.41s-.45.35-.53.55a12.07,12.07,0,0,0-.72,3.61c0,.24-.05.49-.08.73l0,.16c0,.23.07-.35,0-.12s-.05.24-.08.37,0,.15-.06.2.11-.28,0-.13l-.15.35c.09-.21,0,0-.05.07a2.88,2.88,0,0,1-.26.35,4.36,4.36,0,0,1-1.23.8c-.24.11-.49.21-.73.3a1.46,1.46,0,0,1-.75.18,1.21,1.21,0,0,1-.46-.39,8.11,8.11,0,0,1-.51-.65c-.15-.21-.29-.42-.42-.64,0,0-.13-.25-.06-.12s0,0,0-.06-.14-.29-.2-.43-.1-.26-.14-.39-.07-.13-.06-.16q.07.26,0,.09l0-.11a3.43,3.43,0,0,1-.11-.46s0-.13,0-.17.05.33,0,.1,0-.32-.05-.47,0-.27,0,0,0-.06,0-.1,0-.54,0-.23,0,0,0,0l0-.29a4.16,4.16,0,0,0-.07-1.45,1.5,1.5,0,0,0-.45-.86c-.64-.39-.88,1-.92,1.31Z"/><path class="cls-1" d="M437.61,104.93A64.86,64.86,0,0,0,435.73,120c0,.46.07,1.84.75,1.87s.75-1.51.75-1.87a56.34,56.34,0,0,1,1.68-13.18,3.37,3.37,0,0,0-.27-2.57c-.51-.64-.91.2-1,.68Z"/><path class="cls-1" d="M432.43,111.8a42.29,42.29,0,0,0,7.63.12c.68,0,.76-1.4.75-1.88a3.31,3.31,0,0,0-.22-1.32c-.09-.21-.25-.57-.53-.55a42.29,42.29,0,0,1-7.63-.12c-.26,0-.46.38-.53.55a3.35,3.35,0,0,0-.22,1.33,3.28,3.28,0,0,0,.22,1.32c.1.24.24.52.53.55Z"/><path class="cls-1" d="M450.5,113.41a3.33,3.33,0,0,0-1.21,2.41,6,6,0,0,0,.38,3.2,3.67,3.67,0,0,0,1.49,1.72,6.69,6.69,0,0,0,2,.71,5.84,5.84,0,0,0,2,.2,1.88,1.88,0,0,0,.91-.37,3,3,0,0,0,.86-1.93,8,8,0,0,0-.45-3.52,7.19,7.19,0,0,0-1.07-2.19,3.93,3.93,0,0,0-2.11-1.47,2.67,2.67,0,0,0-2.25.34,1.49,1.49,0,0,0-.44.86,4.1,4.1,0,0,0-.08,1.44c0,.33.3,1.73.92,1.31a2.44,2.44,0,0,1,.56-.28l-.2.07a2.78,2.78,0,0,1,1.64,0l-.2-.06a3.31,3.31,0,0,1,.66.31l.33.23.12.11s.19.19.1.09.08.11.08.1l.11.14.22.32c.07.11.13.24.2.34-.17-.22-.06-.1,0,0l.09.2c.05.12.1.24.14.37l.06.17c.08.23,0,0,0-.09a5.09,5.09,0,0,1,.19.77c-.12-.48-.05-.28,0-.15s0,.06,0-.12a2,2,0,0,1,0-.49c0,.24,0-.17,0-.2l.06-.22q.14-.24.06-.12s-.14.14,0,0l-.07,0a1.87,1.87,0,0,1-.32.15l.2-.07a3.35,3.35,0,0,1-1.51,0,11,11,0,0,1-1.68-.38l.2.07a4.5,4.5,0,0,1-1.24-.62,3.36,3.36,0,0,1-.29-.24c-.14-.12,0,0,0,0a.87.87,0,0,1-.08-.1c-.06-.07-.11-.15-.16-.22l-.06-.12c.05.06.12.27.05.08s0-.09-.05-.13.08.34.05.19l0-.14c-.06-.16.05.43,0,.25a.59.59,0,0,0,0-.13c0-.2,0,.5,0,.3s-.05.54,0,.27-.05.26-.05.25,0-.12,0-.12-.14.38-.06.2a.61.61,0,0,0,.05-.12s-.16.26-.06.13a.6.6,0,0,0,.09-.13c0-.09-.14.12-.05,0l.23-.18a1.56,1.56,0,0,0,.45-.86,4.16,4.16,0,0,0,.07-1.45c0-.33-.3-1.72-.92-1.31Z"/><path class="cls-1" d="M463.08,119.94c.46-3.72-.09-7.43.16-11.15.09-1.35.21-3,1.16-4.06.78-.88,2.54-1.28,3.3-.17.47.69.92-.24,1-.67a3.52,3.52,0,0,0-.27-2.57,2.85,2.85,0,0,0-3.93-.65c-1.55,1-2.14,3.08-2.44,4.79-.79,4.48.1,9-.46,13.48-.07.58-.11,2,.52,2.31s.88-.94.93-1.31Z"/><path class="cls-1" d="M459.22,111.46l7.44.21c.26,0,.45-.36.53-.55a3.49,3.49,0,0,0,.22-1.32,3.54,3.54,0,0,0-.22-1.33c-.1-.22-.24-.54-.53-.55l-7.44-.21c-.27,0-.46.36-.53.55a3.38,3.38,0,0,0-.22,1.33,3.11,3.11,0,0,0,.22,1.32c.1.23.24.55.53.55Z"/><path class="cls-1" d="M480.79,103.22a69,69,0,0,0-3.2,13.66c-.08.6-.1,2,.52,2.31s.88-1,.93-1.31a60.24,60.24,0,0,1,2.81-12,3.83,3.83,0,0,0,0-2.65c-.26-.63-.81-.72-1.06,0Z"/><path class="cls-1" d="M475,111.32a62.9,62.9,0,0,0,9.5.43c.68,0,.76-1.42.75-1.87s-.07-1.9-.75-1.88a62.9,62.9,0,0,1-9.5-.43c-.25,0-.46.38-.53.55a3.7,3.7,0,0,0-.22,1.32c0,.49.06,1.79.75,1.88Z"/><path class="cls-1" d="M486.74,104.18a46.86,46.86,0,0,1-1.6,14.53l1.29,1.9a12.72,12.72,0,0,1,3.06-6.06l-.91-.29a10.25,10.25,0,0,1,.76,4.67c0,.59-.13,2,.52,2.31s.89-.94.92-1.31a18.14,18.14,0,0,0-1.14-8.32c-.19-.48-.53-.72-.91-.3a15.65,15.65,0,0,0-3.59,7.4,3.41,3.41,0,0,0,.26,2.57c.52.65.9-.21,1-.67a53.56,53.56,0,0,0,1.81-16.43c0-.46-.05-1.84-.75-1.87s-.76,1.51-.75,1.87Z"/><path class="cls-1" d="M495.5,118.23c1-.37,2-.67,3-1.13a3.35,3.35,0,0,0,1.62-3.25c0-1.92-.89-5.21-3.34-5.06s-3.3,3-3.38,5a12,12,0,0,0,.64,4,9.93,9.93,0,0,0,1.16,2.62,2.89,2.89,0,0,0,2.48,1.41,10.05,10.05,0,0,0,3.5-1c.25-.11.4-.65.45-.86a4.16,4.16,0,0,0,.08-1.45c-.06-.43-.25-1.61-.93-1.31a10.6,10.6,0,0,1-2.27.75,2.46,2.46,0,0,1-1.94-.15,1.79,1.79,0,0,1-.54-.52,2.82,2.82,0,0,1-.24-.36l-.07-.13c.06.11-.08-.17-.09-.2-.12-.26-.22-.54-.32-.82,0,0-.19-.57-.14-.4-.06-.2-.12-.41-.17-.63s-.05-.21-.07-.32,0-.32,0,0l0-.32v.09c0-.49,0,.21,0-.12s0,0,0,0,.11-.39,0-.2.11-.25.14-.31c-.06.12.16-.23.2-.28a2.12,2.12,0,0,1,.72-.57,2,2,0,0,1,1.7,0,1.57,1.57,0,0,1,.62.58,1.74,1.74,0,0,1,.11.18c-.08-.15,0,.06,0,.07s.07.18.1.26,0,.16,0,0c0,.09.05.19.08.28.09.32,0,0,0-.12,0-.27,0-.91.14-.91s0,0,0,0a3.3,3.3,0,0,1-.91.52c-.89.36-1.8.67-2.69,1-.25.09-.41.68-.45.87a4.1,4.1,0,0,0-.08,1.44c.07.47.24,1.56.93,1.31Z"/><path class="cls-1" d="M473.05,134a35.19,35.19,0,0,1,0,11.63l1.47.49.23-8c.05-1.67-.1-3.73,1.25-5.09h-.4c.07,0,1.17.73,1,.89,0,0-.16-.77,0-.72s-.27.48-.28.5a4.81,4.81,0,0,1-3.12,1.58c-1.15.2-.92,3.91,0,3.75,2.18-.39,4-1.48,4.64-3.73.51-1.88.28-5-1.79-5.88a.33.33,0,0,0-.4,0c-1.93,1.95-2.21,4.76-2.31,7.37-.12,3.1-.18,6.2-.27,9.29,0,.46.06,1.69.65,1.85s.77-1,.82-1.35a43.89,43.89,0,0,0-.17-14.51c-.09-.5-.54-1.29-1-.68a3.52,3.52,0,0,0-.27,2.57Z"/><path class="cls-1" d="M482.51,125.76c0,.4,0,0,0,.33s0,.47,0,.71l-.09,1.23c-.07.85-.16,1.7-.25,2.55-.19,1.62-.44,3.36-.7,4.83a3.51,3.51,0,0,0,.27,2.57c.48.66.94-.21,1-.67A89.73,89.73,0,0,0,484,125.76c0-.45-.08-1.84-.75-1.87s-.73,1.51-.75,1.87Z"/><path class="cls-1" d="M489.33,129.72c-.59.43-1.26.74-1.88,1.14a4.39,4.39,0,0,0-1.5,1.67,5.52,5.52,0,0,0-.35,3.47,7.16,7.16,0,0,0,1,2.26c.72,1.18,2,2.32,3.51,1.7a2.83,2.83,0,0,0,1.31-1.55,10.11,10.11,0,0,0,.66-2.54c.26-1.78.1-4.53-1.73-5.51-.58-.32-.82.72-.88,1.08a4.16,4.16,0,0,0,0,1.22,2.18,2.18,0,0,0,.35,1.12,35.53,35.53,0,0,1,4.47,6c.43.73.94-.28,1-.68a3.65,3.65,0,0,0-.27-2.56,36.13,36.13,0,0,0-4.48-6L490,134a1.86,1.86,0,0,1,.54.43,1.37,1.37,0,0,1,.13.2c0-.1-.05-.11,0,0,.17.36,0-.15.06.14s0-.19,0-.25c0,.22,0,.2,0,0,0,.1,0,.2,0,.3,0,.37.08-.23,0,.16,0,.15-.07.3-.11.45l-.06.23q.09-.28,0,0a1.92,1.92,0,0,1-.14.33c.11-.21-.09.13-.13.17a1,1,0,0,1-.2.17,1.49,1.49,0,0,1-1.5,0,3.12,3.12,0,0,1-1.16-1.23l-.21-.36c-.07-.14-.09-.16-.05-.08a2.72,2.72,0,0,1-.11-.25l-.06-.13a1.45,1.45,0,0,1,.09.65,1.5,1.5,0,0,1-.12.73c0-.06.05-.11.07-.17s0-.07,0,0l.15-.21.15-.19a4.12,4.12,0,0,1,.75-.57c.58-.37,1.21-.66,1.76-1.07s.61-1.64.52-2.31c0-.3-.31-1.75-.92-1.3Z"/><path class="cls-1" d="M501.05,128.85a3.33,3.33,0,0,0-4.1,3.79,5.12,5.12,0,0,0,.86,2.87,8,8,0,0,0,1.5,1.51,6.22,6.22,0,0,1,.71.64,3.56,3.56,0,0,1,.26.31s.31.43.18.26c.05.14.06.15,0,0a.87.87,0,0,1-.05-.28,2.81,2.81,0,0,1,0-.82.44.44,0,0,1,.07-.19c.08.11-.54.52-.57.54a3.52,3.52,0,0,1-2.24.3c-.26,0-.46.39-.53.55a3.38,3.38,0,0,0-.22,1.33c0,.48,0,1.8.75,1.87,1.6.17,3.17-.29,3.84-1.88a5.23,5.23,0,0,0-1.06-5.55c-.45-.47-1-.84-1.44-1.28a4,4,0,0,1-.62-.76c0-.08-.05-.09,0,0a1.86,1.86,0,0,1-.1-.25,2.33,2.33,0,0,1,.1,1c-.13.46-.15.57-.05.33-.06.12-.07.14,0,.06l.1-.12c-.09.09.18-.13.22-.15a2,2,0,0,1,.62-.26,6.44,6.44,0,0,1,1.75-.14c.27,0,.45-.36.53-.55a3.31,3.31,0,0,0,.22-1.32c0-.44-.06-1.86-.75-1.88Z"/><path class="cls-1" d="M504.06,141.58c.28-1.3.6-2.6,1-3.88a12.87,12.87,0,0,1,1-2.92,1.39,1.39,0,0,1,.9-.69c.23,0,.21,0,.27.16a5.71,5.71,0,0,1,.19.59c0,.15.07.3.1.45,0-.22,0,.16,0,.2s0,.3.05.46c0-.33,0,.08,0,.14s0,.42,0,.15c0,.16,0,.31,0,.46s-.06.42,0,.2l-.12.54,1.29,1.89a10.68,10.68,0,0,1,1.07-3c.2-.36,1.33-2.51,1.84-2.08a4,4,0,0,1,.72,1.43,10.67,10.67,0,0,1,.48,1.45c0,.14.07.29.1.44,0,0,.09.44.07.31a2.44,2.44,0,0,0,0,.32c0,.15,0,.3.05.46s0,.3,0,.45c0-.27,0,0,0,.14,0,.34,0,.67,0,1s.09,1.88.75,1.88.73-1.49.75-1.88a17,17,0,0,0-.51-5.11,15.25,15.25,0,0,0-.8-2.36,5.71,5.71,0,0,0-1.18-2.06c-1.2-1.1-2.52,1.38-3,2.22a15,15,0,0,0-1.69,4.48,3.44,3.44,0,0,0,.27,2.56c.49.68.91-.23,1-.67a14,14,0,0,0,.11-5.93,7,7,0,0,0-.87-2.55,1.22,1.22,0,0,0-1.81-.19c-1.2.81-1.6,2.52-2,3.82q-.81,2.57-1.37,5.21a3.44,3.44,0,0,0,.27,2.56c.49.67.93-.22,1-.67Z"/><path class="cls-1" d="M519.48,132.46c0,.63,0,1.26,0,1.89,0,.32,0,.65,0,1,0,.1,0,.57,0,.1a3.55,3.55,0,0,1,0,.46q-.06.9-.18,1.8c0,.3-.08.6-.13.89.06-.39,0,.15,0,.23s-.07.34-.1.51a3.46,3.46,0,0,0,.27,2.57c.48.66.93-.21,1-.67a34.79,34.79,0,0,0,.67-8.76,3.7,3.7,0,0,0-.22-1.32c-.08-.2-.26-.55-.53-.55-.66,0-.77,1.48-.75,1.87Z"/><path class="cls-1" d="M520.05,127.27c1.06,0,1.07-3.75,0-3.75s-1.07,3.75,0,3.75Z"/><path class="cls-1" d="M531.58,122.91q.4,4.75.36,9.52c0,1.57-.05,3.15-.14,4.72,0,.73-.09,1.46-.15,2.2l-.09,1.2-.06.6c-.09.52,0,.53.11,0l.38-.26c-.8.11-2.07-.86-2.7-1.29a9.56,9.56,0,0,1-2.5-2.37,1.4,1.4,0,0,1-.16-.26c-.26-.5-.31-.13-.16,1.12.14-.06.33-.42.46-.54a8.27,8.27,0,0,1,1.31-.95,9.27,9.27,0,0,1,3.34-1.22c1.14-.18.93-3.9,0-3.75a10.1,10.1,0,0,0-4.69,2,4.64,4.64,0,0,0-1.76,4.43,6.73,6.73,0,0,0,2.49,4.14c1,.92,2.65,2.22,4,2.41s1.35-3.21,1.42-4.1c.16-2,.27-4.07.32-6.1a113.94,113.94,0,0,0-.38-12.53c0-.43-.27-1.61-.93-1.31s-.56,1.8-.52,2.31Z"/><path class="cls-1" d="M403.37,116.13c-.18,1.41-1.84,2.5-2.93,3.19-1.57,1-3.27,1.84-4.93,2.68a41.15,41.15,0,0,1-11.67,3.9c-7.8,1.33-15.78.66-23.61,0l.38,3.49a25.07,25.07,0,0,1,6.79-5.81c.85-.49.74-4-.4-3.61a14.74,14.74,0,0,0-5.07,3.27c-1.34,1.34-2.92,3.19-3.28,5.11a3.92,3.92,0,0,0,.5,3.1,10.65,10.65,0,0,0,2.89,1.95l6.77,4.2c.88.54,1.34-3,.4-3.62l-4.92-3.05-2.46-1.52c-.45-.28-1.8-.83-2-1.31l.19,1.82c0,.28.47-.72.58-.89s.43-.63.66-.93a13.14,13.14,0,0,1,1.76-1.89,14.82,14.82,0,0,1,4.38-2.63L367,120a26.15,26.15,0,0,0-7.15,6.19c-.46.57-.72,3.4.38,3.49,8.56.74,17.33,1.48,25.79-.4a47.52,47.52,0,0,0,12-4.72c3.21-1.7,6.3-3.46,6.79-7.39.07-.54.12-2-.52-2.3s-.87.9-.92,1.31Z"/></g><g id="Layer_42" data-name="Layer 42"><path class="cls-1" d="M186.26,150.13a495.63,495.63,0,0,0,3.26,52.09c1.83,17.25,4.08,34.45,5.74,51.72.94,9.79,1.68,19.61,2,29.45l.95-1.81a10.38,10.38,0,0,1-3.59-6.1l-1.17,2.28,2.81,6c.1.23.38.76.73.48a44.34,44.34,0,0,0,10.71-12.43,3.6,3.6,0,0,0,.27-2.56c-.1-.38-.59-1.43-1-.68a42.92,42.92,0,0,1-10.35,12.06l.73.48-2.81-6c-.27-.56-.63-.71-1-.14a3.59,3.59,0,0,0-.19,2.42,13.36,13.36,0,0,0,4.48,7.82c.71.59,1-1.63,1-1.81-.64-17.42-2.42-34.76-4.41-52.07s-4.12-34.43-5.43-51.72c-.75-9.81-1.2-19.63-1.2-29.47,0-.44-.07-1.87-.75-1.87s-.75,1.49-.75,1.87Z"/><path class="cls-1" d="M300.18,145.69c.38,8.91.81,17.81,1.12,26.72.16,4.4.24,8.8.12,13.2s-.53,8.89-.78,13.33c-.51,8.91.19,17.73.86,26.61s1.37,17.94,2.06,26.91l2.31,30.13,1.1-2.12a36.46,36.46,0,0,1-5.09-7.07c-.32-.56-.75,0-.91.29a3.54,3.54,0,0,0-.12,2.27,18.59,18.59,0,0,0,5.51,8.68.33.33,0,0,0,.4,0l10.42-5.73c.94-.52.56-4.15-.4-3.62L312,277.92c-1.56.86-3.13,1.93-4.77,2.63-.85.36-1.09,0-1.7-.7a16.35,16.35,0,0,1-1.47-1.85,15.09,15.09,0,0,1-1.92-3.93l-1,2.57a37.65,37.65,0,0,0,5.09,7.07c1,1.06,1.14-1.67,1.11-2.12q-2-26.52-4.07-53c-.67-8.85-1.63-17.74-1.26-26.62.18-4.38.59-8.74.81-13.12s.21-8.81.1-13.21c-.26-10-.8-19.94-1.22-29.9,0-.44-.06-1.87-.75-1.87s-.77,1.49-.75,1.87Z"/><path class="cls-1" d="M334.61,214.57q-.72,8.51-.61,17.05c0,.47.06,1.85.75,1.88s.76-1.52.75-1.88q-.12-8,.55-16.05c.05-.59.13-2-.52-2.31s-.89.94-.92,1.31Z"/><path class="cls-1" d="M336.23,225.26q3.28-.4,6.55-.91c.68-.11.76-1.36.75-1.88a3.46,3.46,0,0,0-.22-1.32c-.09-.19-.26-.6-.53-.55q-3.27.51-6.55.91c-.68.08-.76,1.37-.75,1.87a3.54,3.54,0,0,0,.22,1.33c.09.19.26.58.53.55Z"/><path class="cls-1" d="M344.1,214.38A153.41,153.41,0,0,0,343,231.25c0,.46.07,1.85.75,1.88s.75-1.52.75-1.88a145.09,145.09,0,0,1,1-15.87c.07-.57.12-2-.52-2.31s-.88.94-.92,1.31Z"/><path class="cls-1" d="M351.13,223.49c-2.37.39-3.09,3.22-3,5.26a9.79,9.79,0,0,0,.85,3.81,3.16,3.16,0,0,0,2,1.89,4.14,4.14,0,0,0,4.17-1.92,8.43,8.43,0,0,0,1.14-5.83,6.6,6.6,0,0,0-1.22-3.13,2.78,2.78,0,0,0-2.69-1.25c-1.16.31-.82,4,0,3.75a1.81,1.81,0,0,1,1.73.52,3,3,0,0,1,.48.62l.05.08c-.08-.14,0,.05,0,.09s.2.35.18.44c0-.1-.08-.28,0-.08a1.17,1.17,0,0,0,.05.2c0,.19-.07.1,0-.14a1.25,1.25,0,0,0,0,.21c0,.14,0,.29,0-.18a1.47,1.47,0,0,0,0,.21,1.47,1.47,0,0,0,0,.21c0-.13,0-.45,0-.13s.09-.34,0,.07c0,.05-.13.49-.06.26s-.06.16-.08.21-.06.13-.08.19c-.13.31.13-.21,0,.08a3.44,3.44,0,0,1-2.65,1.84,2.12,2.12,0,0,1-1.56-.38,1.09,1.09,0,0,1-.24-.24s-.27-.43-.17-.24a3,3,0,0,1-.19-.46l-.09-.24c.11.32,0-.14,0-.17l-.06-.21c0-.16,0-.31,0-.06a1,1,0,0,1,0-.3c0,.23,0,.28,0,.14a.81.81,0,0,1,0-.22s-.07.47,0,.06l0,.16c.05-.16.05-.19,0-.08s0-.05,0-.1.11-.23,0-.07a2,2,0,0,1,1.47-1.12c.68-.12.76-1.35.75-1.88a3.46,3.46,0,0,0-.22-1.32c-.09-.19-.26-.6-.53-.55Z"/><path class="cls-1" d="M359.39,233.79c.07-.73.14-1.46.24-2.19,0-.17,0-.34.07-.51s0-.23.05-.34,0-.22,0-.11,0,.07,0-.11l.06-.34c0-.16.07-.33.11-.49a10,10,0,0,1,1.5-3.64h-.76a11.58,11.58,0,0,1,1.53,2.55,12.68,12.68,0,0,1,.44,1.22c.06.24.12.49.17.74s.05.24,0,.05c0,.17,0,.34.07.51,0,.39.13,1.07.52,1.31s.62-.2.73-.48a26.84,26.84,0,0,1,1.49-3.33q.43-.81.93-1.59c.18-.29.59-1.22,1-1.2.21,0,.44.87.53,1.13a8,8,0,0,1,.26,1.21c0,.18,0,.35.05.52,0-.19,0-.13,0,0s0,.34,0,.52c0,.36,0-.1,0,.11a3.15,3.15,0,0,0-.05.43l0,.18c0-.14,0-.14,0,0-.06.31-.13.62-.22.93a3.31,3.31,0,0,0,.27,2.56c.5.69.9-.24,1-.67a14.73,14.73,0,0,0,.41-5.41,13.91,13.91,0,0,0-.5-2.49,6.79,6.79,0,0,0-1-2.34c-1.24-1.52-2.64,1.43-3.14,2.3a31.94,31.94,0,0,0-2.1,4.47l1.25.83a14.68,14.68,0,0,0-2.91-7.31c-.24-.29-.53-.34-.76,0-2,2.93-2.41,6.54-2.74,10-.06.63-.12,1.92.52,2.31s.89-1,.92-1.31Z"/><path class="cls-1" d="M374.75,222.94a7.39,7.39,0,0,0-2.07,6.18c.15,2,1.1,4.34,3.19,5s3.72-1.21,4.47-2.86a8.79,8.79,0,0,0,.08-6.72,4.61,4.61,0,0,0-2-2.36,2.57,2.57,0,0,0-2.76,0c-.61.44-.61,1.66-.53,2.31.05.32.31,1.74.93,1.31,1-.73,2.44.06,3,.9,0,.06.28.46.16.23.07.13.12.27.18.41a1.72,1.72,0,0,1,.07.21s-.08-.34,0-.06c0,0,0,.21,0,.22,0-.25,0-.31,0-.18a1,1,0,0,0,0,.17.82.82,0,0,0,0,.22s0-.48,0-.16a1.62,1.62,0,0,0,0,.22c-.06-.38,0-.33,0-.16,0,0,0,.21,0,.22s.08-.38,0-.12a1.42,1.42,0,0,0-.05.22c-.07.33.1-.25,0,.05-.05.13-.11.27-.16.41s0,.05,0,0l-.11.19a5.2,5.2,0,0,1-.5.69,3,3,0,0,1-1.89,1,2.45,2.45,0,0,1-1.87-.76,3.94,3.94,0,0,1-.52-.68c-.13-.2,0,0,0,0l-.09-.21a1.8,1.8,0,0,1-.08-.21c-.14-.34.06.31,0-.05a1.42,1.42,0,0,0-.05-.22c0,.24,0,.3,0,.17l0-.17c0-.18.07-.17,0,.16a1.41,1.41,0,0,0,0-.29c0-.24,0,.41,0,.16,0-.06,0-.11,0-.17h0l0,.11,0-.16a1.28,1.28,0,0,1,.07-.28c-.14.27-.05.14,0,.06s.09-.21.13-.32,0-.06,0,0c0-.1.11-.2.17-.3a3.35,3.35,0,0,1,.62-.75,2.78,2.78,0,0,0,.53-2.31c0-.25-.36-1.81-.92-1.31Z"/><path class="cls-1" d="M384.76,209.8a220.63,220.63,0,0,1,.11,24.8c0,.44.09,1.88.75,1.88s.73-1.49.75-1.88a226.61,226.61,0,0,0-.17-25.8c0-.44-.26-1.6-.92-1.31s-.56,1.81-.52,2.31Z"/><path class="cls-1" d="M393.35,224.6a12.52,12.52,0,0,0-2.69,6,9.45,9.45,0,0,0,.21,3.78,4.55,4.55,0,0,0,.72,1.62,2,2,0,0,0,1.48.68,5.8,5.8,0,0,0,5.15-2.12,7,7,0,0,0,0-7.38,13.05,13.05,0,0,0-2-2.57,3.43,3.43,0,0,0-2.74-1.21c-.69.07-.76,1.38-.75,1.87s.08,2,.75,1.88c1.41-.15,2.4,1.08,3.18,2.09a7.13,7.13,0,0,1,1.06,1.73c.12.29.05.13,0,.06s0,.32,0,0c0,0,0-.32,0-.12v-.15c0-.4.05-.08,0,0s.08-.23,0,0a1.54,1.54,0,0,1-.15.33,4.37,4.37,0,0,1-3.56,1.9c-.62.05-1.53.17-1.92-.4,0,0,0,.05,0,0s0,.18,0-.06-.09-.57-.06-.22l0-.23c0-.23,0,.12,0,.12a1,1,0,0,1,0-.3c0,.15,0,.26,0,0s0-.2,0-.3c0,.17,0,.15,0,0s.05-.2.07-.3l0-.15c0,.11,0,.11,0,0a7.43,7.43,0,0,1,.49-1.17,12.78,12.78,0,0,1,1.36-2,3.3,3.3,0,0,0,.27-2.56c-.13-.48-.51-1.33-1-.68Z"/><path class="cls-1" d="M410.46,223.68a10.16,10.16,0,0,0-5.27,6.42c-.63,2.54-.29,6.24,2.46,7.42,2.54,1.1,4.2-1.13,4.71-3.37a18.18,18.18,0,0,0-.29-9.09c-.16-.49-.56-.71-.91-.29a3.16,3.16,0,0,0-.34,2.12l.66,11.88c.06.93.13,1.86.16,2.79a3,3,0,0,1-.33,1.88c-.58.86-1.28.61-2.09.26s-1.78-.79-2.66-1.18c-1.05-.47-1.36,3.18-.4,3.61s2.09,1,3.16,1.41a1.92,1.92,0,0,0,2.3-.34c1.57-1.49,1.59-4.14,1.49-6.14-.25-5.06-.56-10.11-.85-15.17L411,227.71c.61,2,.55,7.57-3,6.2a2.77,2.77,0,0,1-1.54-1.35c-.21-.57.2-1.25.49-1.74a9.18,9.18,0,0,1,3.86-3.52c.94-.49.59-4.13-.4-3.62Z"/><path class="cls-1" d="M420.77,225.87a6.21,6.21,0,0,0-3.06,4.19,8,8,0,0,0,.84,6.35,2.2,2.2,0,0,0,1.13.89,3,3,0,0,0,1.59-.1,9.9,9.9,0,0,0,2.41-.86c2.24-1.23,2.5-4,2-6.29a10.92,10.92,0,0,0-3.54-5.93c-.21-.18-.46,0-.58.19a2.58,2.58,0,0,0-.35,1.12,2.83,2.83,0,0,0,.53,2.3,8.54,8.54,0,0,1,2.38,3.33c0,.1.07.19.1.29s.09.24,0,.1l0,.1c0,.11.05.21.08.31s.11.31,0,.06c0,.06,0,.26,0,.08s0-.16,0-.24.11-.28,0-.15-.11.26,0,.13,0,0,0,.06l-.2.28a3.23,3.23,0,0,1-.67.52,6.23,6.23,0,0,1-1.66.7,3.47,3.47,0,0,1-2.09.26,1.48,1.48,0,0,1-.61-.63c.05.09-.08-.21-.1-.25s0-.12-.07-.18c.12.3,0,0,0,0a.58.58,0,0,1,0-.18c-.05.2,0,.27,0,.08,0-.34,0,.38,0-.06s-.05.28,0-.06a1.07,1.07,0,0,1,0-.25c0,.11-.07.3,0,.08a1.68,1.68,0,0,0,.07-.24c0,.13-.07.18,0,0s.12-.31.19-.46,0-.09,0,0l.12-.22c.09-.14.18-.28.28-.41a4.16,4.16,0,0,1,1.52-1.23c.26-.13.4-.64.45-.86a4.16,4.16,0,0,0,.08-1.45c-.06-.41-.26-1.64-.92-1.31Z"/><path class="cls-1" d="M429.19,224.06a40.36,40.36,0,0,0-.34,5.81c0,1,.07,2.07.16,3.1a6.59,6.59,0,0,0,.7,2.69c.37.65,1,1.11,1.66.6a11.77,11.77,0,0,0,1.66-1.65,14.79,14.79,0,0,0,2.41-3.89,16.32,16.32,0,0,0,1.29-5.46c0-.64.11-1.73-.44-2.21s-.85.33-.93.77q-.57,3.09-1,6.21a17.19,17.19,0,0,0,.07,6.59c.11.39.32,1.1.85.87.93-.41.9-2,.83-2.83,0-.38-.28-1.66-.93-1.31s-.57,1.75-.52,2.31v.13l.08-1.44,0,.12.27-.67s0,.06-.11.07l.85.86a3.64,3.64,0,0,1-.17-1c0,.27,0-.34,0-.33,0-.64,0,.32,0-.32.07-.85.18-1.69.29-2.52.21-1.67.47-3.29.76-4.89l-1.37-1.45a12.09,12.09,0,0,1-.12,1.21c-.05.39,0-.11,0,.24l-.15.68a12.84,12.84,0,0,1-.69,1.92,12.26,12.26,0,0,1-2.54,3.63c-.19.19-.63.75-.89.79s-.28-.12-.33-.22c0,.13,0,.1,0-.08q0,.28,0,0c0-.18,0-.35-.05-.53s0-.44-.05-.65,0-.25,0-.59a31.37,31.37,0,0,1,.27-5.57c.07-.6.1-1.95-.53-2.3s-.88,1-.92,1.3Z"/><path class="cls-1" d="M445.09,221.22c-1.24.41-2.47.84-3.68,1.33a12.19,12.19,0,0,0-3.12,1.46c-1.15.94-1.29,2.78-1,4.13a5.68,5.68,0,0,0,2.07,2.88c.91.8,1.85,1.55,2.83,2.27a6.3,6.3,0,0,1,1.16,1,1.84,1.84,0,0,1,.25.34,2.57,2.57,0,0,1,.05-1.29c.06,0,0,0-.08.14a4.16,4.16,0,0,1-1,.79,3.3,3.3,0,0,1-1.24.28c-1.32.06-2.6-.33-3.91-.34-1.06,0-1.08,3.75,0,3.75,2.15,0,4.61,1,6.42-.67s1.54-5.11-.22-6.78c-.84-.78-1.85-1.4-2.74-2.12l-1.28-1.1a8.37,8.37,0,0,1-1.05-1.19c-.4,1.5-.36,2,.11,1.57a1.94,1.94,0,0,1,.33-.23c.24-.14.5-.25.75-.37.53-.24,1.05-.46,1.59-.68,1.22-.51,2.47-1,3.73-1.38s.76-4,0-3.75Z"/><path class="cls-1" d="M343.22,253.41c.15.68.28,1.37.4,2.06.07.37.08.44.15.87s.11.7.16,1c.2,1.42.37,2.85.49,4.28,0,.36.24,1.53.83,1.34s.66-1.38.65-1.84l-.1-3.45c0-.57,0-1.14-.05-1.71a2.16,2.16,0,0,1,0-.36,1,1,0,0,1,0,.26,3.78,3.78,0,0,1,.26-.38,7.78,7.78,0,0,1,5-2.41c.68-.07.76-1.38.75-1.87s-.08-2-.75-1.88a8.37,8.37,0,0,0-5.92,3.19c-.87,1.32-.78,3-.74,4.49l.12,4.12,1.47-.5a80.72,80.72,0,0,0-1.35-9.15c-.09-.46-.55-1.33-1-.67a3.62,3.62,0,0,0-.27,2.57Z"/><path class="cls-1" d="M357.3,257.78a4.77,4.77,0,0,0,5.62-2.89,7.5,7.5,0,0,0,.42-4.56,2.6,2.6,0,0,0-1.08-1.67,5.6,5.6,0,0,0-1.74-.64c-2.48-.51-3.84,1.8-4.51,3.81a35.52,35.52,0,0,0-1,3.8,9.88,9.88,0,0,0-.09,4.74c.83,2.85,4.14,3.65,6.67,2.65.24-.09.4-.66.45-.86a4.37,4.37,0,0,0,.07-1.44c-.06-.46-.24-1.58-.92-1.31a4.65,4.65,0,0,1-4.71-.75c-.06-.05-.28-.37-.3-.37a.05.05,0,0,0,0,.09s0,.3,0,0,0,.23,0-.07l0-.29c0,.17,0-.08,0-.12.19-.95.42-1.9.69-2.83.35-1.22.82-2.79,2.13-3.29a3.42,3.42,0,0,1,2.54.31c.07,0,.48.29.5.28s0-.06,0-.18c0,0-.07-.65,0-.33s.09-.39,0,0a1.44,1.44,0,0,1-.17.43A3.85,3.85,0,0,1,357.3,254c-.8-.23-1.18,3.41,0,3.75Z"/><path class="cls-1" d="M371.2,250.55c-3.63.47-4.82,4.64-4.7,7.76.07,1.6.39,3.45,1.62,4.58s2.85.55,4.05-.25c.62-.41.61-1.67.53-2.31-.05-.33-.3-1.72-.93-1.31-.87.58-2.06,1.12-3,.43a1.29,1.29,0,0,1-.38-.39,2.13,2.13,0,0,1-.16-.25c.12.21,0-.09-.06-.14s-.11-.34,0-.09c0-.12-.06-.24-.09-.36-.09-.41,0,.37,0,0,0-.14-.12-.45,0,0a1.86,1.86,0,0,1,0-.47c0-.41-.05.3,0-.13,0,0,.06-.46,0-.24s.07-.26.08-.32,0-.1,0,0a1.43,1.43,0,0,1,.08-.22c0-.12.09-.24.14-.36a4.33,4.33,0,0,1,.36-.6,3.76,3.76,0,0,1,2.52-1.53c.68-.09.76-1.37.75-1.88,0-.35-.09-2-.75-1.87Z"/><path class="cls-1" d="M379.42,251.32a5,5,0,0,0-4,4,7.42,7.42,0,0,0,1.65,6.91,4,4,0,0,0,2.57,1.23,2.67,2.67,0,0,0,2.42-1.36,7.19,7.19,0,0,0,.89-3.18,16.23,16.23,0,0,0-.07-3.75,6.2,6.2,0,0,0-1.68-3.74,2.36,2.36,0,0,0-3-.41c-.61.46-.62,1.64-.53,2.31,0,.29.33,1.76.93,1.31a1.54,1.54,0,0,1,1.82.12,2.55,2.55,0,0,1,.63.64s.22.38.14.21a2.44,2.44,0,0,1,.1.24s.13.39.07.16c0,.1,0,.2.07.3s0,.32,0,0c0,.13.08.72,0,.28a9.93,9.93,0,0,1,0,1.22,1,1,0,0,0,0,.24c-.08-.2,0-.36,0-.14s0,.4-.06.49c.1-.13.07-.29,0-.08l-.06.23c0,.08-.09.27,0,0,0,.09-.06.18-.1.27s-.13.25-.05.11-.05.07-.07.1l-.18.23a1.71,1.71,0,0,1-.86.45,2.8,2.8,0,0,1-2-.49,3.92,3.92,0,0,1-1.27-1.41l-.16-.38c-.09-.21,0,.22,0,0l-.06-.25c-.06-.23,0,.31,0,.07a1.34,1.34,0,0,0,0-.2c.08.35,0,.28,0,.12,0,.77,0-.35,0,.3a2,2,0,0,1,.05-.24c.06-.28-.07.12,0,0s.07-.16.1-.23-.07.1,0-.09a4,4,0,0,1,.59-.77,3.47,3.47,0,0,1,2-1c.68-.09.76-1.37.75-1.88a3.7,3.7,0,0,0-.22-1.32c-.08-.2-.26-.59-.53-.55Z"/><path class="cls-1" d="M385.75,262c0-.33-.07-.66-.1-1,0-.15,0-.31,0-.46s-.05-.67,0-.2c0-.63,0-1.25,0-1.87,0,.45,0,0,0-.12s0-.31.05-.46.08-.46,0-.15c0-.18.07-.35.11-.52a5.12,5.12,0,0,1,.48-1.34,7.48,7.48,0,0,1,.48-.76c.12-.16.35-.53.58-.57s.3.13.35.24a3.62,3.62,0,0,1,.2.45s.18.5.13.32c.05.16.08.32.12.48.09.35,0-.19,0,.2,0,.17,0,.33.05.5,0-.43,0,.11,0,.16,0,.44.05-.24,0,.16,0,.07-.07.5,0,.21a4.48,4.48,0,0,1-.24.89l1.26,1.82a15,15,0,0,1,.69-3.31q.3-.9.69-1.77l.06-.13.05-.08c.06-.07.06-.09.13-.13s.26,0,.37.13a5.6,5.6,0,0,1,.75,1.38c.13.29.25.58.36.88.05.13.1.26.14.4s.12.36.07.19c.09.3.16.61.23.91l.09.42c.11.54,0-.32,0,.23,0,.28.07.57.09.85.06.56,0-.37,0,.18v.52c0,.44.07,1.87.75,1.87s.75-1.48.75-1.87a17.75,17.75,0,0,0-.73-5.17,16.92,16.92,0,0,0-.89-2.37,6,6,0,0,0-1.28-2.05c-1.45-1.18-2.35,1.79-2.67,2.7a22.79,22.79,0,0,0-1.16,5.22,3.3,3.3,0,0,0,.34,2.12c.34.46.75.15.91-.29a11.74,11.74,0,0,0,.64-5.32,11.55,11.55,0,0,0-.58-2.59,3.84,3.84,0,0,0-1.12-1.94c-1.27-.83-2.45,1.64-2.84,2.51a12.75,12.75,0,0,0-1,4.26,29,29,0,0,0,.18,5.27c.05.35.29,1.7.93,1.31s.59-1.73.52-2.31Z"/><path class="cls-1" d="M395.73,245.71a36.8,36.8,0,0,1-.41,8.58c-.19,1.55-.41,3.1-.57,4.65a12.34,12.34,0,0,0-.12,2.43c.05.57.19,1.49.74,1.81.84.5,2.06-.4,2.6-1A6.8,6.8,0,0,0,399.5,259c.45-2.17.41-6.83-2.79-6.84-1.06,0-1.07,3.75,0,3.75a1.65,1.65,0,0,1,1.49.86c0,.05,0,.11,0,.16-.08-.24,0-.06,0,.13a4.37,4.37,0,0,1-.17.62,3.2,3.2,0,0,1-.88,1.31c-.32.28-1.15.83-1.52.46l.33.48c.08,1.05.13,1.26.16.63,0-.15,0-.31.05-.46l.12-1.09c.07-.61.15-1.23.23-1.85.17-1.34.36-2.68.5-4a39.51,39.51,0,0,0,.15-8.42c0-.43-.26-1.6-.92-1.31s-.58,1.81-.53,2.31Z"/><path class="cls-1" d="M401.93,253.63l-1.07,6.49a3.93,3.93,0,0,0,.08,1.45c.06.25.19.71.45.86.64.4.87-1,.92-1.31l1.06-6.49a4.1,4.1,0,0,0-.07-1.44c-.07-.26-.2-.71-.45-.86-.65-.4-.87,1-.92,1.3Z"/><path class="cls-1" d="M403,250.43c1.06,0,1.07-3.75,0-3.75s-1.07,3.75,0,3.75Z"/><path class="cls-1" d="M406.65,252.32l-.09.56c0,.09,0,.17,0,.25,0-.15,0-.17,0,0-.06.35-.12.7-.19,1-.13.67-.27,1.35-.43,2-.31,1.36-.68,2.71-1.09,4l1.4,1c0-.31,0-.62,0-.92s0-.09,0,.18c0-.08,0-.16,0-.25s0-.29,0-.43,0-.29.05-.43,0-.17,0,.08c0-.08,0-.17.05-.25s.05-.23.08-.35a2.17,2.17,0,0,1,.07-.24c-.06.19-.06.21,0,0s.08-.22.13-.33a2,2,0,0,1,.1-.21c-.07.12-.06.12,0,0a4.39,4.39,0,0,1,.47-.66,3.83,3.83,0,0,1,1.44-.84,3.07,3.07,0,0,1,1.87-.09.84.84,0,0,1,.47.44c-.13-.21.08.2.1.25.14.37-.06-.3,0,.08.05.21.11.42.15.63,0,0,.1.54,0,.18.07.37.1.75.14,1.12s0,.22,0,0c0,.1,0,.21,0,.32v.48c0,.11,0,.22,0,.32,0-.23,0-.23,0,0l-.06.64a4.1,4.1,0,0,0,.07,1.44,1.47,1.47,0,0,0,.45.86c.64.39.89-1,.92-1.31a18,18,0,0,0-.14-5.23,11.1,11.1,0,0,0-.57-2.27,2.85,2.85,0,0,0-1.14-1.52,4,4,0,0,0-3.82.62,5.9,5.9,0,0,0-1.94,3.18,17,17,0,0,0-.5,4.5c0,.49.05,1.5.55,1.81s.75-.55.85-.86a61.52,61.52,0,0,0,2-8.8,3.88,3.88,0,0,0-.07-1.44,1.47,1.47,0,0,0-.45-.86c-.65-.4-.87,1-.92,1.31Z"/><path class="cls-1" d="M419.73,251.69c-3.29,1.3-4.23,5.35-3.51,8.5a7,7,0,0,0,1,2.37,1.68,1.68,0,0,0,1.81.68,3.87,3.87,0,0,0,2.86-3.51,11.15,11.15,0,0,0-.14-3.36l-.46-2.94L420,255.25a47,47,0,0,0,3.32,7c.43.74.94-.28,1-.67a3.74,3.74,0,0,0-.27-2.57,42.05,42.05,0,0,1-3-6.39c-.16-.42-.58-.79-.91-.29a3.16,3.16,0,0,0-.34,2.11c.2,1.31.44,2.61.6,3.92,0,.07,0,.15,0,.22,0,.35,0,0,0-.06,0,.37,0-.27,0,.09,0-.09.12-.42,0-.19,0,0-.08.19,0,.06s-.05.07-.06.09a2.2,2.2,0,0,1-1,.81,1.84,1.84,0,0,1-1.22.14c-.35-.12-.5-.67-.63-1s0,.18,0-.11c0-.06,0-.13,0-.19s0,.14,0,.14,0-.19,0-.26,0,.39,0,.18V258c0-.28,0,0,0,.11a.58.58,0,0,0,0-.19c0-.2,0,.13,0,.13s.08-.33.09-.37c-.06.25,0,0,0-.08a1.11,1.11,0,0,0,.07-.16s.11-.23.05-.12,0-.08.07-.11l.12-.2.24-.34a3.63,3.63,0,0,1,.47-.49,5.06,5.06,0,0,1,1.5-.92c.25-.09.41-.66.45-.86a4.12,4.12,0,0,0,.08-1.44c-.06-.46-.24-1.58-.92-1.31Z"/><path class="cls-1" d="M427.18,242.67a108.44,108.44,0,0,0,.12,17.93c0,.43.26,1.6.92,1.31s.57-1.81.52-2.31a96.29,96.29,0,0,1-.11-15.93c0-.59.13-2-.53-2.31s-.89.94-.92,1.31Z"/><path class="cls-1" d="M424.24,252.47h5.95c.27,0,.45-.35.53-.54a3.38,3.38,0,0,0,.22-1.33,3.19,3.19,0,0,0-.22-1.33c-.09-.21-.24-.55-.53-.55h-5.95c-.27,0-.45.36-.53.55a4.13,4.13,0,0,0,0,2.66c.1.21.24.54.53.54Z"/><path class="cls-1" d="M433.93,253.21l0,.76c0,.06,0,.49,0,.16s0,.09,0,.16c0,.49-.07,1-.11,1.46-.1,1-.22,1.95-.38,2.91a3.93,3.93,0,0,0,.08,1.45,1.48,1.48,0,0,0,.45.86c.64.39.87-1,.92-1.31a49.88,49.88,0,0,0,.59-6.45,3.54,3.54,0,0,0-.22-1.33c-.08-.2-.26-.55-.53-.55s-.45.34-.53.55a4,4,0,0,0-.22,1.33Z"/><path class="cls-1" d="M434.47,250.24c1.06,0,1.07-3.75,0-3.75s-1.07,3.75,0,3.75Z"/><path class="cls-1" d="M441.73,249.31a5.67,5.67,0,0,0-3.54,4,10.47,10.47,0,0,0-.47,3.38,5.07,5.07,0,0,0,1.34,3.79,4,4,0,0,0,2.42.79,5.35,5.35,0,0,0,3-.61,4.42,4.42,0,0,0,1.78-2.73,7.83,7.83,0,0,0-.23-4.52,6.76,6.76,0,0,0-5-4.37c-.25,0-.48.41-.54.55a3.53,3.53,0,0,0-.21,1.33c0,.54,0,1.72.75,1.87a5.64,5.64,0,0,1,3.44,2.27,3.48,3.48,0,0,1,.46.87c.11.28,0,.1,0,0,0,.1,0,.19.07.28-.08-.33,0-.1,0,0,0-.64,0,.41,0-.31,0,.27,0-.06,0-.07l-.06.24c.12-.42-.14.28,0,0a2.13,2.13,0,0,1-.63.76,3.71,3.71,0,0,1-2.15.63,5,5,0,0,1-2-.23,2.22,2.22,0,0,1-.78-.5c.08.08-.2-.32-.09-.13a1.73,1.73,0,0,1-.1-.24c.1.28,0-.16,0,.08l0,.1c0-.21,0-.18,0,.09a1.22,1.22,0,0,1,0-.27,1.76,1.76,0,0,0,0-.23s0,.47,0,.15l0-.24c0-.18-.07-.11,0,.1a2,2,0,0,1,.12-.52c0-.05.09-.29,0-.09s0-.11.06-.15.15-.36.23-.54c-.09.2,0,0,0,0l.18-.29a4.5,4.5,0,0,1,.3-.42,3.65,3.65,0,0,1,1.59-1.11c1.17-.37.77-4,0-3.75Z"/><path class="cls-1" d="M449.13,250.55a38.75,38.75,0,0,1,0,7.69l1.48.5c0-.4,0-.79,0-1.19,0-.56,0,.38,0-.18,0-.17,0-.34,0-.51.05-.73.11-1.46.19-2.19,0-.4.1-.79.13-1.18s0,.35,0-.05c0-.17,0-.17,0,0l.05-.11.11-.08a.74.74,0,0,1,.24-.11,1.11,1.11,0,0,1,.67.12,6.16,6.16,0,0,1,2.19,2.64,7.39,7.39,0,0,1,.36.79c.06.14.1.28.15.41s.06.19,0,0c0,.07,0,.14.05.21s.12.6.06.19a1.27,1.27,0,0,1,.05.43c0-.26,0-.28,0-.07v.14q0,.33,0-.06a1.43,1.43,0,0,1,0,.29,4.36,4.36,0,0,0,.08,1.44,1.47,1.47,0,0,0,.45.87c.64.39.88-1,.92-1.31a11.43,11.43,0,0,0-2.48-8.32c-.66-.86-1.79-2-3-1.41a2.58,2.58,0,0,0-1.14,1.75,12.58,12.58,0,0,0-.34,2.2c-.19,1.74-.3,3.49-.35,5.24,0,.45.06,1.7.65,1.84s.78-1,.82-1.34a49,49,0,0,0,0-9.69c0-.36-.29-1.7-.93-1.31s-.58,1.72-.52,2.31Z"/><path class="cls-1" d="M339.8,260.53A52.18,52.18,0,0,1,325,275.93l.84,2.76a57.38,57.38,0,0,1,2.3-7.95l-1.25-1.83-.45,5.59c-.13,1.69-.77,4.23.28,5.72.84,1.21,2.71.71,3.94.61l5.77-.47c1.11-.09,1-3.84,0-3.75l-4.62.37-2.31.19a4.63,4.63,0,0,1-1.7,0,.76.76,0,0,1-.32-.17l.2,1.12a11,11,0,0,1,.1-1.31l.19-2.31.37-4.6a3.18,3.18,0,0,0-.35-2.12c-.35-.42-.73-.17-.91.29a61.51,61.51,0,0,0-2.53,8.71c-.08.38-.11,3.41.85,2.76a53.86,53.86,0,0,0,15.18-15.78,3.55,3.55,0,0,0,.27-2.56c-.1-.41-.57-1.4-1-.68Z"/><path class="cls-1" d="M25.94,160.41a61.2,61.2,0,0,0,3,24.55c.24.72.78.59,1.06,0a3.89,3.89,0,0,0,0-2.65,52.58,52.58,0,0,1-2.58-20.9c.05-.55.13-2-.52-2.31s-.89.9-.92,1.31Z"/><path class="cls-1" d="M17.16,161.58l18.61-2.2c1.12-.13,1-3.86,0-3.75l-18.61,2.2c-1.13.14-1,3.87,0,3.75Z"/><path class="cls-1" d="M36.54,176.68a21.14,21.14,0,0,0,2.94,8.1c.21.35.54.3.76,0a2.83,2.83,0,0,0,.37-1.62c0-.59,0-1.19,0-1.79,0-.16,0-.32,0-.48s0-.32,0,0c0-.32,0-.63.08-.94l.06-.47c.05-.37-.06.23,0-.16s.12-.55.2-.82-.05.12,0-.13l.15-.42a5.43,5.43,0,0,1,.3-.63c1.38-2.36,4.06-2.8,6.56-3,.69-.06.76-1.38.75-1.87s-.08-1.94-.75-1.88a13.91,13.91,0,0,0-4.5,1,6.37,6.37,0,0,0-3,2.82c-1.44,2.68-1.54,5.89-1.47,8.87l1.13-1.61a16.88,16.88,0,0,1-1.48-3,11.56,11.56,0,0,1-.45-1.41c-.08-.27-.14-.54-.2-.82,0-.12,0-.24-.08-.36-.11-.6,0,.3-.05-.3,0-.37-.26-1.67-.92-1.31s-.6,1.77-.52,2.31Z"/><path class="cls-1" d="M54,171.19a5.23,5.23,0,0,0-3.59,2.37,8,8,0,0,0-.81,6,5,5,0,0,0,2.76,3.73,2.48,2.48,0,0,0,2.05,0,3.18,3.18,0,0,0,1.38-2.25,22,22,0,0,0,.32-7.15L55.05,176l4.37,6.36c.47.68.93-.23,1-.67a3.62,3.62,0,0,0-.27-2.57l-4.38-6.36c-.28-.41-.63-.23-.83.15a3.59,3.59,0,0,0-.27,2c0,.23,0,.47.07.71s0,.23,0,0c0,.12,0,.24,0,.36s0,.47,0,.71c0,.07,0,.79,0,.39,0,.42-.06.83-.11,1.25,0,.23-.06.47-.11.7.08-.44-.12.43,0,.09-.36,1.14-2.17.55-2.85-.14a3.53,3.53,0,0,1-.58-.81c0,.08,0,.05,0-.09l-.1-.27c-.06-.17-.06-.17,0,0a2.86,2.86,0,0,1-.07-.28c.13.54,0-.58,0,.1,0-.39-.09.34,0-.07,0-.2,0-.19,0,0a2.29,2.29,0,0,1,.07-.28c-.08.29.09-.21.11-.27s.08-.16,0-.07c0-.07.09-.15.14-.23s.21-.29.32-.43a3.47,3.47,0,0,1,.6-.55,4.13,4.13,0,0,1,1.88-.82c.69-.12.76-1.36.75-1.88,0-.33-.09-2-.75-1.87Z"/><path class="cls-1" d="M60.86,169.67a40,40,0,0,1,.82,4.15c.1.72.18,1.45.24,2.18,0,.36.06.73.08,1.09,0,.65,0-.35,0,.3,0,.2,0,.4,0,.6l1.47-.5c0-.17,0-.33,0-.5,0,.34,0,0,0-.15s0-.33,0-.5,0-.3,0-.08,0-.12,0-.16,0-.33.06-.49l0-.25s0,.24,0,0c.07-.36.15-.7.24-1,0,0,.07-.25,0-.12s.05-.14,0-.13l.17-.47a9.32,9.32,0,0,1,.42-1,10.27,10.27,0,0,1,1-1.62,4.41,4.41,0,0,1,1.28-1.37c.58-.32,1,.18,1.39.61a7.63,7.63,0,0,1,.93,1.53c.12.29.23.59.33.89-.06-.18,0,.18.07.23s.09.37.13.55.08.37.12.55c0,0,0,.28,0,.1s0,.14,0,.17c.06.38.1.76.14,1.14.08.78.13,1.57.18,2.35,0,.37.3,1.69.92,1.31s.56-1.71.53-2.3c-.2-3.32-.51-7.05-2.64-9.76-.45-.57-1.12-1.36-2-1.21A3.57,3.57,0,0,0,65,167.35a13.48,13.48,0,0,0-2.32,4.42,16.56,16.56,0,0,0-.65,6.71c0,.36.24,1.54.83,1.35s.66-1.38.65-1.84a48.72,48.72,0,0,0-1.38-10.21c-.11-.45-.54-1.34-1-.67a3.49,3.49,0,0,0-.27,2.56Z"/><path class="cls-1" d="M80.43,164.28c-2.23-.08-4.72,0-6.16,2-1.56,2.13-1.1,5.44.48,7.41C76,175.23,78,176.17,78.92,178c.31.6-.1-.23,0-.17a1.11,1.11,0,0,1-.1.3,2.69,2.69,0,0,1-1,1.06,3.33,3.33,0,0,1-3.07.18c-1-.47-1.36,3.18-.4,3.62a4.09,4.09,0,0,0,5.48-2.1,7,7,0,0,0-.84-7.14,19.43,19.43,0,0,0-2.3-2.14,8.37,8.37,0,0,1-1.2-1.18,4.5,4.5,0,0,1-.56-.81c0-.09-.08-.34-.15-.41a1.35,1.35,0,0,1,0,.72.62.62,0,0,1,.12-.26,3,3,0,0,1,.35-.45,3.94,3.94,0,0,1,1.24-.8,9.3,9.3,0,0,1,3.93-.38c1,0,1.09-3.7,0-3.75Z"/><path class="cls-1" d="M84.3,178.94l2.56-15.52,1.26-7.63c.17-1,0-2.83,1.3-3,1.07-.15,1.94.74,2.65,1.41.55.52.89-1.07.92-1.31a2.82,2.82,0,0,0-.53-2.31c-1.48-1.41-3.94-2.5-5,0a19.69,19.69,0,0,0-.81,4.18l-.78,4.68-3.05,18.47c-.09.54-.1,2,.52,2.31s.86-.91.93-1.31Z"/><path class="cls-1" d="M82.3,163.47a26,26,0,0,0,9.33-.52c1.16-.28.85-3.95,0-3.75a26,26,0,0,1-9.33.52c-.26,0-.47.39-.53.55a3.31,3.31,0,0,0-.22,1.32c0,.5,0,1.79.75,1.88Z"/><path class="cls-1" d="M89,168.21a17.26,17.26,0,0,0-1.5,7.29,13.32,13.32,0,0,0,.53,4.07,2,2,0,0,0,2.33,1.59,5.66,5.66,0,0,0,4.44-2.77,8.17,8.17,0,0,0,.48-7.1,5.85,5.85,0,0,0-4.78-3.74c-.26,0-.46.38-.53.55a3.49,3.49,0,0,0-.22,1.32c0,.47.06,1.82.75,1.88a4.57,4.57,0,0,1,3.31,1.91,3,3,0,0,1,.41.73c0,.09.15.47.08.21a2,2,0,0,0,.07.26c-.06-.22,0-.16,0,0s0-.14,0-.15c0,.35,0,0,0-.09a.86.86,0,0,1,0,.28s.07-.3,0-.11c0,0-.08.32,0,.14s0,.05,0,.07-.17.42-.2.48a4.78,4.78,0,0,1-3,2.25c-.53.12-1.55.3-2-.17.06.06,0-.2,0,0l-.06-.28c0,.08,0,.28,0-.07,0-.2-.06-.4-.08-.6s0-.23,0-.34c0-.32,0,.44,0-.11v-.69c0-.07,0-.37,0,0,0-.12,0-.24,0-.35s0-.52.09-.77a2,2,0,0,1,0-.26c0,.27,0-.1,0-.15a11.22,11.22,0,0,1,.88-2.66,3.62,3.62,0,0,0,0-2.65c-.29-.69-.76-.66-1.06,0Z"/><path class="cls-1" d="M97.28,169.73a17.4,17.4,0,0,1,.78,7.81l1.38-.44a8.82,8.82,0,0,1-.28-1.51c0-.07,0-.47,0-.23,0-.14,0-.28,0-.42v-.42c0-.67,0,.14,0-.24a9.89,9.89,0,0,1,.76-3.12c.74-1.74,2.32-3.47,4.37-3.2.94.13,1.14-3.6,0-3.75-2.77-.37-4.72,2.43-5.59,4.69A16.88,16.88,0,0,0,98.14,179c.09.33.29,1,.75.89s.58-1,.62-1.34a26.21,26.21,0,0,0-1.17-11.46c-.23-.7-.8-.62-1.06,0a3.89,3.89,0,0,0,0,2.65Z"/><path class="cls-1" d="M108.75,178.55l.51-4.5c.09-.74.16-1.48.25-2.21,0,0,.07-.33,0-.24s0,.06,0,0a.83.83,0,0,1,.41-.37c.94-.33,1.71.79,1.94,1.52a7,7,0,0,0,1.62,3.32c.31.3.65-.27.73-.48a25.67,25.67,0,0,1,3.23-6l-.57.19a10.74,10.74,0,0,1,3.75,6.12c.06.41.24,1.63.92,1.31s.61-1.8.52-2.31a13.93,13.93,0,0,0-4.8-8.74c-.21-.17-.45,0-.57.19a28.22,28.22,0,0,0-3.54,6.55l.73-.48a2.9,2.9,0,0,1-.67-1.4,8.63,8.63,0,0,0-.83-2.15c-.64-1-2-2-3.16-1.1s-1.19,2.93-1.35,4.32l-.62,5.43c-.07.58-.12,2,.52,2.31s.88-.94.93-1.31Z"/><path class="cls-1" d="M127.8,165.75c-4.23,3.29-4.07,11.13.64,13.94a.43.43,0,0,0,.58-.19,13.85,13.85,0,0,0,.16-12.93l-.75,3.24,4.71,5.49c.52.6.91-.16,1-.68a3.39,3.39,0,0,0-.27-2.56l-4.72-5.49c-.51-.6-.91.16-1,.67a3.8,3.8,0,0,0,.27,2.57,7.27,7.27,0,0,1,.38.91,4.51,4.51,0,0,1,.21.73c0,.06.14.7.08.37,0,.16.05.33.07.49s0,.59,0,.16c0,.2,0,.39,0,.58a2,2,0,0,1,0,.25h0l-.06.49c-.06.53.08-.31,0,.21,0,.19-.08.38-.13.56a8.29,8.29,0,0,1-.7,1.7l.58-.19A5.71,5.71,0,0,1,127,174.4a4.4,4.4,0,0,1-.52-1,2.6,2.6,0,0,1-.13-.36c0,.16,0,0,0-.06s0-.2-.07-.3c0,.25,0,.06,0-.08s0,.31,0,0c0,0,0-.39,0-.15s0-.09,0-.14.06-.33,0-.09c0-.09.14-.55.08-.38a5.18,5.18,0,0,1,.26-.65,5.34,5.34,0,0,1,1.55-1.88c.6-.47.61-1.63.52-2.31,0-.29-.33-1.77-.92-1.31Z"/><path class="cls-1" d="M134.22,154.49a36,36,0,0,0,3.33,18.93c.31.64.76.68,1.06,0a3.62,3.62,0,0,0,0-2.65,29,29,0,0,1-2.94-15.28c.05-.58.12-2-.52-2.31s-.89.94-.93,1.31Z"/><path class="cls-1" d="M131.39,164.53a27.83,27.83,0,0,0,7.32-2.07c.25-.11.4-.66.45-.86a4.16,4.16,0,0,0,.08-1.45c-.06-.44-.25-1.6-.92-1.31a26.2,26.2,0,0,1-6.93,1.94c-.69.1-.76,1.37-.75,1.88a3.11,3.11,0,0,0,.22,1.32c.08.2.25.59.53.55Z"/><path class="cls-1" d="M143.8,163l-.42,7.81a5,5,0,0,0,.07,1.44c.07.26.2.71.45.86.63.39.91-1,.92-1.3l.42-7.82a4.65,4.65,0,0,0-.07-1.44,1.5,1.5,0,0,0-.45-.86c-.63-.38-.9,1-.92,1.31Z"/><path class="cls-1" d="M145.17,159.82c1.06,0,1.07-3.75,0-3.75s-1.07,3.75,0,3.75Z"/><path class="cls-1" d="M151.52,161.88c-4.59.82-5.7,6.68-3.75,10.29a5.58,5.58,0,0,0,1.83,2,2.77,2.77,0,0,0,1.34.49,2.59,2.59,0,0,0,1.4-.55,6.57,6.57,0,0,0,2.45-5.62c-.07-2.36-1.18-4.91-3.56-5.71-.68-.23-.88.82-.92,1.31a4.1,4.1,0,0,0,.07,1.44c.07.24.18.77.45.86a4.3,4.3,0,0,1,1.66,1,5,5,0,0,1,.55.73l.05.08c-.06-.11.06.13.07.15l.07.18c.16.36,0-.16,0,.05a1.42,1.42,0,0,1,0,.2c0,.21,0-.17,0-.17,0,.37,0-.11,0-.11s-.05.26,0,.26.07-.33,0-.13c0,0-.07.31,0,.13s-.05.14-.07.18a2.44,2.44,0,0,1-.1.24s-.1.19,0,.09-.08.11-.09.13l-.11.17a3.58,3.58,0,0,1-.61.68,1.7,1.7,0,0,1-1.84.52,4,4,0,0,1-1.46-1.19c-.09-.12-.18-.24-.26-.37a1,1,0,0,0-.1-.17c.09.15,0,0,0-.06l-.2-.48c.11.29-.06-.14-.05-.25,0,0,.06.39,0,.06,0,0,0-.28,0,0s0,0,0-.07c0-.26,0,.37,0,.11s0,.12,0,.12.05-.21.06-.24.1-.26,0,0a2.34,2.34,0,0,1,.09-.24,2.29,2.29,0,0,1,.1-.23c-.08.17,0-.07.06-.1a3.55,3.55,0,0,1,.32-.47,3.92,3.92,0,0,1,.67-.68,4.24,4.24,0,0,1,1.92-.89c.68-.12.76-1.34.75-1.87a3.72,3.72,0,0,0-.22-1.33c-.08-.19-.27-.6-.53-.55Z"/><path class="cls-1" d="M155.88,163.71a21.14,21.14,0,0,1,1,4c0,.36.09.72.12,1.07s0,.39,0,.59c0-.32,0,.28,0,.28,0,.39,0,.78,0,1.17,0,.16,0,.33,0,.49a2.81,2.81,0,0,0,0,.29c0-.17,0-.14,0,.09l1.37-.45c0-.11-.05-.23-.07-.34,0,.13,0,.14,0,0s-.05-.35-.07-.53a2.46,2.46,0,0,0,0-.26c0,.21,0,.2,0,0v-.53c0-.41,0,.25,0-.2,0-.17,0-.35.05-.52s.09-.53,0-.24c0-.18.07-.35.11-.52a9,9,0,0,1,.71-1.92c.18-.36.5-1.2,1-1.08s.71.75.85,1.16a13.56,13.56,0,0,1,.5,2c0,.23.09.76.13,1.1s0-.17,0,.26c0,.19,0,.38,0,.57s0,.38,0,.57c0-.34,0,.19,0,.26,0,.44-.1.88-.17,1.32-.1.6-.09,1.93.52,2.31s.87-1,.92-1.31a19.9,19.9,0,0,0,.13-5.45,15.41,15.41,0,0,0-1.27-5,2.64,2.64,0,0,0-1.4-1.46c-.76-.22-1.33.4-1.69,1a13.19,13.19,0,0,0-1.69,4.5,16.17,16.17,0,0,0,.09,6.24c.07.32.3,1,.75.9s.6-1,.62-1.34a29.28,29.28,0,0,0-1.5-11.64c-.07-.2-.27-.55-.53-.55s-.45.36-.53.55a3.89,3.89,0,0,0,0,2.65Z"/><path class="cls-1" d="M166,170.31l14.75-.4c.47,0,.63-.83.69-1.15a3.77,3.77,0,0,0-.16-2,12.15,12.15,0,0,0-5.92-6c-1.15-.53-1.08,3-.4,3.61a22.21,22.21,0,0,1,4.37,5c.16.25.29.53.46.76l.07.18c.37-1.56.35-2-.05-1.44-.4.37-.78.76-1.17,1.13l-2.78,2.63a2.83,2.83,0,0,0-.53,2.3c0,.24.38,1.83.93,1.31l3.6-3.4a3.9,3.9,0,0,0,1.21-1.73,5.42,5.42,0,0,0-.11-3.33,13.56,13.56,0,0,0-2.42-3.77,24.73,24.73,0,0,0-3.18-3.21l-.4,3.61a10.6,10.6,0,0,1,5.26,5.05l.53-3.2-14.75.4c-1.08,0-1,3.78,0,3.75Z"/><path class="cls-1" d="M216.67,286.62v5c-6.15-1.84-12.34-3.42-18.85-3.46-15.31-.11-29.46,7-42.78,13.78-1.33.68-1.79-4.18-.53-4.82,14.71-7.48,30.75-15.47,47.75-13.72A77.65,77.65,0,0,1,216.67,286.62Z"/><path class="cls-1" d="M369.79,292.69c-3.58,5.72-10.61,8.11-17.11,7.81-8.55-.41-16.49-4.6-24.46-7.32-11.7-4-24.16-6.68-36.55-6.18v-5c13.53-.53,27,2.73,39.69,7.29,7.13,2.57,14.3,6.1,22,6.24,5.85.1,12.16-2,15.39-7.14.61-1,1.24.35,1.37.89A4.71,4.71,0,0,1,369.79,292.69Z"/><path class="cls-1" d="M216.67,315.23v5.07c-6.2-2.22-12.51-3.95-19.29-3.81-15.68.33-29.81,8.79-42.82,16.69-1.21.73-1.77-4.07-.53-4.82q2.46-1.5,4.93-3c13-7.67,27.64-15.18,43.19-13.74A58.66,58.66,0,0,1,216.67,315.23Z"/><path class="cls-1" d="M375.94,312.85c-1.31,1.18-2.68,2.32-4.09,3.38a59.69,59.69,0,0,1-40.54,11.68c-13.35-1.16-26.26-6.59-39.64-7.18v-5c15,.67,29.18,7.3,44.28,7.39A58.72,58.72,0,0,0,375.41,308c.74-.67,1.19,1.41,1.23,1.75C376.75,310.74,376.72,312.14,375.94,312.85Z"/><path class="cls-2" d="M215.6,291.14a16.23,16.23,0,0,0,6.85,1.33q3.74.09,7.47.07a133.66,133.66,0,0,0,15.24-.8,74.09,74.09,0,0,0,14.72-3.21c4.89-1.64,9.51-3.49,14.74-3.64a109.3,109.3,0,0,1,17.88,1.38c1.26.18,1.53-4.78,0-5A135.74,135.74,0,0,0,277,279.89a33.08,33.08,0,0,0-7.63.59,52.84,52.84,0,0,0-7.09,2.19c-9.58,3.42-19.44,4.66-29.57,4.84-2.82.05-5.65,0-8.47,0s-5.62,0-8.15-1.18c-1.35-.65-1.82,4.2-.53,4.82Z"/><path class="cls-2" d="M216.39,320.26c19.8,4.09,40,.63,59.91-.09a149,149,0,0,1,17,.28c1.32.11,1.49-4.87,0-5-20.08-1.62-40.07,2.36-60.15,1.71a98.79,98.79,0,0,1-16.8-1.9c-1.17-.24-1.56,4.68,0,5Z"/><path class="cls-2" d="M225.31,293.09c1.15,4,1.06,8.17,1.16,12.31a39.74,39.74,0,0,0,2,13c.35.92,1.05.83,1.42,0a5.07,5.07,0,0,0,0-3.54c-1.39-3.72-1.39-7.72-1.46-11.65A49,49,0,0,0,227,290.56c-.2-.67-.65-1.7-1.37-.89s-.61,2.54-.36,3.42Z"/><path class="cls-2" d="M227,294.1a15,15,0,0,1,3.64,1.4,6.23,6.23,0,0,1,1.29,1c.22.23.36.5.56.75s0,.22.15.13c-.05,0,.24-.52,0-.32s-.23.48-.33.63a3.66,3.66,0,0,1-1.22,1.13,5.59,5.59,0,0,1-3.63.68c-1.33-.15-1.43,4.65,0,5a17.76,17.76,0,0,1,4.81,1.69c1,.6,2.46,1.67,2.56,2.95.12,1.45-1.27,1.93-2.47,2.23a13.43,13.43,0,0,1-5.54.16c-1.21-.21-1.54,4.73,0,5a12.41,12.41,0,0,0,7.35-.77c2.38-1.16,2.69-4.41,2.66-6.75a8.79,8.79,0,0,0-2.79-6.75c-1.83-1.6-4.28-2.19-6.58-2.76v5c4.5.5,7.27-3.21,7.17-7.43a7.52,7.52,0,0,0-2.28-5.5A12.57,12.57,0,0,0,227,289.1c-1-.3-1.57,4.55,0,5Z"/><path class="cls-2" d="M250.91,287.57c-6,3.46-11.21,9.78-12.17,16.76A14.27,14.27,0,0,0,242,315.5c2,2.34,5.07,4.18,8.29,3.86a8,8,0,0,0,7-6.51c.2-1,.35-2.59-.36-3.42s-1.23.21-1.37.9c-.57,2.85-4.07,4.28-6.69,4a10,10,0,0,1-7.75-6,5.19,5.19,0,0,1,.09-4.47,21.53,21.53,0,0,1,2.5-4.5,24.59,24.59,0,0,1,7.71-7c1.24-.72.71-5.54-.53-4.82Z"/></g></g></svg>