<svg xmlns="http://www.w3.org/2000/svg" viewBox="0 0 541 541"><defs><style>.cls-1{fill:#40c0f0;}.cls-2{fill:#ffc107;}</style></defs><title>Favicon</title><g id="Layer_48" data-name="Layer 48"><path class="cls-1" d="M191,30.77c-31.79,9-70.16,19.83-86.28,51.7-11,21.79-10.14,49-6.11,72.47a155.32,155.32,0,0,0,25,60.91c12.43,18.31,27.35,35,41.44,52s28.39,33.88,42,51.25c12.84,16.32,25.34,33.36,34.67,52a150.7,150.7,0,0,1,10.5,26.41q.91,3.31,1.65,6.68c.25,1.11.48,2.23.7,3.35.66,3.27.3,1.61.18.88.41,2.52.71,5.06.95,7.6,0,.44.33,4,.19,1.9-.12-1.68.07,3,.07,3.6,0,1.12-.07,2.25,0,3.37.11,2.86.24-2.45,0,.4-.2,2.52-.44,5-.79,7.53.1-.71.51-2.5-.14.8-.22,1.1-.45,2.2-.71,3.29a56.52,56.52,0,0,1-1.72,6.22,73,73,0,0,1-13,23.28C227.21,481.06,208,485,189.58,483.32c-18.85-1.77-38.65-8.58-53.74-20.19-6.53-5-12-11.64-15-19q-.56-1.36-1-2.76c.66,1.88-.12-.39-.2-.67-.24-.95-.44-1.91-.69-2.86-1.13-4.39,0,1.81-.17-.89-.08-1-.18-2-.33-2.92-.4-2.61,0,2.87,0,.23,0-1.23,0-2.47,0-3.7,0,2.49-.1,1.22.07-.53.1-1,.27-2,.34-3,.21-2.76-.86,3.57.17-1,.44-1.93.86-3.86,1.39-5.78-.46,1.68,1.1-3.2,1.44-4.11,1-2.66,2.11-5.27,3.3-7.85,4.07-8.78,9.41-17,14.91-24.91,12.29-17.72,25.6-34.74,38-52.36q38.27-54.24,71.65-111.7c23.94-41.28,45.14-86,35.6-135-3.74-19.2-13.52-37.33-28.46-50.08C243,22.52,224.16,16.21,206,16.51a70.33,70.33,0,0,0-25.9,5.56c-2.31,1-3.73,6.17-4.19,8.05a38.69,38.69,0,0,0-.7,13.48c.55,4.2,2.26,14.86,8.61,12.22,33.08-13.72,74.6,4.53,87,37.67a51.38,51.38,0,0,1,2.38,8.84c-.27-1.79.21,1.92.25,2.26s.33,4.11.23,2.22c-.13-2.32,0,3.64,0,3.13l0,1.82c.11-1.31.11-1.34,0-.1a96.65,96.65,0,0,1-6.15,27.24c-7.4,20.31-18.33,39-29.25,57.62Q204.68,253.79,166,307.9c-24.25,34-54.88,66.91-60.71,109.88-2.84,21,0,44.22,11.44,62.43,10.53,16.78,28.59,26.27,46.84,32.37s38.07,8.79,56.55,2.6c18.83-6.3,31.22-21.79,39.22-39.36,18.67-41,11.62-91.08-8.08-130.27-19.55-38.9-49.09-71.58-76.65-104.89-14.15-17.11-29.05-33.84-41.85-52a138.28,138.28,0,0,1-15.12-26.61,98.81,98.81,0,0,1-4.38-12.6,90.86,90.86,0,0,1-2.65-13.26c-.28-2.34-.55-4.7-.64-7.06.11,2.8,0-.21,0-.64,0-1.18,0-2.36,0-3.54,0,.36.27-5.3.08-2.9-.17,2,.19-1.61.24-2s.58-3.79.28-2.23c-.22,1.18.63-2.63.75-3,1.77-6,5.81-12.23,11.39-17.48,12.28-11.52,28.31-18.5,44-24,8-2.81,16.09-5.17,24.21-7.47,10.89-3.09,7.51-37.13,0-35Z"/><path class="cls-2" d="M370,186.09c-36.43,1.12-69.1,25.46-85,57.57-19.19,38.86-1.39,87.85,36.08,107.94C350,367.06,386.4,366.35,412.72,346c29.61-22.84,42.58-63.42,36.82-99.76-1.87-11.85-5.17-24.07-12.43-33.86a50.74,50.74,0,0,0-23.79-17.28c-10-3.66-20.38-5.53-30.79-7.45l-38-7c-2.34-.43-4.37,3.76-4.95,5.13a32.63,32.63,0,0,0-2.05,12.37c.09,4.94.47,16.3,7,17.5,18.08,3.32,36.38,6.07,54.31,10.17,13.53,3.09,28.26,8.82,34.57,22.19a30.85,30.85,0,0,1,2.78,8.56c.71,3.18.23,1.24.12.52.14.94.25,1.88.35,2.82.07.7.11,1.41.18,2.11.22,2.17,0-3.13,0,.29,0,.7,0,1.42,0,2.12.11,2.59.32-3,.05-.42-.17,1.63-.33,3.27-.52,4.91-.07.68-.65,3,0,0-.15.69-.28,1.39-.43,2.08-.4,1.84-.86,3.67-1.39,5.47-.68,2.29.62-1.73-.19.51-.24.66-.47,1.33-.72,2-.66,1.76-1.38,3.51-2.16,5.23a60,60,0,0,1-4.27,7.87,76.58,76.58,0,0,1-12.23,15.14c-20.64,19.33-49.65,24.8-76.46,16.42-12.54-3.92-24.91-11.38-33.76-21.15a59.71,59.71,0,0,1-11.63-18.29,22.25,22.25,0,0,1-1.21-3.73c-.8-3.23-.42-1.48-.24-.77,0-.12-.4-2.91-.2-1,.25,2.39,0-2.77-.07-.37,0,1.85.09-.85.12-1-.39,2.26.11-.45.19-.76a11.67,11.67,0,0,1,.63-2c5.6-15.17,18-28.26,31-37.42,13.88-9.76,29.76-15.51,46.76-16,6.34-.2,7.07-13.26,7-17.5-.07-3.77-.64-17.7-7-17.5Z"/></g></svg>