<svg xmlns="http://www.w3.org/2000/svg" viewBox="0 0 558.17 540.83"><defs><style>.cls-1{fill:#fff;}.cls-2{fill:#ffc107;}.cls-3{fill:#40c0f0;}.cls-4{fill:none;stroke:#fff;stroke-miterlimit:10;stroke-width:4px;}</style></defs><g id="DFE"><g id="Layer_4" data-name="Layer 4"><path class="cls-1" d="M197.57,55.15q-.15,16,.89,32c0,.58.35,2.14,1.23,1.75s.74-2.4.7-3.08q-1-15.33-.82-30.71c0-.59-.09-2.5-1-2.5s-1,2-1,2.5Z"/><path class="cls-1" d="M197.91,57.22A124.33,124.33,0,0,1,210.69,62c2.1.93,4.21,1.89,6.25,2.95a6.5,6.5,0,0,1,3.65,4,4,4,0,0,1-.79,4.2,13.61,13.61,0,0,1-4.46,3.1c-4,2-8.14,3.81-12.21,5.7-1.26.59-.85,5.47.54,4.82,3.84-1.79,7.71-3.55,11.54-5.38,3-1.41,5.92-3.26,7.06-6.52a14.69,14.69,0,0,0-1.34-11.81,9.34,9.34,0,0,0-4.25-3.33c-1.87-.93-3.76-1.82-5.68-2.65a129.36,129.36,0,0,0-13.09-4.88c-1-.32-1.57,4.5,0,5Z"/><path class="cls-1" d="M225.94,72.75c-.18-.57,0-.07,0,.06l.11.38c.07.27.13.55.19.82s.11.51.16.77c.08.46-.08-.51,0-.08,0,.15.05.3.07.45l.09.84c0,.22,0,1.14,0,.25,0,.57,0,1.13,0,1.69a4.61,4.61,0,0,0,.3,1.77c.09.22.36.77.7.73.93-.1,1-1.88,1-2.5a26.49,26.49,0,0,0-1.22-8.71c-.09-.26-.37-.73-.71-.73s-.61.47-.71.73a5.47,5.47,0,0,0,0,3.53Z"/><path class="cls-1" d="M224.62,69.87c1.41,0,1.43-5,0-5s-1.43,5,0,5Z"/><path class="cls-1" d="M235.26,62.64c-1.55,1.48-2.94,3-3.36,5.2-.46,2.34-.27,5.3,1.76,6.87,1.31,1,3.12,1.18,4.31,2.38.11.12.2.25.3.38s0,.24-.05-.43c-.23-1.76.58-1.79-.21-1.25a5,5,0,0,1-2.14.72c-.91.16-1,1.8-1,2.5,0,.44.13,2.66,1,2.5,1.71-.29,3.27-.85,3.94-2.6a6.13,6.13,0,0,0-1.89-7.11c-1.25-.87-3.22-1-4.16-2.33a2.5,2.5,0,0,1-.16-.24,0,0,0,0,1,0,.06s.06.64.06.7-.16.47,0,0a2.14,2.14,0,0,1,.2-.4,10.21,10.21,0,0,1,1.88-2.16,3.77,3.77,0,0,0,.7-3.08c0-.31-.51-2.44-1.23-1.75Z"/><path class="cls-1" d="M243,51.54l3.58,28.07c.07.58.33,2.15,1.23,1.75s.78-2.41.69-3.08l-3.57-28.07c-.07-.57-.34-2.15-1.23-1.75s-.78,2.42-.7,3.08Z"/><path class="cls-1" d="M241.12,68.67A36.12,36.12,0,0,0,254,67.3c1.56-.46,1.06-5.31,0-5a36.12,36.12,0,0,1-12.91,1.37c-.35,0-.61.5-.71.74a4.59,4.59,0,0,0-.29,1.76c0,.62.07,2.43,1,2.5Z"/><path class="cls-1" d="M256.9,69l.57,9.21c0,.51.2,1.45.7,1.75s.84-.25,1-.64a73.09,73.09,0,0,1,3-7.42l.09-.17,0,.07a2.23,2.23,0,0,1,.2-.3c-.13.12.08,0,.1,0a1.09,1.09,0,0,1,.36,0,5,5,0,0,1,1.63.62,17.94,17.94,0,0,1,3.18,2c.29.22.6,0,.77-.25a3.21,3.21,0,0,0,.46-1.5c.08-.9.12-2.44-.7-3.07a17.78,17.78,0,0,0-3.41-2.08,5.93,5.93,0,0,0-2-.7,1.9,1.9,0,0,0-1.61,1.11,35.63,35.63,0,0,0-1.88,4.13c-.56,1.35-1.06,2.73-1.52,4.11l1.68,1.1-.58-9.21c0-.48-.39-2.26-1.23-1.75A1.84,1.84,0,0,0,257,67.1a6.58,6.58,0,0,0-.1,1.93Z"/><path class="cls-1" d="M271.68,69.67l.83,12.89c0,.49.4,2.26,1.23,1.75s.75-2.28.7-3.08l-.83-12.88c0-.49-.4-2.26-1.23-1.75s-.75,2.28-.7,3.07Z"/><path class="cls-1" d="M271.51,65.24c1.41,0,1.43-5,0-5s-1.43,5,0,5Z"/><path class="cls-1" d="M277.66,48.22l1.46,35.47c0,.3.27,3.15,1.27,2.42,3.48-2.57,7.14-5.46,8.55-9.72.69-2.06,1.41-5.8-1-7.06a25.59,25.59,0,0,0-7.88-2.13c-1.24-.18-1.53,4.78,0,5a34.68,34.68,0,0,1,4.17.87c.66.19,1.33.39,2,.63.37.13,1.47.34,1.62.8l-.29-1.77c0,1.3-1.86,3.5-2.87,4.53a37.27,37.27,0,0,1-4.84,4l1.26,2.41-1.46-35.47c0-.59-.07-2.5-1-2.5s-1,2-1,2.5Z"/><path class="cls-1" d="M292.64,67.8c.93,2.87,1.9,5.72,2.94,8.54.53,1.45,1.08,2.88,1.64,4.31A26.62,26.62,0,0,0,299,84.81c.63,1,1.59,1.43,2.47.43a24.54,24.54,0,0,0,2.33-3.39,34.61,34.61,0,0,0,3.49-7.35c1-3.08,1.4-7.06-.66-9.81-.47-.64-1-.18-1.21.39a5.57,5.57,0,0,0-.15,3,40.69,40.69,0,0,0,6,15.34c.61.94,1.24-.34,1.37-.9a4.72,4.72,0,0,0-.36-3.42,35.82,35.82,0,0,1-5.28-13.55L305.57,69a2.12,2.12,0,0,1,.47,1c0-.15,0-.52,0,0a6.54,6.54,0,0,1-.12.65,19.23,19.23,0,0,1-1.39,3.58,33.48,33.48,0,0,1-1.94,3.58c-.34.55-.69,1.09-1.06,1.62-.18.26-.8,1.47-1.18,1.46s-.56-.91-.65-1.14c-.29-.71-.57-1.42-.85-2.14-.57-1.43-1.12-2.86-1.65-4.3q-1.67-4.49-3.12-9c-.31-.94-1.08-.82-1.42,0a5.34,5.34,0,0,0,0,3.53Z"/><path class="cls-1" d="M321.76,43.58c-.46,12.14-3.66,24.5,1,36.24.36.91,1,.85,1.41,0a5,5,0,0,0,0-3.53c-4.14-10.38-.85-22-.44-32.71,0-.58-.11-2.5-1-2.5s-1,2-1,2.5Z"/><path class="cls-1" d="M316.11,65.4l14.49-2c.91-.13,1-1.82,1-2.5,0-.47-.12-2.62-1-2.5l-14.49,2c-.91.12-1,1.82-1,2.5,0,.46.12,2.62,1,2.5Z"/><path class="cls-1" d="M336.63,66.12q.24.59.45,1.17c.06.17.12.34.17.51s.18.61.06.18c.21.75.41,1.5.56,2.26,0,.17.08.36.1.53,0-.56,0,0,0,.11.06.42.11.83.14,1.25,0,.18,0,.36.05.54.05.61,0-.57,0,0,0,.42,0,.83,0,1.25a4.64,4.64,0,0,0,.29,1.77c.11.26.35.73.71.73.9,0,1-2,1-2.5A29.45,29.45,0,0,0,338,62.58c-.1-.26-.35-.73-.7-.73s-.61.47-.71.73a5.13,5.13,0,0,0,0,3.54Z"/><path class="cls-1" d="M337.23,61.94c1.41,0,1.42-5,0-5s-1.43,5,0,5Z"/><path class="cls-1" d="M348.8,62.37a13.08,13.08,0,0,0-1.87,8.18,10.83,10.83,0,0,0,2.87,7c1.06,1,2.09.35,3.11-.31a12.22,12.22,0,0,0,2.79-2.38c2-2.43,2.07-6.2,1-9a9.7,9.7,0,0,0-6-5.46c-.89-.34-1.17,1.12-1.23,1.74a5.44,5.44,0,0,0,.11,1.93c.08.33.23,1,.59,1.15A9.92,9.92,0,0,1,354.5,68a7,7,0,0,1,.6.9l.12.28s.16.44.09.23,0,.13,0,.14c.07.26,0,.16,0,0,0,0,0,.41,0,.07s0,0,0,.07c0-.62,0-.14,0-.06v-.11c0-.13,0-.13,0,0s-.05.12,0,0c0,.09-.07.18-.12.27a2.6,2.6,0,0,1-.27.44,7.36,7.36,0,0,1-1.71,1.63c-.34.25-.7.49-1.06.72s-.75.6-1.17.6c-.69,0-1.24-1.07-1.53-1.58a1.54,1.54,0,0,1-.13-.28c-.08-.17-.15-.34-.22-.52s-.15-.42-.07-.19,0-.09,0-.11c-.06-.21-.1-.43-.15-.64s0,.11,0,.13c0-.15,0-.31-.05-.47s0,.19,0,.2a2.4,2.4,0,0,0,0-.38c0-.06,0-.38,0,0s0-.15,0-.24a2.4,2.4,0,0,0,0-.28c0-.33-.09.37,0,0l.06-.27s.14-.53.07-.29,0-.09,0-.11.08-.23.13-.35a5.12,5.12,0,0,1,.59-1.1,4.56,4.56,0,0,0,.36-3.42c-.15-.56-.73-1.85-1.37-.89Z"/><path class="cls-1" d="M357.78,62.15a92.26,92.26,0,0,1,4.27,13.06c.13.53.57,1.67,1.25,1s.65-2.1.58-2.95a79.26,79.26,0,0,1-.23-8.6c0-.74,0-1.49.08-2.23,0-.17,0-.58.06-.84,0-.69,0,.26-.1.21s.63-.22.66-.22a2,2,0,0,1,.67.14,7.56,7.56,0,0,1,1.59,1,17.81,17.81,0,0,1,7.25,10.89c.13.62.73,1.78,1.37.9a4.75,4.75,0,0,0,.36-3.42,21.53,21.53,0,0,0-6.52-11.64,17.73,17.73,0,0,0-2.54-2c-.88-.57-2.08-1.21-3.11-.66s-1.45,2.3-1.56,3.47c-.14,1.46-.18,2.94-.21,4.4a91.42,91.42,0,0,0,.3,9.93l1.83-1.93a99.36,99.36,0,0,0-4.59-14.08c-.36-.88-1.05-.87-1.41,0a5,5,0,0,0,0,3.54Z"/><path class="cls-1" d="M406.7,56.87a8.13,8.13,0,0,0-4.28,5,12,12,0,0,0,.33,8.81,4.41,4.41,0,0,0,3,2.73c1.45.24,2.74-.85,3.65-1.83a11.49,11.49,0,0,0,3-9.6,6.46,6.46,0,0,0-2.27-4.13,3.66,3.66,0,0,0-3.69-.55c-.33.13-.53.88-.6,1.14a5.69,5.69,0,0,0-.1,1.93c.08.61.32,2.11,1.23,1.75a2.58,2.58,0,0,1,2.18.25A5.23,5.23,0,0,1,410,63a3.66,3.66,0,0,1,.38.5c.06.09.11.18.16.27-.11-.21,0,0,0,.11s-.06-.34,0-.07c0,.09,0,.41,0,.11,0-.08,0-.62,0-.31s.06-.45,0-.09c0,.13-.1.55,0,.07,0,.12-.05.25-.08.37,0-.08.12-.33,0,0l-.18.46A10.35,10.35,0,0,1,408.6,67a3.78,3.78,0,0,1-2.37,1.45,2.27,2.27,0,0,1-2.08-1.34s-.19-.33-.09-.14,0-.09-.06-.13-.25-.65-.15-.37-.06-.31-.09-.38c-.08-.29.05.47,0,.17a1.5,1.5,0,0,0,0-.37c.14.35,0,.5,0,.23v-.29c0-.42,0,.18,0,.22a1.29,1.29,0,0,0,0-.29,2.54,2.54,0,0,0,0-.29c.1.26-.1.44,0,.09,0-.1.05-.19.07-.29.08-.3,0-.18,0,0a1.8,1.8,0,0,1,.27-.68l.12-.27c-.1.22,0,.06.05-.06a8.14,8.14,0,0,1,.81-1.14,6.74,6.74,0,0,1,.83-.73,6.19,6.19,0,0,1,1.28-.72c.33-.14.53-.88.59-1.15a5.45,5.45,0,0,0,.1-1.93c-.07-.59-.32-2.13-1.23-1.74Z"/><path class="cls-1" d="M418.75,73.33c.1-7.48-.53-14.93-1.08-22.38-.27-3.56-.51-7.12-.61-10.69l0-1.49c0-.22,0-.44,0-.66s0-.22,0,.09a2.21,2.21,0,0,1,1.48-.17c1.72.35,3.48,1.55,5,2.3,1.35.65,1.81-4.2.53-4.82a33.84,33.84,0,0,0-5.2-2.38c-1.8-.5-3,.51-3.5,2.23a20,20,0,0,0-.26,5.88c.08,2.2.2,4.4.34,6.59.54,8.5,1.44,17,1.32,25.5,0,.58.1,2.5,1,2.5s1-2,1-2.5Z"/><path class="cls-1" d="M411.52,52.09A181.89,181.89,0,0,0,432,52.2c1.46-.08,1.37-5.07,0-5a181.89,181.89,0,0,1-20.49-.11c-1.34-.09-1.48,4.9,0,5Z"/><path class="cls-1" d="M93.89,136.67a43.48,43.48,0,0,1-.33-16,38.8,38.8,0,0,1,2-7.44c.87-2.25,2.48-4.33,5.1-4.32,1.41,0,1.43-5,0-5-3,0-5,2.36-6.12,4.86a38.68,38.68,0,0,0-2.68,9.51,56,56,0,0,0,.35,21c.15.7.67,1.67,1.37.89s.55-2.5.36-3.42Z"/><path class="cls-1" d="M86.42,124.43l14.19-2.07c.91-.13,1-1.81,1-2.5,0-.46-.12-2.63-1-2.5l-14.19,2.07c-.91.13-1,1.81-1,2.5,0,.45.12,2.63,1,2.5Z"/><path class="cls-1" d="M103.75,123.19l1.71,11.55c.07.47.37,2.27,1.23,1.74s.81-2.31.7-3.07l-1.71-11.55c-.07-.47-.37-2.27-1.23-1.75s-.81,2.32-.7,3.08Z"/><path class="cls-1" d="M103.91,119.05c1.41,0,1.43-5,0-5s-1.43,5,0,5Z"/><path class="cls-1" d="M111.21,109A104.58,104.58,0,0,0,114.52,135c.18.68.66,1.69,1.37.89s.59-2.53.36-3.42a93.79,93.79,0,0,1-3-23.52c0-.59-.09-2.5-1-2.5s-1,2-1,2.5Z"/><path class="cls-1" d="M108.84,126.59a71.83,71.83,0,0,1,11.56-2.7c.92-.13,1-1.81,1-2.5a4.79,4.79,0,0,0-.29-1.76c-.11-.26-.35-.79-.71-.74a71.83,71.83,0,0,0-11.56,2.7c-1.55.5-1,5.32,0,5Z"/><path class="cls-1" d="M122.43,122.79l2.27,9.13c.13.53.57,1.67,1.25,1s.67-2.11.58-2.95c0-.12,0-.25,0-.38,0,.35,0,.38,0,.1a5.42,5.42,0,0,1,0-.57c-.07.65,0,.06,0-.09s0-.25,0,0c0-.13,0-.25.07-.38s.09-.36.14-.55c-.11.39.07-.18.09-.21a6.56,6.56,0,0,1,.43-1,8,8,0,0,1,2.34-2.75c.26-.19.67-.6,1-.53s.45.4.61.63q.45.63.87,1.29a25.2,25.2,0,0,1,1.3,2.33,23.23,23.23,0,0,1,1.84,5.37c.13.61.72,1.78,1.37.9a4.71,4.71,0,0,0,.35-3.42,29.21,29.21,0,0,0-4.59-10.61c-.45-.63-1-1.61-1.94-1.48a4.55,4.55,0,0,0-2.16,1.38,11.62,11.62,0,0,0-2.83,4.25,15,15,0,0,0-.83,7l1.83-1.93-2.27-9.12c-.15-.6-.72-1.79-1.37-.9a4.66,4.66,0,0,0-.36,3.42Z"/><path class="cls-1" d="M138.94,129.08c1.59-.3,3.2-.61,4.78-1a6.18,6.18,0,0,0,3.71-2,5.51,5.51,0,0,0,1-2.73,5.82,5.82,0,0,0-.55-3.81c-.56-.81-1.29-.49-2-.21l-2.2.82c-2.32.86-4.84,1.83-5.92,4.26-1.25,2.81-.67,7,2.29,8.51s6.06-.23,8.6-1.83a2,2,0,0,0,.6-1.15,5.69,5.69,0,0,0,.1-1.93c-.06-.46-.39-2.27-1.23-1.74-1.81,1.14-3.85,2.46-6.09,2.24a4.19,4.19,0,0,1-2.25-.92l-.3-.26s.14.17,0,0a5.08,5.08,0,0,1-.38-.53s.17.33,0,0,0,.09,0,.14c-.12-.45.06.46,0,.15s0-.09,0,.33,0,.53,0,.27c0,0-.11.58,0,.22-.12.48-.08.26,0,.14.16-.38-.21.29,0-.06l.13-.21.16-.21s.29-.32.11-.14a5.37,5.37,0,0,1,.51-.44,10.32,10.32,0,0,1,2.4-1.36c1-.45,2.14-.82,3.22-1.22l.82-.3a3,3,0,0,1,.58-.12c-.6.14-.54-2-.49-2.28l0-.15c.09-.26.09-.29,0-.07,0,0,.23-.35,0,0-.09.13-.18.26-.28.38a6.25,6.25,0,0,1-3.11,1.32c-1.42.31-2.84.59-4.27.86-.92.17-1,1.78-1,2.5a4.4,4.4,0,0,0,.29,1.76c.11.25.35.8.71.74Z"/><path class="cls-1" d="M156.34,118a4.07,4.07,0,0,0-4.48,2.82c-.91,2.47-.66,5.74,1.27,7.65,1.2,1.18,3.06,1.63,4.05,3,0,0,.3.47.18.25,0,.11.1.22.14.33a2.35,2.35,0,0,1-.13-1.42,1.22,1.22,0,0,1,.18-.68l-.1.14a2.66,2.66,0,0,1-.38.29,4.8,4.8,0,0,1-2.27.46c-.91,0-1,1.88-1,2.5s.09,2.54,1,2.5a6.8,6.8,0,0,0,2.51-.49,3.5,3.5,0,0,0,1.82-2.46,6.8,6.8,0,0,0-2-6.89,19.65,19.65,0,0,0-2.18-1.39,6.73,6.73,0,0,1-1.06-.78c-.18-.16-.6-.59-.55-.71,0,.11.07.46.06.62a2,2,0,0,1-.06.48c.06-.24.06-.26,0-.06a2.56,2.56,0,0,1,.61-.69,3,3,0,0,1,2.39-.48c.33.07.62-.54.7-.73a4.68,4.68,0,0,0,.3-1.77c0-.71-.07-2.32-1-2.5Z"/><path class="cls-1" d="M197.54,130.62a5.91,5.91,0,0,0,8.66-1.11,9.07,9.07,0,0,0,1.36-6.89,2.63,2.63,0,0,0-.89-1.66,2.77,2.77,0,0,0-1.2-.34,12.44,12.44,0,0,0-2.44-.06c-3.24.25-6.32,1.93-7.47,5.11s-1,7.93,1.49,10.66a4.78,4.78,0,0,0,2.3,1.59c1,.25,2.15-.31,3.07-.62a30.75,30.75,0,0,0,6.12-2.8,2,2,0,0,0,.59-1.15,5.23,5.23,0,0,0,.1-1.93c-.06-.48-.37-2.25-1.23-1.74a29.93,29.93,0,0,1-4.28,2.13c-.71.29-1.42.54-2.15.77a3.9,3.9,0,0,1-2.22.34,3.59,3.59,0,0,1-1.36-1c-.05-.05-.27-.33-.37-.46s-.15-.22-.22-.33-.28-.53-.14-.23c-.11-.24-.21-.49-.3-.73.2.53-.14-.32-.09-.42l0,.29c0-.11,0-.21,0-.32,0-.31.12,0,0,.19a1.93,1.93,0,0,0,0-.48c0,.38,0,.47,0,.27l0-.23c0-.54-.14.49,0,0,0-.1.05-.2.07-.3-.12.49.11-.24.17-.38.18-.44-.17.23.09-.17l.21-.33a4.58,4.58,0,0,1,.48-.59,7,7,0,0,1,3.23-1.82,11.67,11.67,0,0,1,3.77-.29,8.65,8.65,0,0,1,.89.1c.47.09.28.18.08-.69l-.17-.75q0,.42,0-.12c0,.55.11-.29,0,0,0,.1-.17.47,0,.1a2.43,2.43,0,0,1-.36.74,4.87,4.87,0,0,1-7.27.82c-.27-.23-.61,0-.77.26a3.38,3.38,0,0,0-.46,1.49c-.09,1-.1,2.38.7,3.08Z"/><path class="cls-1" d="M219.56,133.42c-.76-3-1.42-6-2.07-9a30,30,0,0,1-1.05-7.88c.15-2.7,1.54-4.88,3.12-7,.79-1,1.54-2.2,3-2.33a7.57,7.57,0,0,1,3.86,1.08c1.34.66,1.81-4.19.53-4.82a8.89,8.89,0,0,0-4.39-1.26,4.94,4.94,0,0,0-3.46,2.34,19.92,19.92,0,0,0-4.4,9.36,31.93,31.93,0,0,0,.69,11.06q1.11,5.52,2.48,11c.17.69.66,1.69,1.37.9s.58-2.53.36-3.42Z"/><path class="cls-1" d="M210.52,121.14q6-.4,11.9-1.18c.91-.12,1-1.82,1-2.5a4.87,4.87,0,0,0-.29-1.77c-.11-.26-.35-.78-.71-.73q-5.92.78-11.9,1.18c-.91.06-1,1.87-1,2.5a4.88,4.88,0,0,0,.3,1.77c.11.27.34.75.7.73Z"/><path class="cls-1" d="M234.62,130.44l-1.51-8.57a44.26,44.26,0,0,1-1-7.14,6.27,6.27,0,0,1,2.16-5.15,4.55,4.55,0,0,1,5.72-.31c.78.64,1.19-1.38,1.23-1.75.11-.92.1-2.42-.7-3.08-2-1.67-5-1.17-6.92.42-2.23,1.84-3.15,4.9-3.4,7.69A36.23,36.23,0,0,0,231,122q1,5.47,1.93,11c.12.72.68,1.67,1.36.9s.53-2.48.36-3.42Z"/><path class="cls-1" d="M229,121.84l7.77,2.06c2,.52,4.3,1.47,5.9-.31a3.19,3.19,0,0,0,.45-1.49,5.44,5.44,0,0,0-.1-1.93c-.18-.7-.64-1.71-1.36-.9-.5.55-1.61.41-2.25.3-1.06-.19-2.1-.52-3.14-.8L229,116.84c-1.08-.29-1.57,4.59,0,5Z"/><path class="cls-1" d="M248.56,126.64c1.2-.78,2.72-.65,4-1.13a4.13,4.13,0,0,0,2.65-3.64c.21-1.65,0-3.83-1.57-4.83a3.28,3.28,0,0,0-3.38-.08,8.86,8.86,0,0,0-2.89,3.07,10.23,10.23,0,0,0-1.82,4.86c-.15,1.92.19,4.23,1.91,5.39a13,13,0,0,0,4.23,1.5,21.89,21.89,0,0,0,5.41.53c1.6,0,3.4-.08,4.46-1.44a4.46,4.46,0,0,0,.36-3.42c-.16-.64-.69-1.77-1.37-.9-.53.68-1.77.66-2.54.72a22,22,0,0,1-3.63,0,21.7,21.7,0,0,1-3.58-.66A9.32,9.32,0,0,1,248,125.4c-.16-.12-.28-.3-.43-.41,0,0-.17-.2-.11-.18s.13.69.13.85,0,.37,0,.51.09-.32,0-.18c0-.07.18-.45.27-.62a12.07,12.07,0,0,1,1.72-2.52,3.39,3.39,0,0,1,2.22-1.33,2.36,2.36,0,0,1,1,.14,2.26,2.26,0,0,1,.52.3l.19.16s.18.11,0,.07-.07-2.37,0-2.4,0,0-.07.08a4.22,4.22,0,0,1-.46.38,3.81,3.81,0,0,1-1.41.55,9.64,9.64,0,0,0-3.53,1c-.82.54-.81,2.23-.69,3.08.06.45.39,2.29,1.23,1.74Z"/><path class="cls-1" d="M268,115.94a13.54,13.54,0,0,0-5.67,3.07,7.65,7.65,0,0,0,7.82,12.67,8.55,8.55,0,0,0,4.93-4.44,4.81,4.81,0,0,0,0-3.54c-.13-.29-.34-.73-.71-.73s-.57.47-.71.73C272,127,267.24,128,264.09,126a5.75,5.75,0,0,1-1.93-1.9c0,.08,0,0-.09-.18s-.1-.26,0-.1c.16-.09,0,1.09,0,1.21s.19-.38.12-.25a4.79,4.79,0,0,1,.46-.65,11.19,11.19,0,0,1,5.38-3.17c1.56-.47,1.06-5.32,0-5Z"/><path class="cls-1" d="M274.6,105.79A80.86,80.86,0,0,1,278.3,128c0,.59.09,2.5,1,2.5s1-2,1-2.5A92.91,92.91,0,0,0,276,102.26c-.3-1-1.06-.8-1.41,0a5.22,5.22,0,0,0,0,3.53Z"/><path class="cls-1" d="M272.62,116.7l9.57-1.35c.92-.13,1-1.81,1-2.5a4.64,4.64,0,0,0-.29-1.77c-.12-.25-.34-.78-.71-.73l-9.57,1.35c-.91.13-1,1.81-1,2.5a4.64,4.64,0,0,0,.29,1.77c.12.25.35.78.71.73Z"/><path class="cls-1" d="M292,113.22c-2.15.53-4.47,1.13-5.88,3a8.07,8.07,0,0,0-.57,8.12,4.26,4.26,0,0,0,2.09,1.77,11.94,11.94,0,0,1,1.25.6,2.29,2.29,0,0,1,.41.28c.12.11.16.14.1.08q.17.26.06,0a4,4,0,0,1,0-2.11c-.07.19-.09.23,0,.11a4.83,4.83,0,0,1-.41.49,3.17,3.17,0,0,1-1.18.68c-1.19.39-2.49.36-3.7.67-1.55.4-1.11,5.28,0,5,2.26-.58,4.86-.29,6.3-2.52s1.34-6.23-1.18-7.61a11.2,11.2,0,0,1-2.3-1.21,2.72,2.72,0,0,1-.34-.42.36.36,0,0,1,.09.24c-.05-.25-.05-.22,0,.08a2.88,2.88,0,0,1,0,.83q.09-.34,0,0a3.65,3.65,0,0,1,.14-.35c.79-1.61,3.39-2.28,5.15-2.71,1.55-.37,1.13-5.27,0-5Z"/><path class="cls-1" d="M317.51,120.92a7.51,7.51,0,0,0-1.22,3.58,9.41,9.41,0,0,0,.54,4.43,5.29,5.29,0,0,0,4,3.32,3.48,3.48,0,0,0,2.51-.58,4.53,4.53,0,0,0,1.5-2.49,9.14,9.14,0,0,0,.09-4.13,5.36,5.36,0,0,0-1.09-2.5,6.35,6.35,0,0,0-5.13-2.11c-.36,0-.59.46-.71.73a4.64,4.64,0,0,0-.29,1.77,4.59,4.59,0,0,0,.29,1.76c.13.29.33.74.71.74a7.32,7.32,0,0,1,2.5.36l-.26-.09a5,5,0,0,1,1.92,1.18l-.23-.25a4.54,4.54,0,0,1,.39.48c0,.06.15.17.15.25,0-.12-.18-.38-.05-.09l.09.23c-.24-.52-.11-.37-.06-.18.09.4-.05-.17,0-.27,0,.1,0,.57,0,0s0-.16,0,0,0,0,0-.46a1,1,0,0,1,0,.17c0-.09.14-.67,0-.28,0,.19-.19.37.07-.19l-.09.23c-.11.28.21-.35.06-.11a3.79,3.79,0,0,1-.34.45l.24-.26a2.47,2.47,0,0,1-1,.63l.27-.09a3.71,3.71,0,0,1-2.26,0l.27.09a4.64,4.64,0,0,1-1.84-1.17l.24.25a5.45,5.45,0,0,1-.38-.46c-.06-.08-.11-.17-.16-.25l-.05-.09c-.09-.16-.07-.11.06.13,0-.07-.1-.24-.12-.29-.14-.32.1.38,0,.15s-.05-.21-.07-.32.1.66,0,.18c0-.3,0,.68,0,.29s-.06.64,0,.23c0-.2.12-.51-.05.17,0-.1.05-.2.08-.31.09-.38-.19.46,0,.1l.12-.3c.12-.28-.14.23,0,.06l.2-.31a3.33,3.33,0,0,0,.46-1.5,5.4,5.4,0,0,0-.1-1.92c-.1-.37-.23-1-.6-1.15a.56.56,0,0,0-.77.25Z"/><path class="cls-1" d="M330.09,127.42l.45-10.46c.11-2.61.13-5.49,3-6.54.32-.12.54-.9.6-1.15a6,6,0,0,0,.1-1.93c-.08-.63-.32-2.08-1.23-1.74-3.7,1.35-4.23,6.13-4.4,9.49-.2,4.11-.35,8.22-.53,12.33,0,.62.11,2.47,1,2.5s1-2,1-2.5Z"/><path class="cls-1" d="M325.36,119.35H335.6c.35,0,.59-.47.7-.73a4.68,4.68,0,0,0,.3-1.77,4.46,4.46,0,0,0-.3-1.77c-.13-.29-.32-.73-.7-.73H325.36c-.36,0-.6.47-.71.73a4.67,4.67,0,0,0-.29,1.77,4.61,4.61,0,0,0,.29,1.77c.13.29.33.73.71.73Z"/><path class="cls-1" d="M355.3,128.41a16.35,16.35,0,0,1,.82-3,10.17,10.17,0,0,1,1.53-3.2c1.14-1.24,2.67,4,2.85,4.76.1.38.32,1.23.87,1.23s.76-.85.86-1.23a33.1,33.1,0,0,1,1.59-4.65c.42-1,1.05-3.31,2.51-3,1.28.25,2.47,1.74,3.14,2.77a7.38,7.38,0,0,1,.83,1.72c.05.16.17.66.18.72s0,.29,0,.35c.05.46,0-.57,0,.25,0,.61.08,2.46,1,2.5s1-2,1-2.5a14.12,14.12,0,0,0-1.65-6.68,8.5,8.5,0,0,0-4-4c-2.22-.79-3.26,1.76-4,3.35a40.1,40.1,0,0,0-2.35,6.65h1.73c-.37-1.47-2.34-9.13-5-7.16a5.25,5.25,0,0,0-1.29,1.91,23.61,23.61,0,0,0-1.1,2.4,28.18,28.18,0,0,0-1.44,5.48c-.13.78-.12,2.61.7,3.08s1.15-1.31,1.23-1.75Z"/><path class="cls-1" d="M374.89,117.19l0,.3c.05.3,0-.12,0-.15,0,.2,0,.42,0,.62,0,.48,0,1,0,1.45a18.17,18.17,0,0,0,.21,3.21,6.72,6.72,0,0,0,2.4,4.44,3,3,0,0,0,3.65.09c1.33-1.08,1.74-2.9,2-4.51.3-1.87.4-3.78.58-5.66l-1.67,1.1c0,.06.2.47.08.18s0,.06,0,.12c.08.34,0,.14,0-.08,0,.1,0,.21,0,.31s.05.56,0,.13,0,0,0,.05v.39c0,.35,0-.08,0-.19-.15,1-.22,2-.32,3-.25,2.49-.22,5.25,1.2,7.42.6.93,1.24-.33,1.37-.9a4.77,4.77,0,0,0-.36-3.42c-.06-.08-.11-.17-.17-.26.17.27,0,0,0-.07s-.07-.19-.11-.28.09.39,0,0a1.5,1.5,0,0,0-.06-.29c0,.11.06.47,0,.16,0-.06-.05-.57,0-.12s0,0,0,0v-.39c0-.34,0,.1,0,.2,0-.23,0-.47.06-.7.05-.48.11-1,.17-1.44a14.73,14.73,0,0,0-.53-7.28c-.16-.38-.49-.94-1-.64s-.65,1.23-.7,1.74l-.28,2.94a18.63,18.63,0,0,1-.27,2.57c.06-.35.06-.39,0-.15l0,.15c0,.1,0,.2-.07.3s-.06.19,0-.08c0,0-.15.39-.16.41-.08.18-.08.18,0,0a1.14,1.14,0,0,1-.15.23s-.27.32-.12.17a1.86,1.86,0,0,1-.38.3,1.48,1.48,0,0,1-.82.26,2.37,2.37,0,0,1-1.66-.6,2.53,2.53,0,0,1-.6-.66s-.3-.48-.23-.34-.14-.31-.14-.37c0,.52,0,0,0-.19.1.52,0-.31,0-.41,0,.6,0,0,0-.15v-.83a26.57,26.57,0,0,0-.1-3.34c-.05-.48-.38-2.27-1.23-1.75s-.78,2.3-.7,3.08Z"/><path class="cls-1" d="M388.72,104a158.3,158.3,0,0,1,.09,21.45c-.05.78-.18,2.64.69,3.08s1.2-1.25,1.23-1.75a176.36,176.36,0,0,0-.08-24.11c0-.58-.36-2.14-1.23-1.74s-.75,2.4-.7,3.07Z"/><path class="cls-1" d="M385.11,117.59a40.31,40.31,0,0,1,10.91-.5c.35,0,.61-.5.71-.73a5.55,5.55,0,0,0,0-3.54c-.14-.31-.32-.69-.71-.73a40.31,40.31,0,0,0-10.91.5c-.92.17-1,1.79-1,2.5a4.64,4.64,0,0,0,.29,1.77c.11.24.35.79.71.73Z"/><path class="cls-1" d="M402.72,113.15a16.1,16.1,0,0,0-3.51,4,9.6,9.6,0,0,0-.85,7.36,4,4,0,0,0,1.66,2.43,2.67,2.67,0,0,0,2.43,0c2.28-1,2.76-4.17,2.6-6.36A10,10,0,0,0,404,117c-.12-.24-.24-.49-.34-.74,0-.09-.07-.19-.11-.28s0-.09,0,.16l0-.15c0-.37,0,.09,0,.16-.06-.54,0,.61,0,.08a3.31,3.31,0,0,1-.06.7c0,.09-.25.55-.06.25h-1l5,9.46a.56.56,0,0,0,.77.26,2,2,0,0,0,.59-1.15,5.09,5.09,0,0,0-.35-3.42l-5-9.47a.56.56,0,0,0-1,0c-1.27,2-1.07,4.85-.18,6.94a18.64,18.64,0,0,1,1,2.14s-.11-.35-.05-.12-.06-.44,0-.14,0-.32,0-.29.07-.64,0-.22c0,0,.1-.47,0-.23s.06-.15.06-.15-.34.64-.11.29a3.93,3.93,0,0,1-.29.42c-.13.18.13-.1,0,.05l-.15.13a2.71,2.71,0,0,1-.81.48,1.62,1.62,0,0,1-1.59-.27s-.15-.16-.08-.07-.08-.13-.1-.15a1.74,1.74,0,0,0-.11-.18c.05.07.11.28,0,0s.08.35,0,0c.13.57,0,.31,0,.16,0,.08,0,.59,0,.24s0,.22,0,.25,0-.32,0,0,.08-.19.07-.25-.16.45,0,.11l.08-.2.08-.2s.2-.38.09-.19,0,0,0-.06l.19-.31c.11-.17.22-.33.34-.49a11.82,11.82,0,0,1,.77-1c.45-.5,1.07-1.08,1.66-1.61.78-.69.83-2.12.7-3.07,0-.34-.48-2.42-1.23-1.75Z"/><path class="cls-1" d="M416,98.05a186.19,186.19,0,0,0-1.8,25.74c0,.58.09,2.5,1,2.5s1-2,1-2.5A176.31,176.31,0,0,1,418,99.38c.11-.76.14-2.65-.7-3.08s-1.16,1.26-1.23,1.75Z"/><path class="cls-1" d="M410.23,115a79.91,79.91,0,0,0,13.21-.59c.92-.11,1-1.82,1-2.5,0-.46-.11-2.61-1-2.5a79.91,79.91,0,0,1-13.21.59c-.9,0-1,1.94-1,2.5s.08,2.47,1,2.5Z"/><path class="cls-1" d="M423.18,116.86l-.39,7.92a4.49,4.49,0,0,0,.3,1.77c.11.26.34.73.7.73s.61-.46.71-.73a5.61,5.61,0,0,0,.29-1.77l.39-7.92a4.45,4.45,0,0,0-.29-1.77c-.11-.26-.35-.73-.71-.73s-.6.45-.71.73a5.56,5.56,0,0,0-.29,1.77Z"/><path class="cls-1" d="M425.75,115.72c1.41,0,1.42-5,0-5s-1.43,5,0,5Z"/><path class="cls-1" d="M430.67,114.12a26.93,26.93,0,0,0-2.73,5.51,7.6,7.6,0,0,0-.26,5.47,2.22,2.22,0,0,0,1.81,1.47c1.57.21,3-.93,3.87-2.07a8.81,8.81,0,0,0,1.4-7.17c-.45-2-1.84-4.06-4.07-4.19-.35,0-.6.49-.7.73a4.68,4.68,0,0,0-.3,1.77,4.46,4.46,0,0,0,.3,1.77c.13.3.32.71.7.73a3.27,3.27,0,0,1,.76.13l-.26-.09a3.65,3.65,0,0,1,1,.54l.21.18s.24.24.12.11l.1.12a2.83,2.83,0,0,1,.2.28l.11.19c.2.32-.12-.34,0,0a2,2,0,0,0,.1.26c.09.23-.13-.47-.05-.13s-.05-.49,0-.21,0-.19,0-.26v.17c0,.21,0,.08,0-.36,0,.09-.07.47,0,0s0,0,0,.05c-.08.34.13-.34,0-.11l-.11.27s-.18.36-.05.13,0,.07-.08.12-.12.2-.19.3-.24.32-.37.47.06,0-.05.06l-.22.21c-.15.13-.3.26-.46.38a3.51,3.51,0,0,1-1,.5l.27-.08a2.83,2.83,0,0,1-1.63.06l.27.09a1.3,1.3,0,0,1-.3-.13c-.06,0-.26-.24-.13-.07s.09.09,0,0-.07-.09.08.17a3.75,3.75,0,0,1,.17,1.7c-.06.35-.06.4,0,.16-.13.52,0,0,0,0s.13-.37.2-.55.24-.63.37-.94.27-.62.41-.92.17-.35.25-.53.24-.45.07-.12c.34-.64.7-1.26,1.09-1.87A4.57,4.57,0,0,0,432,115a1.86,1.86,0,0,0-.59-1.15.55.55,0,0,0-.77.25Z"/><path class="cls-1" d="M435.79,115.53l.09,1.16,0,.54c0,.09,0,.18,0,.27,0-.33,0-.4,0-.21,0,.75.07,1.5.08,2.25,0,1.51,0,3,0,4.51l1.87-1.26a2.54,2.54,0,0,0-.13-.56l0,.18,0-.29,0-.28c0,.42,0,.5,0,.23v-.43c0-.26,0-.19,0,.24a2.64,2.64,0,0,0,0-.28,1.89,1.89,0,0,0,.07-.57c-.06.36-.07.42,0,.17,0-.07,0-.14,0-.21l.12-.48c.07-.22.05-.19,0,.09l.09-.27.21-.53c.06-.14.12-.26.18-.39s.08-.18,0,0l.14-.25a6.39,6.39,0,0,1,1.16-1.55.69.69,0,0,1,.72-.18,1.27,1.27,0,0,1,.5.45,9.94,9.94,0,0,1,.53.89c.09.18.1.19,0,0l.14.3c.1.19.2.39.29.6a23.08,23.08,0,0,1,.91,2.31c0,.06.2.59.05.12l.18.64c.12.43.22.86.32,1.29s.75,1.82,1.36.9a4.77,4.77,0,0,0,.36-3.42,26.42,26.42,0,0,0-1.5-4.77c-.34-.8-.72-1.58-1.13-2.34a4.87,4.87,0,0,0-1.33-1.72c-1.43-1-2.67.66-3.37,1.75a12.19,12.19,0,0,0-1.72,4.34,15.27,15.27,0,0,0,.13,6.49c.11.44.47,1.56,1.13,1.15a1.5,1.5,0,0,0,.44-.64,4.84,4.84,0,0,0,.29-1.77,83,83,0,0,0-.23-9.85c0-.48-.39-2.26-1.23-1.75a1.9,1.9,0,0,0-.6,1.15,6.58,6.58,0,0,0-.1,1.93Z"/><path class="cls-1" d="M453.2,111.44l-3.07,1.39c-1.05.48-2,.83-2.46,2a6.66,6.66,0,0,0,0,4.85,4.6,4.6,0,0,0,2.09,2.26,8.35,8.35,0,0,1,2.16,1.5,4.07,4.07,0,0,1,.54.82c.14.26-.08-.7,0-.16a5.43,5.43,0,0,1,.06-1c.05-.14,0-.12,0,.07.08-.14.07-.12,0,.06a1.62,1.62,0,0,1-.27.3,2,2,0,0,1-1.06.45,5.88,5.88,0,0,1-2.62-.39c-.9-.32-1.17,1.11-1.23,1.75a5.39,5.39,0,0,0,.11,1.92c.08.33.23,1,.59,1.15,1.8.64,3.9,1.06,5.29-.6a6.39,6.39,0,0,0,1.17-3.87,7.73,7.73,0,0,0-.83-3.84,6.31,6.31,0,0,0-2-2.23,12.25,12.25,0,0,1-2.33-1.51l-.11-.15c-.11-.17-.13-.2-.05-.07a3.31,3.31,0,0,1-.15,2.46c0-.07,0-.12.14-.15a13.86,13.86,0,0,1,1.34-.66l3.29-1.5c.33-.15.53-.87.6-1.15a5.4,5.4,0,0,0,.1-1.92c-.07-.58-.33-2.16-1.23-1.75Z"/><path class="cls-1" d="M165.78,117.58c-2.28,1-3.12,3.74-3.15,6a7.92,7.92,0,0,0,1,4.15,8.92,8.92,0,0,0,1.82,2c.66.57,1.37,1.08,2,1.67a5.65,5.65,0,0,1,.71.83l.13.2c-.08-.15-.08-.14,0,0a8.62,8.62,0,0,1-.11-1.15s0-.46.11-.47-.3.4-.33.43a3.85,3.85,0,0,1-1.11.72,9.62,9.62,0,0,1-2.85.76c-1.51.22-1.26,5.18,0,5,1.91-.28,4.21-.82,5.3-2.59a7.15,7.15,0,0,0-.37-7.59c-1.12-1.39-2.78-2.21-3.89-3.59-.15-.19-.27-.4-.41-.59.06.12,0,.09,0-.11,0,.21,0,.19,0,0a4.15,4.15,0,0,1,0,.79c0-.26,0-.25,0,0,.06-.23.06-.25,0,0a2.39,2.39,0,0,1,.57-.92,3.35,3.35,0,0,1,1.14-.74c.33-.14.53-.88.59-1.15a5.7,5.7,0,0,0,.11-1.93c-.07-.59-.34-2.13-1.23-1.74Z"/><path class="cls-2" d="M324.88,371.89c10.23,18.71,25.46,37.42,45.89,41.68-28.71.47-57.4,2.07-86.11,3v-.46c4.27-30.77-5.6-61.91-3.7-92.91.85-13.94,4.09-27.77,3.48-41.73-.49-11.35-3.51-22.44-4.71-33.74-2.08-19.56,1.29-39.48,1.73-59.09a3,3,0,0,1,.52.08c4.48.9,7.13,5.49,8.77,9.75,8.2,21.32,5.43,45,5.93,67.83A231.94,231.94,0,0,0,324.88,371.89Z"/><path class="cls-3" d="M281,323.17c-1.9,31,8,62.14,3.7,92.91v.46l-1.54,0c-47.82,1.45-95.68.83-143.51-.92l.06-1.67c13.29-2.84,34.13-8.27,44.49-17.07,7.52-6.37,12.49-15.17,17.3-23.78l14.39-25.72c17.26-30.88,34.89-62.88,38.44-98.08,1.07-10.59.84-21.35,3-31.77s7.11-20.87,16.07-26.61c2.42-1.55,5.29-2.75,8.11-2.36-.44,19.61-3.81,39.53-1.73,59.09,1.2,11.3,4.22,22.39,4.71,33.74C285,295.4,281.8,309.23,281,323.17Z"/><path class="cls-4" d="M94.34,413.71q22.62,1.13,45.27,2c47.83,1.75,95.69,2.37,143.51.92l1.54,0c28.71-.9,57.4-2.5,86.11-3q6.57-.12,13.14-.13c36.27-.1,72.5,2.06,108.71,4.23"/><path class="cls-4" d="M284.65,416.08c4.27-30.77-5.6-61.91-3.7-92.91.85-13.94,4.09-27.77,3.48-41.73-.49-11.35-3.51-22.44-4.71-33.74-2.08-19.56,1.29-39.48,1.73-59.09A113.69,113.69,0,0,0,279,160"/><path class="cls-4" d="M139.67,414c13.29-2.84,34.13-8.27,44.49-17.07,7.52-6.37,12.49-15.17,17.3-23.78l14.39-25.72c17.26-30.88,34.89-62.88,38.44-98.08,1.07-10.59.84-21.35,3-31.77s7.11-20.87,16.07-26.61c2.42-1.55,5.29-2.75,8.11-2.36a3,3,0,0,1,.52.08c4.48.9,7.13,5.49,8.77,9.75,8.2,21.32,5.43,45,5.93,67.83a231.94,231.94,0,0,0,28.21,105.62c10.23,18.71,25.46,37.42,45.89,41.68a41.47,41.47,0,0,0,4.91.73"/><path class="cls-1" d="M120.86,52.64c-.92,5.49-.42,11.07.19,16.56.57,5.12,1.34,10.4.37,15.52-.19,1-.36,2.58.36,3.42s1.24-.2,1.37-.9c1.08-5.68.71-11.4.08-17.12-.59-5.37-1.35-10.76-.45-16.15.13-.75.13-2.65-.69-3.07s-1.15,1.26-1.23,1.74Z"/><path class="cls-1" d="M110.15,56q15.82-.66,31.54-2.86c1.52-.22,1.27-5.18,0-5Q126,50.39,110.15,51c-1.45.06-1.39,5.06,0,5Z"/><path class="cls-1" d="M145.46,51.79c-1.82,12.1-1,24.36,0,36.5L147.35,87a17.36,17.36,0,0,1,.29-6.54,16.57,16.57,0,0,1,2.89-6.48c.8-1,1.77.9,2.22,1.55A24.77,24.77,0,0,1,157,85.73c.13.72.68,1.67,1.37.9s.53-2.49.36-3.42a31.53,31.53,0,0,0-3.31-9.32c-.86-1.59-3.59-7.17-5.75-4.5a21.88,21.88,0,0,0-3.83,8.71,28.4,28.4,0,0,0-.44,10.19c.08.57.33,2.15,1.23,1.75s.75-2.41.7-3.08c-.84-11.26-1.65-22.61,0-33.84.11-.75.13-2.65-.7-3.07s-1.16,1.26-1.23,1.74Z"/><path class="cls-1" d="M165.12,78c3.38,1.12,7.75-.25,9.28-3.62,1.4-3.06,1-9.36-3.47-9.52-3.86-.13-6.46,4.44-7.32,7.65a11.28,11.28,0,0,0,.35,6.94,13,13,0,0,0,3.15,4.36c1.34,1.32,3,3.14,5.06,2.48,2.24-.73,4.42-1.89,6.58-2.83.33-.14.53-.87.6-1.15a5.68,5.68,0,0,0,.1-1.93c-.07-.58-.34-2.13-1.23-1.74l-4.56,2c-1.41.61-2.52,1.24-3.9.24a18.81,18.81,0,0,1-2.85-2.65,11.7,11.7,0,0,1-1.12-1.5,4.63,4.63,0,0,1-.36-.7c-.05-.11-.09-.22-.14-.34.07.17-.15-.44,0-.07,0-.1,0-.31,0-.18s-.09.39,0,.07c.05-.15,0-.11.07-.35a9,9,0,0,1,.91-2,7.48,7.48,0,0,1,2.72-2.86,3.44,3.44,0,0,1,3.64.09,2,2,0,0,1,.39.43,2.44,2.44,0,0,0,.21.43c-.15,0-.06-.65-.06-.76,0,.12-.11.37,0,0s0,.12-.08.2c-1.38,2.62-5.39,3.09-7.91,2.25-1-.32-1.57,4.48,0,5Z"/><path class="cls-1" d="M294.85,427.08a14.41,14.41,0,0,0-13.52,2.21c-2.1,1.65-3.56,3.89-2.79,6.65.68,2.49,3.57,2.86,5.68,3.5l9.44,2.86c1.44.43,2.9.83,4.32,1.32a6.21,6.21,0,0,1,3.43,2.24c1.12,1.85-1.42,4-2.84,4.83-2.43,1.37-5.32,1.64-8,1.93a100.66,100.66,0,0,1-21.88-.12c-1-.11-1.13,3.62,0,3.75a101.13,101.13,0,0,0,19.45.34c4.81-.38,11.38-.61,14-5.43a9.34,9.34,0,0,0,.74-7.08c-.77-2.44-2.83-3.56-5.13-4.3-3.06-1-6.16-1.87-9.24-2.8L284,435.62c-.71-.21-1.43-.41-2.13-.64s-1.19-.66-1.79-.87l-.23-.22,0,1c-.11-.1.88-1.11.95-1.18a12.7,12.7,0,0,1,1.55-1.28,13.37,13.37,0,0,1,3.73-1.84,13.65,13.65,0,0,1,8.41.07c1.14.39,1.35-3.29.4-3.62Z"/><path class="cls-1" d="M180.91,466.88l-4.78,2.36a12.33,12.33,0,0,0-3.82,2.54c-2.1,2.28-2.95,5.65-3.43,8.62-1.12,6.88.29,13.86,2.08,20.5.15.56.46,1.21,1,.67s.43-1.95.27-2.56c-1.5-5.53-2.91-11.41-2-17.17.4-2.52,1.2-5.47,3.23-7.19a18,18,0,0,1,3.67-2.11l4.16-2c.94-.47.61-4.12-.4-3.62Z"/><path class="cls-1" d="M185,501c1.55-.89,1.86-2.91,2-4.54.28-2.53.48-5.08.68-7.63s.37-5.09.52-7.64.12-5.15.4-7.68l-.34,1.12c.17-.31,2.84.16,3.27.2l3.23.28,6.72.59c1,.09,1.13-3.65,0-3.75l-10.95-1c-1.45-.13-2.84-.64-3.3,1.08s-.23,3.7-.32,5.41c-.19,3.62-.43,7.23-.72,10.85-.14,1.8-.3,3.61-.47,5.41-.12,1.24.07,2.94-1.16,3.65-.94.54-.54,4.15.4,3.61Z"/><path class="cls-1" d="M186.16,486.69a20.46,20.46,0,0,0,10.93.89c1.16-.23.9-3.93,0-3.75a19.77,19.77,0,0,1-10.53-.76c-.67-.24-.87.84-.92,1.31a4.42,4.42,0,0,0,.08,1.45c.06.24.18.76.44.86Z"/><path class="cls-1" d="M203.09,491c0,.42,0,.85,0,1.27,0,.19,0,.39,0,.58s0,.2,0,.29c0-.14,0-.14,0,0-.06.81-.11,1.62-.2,2.43-.18,1.66-.39,3-.71,4.56a3.44,3.44,0,0,0,.27,2.56c.49.67.93-.21,1-.67a59.06,59.06,0,0,0,1.18-11c0-.44-.07-1.87-.75-1.87s-.75,1.48-.75,1.87Z"/><path class="cls-1" d="M203.43,485.78c1.06,0,1.07-3.75,0-3.75s-1.07,3.75,0,3.75Z"/><path class="cls-1" d="M219.51,469.1c-3.79,10.8-1.62,22.23-3.56,33.3-.12.72-.28,2,.27,2.56s.93-.11,1-.67a109.06,109.06,0,0,0,1.13-16.45c.12-5.43.38-10.92,2.19-16.09a3.78,3.78,0,0,0,0-2.65c-.28-.61-.8-.74-1.06,0Z"/><path class="cls-1" d="M211.45,486a24.37,24.37,0,0,0,17.78.28c1-.35.73-4-.39-3.62a23.7,23.7,0,0,1-17-.27c-1.08-.45-1.36,3.22-.4,3.61Z"/><path class="cls-1" d="M230.25,490.38l-3.12,11.38a3.48,3.48,0,0,0,.19,2.42c.34.58.71.4,1-.15a23.87,23.87,0,0,1,8-9c.16-.11.43-.38.65-.31s.36.4.47.55a12.35,12.35,0,0,1,.78,1.2,9.38,9.38,0,0,1,.91,2.36,7.1,7.1,0,0,1-.31,4.56,3.72,3.72,0,0,0,0,2.65c.26.64.79.7,1.06,0a15.48,15.48,0,0,0-.56-12.16,11.15,11.15,0,0,0-1.57-2.4,1,1,0,0,0-1.16-.44,5.06,5.06,0,0,0-1.29.8,25.69,25.69,0,0,0-4.32,3.95,26,26,0,0,0-3.74,5.64l1.17,2.27,3.12-11.38a3.26,3.26,0,0,0-.27-2.56c-.52-.66-.9.2-1,.67Z"/><path class="cls-1" d="M246.6,498.77c3.07,0,6.66,0,9.1-2.2,1.51-1.33,2.15-4.18.6-5.75a10.47,10.47,0,0,0-4.51-2.58,4.89,4.89,0,0,0-4.33.76,6.93,6.93,0,0,0-2.28,4c-.85,3.92.68,7.51,2.68,10.8,1,1.58,2,3.22,4.11,3.1a13.29,13.29,0,0,0,3.17-.74,34.08,34.08,0,0,0,3.29-1.22c.95-.42.67-4.08-.4-3.62a28.21,28.21,0,0,1-4.48,1.54c-1.37.34-2.79.57-3.81-.62a18.62,18.62,0,0,1-2.15-3.45,15.83,15.83,0,0,1-.8-1.78,7.71,7.71,0,0,1-.24-.82c0-.07-.05-.21-.07-.3s-.06-.66,0-.35a2.23,2.23,0,0,1,.14-1,4.29,4.29,0,0,1,.67-1.27,3.83,3.83,0,0,1,3-1.47,6.83,6.83,0,0,1,3.68,1.17c.59.35,1.1.8,1.67,1.18.83.56-1.54-.09.23-1.73a4.15,4.15,0,0,0-.24.34,5.49,5.49,0,0,1-.75.62c-2.34,1.69-5.45,1.68-8.2,1.66-1,0-1.08,3.74,0,3.75Z"/><path class="cls-1" d="M274.53,486.67a23.63,23.63,0,0,0-4.12,1.1,7.31,7.31,0,0,0-3.33,1.85,4.43,4.43,0,0,0-.15,4.71A11.27,11.27,0,0,0,270,497c1,.7,2.19,1.19,3.22,1.88a8.33,8.33,0,0,1,1.13,1,.32.32,0,0,1,.1.18,2.52,2.52,0,0,1,0-1.16c-.18.1-.36.46-.52.61-1.59,1.56-4.38,3.53-6.64,2.23-.93-.53-1.35,3.07-.4,3.62,1.81,1,3.81.37,5.45-.68a12.1,12.1,0,0,0,2.41-2,4.77,4.77,0,0,0,1.14-3.52c-.09-2.15-1.33-3.45-3.13-4.44a26.39,26.39,0,0,1-2.76-1.64c-.43-.31-.84-.63-1.24-1-.2-.17-.4-.34-.59-.52-.53-.51-.49-1-.47.43s-.08.93.49.53a5.54,5.54,0,0,1,.62-.36c.57-.28,1.16-.52,1.75-.74a21,21,0,0,1,4-1.06c1.15-.2.92-3.91,0-3.75Z"/><path class="cls-1" d="M292.76,486a14.88,14.88,0,0,0-6.79,1.86,4.61,4.61,0,0,0-1,6.51c1.23,1.4,3.22,1.77,4.78,2.67a4.75,4.75,0,0,1,1,.73c.08.07.52.78.55.78s-.1-.4,0-.46-.12.39-.13.41a3.71,3.71,0,0,1-.76,1.11c-1.84,1.9-4.84,1.76-7.27,1.67-1,0-1.09,3.72,0,3.75,2.25.08,4.73.14,6.73-1.07a6.52,6.52,0,0,0,2.9-5.64,5.42,5.42,0,0,0-2.89-5c-.81-.43-1.68-.75-2.51-1.14a10.06,10.06,0,0,1-1.07-.59,3.24,3.24,0,0,1-.6-.45,2.33,2.33,0,0,0-.19-.23c-.19-.31-.21-.08-.05.68-.12.75-.11,1,0,.75.16-.07.36-.43.51-.55a4.9,4.9,0,0,1,.67-.45,10.24,10.24,0,0,1,1.85-.75,18.12,18.12,0,0,1,4.25-.8c1.1-.08,1-3.82,0-3.75Z"/><path class="cls-1" d="M315.05,480.84a130.22,130.22,0,0,0-1,22c0,.3.11,2,.75,1.88L326,502.16c1.16-.26.86-4,0-3.75L314.8,501l.75,1.87a124.7,124.7,0,0,1,.95-21c.07-.54.11-2-.53-2.31s-.87.91-.92,1.31Z"/><path class="cls-1" d="M315.27,493.54a22.4,22.4,0,0,0,12.46-2.62c.94-.51.57-4.14-.4-3.62a21.59,21.59,0,0,1-12.06,2.49c-1-.08-1.12,3.66,0,3.75Z"/><path class="cls-1" d="M316,482.87a40.36,40.36,0,0,0,14.31-2.43c.24-.09.4-.68.45-.86a4.16,4.16,0,0,0,.07-1.45c0-.48-.24-1.55-.92-1.31a39.22,39.22,0,0,1-13.91,2.3c-1.05,0-1.08,3.73,0,3.75Z"/><path class="cls-1" d="M340.32,503.44a21.93,21.93,0,0,0,.19-7.79c-.26-2.41-.52-4.66.35-7,.73-1.95,1.85-4,3.82-4.95,1.65-.78,4-.47,4.92,1.21.42.75.93-.3,1-.67a3.68,3.68,0,0,0-.26-2.57,4.51,4.51,0,0,0-5.27-1.89c-2.33.69-3.8,2.88-4.78,5a17.56,17.56,0,0,0-1.57,8.24c.13,2.8,1,5.76.28,8.53a3.34,3.34,0,0,0,.27,2.56c.53.62.9-.17,1-.67Z"/><path class="cls-1" d="M335.36,492.12l8.56.74c.26,0,.46-.38.53-.55a3.57,3.57,0,0,0,.22-1.33c0-.47-.06-1.81-.75-1.87l-8.56-.74c-.26,0-.46.38-.53.55a3.38,3.38,0,0,0-.22,1.33c0,.47.05,1.81.75,1.87Z"/><path class="cls-1" d="M356.37,503.51a7.45,7.45,0,0,0,.48-4.28c-.19-1.23-.7-2.4-.85-3.63a19.44,19.44,0,0,1,.33-4.3l.48-4.44a4.7,4.7,0,0,1,.87-2.8,3,3,0,0,1,2.93-.65c2.52.65,3.37,3.28,4,5.51.14.51.49,1.27,1,.67a3.34,3.34,0,0,0,.27-2.56c-.71-2.54-1.59-5.73-4.18-7a3.92,3.92,0,0,0-5.68,2.39,19,19,0,0,0-.78,4.38c-.18,1.67-.36,3.34-.55,5a15.4,15.4,0,0,0,.46,7.54c.09.32.18.65.24,1s.09.09-.11.5a3.57,3.57,0,0,0,0,2.65c.32.68.74.66,1.07,0Z"/><path class="cls-1" d="M352.1,494.31a51.24,51.24,0,0,1,9.65.94c.25.05.47-.41.53-.55a3.57,3.57,0,0,0,.22-1.33c0-.53-.05-1.74-.75-1.87a51.24,51.24,0,0,0-9.65-.94c-.67,0-.75,1.44-.75,1.88s.07,1.87.75,1.87Z"/><path class="cls-1" d="M370.62,499.67c1.41,0,2.85.16,4.26.07a4.56,4.56,0,0,0,3.3-1.46,5.37,5.37,0,0,0,.66-5.06,3.54,3.54,0,0,0-2.37-2.21,4.88,4.88,0,0,0-3.62.66,11.28,11.28,0,0,0-3,2.27,5.91,5.91,0,0,0-1.4,4.55,5.7,5.7,0,0,0,1.89,3.77c1.81,1.75,4.75,3.49,7.22,2.06.94-.55.54-4.16-.4-3.62-1.66,1-3.63.08-5.06-.93a8,8,0,0,1-2-1.86,3.13,3.13,0,0,1-.23-.44c-.1-.18,0,.15,0,.17a2.08,2.08,0,0,1,0,.43,1.26,1.26,0,0,1-.07.28s.07-.2.1-.26a3.23,3.23,0,0,1,.33-.51,8,8,0,0,1,2.08-1.77,6.08,6.08,0,0,1,2.84-1.17,2.8,2.8,0,0,1,2.18.69,1.66,1.66,0,0,1,.31.38c0-.07,0-.16,0,0a3.4,3.4,0,0,1-.07-.34c0-.17,0-.84.07-.84l0-.06c-.06.14-.07.17,0,.08a1.94,1.94,0,0,1-.34.47,4.21,4.21,0,0,1-3,.95c-1.25,0-2.5-.06-3.75-.09-.67,0-.76,1.45-.75,1.87s.06,1.86.75,1.88Z"/><path class="cls-1" d="M390.92,490.2c-1.48.68-3.11,1-4.62,1.59a5.64,5.64,0,0,0-1.83,1.18,5.42,5.42,0,0,0-1.45,3.12,8.34,8.34,0,0,0,2,7,4.34,4.34,0,0,0,4.09,1.05,5.13,5.13,0,0,0,3.76-3.72,3.3,3.3,0,0,0-.27-2.56c-.51-.69-.9.24-1,.67.11-.38,0,0-.07.14.1-.24-.06.1-.11.18a2.44,2.44,0,0,1-.5.58,4.43,4.43,0,0,1-1.46.87,4,4,0,0,1-3.38-.3,3.86,3.86,0,0,1-1.32-1.54c-.07-.16-.13-.33-.2-.49s0-.13,0-.07a2.81,2.81,0,0,1-.08-.31c-.09-.32,0-.11,0,0l0-.32c0,.38,0,.09,0,0,0,.21,0,.24,0,.1s0-.1,0,.06c0,0,.09-.28,0-.08,0-.09.07-.17.11-.26-.1.22.11-.16.14-.21a2.25,2.25,0,0,1,.51-.55,6.23,6.23,0,0,1,1.73-1c1.44-.57,3-.86,4.39-1.51.25-.11.4-.65.45-.86a4.12,4.12,0,0,0,.08-1.44c-.06-.43-.25-1.62-.93-1.31Z"/><path class="cls-1" d="M400.09,473.65a128,128,0,0,0-2.95,28.88c0,.44.06,1.87.75,1.87s.75-1.48.75-1.87a119.3,119.3,0,0,1,2.75-27,3.32,3.32,0,0,0-.27-2.57c-.53-.58-.91.13-1,.67Z"/><path class="cls-1" d="M391.91,488.22c4.83-.27,9.68-.32,14.52-.15,1,0,1.09-3.72,0-3.75-4.84-.17-9.69-.12-14.52.15-1.1.06-1,3.81,0,3.75Z"/><path class="cls-1" d="M411,471.22a51.46,51.46,0,0,1,5.65,8.3,19.38,19.38,0,0,1,1.87,10.23c-.21,3.37-.27,6.7-2.51,9.41-2.38,2.87-5,5.54-7.53,8.3-.67.73-.22,4.31.76,3.24l4.51-5a34.54,34.54,0,0,0,4-4.65c2.07-3.26,2.1-7.59,2.29-11.33a25.82,25.82,0,0,0-1.87-11.95,48.05,48.05,0,0,0-6.39-9.83c-.51-.65-.91.21-1,.68a3.35,3.35,0,0,0,.27,2.56Z"/><path class="cls-3" d="M87.56,315.08a358.22,358.22,0,0,1,21.3,32.41c.43.75.92-.29,1-.67a3.55,3.55,0,0,0-.26-2.56,357,357,0,0,0-21.3-32.42c-.49-.67-.91.22-1,.67a3.47,3.47,0,0,0,.27,2.57Z"/><path class="cls-3" d="M87.62,314.65c7.81-3.27,18.81-4.11,23.83,4.25,4.73,7.9,0,17.25-3.58,24.56a3.57,3.57,0,0,0,0,2.65c.31.68.74.66,1.06,0,3.54-7.24,7-15,5.73-23.24a17.56,17.56,0,0,0-4.25-9.57,15.85,15.85,0,0,0-9.59-4.67c-4.66-.62-9.32.61-13.6,2.41-1,.39-.69,4.06.4,3.61Z"/><path class="cls-3" d="M120.39,324.54a19.31,19.31,0,0,0,4.87-3.7,15.45,15.45,0,0,0,3.33-4.76,5.41,5.41,0,0,0,.09-3.7c-.4-1-1.16-1.09-2.13-1a16.71,16.71,0,0,0-5.59,1.21c-4.13,1.9-5,7-4.17,11a19.67,19.67,0,0,0,2.52,6.15,6.09,6.09,0,0,0,4.5,3.26c4.72.55,7.76-3.79,9.95-7.28a3.55,3.55,0,0,0,.27-2.56c-.1-.41-.57-1.41-1-.68-1.61,2.57-3.44,5.54-6.51,6.5a5.69,5.69,0,0,1-4.31-.22,7.66,7.66,0,0,1-2.79-3.5c-1.32-2.58-2.24-5.68.2-7.93a8.39,8.39,0,0,1,4.12-1.86c.68-.13,1.37-.22,2.06-.29.39,0,.78-.08,1.16-.1a4.35,4.35,0,0,0,.51,0c.59-.11.48-2.2,0-1.44a21.6,21.6,0,0,1-3.14,4.17,19.24,19.24,0,0,1-4.31,3.13c-.95.5-.58,4.13.4,3.61Z"/><path class="cls-3" d="M121.52,294.76l9.42,12,4.63,5.9,2.31,3c.4.51.81,1,1.19,1.52a8.46,8.46,0,0,1,.49.73c.26.69.33.63.21-.2a3.32,3.32,0,0,0,.27,2.57c.53.58.91-.13,1-.67.6-2.86-.57-4.82-2.28-7l-5.55-7.08-11-14c-.51-.64-.91.2-1,.67a3.37,3.37,0,0,0,.27,2.57Z"/><path class="cls-3" d="M142.22,305.26a37.82,37.82,0,0,0,5.37-4.14c1.49-1.38,3.3-2.9,3.72-5s-.25-4.46-2.58-4.86c-2-.33-4,.75-5.55,1.81a6.75,6.75,0,0,0-2.06,1.88,6,6,0,0,0-.68,3.7c.2,2.42.72,4.85,1.08,7.25l.52,3.37a12.75,12.75,0,0,0,.77,3.35c.95,2.14,3.08,2.07,5.12,2a21.66,21.66,0,0,0,7.33-1.52,5.64,5.64,0,0,0,3.62-4.57c.09-.56.09-2-.53-2.3s-.86.94-.92,1.31c0-.18-.22.29-.28.38a3.82,3.82,0,0,1-.64.63,7.45,7.45,0,0,1-1.65.93,18.93,18.93,0,0,1-4.93,1.21,14.6,14.6,0,0,1-4.89.1c-1.63-.38-1.52-2.27-1.73-3.61l-.8-5.25-.4-2.63c-.07-.42-.16-.84-.19-1.27s0,.08,0,.06.25-.31.4-.45a11.09,11.09,0,0,1,4.05-2.39,5.3,5.3,0,0,1,2.2-.23,2.66,2.66,0,0,1,.79.23c.58.28.69.89.61-.13s0-.65-.31-.23a6.54,6.54,0,0,1-.41.51c-.32.36-.65.7-1,1-.63.64-1.3,1.26-2,1.86a37.68,37.68,0,0,1-4.49,3.35c-.92.59-.47,4.17.4,3.61Z"/><path class="cls-3" d="M143.51,270a254.56,254.56,0,0,1,20.24,30.83c.42.76.93-.31,1-.67a3.68,3.68,0,0,0-.27-2.57,255.42,255.42,0,0,0-20.25-30.83c-.5-.65-.9.21-1,.67a3.37,3.37,0,0,0,.27,2.57Z"/><path class="cls-3" d="M145.78,284.79l13-9.31c.62-.45.6-1.65.53-2.31,0-.31-.32-1.74-.93-1.31l-13,9.32c-.62.44-.6,1.64-.52,2.3,0,.32.31,1.75.92,1.31Z"/><path class="cls-3" d="M169.85,289.3c2.62-1,5.44-2.28,6.22-5.22a4.47,4.47,0,0,0-.34-3.46,3.19,3.19,0,0,0-1.95-1,8.09,8.09,0,0,0-3.59-.3,3.67,3.67,0,0,0-2.83,2.54,14.27,14.27,0,0,0-.53,2.74,26.47,26.47,0,0,0-.26,3.08c0,3,.86,7,4.15,8,3,.93,6.07-1.41,7.55-3.83a3.52,3.52,0,0,0,.27-2.57c-.09-.4-.57-1.41-1-.67-1.57,2.57-5.53,5-8.18,2.44a4.64,4.64,0,0,1-.69-.91,4.43,4.43,0,0,1-.41-1,5.89,5.89,0,0,1-.11-2.38c.15-1.57.06-3.28,1.92-3.73a6.65,6.65,0,0,1,2.63,0c.43.08.84.18,1.26.29s.91.2,1.11.58l-.27-.67c-.37-1.36.27-1.73-.08-1,0-.07-.12.19-.13.2a4,4,0,0,1-.53.7,7.29,7.29,0,0,1-1.28,1,17.32,17.32,0,0,1-3.31,1.5c-.24.09-.4.68-.45.87a4.35,4.35,0,0,0-.07,1.44c0,.48.24,1.56.92,1.31Z"/><path class="cls-3" d="M174,277.66c3.2,3.4,6.51,6.89,8.5,11.17.3.63.78.68,1.06,0a3.72,3.72,0,0,0,0-2.65c-1.26-2.84-2.62-5.65-3.79-8.53-.35-.85-.87-1.81-.32-2.66a2.55,2.55,0,0,1,2.91-1.15c.76.24,1.17-3.39,0-3.75a3.41,3.41,0,0,0-3.66,1.66,8.05,8.05,0,0,0-.8,6,26.25,26.25,0,0,0,2.07,5.45l2.53,5.66,1.06-2.65c-2.1-4.51-5.43-8.17-8.8-11.76-.54-.57-.9.14-1,.67a3.33,3.33,0,0,0,.27,2.57Z"/><path class="cls-3" d="M187.79,268.49l8.59,9.85c.52.59.91-.16,1-.68a4.1,4.1,0,0,0,.08-1.44,2.18,2.18,0,0,0-.35-1.12l-8.59-9.85c-.52-.59-.91.16-1,.67a4.16,4.16,0,0,0-.08,1.45,2.18,2.18,0,0,0,.35,1.12Z"/><path class="cls-3" d="M183.74,263.71c1,0,1.07-3.75,0-3.75s-1.08,3.75,0,3.75Z"/><path class="cls-3" d="M196.85,255.18a14.54,14.54,0,0,0-1.27,10.49c.69,2.66,2.65,6.35,5.95,5.88a8.57,8.57,0,0,0,4.11-2.33,12.39,12.39,0,0,0,2.94-3.35,8.2,8.2,0,0,0-1.27-9.45c-2.62-2.7-6.7-3.15-10.14-1.94-.24.08-.4.68-.45.86a4.37,4.37,0,0,0-.07,1.44c0,.49.24,1.56.92,1.31a9.38,9.38,0,0,1,7.65.6,6.85,6.85,0,0,1,2.35,2.22,4.72,4.72,0,0,1,.45,1c-.05-.18,0,.31,0,.08s-.05.28,0,.07-.08.23-.11.3a7.2,7.2,0,0,1-2,2.67,15.29,15.29,0,0,1-2.94,2.25,3.53,3.53,0,0,1-3.42.17,5.28,5.28,0,0,1-2.14-2.32,7.36,7.36,0,0,1-.74-3.37,8.15,8.15,0,0,1,1-3.35,3.68,3.68,0,0,0,.26-2.57c-.08-.37-.6-1.44-1-.67Z"/><path class="cls-3" d="M206.37,249.59l5.72,6.13,2.81,3c.78.83,1.59,1.5,2.52.47,3.29-3.62,3.79-9.58,2.12-14a12.39,12.39,0,0,0-4.56-5.86c-.55-.38-.83.8-.88,1.09a3.27,3.27,0,0,0,.3,2.34l8.77,10.88c.51.63.91-.19,1-.67a3.42,3.42,0,0,0-.27-2.57l-8.77-10.88-.58,3.43a10.29,10.29,0,0,1,4,5.13,7.48,7.48,0,0,1-.53,5.84,9.55,9.55,0,0,1-.9,1.46c-.34.45-.61.88-1.16.42a30.08,30.08,0,0,1-2.9-3.07l-6-6.37c-.53-.58-.89.14-1,.67a3.33,3.33,0,0,0,.27,2.57Z"/><path class="cls-3" d="M223.14,228a7.81,7.81,0,0,0-3.13,1.81,5.5,5.5,0,0,0-1.29,3.84,6.5,6.5,0,0,0,3.81,6,11.61,11.61,0,0,0,4.09.7,19.77,19.77,0,0,1,4.42.15c.18.05.44.27.6.29.07-1.07,0-1.42-.11-1.06l-.09.23a10.28,10.28,0,0,1-1.15,1.56,29.3,29.3,0,0,1-3.25,3.15,2.77,2.77,0,0,0-.53,2.31c0,.27.35,1.79.93,1.31a33.47,33.47,0,0,0,3.21-3.09,8.45,8.45,0,0,0,2.13-3.39,5.22,5.22,0,0,0-.42-4.29c-.77-1-2.32-.89-3.45-.91-2.65,0-5.81.27-7.82-1.82a5.26,5.26,0,0,1-.83-1.22c-.19-.37-.09-.2,0,.13s-.06.27,0,0a2.11,2.11,0,0,1,.21-.31,6.62,6.62,0,0,1,3.08-1.79c.94-.35.72-4-.4-3.62Z"/><path class="cls-2" d="M330.15,235.88q-8.44,11.16-17.56,21.77a3.33,3.33,0,0,0-.27,2.57c.13.51.5,1.29,1,.67q9.12-10.6,17.55-21.78a3.34,3.34,0,0,0,.27-2.56c-.12-.47-.52-1.34-1-.67Z"/><path class="cls-2" d="M330.68,237.93c1.54.85,3.31,2.06,3.87,3.83.48,1.48-1.14,2.62-2.38,3a11,11,0,0,1-4.68.24c-2-.24-4-.63-6-.95-1.17-.19-.69,3.22-.2,3.68a33.65,33.65,0,0,1,4.23,4.77,5.9,5.9,0,0,1,.89,1.43c.13-.2.12-.15,0,.14a4.38,4.38,0,0,1-.37.58,5.13,5.13,0,0,1-2.08,1.48c-3.75,1.6-8.62,1.21-12.47.24-.82-.21-1.17,3.45,0,3.75a24.46,24.46,0,0,0,8.69.61c2.4-.28,5.06-.82,6.61-2.85,3.79-4.93-1.67-10.54-5.09-13.77l-.2,3.69a58.17,58.17,0,0,0,7.65,1.07c2.05,0,4.24-.35,5.63-2,1.63-1.92,1.72-4.95,1-7.27a9.25,9.25,0,0,0-4.71-5.32c-.95-.52-1.35,3.09-.4,3.61Z"/><path class="cls-2" d="M330.51,263a15.37,15.37,0,0,0,4.34,1.67,8.42,8.42,0,0,0,3.8.16,3.48,3.48,0,0,0,2.57-2,4,4,0,0,0-3.76-5.95,12.94,12.94,0,0,0-4.68.45,6.35,6.35,0,0,0-3.23,2.22,6.87,6.87,0,0,0-1.15,4.81,6.69,6.69,0,0,0,2.31,4.5,9.76,9.76,0,0,0,4.64,1.84c.91.15,1.16-3.56,0-3.75-2-.34-4.37-1.09-5.33-3.06a3.05,3.05,0,0,1-.13-.32c.06.16-.09-.27,0-.08s0-.28,0-.06a1.29,1.29,0,0,0,0,.28c0,.22.07-.27,0,0a1.43,1.43,0,0,1,.12-.31,2.82,2.82,0,0,1,.35-.57,5.11,5.11,0,0,1,2.28-1.63,10.24,10.24,0,0,1,3.73-.55,8,8,0,0,1,2.71.3,2.77,2.77,0,0,1,1,.56c.16.16.11.29.09,0a2.72,2.72,0,0,1,0-1.1c.07-.2.14-.22,0-.12a3.75,3.75,0,0,1-1.89.93,9.51,9.51,0,0,1-3.56-.29,13.89,13.89,0,0,1-3.75-1.5c-.93-.53-1.35,3.08-.4,3.62Z"/><path class="cls-2" d="M348.16,261.5,339.69,272l1.1,2.12c.24-1.51,1.92-3,3.27-3.75a20.06,20.06,0,0,1,6.64-2l-.65-2.82a50.23,50.23,0,0,1-3.92,10.31,3.52,3.52,0,0,0,0,2.65c.29.71.74.62,1.06,0a53.31,53.31,0,0,0,4.15-11.07,3.9,3.9,0,0,0,0-1.89c0-.23-.26-1-.64-.93-2.6.46-5.34.94-7.57,2.43a8.63,8.63,0,0,0-3.78,6c-.08.48.22,3.21,1.1,2.12l8.46-10.49a3.32,3.32,0,0,0,.27-2.57c-.12-.49-.5-1.31-1-.67Z"/><path class="cls-2" d="M356.44,278.67a26.77,26.77,0,0,0,4.43,4,10.29,10.29,0,0,0,5,2.27,3.91,3.91,0,0,0,3.89-2.33,6.16,6.16,0,0,0-.9-6.15,8.73,8.73,0,0,0-4.73-2.28,9.62,9.62,0,0,0-5.84.09c-3.93,1.53-4.28,6.26-3.23,9.81a11.36,11.36,0,0,0,7.38,7.75c.75.24,1.17-3.38,0-3.75a9.79,9.79,0,0,1-5.57-4.69,8.83,8.83,0,0,1-.57-1.39,4.64,4.64,0,0,1-.25-1.39c0-1,1-1.89,1.89-2.37a7.08,7.08,0,0,1,4.33-.66,14.42,14.42,0,0,1,4.38,1.17,4.8,4.8,0,0,1,1.6,1.11,3.73,3.73,0,0,1,.4.63c.21.37,0,.13,0,0a4.86,4.86,0,0,1,0-.55,8.09,8.09,0,0,1-.59.66,3.48,3.48,0,0,1-.68.38,3.63,3.63,0,0,1-1.93.19,10.64,10.64,0,0,1-4.46-2.24,24.55,24.55,0,0,1-3.86-3.49c-.53-.59-.9.16-1,.67a3.37,3.37,0,0,0,.27,2.57Z"/><path class="cls-2" d="M370.42,297.68c2.69-2.61,4.1-6.38,6.12-9.5a77.53,77.53,0,0,1,7.18-9.37,49.46,49.46,0,0,1,8.44-8.05,7.35,7.35,0,0,1,5-1.52,5,5,0,0,1,2.24.9c.45.32,1.19,1.1,1.19,1.36,0,.44.07,1.87.75,1.87s.76-1.48.75-1.87a6,6,0,0,0-2-4.78,5.85,5.85,0,0,0-4.61-1.19c-4.06.72-7.27,4.52-10,7.33a82,82,0,0,0-8.27,9.95c-1.23,1.76-2.39,3.57-3.45,5.44s-2.08,4.2-3.75,5.82a2.83,2.83,0,0,0-.52,2.3c0,.24.39,1.84.92,1.31Z"/><path class="cls-2" d="M379.17,274.46l8.77,7.57c.21.18.47,0,.58-.19a2.49,2.49,0,0,0,.35-1.12,2.86,2.86,0,0,0-.53-2.31l-8.77-7.57c-.21-.17-.46,0-.58.19a2.48,2.48,0,0,0-.34,1.12,2.81,2.81,0,0,0,.52,2.31Z"/><path class="cls-2" d="M385.78,292.1l-4.8,6.18a2.53,2.53,0,0,0-.35,1.12,4.16,4.16,0,0,0,.08,1.45c.13.47.51,1.33,1,.67l4.79-6.18a2.45,2.45,0,0,0,.35-1.12,4.1,4.1,0,0,0-.08-1.44c-.12-.48-.51-1.34-1-.68Z"/><path class="cls-2" d="M390.27,292.1c1.06,0,1.07-3.75,0-3.75s-1.07,3.75,0,3.75Z"/><path class="cls-2" d="M399.79,298.05c-3.94-.16-8-2.16-11.8-.19a6,6,0,0,0-3.14,3.93,6.92,6.92,0,0,0,1.32,6.14c1.59,1.78,3.89,2.32,6.14,2.78.87.18,1.16-3.51,0-3.75-2-.4-4.26-.86-5.6-2.52a6.42,6.42,0,0,1-.58-1c.11,0-.16.64,0,.23a4.19,4.19,0,0,1,1.48-1.7c3.66-2.56,8.16-.29,12.15-.13,1,0,1.1-3.71,0-3.75Z"/><path class="cls-2" d="M407.24,302a39.06,39.06,0,0,1-10.19,8.85c-.93.57-.51,4.17.4,3.62A40.85,40.85,0,0,0,408,305.27a3.32,3.32,0,0,0,.27-2.57c-.12-.49-.51-1.31-1-.67Z"/><path class="cls-2" d="M412,298.59c1.06,0,1.07-3.75,0-3.75s-1.07,3.75,0,3.75Z"/><path class="cls-2" d="M416.45,310.65c-2.08-.65-4.43-1.27-6.52-.33S407,313.8,406.77,316a22,22,0,0,0,0,3.72c.07,1.16.19,2.71,1.22,3.46,1.89,1.37,4.54-.2,5.81-1.66,1.94-2.24,2.23-5.51,2.45-8.34,0-.63.1-1.74-.44-2.21s-.83.35-.93.77l-4,15.43a3.3,3.3,0,0,0,.27,2.56c.52.65.91-.2,1-.67l4-15.43-1.37-1.44c-.17,2.21-.3,4.68-2,6.33a4.57,4.57,0,0,1-2.91,1.37,2.2,2.2,0,0,1-1.51-.33c-.22-.24-.17-.69-.19-1.06a7.18,7.18,0,0,1,.16-2.37,3.37,3.37,0,0,1,1.65-2c1.94-1.07,4.47-.3,6.43.31.77.24,1.18-3.38,0-3.75Z"/><path class="cls-2" d="M439.39,302.11,433,310.93a50,50,0,0,1-6.35,7.77c-3.85,3.53-8.33,6.37-9.89,11.63a3.19,3.19,0,0,0,.27,2.57c.55.6.87-.16,1-.67,1.43-4.82,6.7-7.54,10-10.9a61.7,61.7,0,0,0,5.82-7.36l6.27-8.62a3.33,3.33,0,0,0,.27-2.57c-.11-.45-.53-1.35-1-.67Z"/></g></g></svg>